<?xml version="1.0" ?>
<!-- License: CC Attribution. Made by Gokce Kurt: https://dribbble.com/gokcekurt -->
<svg width="800px" height="800px" viewBox="0 0 28 28" fill="none" xmlns="http://www.w3.org/2000/svg">
  <path d="M4 7C4 6.44771 4.44772 6 5 6H24C24.5523 6 25 6.44771 25 7C25 7.55229 24.5523 8 24 8H5C4.44772 8 4 7.55229 4 7Z" fill="#FFFFFF"/>
  <path d="M4 14C4 13.4477 4.44772 13 5 13H24C24.5523 13 25 13.4477 25 14C25 14.5523 24.5523 15 24 15H5C4.44772 15 4 14.5523 4 14Z" fill="#FFFFFF"/>
  <path d="M4 21C4 20.4477 4.44772 20 5 20H24C24.5523 20 25 20.4477 25 21C25 21.5523 24.5523 22 24 22H5C4.44772 22 4 21.5523 4 21Z" fill="#FFFFFF"/>
</svg>
