<svg xmlns="http://www.w3.org/2000/svg" xmlns:xlink="http://www.w3.org/1999/xlink" width="206" zoomAndPan="magnify" viewBox="0 0 154.5 60" height="80" preserveAspectRatio="xMidYMid meet" version="1.0"><defs><g/></defs><g fill="#7b836c" fill-opacity="1"><g transform="translate(15.423181, 42.772716)"><g><path d="M 17.140625 -5.03125 C 15.460938 -4.988281 13.832031 -5.007812 12.25 -5.09375 C 10.675781 -5.175781 9.070312 -5.21875 7.4375 -5.21875 L 7.40625 -5.265625 C 7.351562 -5.847656 7.304688 -6.582031 7.265625 -7.46875 C 7.234375 -8.363281 7.28125 -9.171875 7.40625 -9.890625 C 7.53125 -9.984375 7.765625 -10.039062 8.109375 -10.0625 C 8.453125 -10.09375 8.835938 -10.109375 9.265625 -10.109375 C 9.703125 -10.109375 10.15625 -10.113281 10.625 -10.125 C 11.09375 -10.132812 11.515625 -10.191406 11.890625 -10.296875 C 11.859375 -11.210938 11.867188 -12.085938 11.921875 -12.921875 C 11.972656 -13.765625 11.9375 -14.601562 11.8125 -15.4375 L 11.8125 -15.484375 C 11.050781 -15.503906 10.285156 -15.515625 9.515625 -15.515625 C 8.753906 -15.515625 8.003906 -15.539062 7.265625 -15.59375 L 7.21875 -15.625 C 7.050781 -16.289062 7.007812 -17 7.09375 -17.75 C 7.175781 -18.507812 7.207031 -19.242188 7.1875 -19.953125 L 7.21875 -20 L 7.328125 -20 C 8.140625 -20.070312 8.953125 -20.109375 9.765625 -20.109375 C 10.585938 -20.109375 11.40625 -20.101562 12.21875 -20.09375 C 13.03125 -20.082031 13.835938 -20.09375 14.640625 -20.125 C 15.441406 -20.164062 16.238281 -20.269531 17.03125 -20.4375 L 17.03125 -20.484375 C 17.03125 -21.347656 17.0625 -22.222656 17.125 -23.109375 C 17.1875 -23.992188 17.15625 -24.867188 17.03125 -25.734375 C 17.03125 -25.765625 16.78125 -25.789062 16.28125 -25.8125 C 15.789062 -25.832031 15.140625 -25.84375 14.328125 -25.84375 C 13.515625 -25.84375 12.578125 -25.832031 11.515625 -25.8125 C 10.453125 -25.789062 9.351562 -25.765625 8.21875 -25.734375 C 7.082031 -25.710938 5.953125 -25.679688 4.828125 -25.640625 C 3.703125 -25.609375 2.660156 -25.566406 1.703125 -25.515625 C 1.578125 -23.390625 1.5 -21.273438 1.46875 -19.171875 C 1.445312 -17.078125 1.445312 -14.976562 1.46875 -12.875 C 1.5 -10.78125 1.539062 -8.675781 1.59375 -6.5625 C 1.644531 -4.457031 1.671875 -2.332031 1.671875 -0.1875 C 4.066406 0.0078125 6.566406 0.0664062 9.171875 -0.015625 C 11.773438 -0.0976562 14.332031 -0.128906 16.84375 -0.109375 C 17.039062 -0.847656 17.148438 -1.644531 17.171875 -2.5 C 17.203125 -3.351562 17.191406 -4.175781 17.140625 -4.96875 Z M 17.140625 -5.03125 "/></g></g></g><g fill="#7b836c" fill-opacity="1"><g transform="translate(32.050032, 42.772716)"><g><path d="M 10.8125 -13.296875 C 11.257812 -14.328125 11.773438 -15.359375 12.359375 -16.390625 C 12.953125 -17.429688 13.550781 -18.472656 14.15625 -19.515625 C 14.769531 -20.554688 15.335938 -21.59375 15.859375 -22.625 C 16.390625 -23.664062 16.804688 -24.703125 17.109375 -25.734375 C 16.316406 -25.859375 15.472656 -25.894531 14.578125 -25.84375 C 13.691406 -25.800781 12.859375 -25.800781 12.078125 -25.84375 C 11.554688 -25.101562 11.09375 -24.363281 10.6875 -23.625 C 10.28125 -22.882812 9.882812 -22.144531 9.5 -21.40625 C 9.113281 -20.664062 8.710938 -19.9375 8.296875 -19.21875 C 7.878906 -18.5 7.410156 -17.804688 6.890625 -17.140625 C 6.835938 -17.097656 6.789062 -17.046875 6.75 -16.984375 C 6.71875 -16.921875 6.703125 -16.898438 6.703125 -16.921875 C 6.648438 -18.328125 6.632812 -19.804688 6.65625 -21.359375 C 6.6875 -22.921875 6.675781 -24.40625 6.625 -25.8125 C 5.832031 -25.8125 5.007812 -25.828125 4.15625 -25.859375 C 3.3125 -25.898438 2.484375 -25.910156 1.671875 -25.890625 C 1.691406 -21.566406 1.632812 -17.257812 1.5 -12.96875 C 1.363281 -8.6875 1.394531 -4.425781 1.59375 -0.1875 C 1.914062 -0.113281 2.316406 -0.0507812 2.796875 0 C 3.273438 0.0507812 3.773438 0.078125 4.296875 0.078125 C 4.816406 0.078125 5.3125 0.0546875 5.78125 0.015625 C 6.25 -0.015625 6.65625 -0.0820312 7 -0.1875 C 7 -0.875 6.992188 -1.625 6.984375 -2.4375 C 6.972656 -3.257812 6.953125 -4.085938 6.921875 -4.921875 C 6.898438 -5.765625 6.878906 -6.597656 6.859375 -7.421875 C 6.847656 -8.253906 6.859375 -9.023438 6.890625 -9.734375 C 7.285156 -9.046875 7.679688 -8.269531 8.078125 -7.40625 C 8.472656 -6.539062 8.875 -5.660156 9.28125 -4.765625 C 9.6875 -3.878906 10.109375 -3.023438 10.546875 -2.203125 C 10.992188 -1.378906 11.476562 -0.671875 12 -0.078125 C 12.789062 -0.046875 13.644531 -0.0078125 14.5625 0.03125 C 15.488281 0.0820312 16.347656 0.0234375 17.140625 -0.140625 Z M 10.8125 -13.296875 "/></g></g></g><g fill="#7b836c" fill-opacity="1"><g transform="translate(47.862198, 42.772716)"><g><path d="M 16.484375 -25.328125 C 16.054688 -25.398438 15.613281 -25.441406 15.15625 -25.453125 C 14.707031 -25.472656 14.253906 -25.484375 13.796875 -25.484375 C 13.335938 -25.484375 12.882812 -25.488281 12.4375 -25.5 C 12 -25.507812 11.566406 -25.5625 11.140625 -25.65625 C 11.097656 -25.65625 11.078125 -25.632812 11.078125 -25.59375 C 10.804688 -24.550781 10.570312 -23.4375 10.375 -22.25 C 10.175781 -21.070312 9.960938 -19.773438 9.734375 -18.359375 C 9.515625 -16.953125 9.253906 -15.414062 8.953125 -13.75 C 8.660156 -12.082031 8.28125 -10.253906 7.8125 -8.265625 C 7.320312 -10.253906 6.957031 -12.1875 6.71875 -14.0625 C 6.488281 -15.945312 6.320312 -17.664062 6.21875 -19.21875 C 6.125 -20.769531 6.0625 -22.101562 6.03125 -23.21875 C 6.007812 -24.332031 5.945312 -25.132812 5.84375 -25.625 C 5.644531 -25.675781 5.285156 -25.710938 4.765625 -25.734375 C 4.253906 -25.765625 3.710938 -25.769531 3.140625 -25.75 C 2.578125 -25.738281 2.046875 -25.695312 1.546875 -25.625 C 1.054688 -25.550781 0.738281 -25.425781 0.59375 -25.25 L 0.59375 -25.21875 C 0.9375 -20.945312 1.46875 -16.707031 2.1875 -12.5 C 2.90625 -8.289062 3.816406 -4.1875 4.921875 -0.1875 C 5.316406 -0.0625 5.789062 0.015625 6.34375 0.046875 C 6.90625 0.0859375 7.457031 0.109375 8 0.109375 C 8.519531 0.109375 8.988281 0.0820312 9.40625 0.03125 C 9.820312 -0.0078125 10.128906 -0.03125 10.328125 -0.03125 C 10.921875 -2.1875 11.488281 -4.304688 12.03125 -6.390625 C 12.570312 -8.472656 13.101562 -10.550781 13.625 -12.625 C 14.144531 -14.695312 14.644531 -16.78125 15.125 -18.875 C 15.601562 -20.976562 16.054688 -23.128906 16.484375 -25.328125 Z M 16.484375 -25.328125 "/></g></g></g><g fill="#7b836c" fill-opacity="1"><g transform="translate(62.970784, 42.772716)"><g><path d="M 13.40625 -13 C 13.300781 -13.414062 13.160156 -13.984375 12.984375 -14.703125 C 12.816406 -15.421875 12.632812 -16.210938 12.4375 -17.078125 C 12.238281 -17.941406 12.035156 -18.84375 11.828125 -19.78125 C 11.617188 -20.71875 11.421875 -21.597656 11.234375 -22.421875 C 11.054688 -23.242188 10.882812 -23.984375 10.71875 -24.640625 C 10.5625 -25.296875 10.445312 -25.785156 10.375 -26.109375 C 9.550781 -26.035156 8.882812 -25.988281 8.375 -25.96875 C 7.875 -25.957031 7.460938 -25.953125 7.140625 -25.953125 C 6.828125 -25.953125 6.570312 -25.953125 6.375 -25.953125 C 6.175781 -25.953125 5.988281 -25.941406 5.8125 -25.921875 C 5.21875 -23.941406 4.671875 -21.953125 4.171875 -19.953125 C 3.679688 -17.953125 3.226562 -16.023438 2.8125 -14.171875 C 2.394531 -12.328125 2.03125 -10.582031 1.71875 -8.9375 C 1.414062 -7.300781 1.148438 -5.851562 0.921875 -4.59375 C 0.703125 -3.332031 0.53125 -2.304688 0.40625 -1.515625 C 0.28125 -0.722656 0.191406 -0.242188 0.140625 -0.078125 C 0.171875 -0.046875 0.195312 -0.03125 0.21875 -0.03125 C 1.894531 -0.0625 3.128906 -0.0507812 3.921875 0 C 4.710938 0.0507812 5.207031 0.0507812 5.40625 0 C 5.425781 0 5.441406 -0.00390625 5.453125 -0.015625 C 5.472656 -0.0234375 5.492188 -0.03125 5.515625 -0.03125 C 5.734375 -0.457031 5.90625 -0.941406 6.03125 -1.484375 C 6.15625 -2.023438 6.269531 -2.582031 6.375 -3.15625 C 6.488281 -3.738281 6.601562 -4.296875 6.71875 -4.828125 C 6.832031 -5.359375 6.972656 -5.820312 7.140625 -6.21875 C 7.410156 -6.21875 7.625 -6.222656 7.78125 -6.234375 C 7.945312 -6.253906 8.097656 -6.265625 8.234375 -6.265625 C 8.367188 -6.265625 8.523438 -6.265625 8.703125 -6.265625 C 8.878906 -6.265625 9.125 -6.238281 9.4375 -6.1875 C 9.613281 -5.8125 9.773438 -5.363281 9.921875 -4.84375 C 10.066406 -4.332031 10.207031 -3.789062 10.34375 -3.21875 C 10.476562 -2.65625 10.613281 -2.097656 10.75 -1.546875 C 10.894531 -1.003906 11.039062 -0.535156 11.1875 -0.140625 L 11.21875 -0.140625 C 12.007812 0.0234375 12.847656 0.125 13.734375 0.15625 C 14.628906 0.195312 15.445312 0.144531 16.1875 0 L 16.1875 -0.03125 Z M 9.625 -10.59375 C 9.15625 -10.59375 8.6875 -10.582031 8.21875 -10.5625 C 7.75 -10.550781 7.304688 -10.5625 6.890625 -10.59375 C 7.054688 -11.851562 7.207031 -13.023438 7.34375 -14.109375 C 7.476562 -15.191406 7.601562 -16.09375 7.71875 -16.8125 C 7.832031 -17.53125 7.957031 -18.003906 8.09375 -18.234375 C 8.226562 -18.472656 8.363281 -18.378906 8.5 -17.953125 C 8.632812 -17.535156 8.789062 -16.734375 8.96875 -15.546875 C 9.15625 -14.367188 9.375 -12.71875 9.625 -10.59375 Z M 9.625 -10.59375 "/></g></g></g><g fill="#d8a4a2" fill-opacity="1"><g transform="translate(75.677488, 44.384719)"><g><path d="M 9.578125 -12.5 C 9.910156 -11.894531 10.078125 -11.234375 10.078125 -10.515625 L 10.0625 -10.171875 C 10.0625 -9.703125 9.972656 -9.15625 9.796875 -8.53125 C 9.753906 -8.320312 9.625 -8.21875 9.40625 -8.21875 L 6.5625 -8.21875 C 6.4375 -8.21875 6.335938 -8.257812 6.265625 -8.34375 C 6.191406 -8.425781 6.15625 -8.519531 6.15625 -8.625 C 6.15625 -8.695312 6.160156 -8.75 6.171875 -8.78125 L 6.484375 -9.9375 C 6.566406 -10.375 6.609375 -10.675781 6.609375 -10.84375 C 6.609375 -10.976562 6.585938 -11.09375 6.546875 -11.1875 C 6.453125 -11.351562 6.320312 -11.4375 6.15625 -11.4375 C 5.695312 -11.4375 5.28125 -11.128906 4.90625 -10.515625 C 4.53125 -9.910156 4.234375 -9.171875 4.015625 -8.296875 C 3.804688 -7.429688 3.703125 -6.625 3.703125 -5.875 C 3.703125 -5.1875 3.78125 -4.566406 3.9375 -4.015625 C 4.09375 -3.460938 4.394531 -3.144531 4.84375 -3.0625 C 5.332031 -3 5.8125 -3.195312 6.28125 -3.65625 C 6.300781 -3.6875 6.394531 -3.796875 6.5625 -3.984375 L 6.8125 -4.34375 C 7.050781 -4.695312 7.320312 -5.128906 7.625 -5.640625 C 7.707031 -5.765625 7.828125 -5.828125 7.984375 -5.828125 C 8.097656 -5.828125 8.195312 -5.785156 8.28125 -5.703125 L 9.515625 -4.421875 C 9.578125 -4.347656 9.609375 -4.257812 9.609375 -4.15625 C 9.609375 -4.0625 9.597656 -3.992188 9.578125 -3.953125 C 8.984375 -2.859375 8.441406 -2.070312 7.953125 -1.59375 C 6.890625 -0.53125 5.710938 0 4.421875 0 C 3.941406 0 3.46875 -0.0664062 3 -0.203125 C 2.03125 -0.460938 1.253906 -1.113281 0.671875 -2.15625 C 0.0859375 -3.195312 -0.203125 -4.4375 -0.203125 -5.875 C -0.203125 -8.570312 0.664062 -10.867188 2.40625 -12.765625 C 3.320312 -13.785156 4.523438 -14.296875 6.015625 -14.296875 C 6.160156 -14.296875 6.382812 -14.28125 6.6875 -14.25 C 7.3125 -14.1875 7.867188 -14.007812 8.359375 -13.71875 C 8.859375 -13.4375 9.265625 -13.03125 9.578125 -12.5 Z M 6.875 -14.03125 C 6.820312 -13.988281 6.796875 -13.953125 6.796875 -13.921875 C 6.867188 -13.867188 6.921875 -13.84375 6.953125 -13.84375 C 6.960938 -13.84375 7.007812 -13.859375 7.09375 -13.890625 C 7.144531 -13.898438 7.207031 -13.90625 7.28125 -13.90625 L 7.203125 -13.96875 C 7.160156 -13.976562 7.101562 -13.984375 7.03125 -13.984375 Z M 7.03125 -13.546875 C 7.007812 -13.597656 7.023438 -13.628906 7.078125 -13.640625 C 7.117188 -13.648438 7.1875 -13.65625 7.28125 -13.65625 C 7.289062 -13.675781 7.316406 -13.710938 7.359375 -13.765625 L 7.484375 -13.8125 C 7.535156 -13.832031 7.578125 -13.859375 7.609375 -13.890625 C 7.578125 -13.910156 7.535156 -13.921875 7.484375 -13.921875 C 7.429688 -13.921875 7.398438 -13.929688 7.390625 -13.953125 C 7.359375 -13.921875 7.347656 -13.898438 7.359375 -13.890625 C 7.378906 -13.847656 7.378906 -13.820312 7.359375 -13.8125 C 7.296875 -13.78125 7.253906 -13.75 7.234375 -13.71875 C 7.210938 -13.695312 7.179688 -13.6875 7.140625 -13.6875 C 7.085938 -13.6875 7.050781 -13.675781 7.03125 -13.65625 C 7.007812 -13.65625 6.988281 -13.660156 6.96875 -13.671875 C 6.957031 -13.679688 6.945312 -13.6875 6.9375 -13.6875 C 6.914062 -13.707031 6.914062 -13.726562 6.9375 -13.75 C 6.9375 -13.757812 6.921875 -13.78125 6.890625 -13.8125 C 6.804688 -13.789062 6.738281 -13.753906 6.6875 -13.703125 C 6.757812 -13.671875 6.78125 -13.632812 6.75 -13.59375 L 7.015625 -13.484375 L 7.015625 -13.515625 C 7.015625 -13.535156 7.019531 -13.546875 7.03125 -13.546875 Z M 4.703125 -13.71875 C 4.703125 -13.71875 4.695312 -13.722656 4.6875 -13.734375 C 4.6875 -13.742188 4.6875 -13.753906 4.6875 -13.765625 L 4.6875 -13.8125 L 4.375 -13.8125 C 4.445312 -13.8125 4.492188 -13.796875 4.515625 -13.765625 C 4.546875 -13.765625 4.5625 -13.75 4.5625 -13.71875 L 4.5625 -13.703125 L 4.625 -13.6875 C 4.664062 -13.6875 4.6875 -13.691406 4.6875 -13.703125 Z M 5.171875 -13.71875 L 5.25 -13.8125 L 5.078125 -13.8125 L 5.078125 -13.71875 Z M 7.765625 -13.6875 L 7.765625 -13.640625 L 7.875 -13.640625 L 7.875 -13.6875 Z M 5.34375 -13.484375 L 5.421875 -13.546875 C 5.367188 -13.554688 5.34375 -13.585938 5.34375 -13.640625 L 5.21875 -13.640625 C 5.1875 -13.640625 5.171875 -13.625 5.171875 -13.59375 C 5.171875 -13.570312 5.195312 -13.546875 5.25 -13.515625 Z M 6.578125 -13.453125 C 6.648438 -13.441406 6.6875 -13.421875 6.6875 -13.390625 L 6.703125 -13.453125 C 6.734375 -13.484375 6.734375 -13.515625 6.703125 -13.546875 C 6.679688 -13.546875 6.640625 -13.515625 6.578125 -13.453125 Z M 5.296875 -13.359375 C 5.265625 -13.378906 5.25 -13.398438 5.25 -13.421875 L 5.171875 -13.421875 C 5.128906 -13.378906 5.101562 -13.359375 5.09375 -13.359375 C 5.101562 -13.359375 5.113281 -13.351562 5.125 -13.34375 C 5.144531 -13.332031 5.164062 -13.328125 5.1875 -13.328125 C 5.21875 -13.316406 5.253906 -13.3125 5.296875 -13.3125 Z M 5.078125 -12.890625 L 5.046875 -12.84375 L 5.09375 -12.828125 L 5.140625 -12.84375 Z M 6.8125 -12.375 C 6.84375 -12.40625 6.859375 -12.429688 6.859375 -12.453125 C 6.828125 -12.453125 6.8125 -12.445312 6.8125 -12.4375 Z M 6.5625 -12.1875 L 6.5625 -11.921875 L 6.734375 -11.9375 L 6.734375 -12.1875 Z M 5.515625 -11.90625 L 5.46875 -11.78125 L 5.40625 -11.671875 L 5.515625 -11.671875 C 5.535156 -11.691406 5.550781 -11.710938 5.5625 -11.734375 C 5.570312 -11.753906 5.578125 -11.769531 5.578125 -11.78125 L 5.640625 -11.90625 Z M 7.671875 -11.390625 C 7.671875 -11.441406 7.613281 -11.46875 7.5 -11.46875 L 7.484375 -11.25 L 7.5625 -11.1875 L 7.625 -11.296875 C 7.65625 -11.316406 7.671875 -11.347656 7.671875 -11.390625 Z M 8.25 -11.171875 L 8.25 -11.203125 L 8.265625 -11.234375 C 8.265625 -11.242188 8.269531 -11.25 8.28125 -11.25 L 8.28125 -11.296875 L 8.0625 -11.296875 L 8.015625 -11.203125 Z M 7.984375 -10.859375 C 7.984375 -10.753906 8.035156 -10.703125 8.140625 -10.703125 L 8.25 -10.734375 C 8.28125 -10.753906 8.300781 -10.765625 8.3125 -10.765625 C 8.332031 -10.773438 8.34375 -10.78125 8.34375 -10.78125 L 8.421875 -10.796875 L 8.421875 -10.90625 C 8.378906 -10.945312 8.359375 -10.96875 8.359375 -10.96875 L 8.28125 -11 C 8.226562 -11.03125 8.1875 -11.046875 8.15625 -11.046875 C 8.113281 -11.046875 8.078125 -11.019531 8.046875 -10.96875 C 8.015625 -10.925781 7.992188 -10.890625 7.984375 -10.859375 Z M 3.75 -10.96875 L 3.703125 -10.984375 C 3.671875 -10.984375 3.65625 -10.96875 3.65625 -10.9375 L 3.765625 -10.9375 Z M 7.75 -10.71875 C 7.757812 -10.757812 7.695312 -10.820312 7.5625 -10.90625 L 7.59375 -10.875 C 7.5625 -10.820312 7.523438 -10.789062 7.484375 -10.78125 C 7.453125 -10.78125 7.429688 -10.78125 7.421875 -10.78125 C 7.410156 -10.769531 7.382812 -10.765625 7.34375 -10.765625 L 7.265625 -10.734375 L 7.265625 -10.65625 C 7.304688 -10.625 7.347656 -10.609375 7.390625 -10.609375 C 7.410156 -10.597656 7.441406 -10.59375 7.484375 -10.59375 L 7.625 -10.640625 Z M 8.421875 -10.578125 L 8.296875 -10.53125 C 8.265625 -10.53125 8.226562 -10.550781 8.1875 -10.59375 L 8.15625 -10.609375 L 8.09375 -10.609375 C 8.039062 -10.546875 8.015625 -10.476562 8.015625 -10.40625 L 8.140625 -10.34375 C 8.222656 -10.320312 8.269531 -10.300781 8.28125 -10.28125 L 8.359375 -10.34375 C 8.359375 -10.40625 8.335938 -10.441406 8.296875 -10.453125 L 8.34375 -10.46875 L 8.34375 -10.5 L 8.40625 -10.5 C 8.40625 -10.507812 8.410156 -10.515625 8.421875 -10.515625 C 8.441406 -10.523438 8.453125 -10.53125 8.453125 -10.53125 L 8.484375 -10.578125 Z M 2.984375 -10.46875 L 2.984375 -10.40625 L 3.046875 -10.40625 L 3.046875 -10.46875 Z M 2.59375 -9.953125 C 2.570312 -10.015625 2.5625 -10.054688 2.5625 -10.078125 C 2.5625 -10.191406 2.503906 -10.273438 2.390625 -10.328125 C 2.335938 -10.359375 2.316406 -10.398438 2.328125 -10.453125 C 2.242188 -10.398438 2.203125 -10.351562 2.203125 -10.3125 C 2.203125 -10.289062 2.238281 -10.269531 2.3125 -10.25 C 2.34375 -10.238281 2.390625 -10.234375 2.453125 -10.234375 C 2.441406 -10.191406 2.410156 -10.140625 2.359375 -10.078125 L 2.296875 -9.953125 C 2.296875 -9.898438 2.304688 -9.875 2.328125 -9.875 L 2.359375 -9.875 C 2.359375 -9.894531 2.367188 -9.90625 2.390625 -9.90625 C 2.429688 -9.90625 2.457031 -9.894531 2.46875 -9.875 C 2.46875 -9.875 2.484375 -9.863281 2.515625 -9.84375 C 2.515625 -9.863281 2.53125 -9.882812 2.5625 -9.90625 Z M 2.859375 -10.25 C 2.859375 -10.257812 2.847656 -10.28125 2.828125 -10.3125 L 2.765625 -10.34375 L 2.71875 -10.328125 C 2.71875 -10.296875 2.703125 -10.28125 2.671875 -10.28125 Z M 2.96875 -10.28125 C 2.96875 -10.28125 2.96875 -10.273438 2.96875 -10.265625 C 2.976562 -10.265625 2.984375 -10.265625 2.984375 -10.265625 Z M 1.78125 -9.953125 C 1.820312 -9.921875 1.863281 -9.90625 1.90625 -9.90625 L 1.9375 -9.953125 C 1.882812 -10.015625 1.832031 -10.046875 1.78125 -10.046875 Z M 1.453125 -9.796875 C 1.484375 -9.765625 1.515625 -9.75 1.546875 -9.75 L 1.65625 -9.75 Z M 1.796875 -9.71875 C 1.921875 -9.71875 2.007812 -9.703125 2.0625 -9.671875 C 2.101562 -9.703125 2.125 -9.742188 2.125 -9.796875 L 1.796875 -9.796875 Z M 2.40625 -9.671875 L 2.40625 -9.640625 L 2.515625 -9.640625 L 2.515625 -9.671875 Z M 4.1875 -9.609375 L 4.1875 -9.546875 L 4.234375 -9.546875 L 4.234375 -9.609375 Z M 8.546875 -9.515625 L 8.53125 -9.515625 L 8.546875 -9.46875 L 8.59375 -9.484375 Z M 1.703125 -9.375 C 1.671875 -9.382812 1.65625 -9.394531 1.65625 -9.40625 L 1.515625 -9.40625 L 1.515625 -9.375 C 1.515625 -9.300781 1.554688 -9.242188 1.640625 -9.203125 C 1.691406 -9.242188 1.71875 -9.28125 1.71875 -9.3125 C 1.71875 -9.351562 1.710938 -9.375 1.703125 -9.375 Z M 2.328125 -9.0625 C 2.140625 -9.207031 2.023438 -9.28125 1.984375 -9.28125 L 1.875 -9.28125 C 1.914062 -9.269531 1.9375 -9.238281 1.9375 -9.1875 C 1.9375 -9.144531 1.929688 -9.125 1.921875 -9.125 L 1.875 -9.125 L 1.859375 -9.140625 L 1.828125 -9.140625 L 1.78125 -9.125 C 1.769531 -9.125 1.757812 -9.113281 1.75 -9.09375 C 1.738281 -9.082031 1.734375 -9.078125 1.734375 -9.078125 L 1.78125 -9.0625 C 1.78125 -9.050781 1.78125 -9.039062 1.78125 -9.03125 C 1.789062 -9.019531 1.796875 -9.015625 1.796875 -9.015625 C 1.847656 -9.015625 1.90625 -9.03125 1.96875 -9.0625 C 2.03125 -9.101562 2.078125 -9.125 2.109375 -9.125 L 2.1875 -9.078125 C 2.1875 -9.066406 2.207031 -9.0625 2.25 -9.0625 Z M 1.46875 -9 C 1.46875 -9.039062 1.4375 -9.078125 1.375 -9.109375 C 1.375 -9.078125 1.382812 -9.050781 1.40625 -9.03125 C 1.4375 -9.007812 1.457031 -9 1.46875 -9 Z M 1.078125 -9.078125 L 1.078125 -9.046875 L 1.1875 -9.046875 L 1.1875 -9.078125 Z M 2.46875 -8.8125 C 2.46875 -8.863281 2.445312 -8.929688 2.40625 -9.015625 C 2.375 -8.929688 2.359375 -8.878906 2.359375 -8.859375 C 2.359375 -8.828125 2.367188 -8.785156 2.390625 -8.734375 L 2.453125 -8.734375 Z M 2.140625 -8.921875 L 2.140625 -8.875 L 2.3125 -8.859375 L 2.3125 -8.890625 Z M 1.640625 -8.515625 C 1.679688 -8.515625 1.710938 -8.519531 1.734375 -8.53125 L 1.796875 -8.53125 L 1.796875 -8.65625 C 1.742188 -8.65625 1.71875 -8.664062 1.71875 -8.6875 L 1.671875 -8.59375 Z M 1.0625 -8.453125 C 1.144531 -8.492188 1.1875 -8.53125 1.1875 -8.5625 L 1.140625 -8.5625 L 1.125 -8.59375 C 1.03125 -8.5625 0.984375 -8.523438 0.984375 -8.484375 Z M 1.796875 -8.453125 L 1.78125 -8.359375 L 1.875 -8.359375 L 1.90625 -8.453125 Z M 1.46875 -8.1875 L 1.5 -8.203125 C 1.507812 -8.203125 1.515625 -8.21875 1.515625 -8.25 L 1.5 -8.28125 L 1.375 -8.28125 L 1.375 -8.1875 Z M 1.578125 -7.8125 C 1.546875 -7.820312 1.503906 -7.828125 1.453125 -7.828125 L 1.328125 -7.828125 L 1.375 -7.734375 C 1.457031 -7.734375 1.550781 -7.710938 1.65625 -7.671875 L 1.65625 -7.765625 Z M 1.640625 -7.625 C 1.597656 -7.625 1.578125 -7.597656 1.578125 -7.546875 L 1.59375 -7.5 C 1.601562 -7.5 1.617188 -7.488281 1.640625 -7.46875 Z M 2.40625 -7.09375 C 2.425781 -7.144531 2.4375 -7.234375 2.4375 -7.359375 C 2.4375 -7.429688 2.425781 -7.476562 2.40625 -7.5 C 2.375 -7.457031 2.359375 -7.40625 2.359375 -7.34375 C 2.359375 -7.289062 2.367188 -7.25 2.390625 -7.21875 Z M -0.046875 -6.40625 L -0.046875 -6.34375 L -0.0625 -6.28125 C -0.0625 -6.238281 -0.0546875 -6.210938 -0.046875 -6.203125 L 0 -6.140625 C 0.0703125 -6.179688 0.109375 -6.210938 0.109375 -6.234375 L 0.109375 -6.40625 Z M 7.953125 -5.40625 C 7.941406 -5.363281 7.960938 -5.3125 8.015625 -5.25 C 8.015625 -5.269531 8.03125 -5.289062 8.0625 -5.3125 C 8.070312 -5.332031 8.078125 -5.351562 8.078125 -5.375 L 7.984375 -5.4375 C 7.960938 -5.425781 7.953125 -5.425781 7.953125 -5.4375 Z M 0.609375 -3.796875 L 0.546875 -3.84375 L 0.40625 -3.84375 L 0.3125 -3.796875 L 0.3125 -3.71875 L 0.34375 -3.703125 L 0.40625 -3.6875 C 0.414062 -3.695312 0.4375 -3.703125 0.46875 -3.703125 Z M 2.03125 -3.578125 L 2.03125 -3.421875 L 2.0625 -3.421875 L 2.0625 -3.578125 Z M 6.21875 -0.640625 L 6.34375 -0.875 L 6.28125 -0.921875 L 6.15625 -0.65625 Z M 4.015625 -0.578125 C 3.929688 -0.535156 3.890625 -0.5 3.890625 -0.46875 L 4.046875 -0.46875 L 4.03125 -0.53125 Z M 4.015625 -0.578125 "/></g></g></g><g fill="#d8a4a2" fill-opacity="1"><g transform="translate(86.719175, 44.384719)"><g><path d="M 11.3125 -0.40625 C 11.3125 -0.300781 11.269531 -0.207031 11.1875 -0.125 C 11.113281 -0.0390625 11.019531 0 10.90625 0 L 7.8125 0 C 7.5625 0 7.425781 -0.125 7.40625 -0.375 L 7.203125 -2.859375 L 4.109375 -2.25 L 3.65625 -0.375 C 3.601562 -0.164062 3.46875 -0.0625 3.25 -0.0625 L 0.21875 -0.125 C 0.0820312 -0.125 -0.0195312 -0.171875 -0.09375 -0.265625 C -0.164062 -0.367188 -0.1875 -0.5 -0.15625 -0.65625 C 0.175781 -1.9375 0.644531 -3.546875 1.25 -5.484375 C 1.5625 -6.503906 1.976562 -7.671875 2.5 -8.984375 C 2.976562 -10.191406 3.617188 -11.738281 4.421875 -13.625 C 4.472656 -13.75 4.570312 -13.832031 4.71875 -13.875 L 5.15625 -13.953125 C 5.5625 -14.035156 5.875 -14.085938 6.09375 -14.109375 C 6.21875 -14.140625 6.421875 -14.15625 6.703125 -14.15625 C 6.960938 -14.15625 7.15625 -14.148438 7.28125 -14.140625 C 7.9375 -14.078125 8.460938 -13.601562 8.859375 -12.71875 C 8.984375 -12.394531 9.125 -11.925781 9.28125 -11.3125 C 9.457031 -10.570312 9.625 -9.820312 9.78125 -9.0625 L 11.3125 -0.484375 Z M 4.90625 -13.25 L 4.90625 -13.375 L 4.828125 -13.375 L 4.828125 -13.25 Z M 7.390625 -12.71875 L 7.390625 -12.890625 L 7.328125 -12.890625 L 7.328125 -12.71875 Z M 7.21875 -12.375 C 7.25 -12.425781 7.265625 -12.476562 7.265625 -12.53125 C 7.191406 -12.53125 7.15625 -12.539062 7.15625 -12.5625 L 7.15625 -12.4375 Z M 4.84375 -12.453125 L 4.84375 -12.1875 C 4.84375 -12.238281 4.878906 -12.320312 4.953125 -12.4375 L 4.890625 -12.4375 Z M 7.546875 -12.390625 C 7.578125 -12.421875 7.597656 -12.4375 7.609375 -12.4375 L 7.390625 -12.453125 L 7.390625 -12.375 C 7.398438 -12.363281 7.40625 -12.34375 7.40625 -12.3125 L 7.484375 -12.3125 C 7.484375 -12.320312 7.503906 -12.347656 7.546875 -12.390625 Z M 7.390625 -12.3125 L 7.390625 -12.359375 L 7.34375 -12.4375 L 7.34375 -12.375 Z M 7.765625 -12.203125 C 7.710938 -12.203125 7.664062 -12.15625 7.625 -12.0625 L 7.671875 -12.03125 L 7.9375 -12.03125 L 8.015625 -12.0625 C 7.953125 -12.101562 7.921875 -12.144531 7.921875 -12.1875 L 7.953125 -12.25 C 7.867188 -12.21875 7.804688 -12.203125 7.765625 -12.203125 Z M 7.703125 -11.65625 C 7.648438 -11.65625 7.625 -11.628906 7.625 -11.578125 C 7.65625 -11.546875 7.691406 -11.53125 7.734375 -11.53125 C 7.742188 -11.53125 7.773438 -11.519531 7.828125 -11.5 C 7.859375 -11.519531 7.875 -11.539062 7.875 -11.5625 L 7.890625 -11.59375 C 7.828125 -11.632812 7.765625 -11.65625 7.703125 -11.65625 Z M 6.046875 -11.46875 L 6.078125 -11.53125 L 6.046875 -11.53125 L 6.015625 -11.5 Z M 6.28125 -11.265625 L 6.375 -11.265625 C 6.394531 -11.253906 6.410156 -11.25 6.421875 -11.25 C 6.429688 -11.257812 6.445312 -11.265625 6.46875 -11.265625 C 6.46875 -11.316406 6.453125 -11.359375 6.421875 -11.390625 C 6.410156 -11.390625 6.394531 -11.382812 6.375 -11.375 C 6.363281 -11.375 6.351562 -11.375 6.34375 -11.375 L 6.265625 -11.375 Z M 8.0625 -11 C 8.0625 -10.988281 8.023438 -10.96875 7.953125 -10.9375 C 7.929688 -10.9375 7.921875 -10.914062 7.921875 -10.875 C 7.921875 -10.863281 7.929688 -10.84375 7.953125 -10.8125 L 8.078125 -10.8125 C 8.128906 -10.84375 8.15625 -10.875 8.15625 -10.90625 C 8.15625 -10.96875 8.125 -11 8.0625 -11 Z M 3.5625 -10.203125 C 3.570312 -10.234375 3.550781 -10.226562 3.5 -10.1875 C 3.457031 -10.144531 3.4375 -10.117188 3.4375 -10.109375 C 3.4375 -10.066406 3.453125 -10.015625 3.484375 -9.953125 C 3.515625 -9.898438 3.539062 -9.875 3.5625 -9.875 C 3.570312 -9.914062 3.578125 -9.972656 3.578125 -10.046875 C 3.578125 -10.128906 3.570312 -10.179688 3.5625 -10.203125 Z M 4.96875 -9.90625 C 4.976562 -9.914062 4.992188 -9.921875 5.015625 -9.921875 C 5.054688 -9.910156 5.082031 -9.914062 5.09375 -9.9375 L 4.984375 -9.984375 C 4.972656 -9.984375 4.96875 -9.96875 4.96875 -9.9375 Z M 3.53125 -9.375 L 3.625 -9.375 L 3.625 -9.609375 L 3.53125 -9.59375 Z M 5.9375 -9.515625 C 5.820312 -9.515625 5.738281 -9.46875 5.6875 -9.375 C 5.71875 -9.269531 5.75 -9.210938 5.78125 -9.203125 C 5.820312 -9.191406 5.882812 -9.207031 5.96875 -9.25 L 6.03125 -9.40625 L 6.015625 -9.453125 C 6.015625 -9.460938 6 -9.484375 5.96875 -9.515625 Z M 8.140625 -9.453125 L 8.28125 -9.453125 L 8.28125 -9.484375 L 8.140625 -9.484375 Z M 8.359375 -9.125 C 8.359375 -9.1875 8.320312 -9.21875 8.25 -9.21875 L 8.21875 -9.15625 L 8.25 -9.125 Z M 6.578125 -6.875 C 6.523438 -7.3125 6.476562 -7.640625 6.4375 -7.859375 C 6.332031 -8.429688 6.242188 -8.859375 6.171875 -9.140625 L 5.171875 -5.84375 L 6.703125 -5.890625 Z M 5.703125 -8.859375 L 5.75 -8.828125 L 5.8125 -9 L 5.765625 -9.015625 Z M 7.6875 -8.859375 L 7.734375 -8.875 L 7.6875 -8.921875 L 7.625 -8.890625 Z M 5.140625 -7.671875 C 5.171875 -7.691406 5.210938 -7.734375 5.265625 -7.796875 C 5.316406 -7.859375 5.347656 -7.910156 5.359375 -7.953125 L 5.40625 -8.125 L 5.609375 -8.546875 L 5.5 -8.59375 L 5.40625 -8.515625 C 5.34375 -8.453125 5.304688 -8.421875 5.296875 -8.421875 C 5.222656 -8.160156 5.1875 -8.039062 5.1875 -8.0625 C 5.15625 -7.96875 5.128906 -7.921875 5.109375 -7.921875 C 5.109375 -7.890625 5.085938 -7.859375 5.046875 -7.828125 C 5.023438 -7.804688 5.003906 -7.757812 4.984375 -7.6875 L 4.84375 -7.234375 L 4.765625 -6.953125 C 4.722656 -6.828125 4.660156 -6.71875 4.578125 -6.625 C 4.492188 -6.53125 4.441406 -6.445312 4.421875 -6.375 C 4.398438 -6.3125 4.390625 -6.273438 4.390625 -6.265625 C 4.367188 -6.203125 4.359375 -6.140625 4.359375 -6.078125 C 4.347656 -5.992188 4.304688 -5.894531 4.234375 -5.78125 C 4.179688 -5.675781 4.144531 -5.597656 4.125 -5.546875 C 4.125 -5.453125 4.140625 -5.40625 4.171875 -5.40625 C 4.210938 -5.382812 4.25 -5.382812 4.28125 -5.40625 C 4.28125 -5.40625 4.300781 -5.425781 4.34375 -5.46875 C 4.394531 -5.582031 4.429688 -5.695312 4.453125 -5.8125 C 4.472656 -5.9375 4.523438 -6.046875 4.609375 -6.140625 C 4.609375 -6.179688 4.644531 -6.238281 4.71875 -6.3125 L 4.8125 -6.546875 C 4.832031 -6.585938 4.867188 -6.695312 4.921875 -6.875 C 4.984375 -7.050781 5.054688 -7.234375 5.140625 -7.421875 Z M 7.953125 -8.140625 C 7.953125 -8.140625 7.957031 -8.140625 7.96875 -8.140625 C 7.976562 -8.148438 7.984375 -8.15625 7.984375 -8.15625 L 7.828125 -8.1875 L 7.828125 -8.09375 L 7.953125 -8.09375 Z M 8.359375 -7.953125 L 8.25 -8 L 8.25 -7.953125 L 8.359375 -7.921875 Z M 7.390625 -7.859375 C 7.398438 -7.828125 7.414062 -7.8125 7.4375 -7.8125 C 7.46875 -7.8125 7.484375 -7.828125 7.484375 -7.859375 Z M 8.453125 -7.140625 C 8.515625 -7.140625 8.546875 -7.164062 8.546875 -7.21875 Z M 7.140625 -7.078125 C 7.140625 -7.085938 7.125 -7.109375 7.09375 -7.140625 L 7.015625 -7.15625 L 7.015625 -7.078125 Z M 7.875 -6.875 C 7.863281 -6.976562 7.78125 -7.046875 7.625 -7.078125 C 7.582031 -7.066406 7.5625 -7.023438 7.5625 -6.953125 L 7.6875 -6.953125 C 7.625 -6.910156 7.617188 -6.863281 7.671875 -6.8125 L 7.859375 -6.8125 L 7.859375 -6.875 Z M 8.40625 -7 C 8.488281 -7 8.53125 -7.007812 8.53125 -7.03125 C 8.519531 -7.03125 8.507812 -7.035156 8.5 -7.046875 C 8.488281 -7.054688 8.484375 -7.066406 8.484375 -7.078125 L 8.453125 -7.078125 C 8.421875 -7.078125 8.40625 -7.0625 8.40625 -7.03125 Z M 8.140625 -7 C 8.171875 -6.96875 8.191406 -6.953125 8.203125 -6.953125 L 8.25 -7.015625 C 8.25 -7.023438 8.207031 -7.03125 8.125 -7.03125 Z M 8.40625 -6.765625 C 8.457031 -6.742188 8.5 -6.734375 8.53125 -6.734375 C 8.59375 -6.734375 8.660156 -6.753906 8.734375 -6.796875 C 8.679688 -6.847656 8.625 -6.875 8.5625 -6.875 L 8.40625 -6.875 Z M 7.859375 -6.53125 C 7.910156 -6.53125 7.941406 -6.519531 7.953125 -6.5 L 8.078125 -6.5 L 8.078125 -6.609375 L 8.015625 -6.625 C 8.003906 -6.632812 7.984375 -6.640625 7.953125 -6.640625 C 7.890625 -6.617188 7.859375 -6.582031 7.859375 -6.53125 Z M 7.03125 -6.578125 L 7.03125 -6.546875 L 7.203125 -6.546875 L 7.203125 -6.578125 Z M 8.828125 -6.5 C 8.816406 -6.550781 8.800781 -6.578125 8.78125 -6.578125 L 8.5625 -6.578125 C 8.5 -6.523438 8.445312 -6.488281 8.40625 -6.46875 C 8.363281 -6.445312 8.34375 -6.429688 8.34375 -6.421875 C 8.34375 -6.367188 8.40625 -6.242188 8.53125 -6.046875 L 8.8125 -6.046875 L 8.890625 -6.078125 C 8.847656 -6.140625 8.800781 -6.171875 8.75 -6.171875 C 8.695312 -6.171875 8.628906 -6.210938 8.546875 -6.296875 C 8.640625 -6.328125 8.695312 -6.351562 8.71875 -6.375 C 8.726562 -6.414062 8.765625 -6.457031 8.828125 -6.5 Z M 3.84375 -6.53125 L 3.796875 -6.34375 C 3.796875 -6.289062 3.816406 -6.25 3.859375 -6.21875 C 3.898438 -6.28125 3.921875 -6.332031 3.921875 -6.375 L 3.921875 -6.53125 Z M 7.890625 -6.421875 L 7.875 -6.46875 L 7.734375 -6.46875 L 7.734375 -6.375 L 7.828125 -6.296875 L 7.828125 -6.3125 L 7.875 -6.34375 L 7.921875 -6.34375 Z M 8.140625 -6.3125 C 8.140625 -6.3125 8.132812 -6.316406 8.125 -6.328125 C 8.125 -6.335938 8.125 -6.34375 8.125 -6.34375 L 8.078125 -6.34375 L 8.125 -6.09375 C 8.164062 -6.144531 8.191406 -6.210938 8.203125 -6.296875 Z M 7.65625 -6.21875 C 7.625 -6.226562 7.585938 -6.226562 7.546875 -6.21875 C 7.515625 -6.21875 7.492188 -6.21875 7.484375 -6.21875 L 7.546875 -6.109375 C 7.578125 -6.128906 7.617188 -6.140625 7.671875 -6.140625 L 7.8125 -6.109375 C 7.84375 -6.109375 7.875 -6.117188 7.90625 -6.140625 C 7.9375 -6.160156 7.953125 -6.1875 7.953125 -6.21875 Z M 7.4375 -6 L 7.421875 -5.9375 L 7.46875 -5.90625 L 7.484375 -6 Z M 7.734375 -5.703125 C 7.742188 -5.722656 7.75 -5.742188 7.75 -5.765625 L 7.625 -5.78125 L 7.59375 -5.75 L 7.5625 -5.703125 L 7.703125 -5.671875 C 7.703125 -5.691406 7.710938 -5.703125 7.734375 -5.703125 Z M 7.40625 -5.703125 C 7.457031 -5.703125 7.46875 -5.71875 7.4375 -5.75 Z M 8.546875 -5.484375 C 8.546875 -5.492188 8.523438 -5.519531 8.484375 -5.5625 L 8.421875 -5.546875 C 8.410156 -5.546875 8.40625 -5.535156 8.40625 -5.515625 L 8.53125 -5.484375 Z M 8.359375 -5.1875 C 8.335938 -5.21875 8.328125 -5.257812 8.328125 -5.3125 C 8.296875 -5.375 8.28125 -5.414062 8.28125 -5.4375 C 8.15625 -5.519531 8.046875 -5.554688 7.953125 -5.546875 C 7.953125 -5.515625 7.972656 -5.5 8.015625 -5.5 C 8.066406 -5.488281 8.113281 -5.425781 8.15625 -5.3125 L 8.15625 -5.1875 Z M 7.28125 -5.40625 L 7.28125 -5.3125 L 7.34375 -5.3125 L 7.34375 -5.40625 Z M 9.203125 -5.15625 L 9.203125 -5.171875 L 9.078125 -5.1875 L 9.078125 -5.15625 Z M 7.734375 -5.046875 L 7.8125 -5.046875 L 7.8125 -5.15625 L 7.734375 -5.15625 Z M 7.28125 -4.96875 L 7.28125 -5.015625 L 7.21875 -5.015625 L 7.21875 -4.96875 Z M 6.5 -4.90625 L 6.5 -4.875 L 6.609375 -4.875 L 6.609375 -4.90625 Z M 7.03125 -4.578125 C 7.050781 -4.597656 7.0625 -4.632812 7.0625 -4.6875 C 7.03125 -4.6875 6.976562 -4.664062 6.90625 -4.625 L 7 -4.625 Z M 7.703125 -4.546875 C 7.640625 -4.472656 7.609375 -4.4375 7.609375 -4.4375 C 7.691406 -4.394531 7.757812 -4.375 7.8125 -4.375 C 7.90625 -4.445312 7.953125 -4.503906 7.953125 -4.546875 C 7.953125 -4.554688 7.929688 -4.582031 7.890625 -4.625 C 7.847656 -4.625 7.828125 -4.632812 7.828125 -4.65625 Z M 8.140625 -3.96875 L 8.25 -3.96875 L 8.25 -4.015625 L 8.140625 -4.015625 Z M 7.875 -3.96875 C 7.875 -3.894531 7.914062 -3.835938 8 -3.796875 L 8 -3.96875 Z M 8.671875 -3.828125 C 8.671875 -3.796875 8.6875 -3.753906 8.71875 -3.703125 C 8.757812 -3.660156 8.804688 -3.640625 8.859375 -3.640625 C 8.921875 -3.640625 8.960938 -3.644531 8.984375 -3.65625 C 8.984375 -3.65625 9.023438 -3.664062 9.109375 -3.6875 C 9.085938 -3.707031 9.066406 -3.71875 9.046875 -3.71875 L 8.953125 -3.78125 C 8.941406 -3.789062 8.9375 -3.851562 8.9375 -3.96875 C 8.925781 -3.914062 8.890625 -3.890625 8.828125 -3.890625 Z M 4.09375 -3.796875 L 4.09375 -3.703125 L 4.3125 -3.703125 L 4.3125 -3.796875 Z M 3.828125 -3.421875 C 3.796875 -3.472656 3.78125 -3.507812 3.78125 -3.53125 C 3.644531 -3.601562 3.5625 -3.640625 3.53125 -3.640625 C 3.46875 -3.640625 3.414062 -3.617188 3.375 -3.578125 C 3.34375 -3.535156 3.328125 -3.503906 3.328125 -3.484375 C 3.328125 -3.441406 3.351562 -3.394531 3.40625 -3.34375 C 3.46875 -3.289062 3.53125 -3.265625 3.59375 -3.265625 C 3.625 -3.265625 3.644531 -3.273438 3.65625 -3.296875 L 3.859375 -3.296875 Z M 7.28125 -3.640625 L 7.28125 -3.5625 L 7.34375 -3.5625 L 7.34375 -3.640625 Z M 9.59375 -3.578125 L 9.59375 -3.625 L 9.515625 -3.625 L 9.515625 -3.578125 Z M 7.5 -3.5625 C 7.5625 -3.539062 7.59375 -3.519531 7.59375 -3.5 L 7.796875 -3.5 L 7.796875 -3.5625 Z M 6.5 -3.53125 L 6.4375 -3.515625 L 6.46875 -3.484375 L 6.53125 -3.5 Z M 9.921875 -0.734375 C 9.960938 -0.734375 9.992188 -0.75 10.015625 -0.78125 L 9.9375 -1.265625 L 9.859375 -1.765625 L 9.78125 -1.859375 L 9.734375 -1.96875 C 9.734375 -2.007812 9.769531 -2.054688 9.84375 -2.109375 C 9.71875 -2.171875 9.660156 -2.234375 9.671875 -2.296875 C 9.703125 -2.367188 9.71875 -2.421875 9.71875 -2.453125 C 9.71875 -2.535156 9.691406 -2.625 9.640625 -2.71875 C 9.597656 -2.789062 9.578125 -2.835938 9.578125 -2.859375 C 9.578125 -2.910156 9.597656 -2.9375 9.640625 -2.9375 C 9.648438 -2.9375 9.65625 -2.957031 9.65625 -3 C 9.65625 -3.0625 9.632812 -3.132812 9.59375 -3.21875 L 9.453125 -3.09375 L 9.3125 -2.984375 L 9.25 -3.03125 L 9.25 -3.234375 C 9.25 -3.296875 9.304688 -3.328125 9.421875 -3.328125 L 9.515625 -3.265625 L 9.515625 -3.4375 C 9.472656 -3.46875 9.414062 -3.488281 9.34375 -3.5 C 9.28125 -3.519531 9.234375 -3.53125 9.203125 -3.53125 C 9.140625 -3.53125 9.054688 -3.503906 8.953125 -3.453125 C 8.859375 -3.410156 8.8125 -3.363281 8.8125 -3.3125 C 8.8125 -3.300781 8.828125 -3.28125 8.859375 -3.25 L 8.9375 -3.1875 C 8.894531 -3.144531 8.894531 -3.097656 8.9375 -3.046875 L 9.015625 -2.984375 C 9.035156 -2.984375 9.046875 -2.972656 9.046875 -2.953125 C 9.054688 -2.941406 9.0625 -2.9375 9.0625 -2.9375 C 9.019531 -2.914062 8.972656 -2.90625 8.921875 -2.90625 C 8.796875 -2.90625 8.734375 -2.867188 8.734375 -2.796875 C 8.703125 -2.703125 8.6875 -2.65625 8.6875 -2.65625 C 8.71875 -2.664062 8.75 -2.664062 8.78125 -2.65625 C 8.8125 -2.644531 8.820312 -2.625 8.8125 -2.59375 C 8.8125 -2.570312 8.800781 -2.5625 8.78125 -2.5625 C 8.757812 -2.5625 8.75 -2.550781 8.75 -2.53125 C 8.75 -2.507812 8.742188 -2.488281 8.734375 -2.46875 L 8.6875 -2.390625 L 8.6875 -2.203125 C 8.707031 -2.191406 8.78125 -2.160156 8.90625 -2.109375 C 9.039062 -2.054688 9.046875 -2 8.921875 -1.9375 C 8.960938 -1.925781 9.039062 -1.921875 9.15625 -1.921875 C 9.195312 -1.921875 9.234375 -1.925781 9.265625 -1.9375 L 9.390625 -1.9375 L 9.390625 -1.65625 L 9.375 -1.65625 L 9.375 -1.640625 L 9.34375 -1.640625 L 9.40625 -1.578125 C 9.445312 -1.535156 9.46875 -1.515625 9.46875 -1.515625 C 9.46875 -1.484375 9.484375 -1.46875 9.515625 -1.46875 C 9.515625 -1.46875 9.535156 -1.445312 9.578125 -1.40625 L 9.59375 -1.234375 C 9.625 -1.160156 9.671875 -1.101562 9.734375 -1.0625 C 9.734375 -1.03125 9.726562 -1.007812 9.71875 -1 L 9.71875 -0.96875 C 9.71875 -0.9375 9.742188 -0.890625 9.796875 -0.828125 C 9.847656 -0.765625 9.890625 -0.734375 9.921875 -0.734375 Z M 2.203125 -3.1875 C 2.242188 -3.226562 2.222656 -3.253906 2.140625 -3.265625 L 2.140625 -3.234375 Z M 3.09375 -2.859375 C 3.113281 -2.890625 3.101562 -2.925781 3.0625 -2.96875 C 3.039062 -2.9375 3.03125 -2.898438 3.03125 -2.859375 C 3.03125 -2.847656 3.039062 -2.84375 3.0625 -2.84375 C 3.082031 -2.84375 3.09375 -2.847656 3.09375 -2.859375 Z M 8.53125 -2.65625 C 8.539062 -2.65625 8.546875 -2.675781 8.546875 -2.71875 L 8.40625 -2.71875 C 8.40625 -2.675781 8.410156 -2.65625 8.421875 -2.65625 C 8.421875 -2.65625 8.441406 -2.632812 8.484375 -2.59375 C 8.484375 -2.613281 8.488281 -2.625 8.5 -2.625 C 8.507812 -2.632812 8.519531 -2.644531 8.53125 -2.65625 Z M 2.59375 -2.5 L 2.640625 -2.515625 L 2.640625 -2.625 C 2.640625 -2.65625 2.597656 -2.671875 2.515625 -2.671875 L 2.46875 -2.65625 C 2.46875 -2.65625 2.460938 -2.648438 2.453125 -2.640625 L 2.453125 -2.5625 Z M 7.5625 -2.65625 L 7.5625 -2.578125 L 7.703125 -2.578125 L 7.703125 -2.65625 Z M 8.078125 -2.40625 C 8.078125 -2.445312 8.0625 -2.472656 8.03125 -2.484375 C 8 -2.492188 7.972656 -2.5 7.953125 -2.5 L 7.953125 -2.40625 Z M 2.515625 -2.171875 C 2.515625 -2.179688 2.523438 -2.191406 2.546875 -2.203125 C 2.566406 -2.222656 2.582031 -2.238281 2.59375 -2.25 L 2.734375 -2.296875 L 2.734375 -2.375 C 2.710938 -2.394531 2.691406 -2.40625 2.671875 -2.40625 L 2.59375 -2.46875 C 2.539062 -2.351562 2.429688 -2.296875 2.265625 -2.296875 C 2.265625 -2.265625 2.285156 -2.226562 2.328125 -2.1875 C 2.367188 -2.144531 2.410156 -2.125 2.453125 -2.125 C 2.460938 -2.125 2.484375 -2.140625 2.515625 -2.171875 Z M 7.828125 -2.265625 C 7.773438 -2.285156 7.742188 -2.300781 7.734375 -2.3125 L 7.75 -2.171875 L 7.953125 -2.203125 Z M 3.328125 -1.765625 C 3.359375 -1.773438 3.375 -1.800781 3.375 -1.84375 L 3.328125 -1.875 C 3.304688 -1.875 3.296875 -1.867188 3.296875 -1.859375 L 3.25 -1.859375 L 3.171875 -1.84375 L 3.25 -1.78125 Z M 2.46875 -1.640625 C 2.457031 -1.640625 2.4375 -1.648438 2.40625 -1.671875 C 2.382812 -1.691406 2.359375 -1.707031 2.328125 -1.71875 C 2.265625 -1.71875 2.234375 -1.691406 2.234375 -1.640625 C 2.242188 -1.617188 2.285156 -1.617188 2.359375 -1.640625 Z M 2.71875 -1.546875 C 2.757812 -1.585938 2.785156 -1.609375 2.796875 -1.609375 C 2.796875 -1.671875 2.769531 -1.707031 2.71875 -1.71875 C 2.632812 -1.675781 2.59375 -1.648438 2.59375 -1.640625 Z M 8.203125 -1.546875 C 8.203125 -1.578125 8.175781 -1.617188 8.125 -1.671875 L 8.015625 -1.609375 L 7.984375 -1.546875 Z M 8.40625 -0.59375 C 8.414062 -0.601562 8.421875 -0.609375 8.421875 -0.609375 C 8.378906 -0.691406 8.359375 -0.757812 8.359375 -0.8125 L 8.15625 -0.8125 C 8.1875 -0.757812 8.222656 -0.707031 8.265625 -0.65625 C 8.304688 -0.613281 8.347656 -0.578125 8.390625 -0.546875 Z M 8.40625 -0.59375 "/></g></g></g><g fill="#d8a4a2" fill-opacity="1"><g transform="translate(99.028609, 44.384719)"><g><path d="M 9.640625 -2.09375 C 9.671875 -2.03125 9.6875 -1.957031 9.6875 -1.875 C 9.6875 -1.757812 9.617188 -1.648438 9.484375 -1.546875 L 7.234375 -0.078125 C 7.160156 -0.015625 7.050781 0.00390625 6.90625 -0.015625 C 6.769531 -0.0546875 6.679688 -0.132812 6.640625 -0.25 C 6.109375 -1.414062 5.75 -2.148438 5.5625 -2.453125 L 5.5625 -2.46875 C 5.175781 -3.15625 4.882812 -3.671875 4.6875 -4.015625 L 4.34375 -4.578125 L 3.1875 -4.28125 L 3.125 -0.546875 C 3.125 -0.273438 2.988281 -0.140625 2.71875 -0.140625 L 0.203125 -0.140625 C 0.078125 -0.140625 -0.0195312 -0.179688 -0.09375 -0.265625 C -0.164062 -0.347656 -0.203125 -0.453125 -0.203125 -0.578125 L 0.640625 -13.234375 C 0.648438 -13.453125 0.765625 -13.582031 0.984375 -13.625 L 4.0625 -14.015625 L 4.09375 -14.015625 L 4.65625 -14.078125 C 5.207031 -14.128906 5.632812 -14.15625 5.9375 -14.15625 C 6.53125 -14.15625 7.046875 -14.097656 7.484375 -13.984375 C 8.265625 -13.828125 8.859375 -13.410156 9.265625 -12.734375 C 9.671875 -12.066406 9.875 -11.285156 9.875 -10.390625 C 9.875 -9.710938 9.757812 -9.023438 9.53125 -8.328125 C 9.300781 -7.671875 8.925781 -7.078125 8.40625 -6.546875 C 8.09375 -6.253906 7.828125 -6.035156 7.609375 -5.890625 Z M 5.1875 -12.953125 L 5.1875 -12.984375 L 5.015625 -12.984375 L 5.015625 -12.953125 Z M 5.03125 -12.796875 L 5.03125 -12.75 L 5.140625 -12.75 C 5.140625 -12.757812 5.148438 -12.773438 5.171875 -12.796875 L 5.1875 -12.828125 L 5.046875 -12.828125 Z M 6.046875 -12.71875 C 6.046875 -12.738281 6.035156 -12.75 6.015625 -12.75 C 5.984375 -12.75 5.96875 -12.757812 5.96875 -12.78125 L 5.96875 -12.6875 Z M 5.6875 -12.640625 L 5.734375 -12.6875 L 5.6875 -12.6875 L 5.640625 -12.640625 Z M 5.25 -12.59375 C 5.28125 -12.59375 5.296875 -12.585938 5.296875 -12.578125 C 5.296875 -12.566406 5.300781 -12.5625 5.3125 -12.5625 C 5.34375 -12.5625 5.359375 -12.566406 5.359375 -12.578125 L 5.359375 -12.59375 Z M 4.828125 -12.5 C 4.742188 -12.425781 4.726562 -12.359375 4.78125 -12.296875 L 4.921875 -12.296875 L 4.921875 -12.3125 C 4.921875 -12.363281 4.890625 -12.425781 4.828125 -12.5 Z M 7.015625 -12.5 C 7.003906 -12.476562 7.007812 -12.453125 7.03125 -12.421875 C 7.050781 -12.398438 7.070312 -12.390625 7.09375 -12.390625 C 7.113281 -12.390625 7.125 -12.40625 7.125 -12.4375 C 7.125 -12.4375 7.128906 -12.4375 7.140625 -12.4375 C 7.148438 -12.445312 7.15625 -12.457031 7.15625 -12.46875 Z M 6.640625 -12.453125 C 6.578125 -12.390625 6.539062 -12.34375 6.53125 -12.3125 L 6.546875 -12.3125 L 6.5625 -12.296875 L 6.578125 -12.296875 C 6.648438 -12.335938 6.6875 -12.367188 6.6875 -12.390625 C 6.6875 -12.410156 6.671875 -12.429688 6.640625 -12.453125 Z M 1.34375 -12.296875 L 1.34375 -12.390625 L 1.3125 -12.390625 L 1.3125 -12.296875 Z M 5.640625 -12.390625 C 5.640625 -12.390625 5.613281 -12.363281 5.5625 -12.3125 L 5.765625 -12.296875 L 5.8125 -12.359375 L 5.734375 -12.375 C 5.734375 -12.382812 5.703125 -12.390625 5.640625 -12.390625 Z M 5.9375 -12.359375 C 5.9375 -12.328125 5.941406 -12.304688 5.953125 -12.296875 L 5.96875 -12.25 L 6.09375 -12.25 L 6.09375 -12.359375 Z M 7.65625 -12.296875 L 7.65625 -12.359375 L 7.5625 -12.359375 L 7.5625 -12.296875 Z M 4.78125 -12.15625 L 4.765625 -12.1875 L 4.703125 -12.15625 L 4.703125 -12.109375 Z M 6.296875 -12.109375 C 6.328125 -12.140625 6.328125 -12.15625 6.296875 -12.15625 L 6.265625 -12.1875 C 6.234375 -12.164062 6.21875 -12.15625 6.21875 -12.15625 L 6.21875 -12.109375 Z M 5.640625 -12.03125 L 5.6875 -12.03125 L 5.6875 -12.109375 L 5.640625 -12.109375 Z M 5.9375 -11.9375 C 5.90625 -11.914062 5.863281 -11.890625 5.8125 -11.859375 L 5.734375 -11.796875 L 5.9375 -11.796875 Z M 6.375 -11.890625 C 6.351562 -11.910156 6.285156 -11.921875 6.171875 -11.921875 C 6.171875 -11.910156 6.179688 -11.898438 6.203125 -11.890625 C 6.222656 -11.890625 6.242188 -11.878906 6.265625 -11.859375 C 6.265625 -11.859375 6.289062 -11.851562 6.34375 -11.84375 L 6.359375 -11.84375 L 6.359375 -11.859375 Z M 6.6875 -11.828125 C 6.675781 -11.828125 6.660156 -11.820312 6.640625 -11.8125 C 6.628906 -11.800781 6.617188 -11.796875 6.609375 -11.796875 L 6.640625 -11.703125 L 6.734375 -11.734375 L 6.765625 -11.78125 Z M 7.734375 -11.625 C 7.734375 -11.675781 7.695312 -11.726562 7.625 -11.78125 L 7.625 -11.578125 Z M 6.796875 -11.703125 C 6.734375 -11.671875 6.703125 -11.644531 6.703125 -11.625 C 6.703125 -11.59375 6.734375 -11.578125 6.796875 -11.578125 L 6.890625 -11.5625 C 6.921875 -11.625 6.921875 -11.691406 6.890625 -11.765625 Z M 4.171875 -11.625 C 4.203125 -11.5625 4.21875 -11.519531 4.21875 -11.5 L 4.25 -11.375 L 4.34375 -11.40625 L 4.3125 -11.46875 L 4.296875 -11.515625 L 4.296875 -11.578125 C 4.296875 -11.609375 4.316406 -11.625 4.359375 -11.625 Z M 6.90625 -11.46875 C 6.851562 -11.5 6.816406 -11.515625 6.796875 -11.515625 L 6.765625 -11.40625 L 6.796875 -11.390625 L 6.875 -11.390625 L 6.875 -11.40625 L 6.90625 -11.40625 Z M 7.8125 -11.25 C 7.851562 -11.257812 7.859375 -11.304688 7.828125 -11.390625 C 7.742188 -11.347656 7.6875 -11.304688 7.65625 -11.265625 Z M 7.984375 -11.203125 C 7.984375 -11.191406 7.992188 -11.171875 8.015625 -11.140625 C 8.046875 -11.117188 8.066406 -11.109375 8.078125 -11.109375 C 8.066406 -11.160156 8.046875 -11.1875 8.015625 -11.1875 Z M 3.375 -7.734375 C 4.050781 -7.828125 4.625 -7.984375 5.09375 -8.203125 C 5.570312 -8.421875 5.941406 -8.78125 6.203125 -9.28125 C 6.421875 -9.75 6.53125 -10.097656 6.53125 -10.328125 C 6.53125 -10.472656 6.5 -10.601562 6.4375 -10.71875 L 6.4375 -10.734375 C 6.382812 -10.890625 6.226562 -11 5.96875 -11.0625 L 5.703125 -11.078125 C 5.515625 -11.078125 5.316406 -11.050781 5.109375 -11 L 3.6875 -10.671875 Z M 7.359375 -10.765625 C 7.359375 -10.785156 7.351562 -10.800781 7.34375 -10.8125 L 7.265625 -10.84375 L 7.265625 -10.765625 Z M 7.34375 -10.515625 C 7.382812 -10.554688 7.40625 -10.597656 7.40625 -10.640625 L 7.328125 -10.640625 L 7.234375 -10.59375 C 7.210938 -10.5625 7.207031 -10.546875 7.21875 -10.546875 Z M 7.625 -10.546875 C 7.695312 -10.546875 7.734375 -10.578125 7.734375 -10.640625 L 7.625 -10.640625 Z M 9.140625 -10.34375 C 9.140625 -10.300781 9.128906 -10.28125 9.109375 -10.28125 C 9.117188 -10.269531 9.132812 -10.265625 9.15625 -10.265625 C 9.175781 -10.265625 9.191406 -10.257812 9.203125 -10.25 L 9.328125 -10.234375 C 9.328125 -10.253906 9.332031 -10.265625 9.34375 -10.265625 C 9.363281 -10.273438 9.375 -10.296875 9.375 -10.328125 C 9.375 -10.378906 9.34375 -10.441406 9.28125 -10.515625 L 9.28125 -10.34375 Z M 7.546875 -10.390625 C 7.546875 -10.378906 7.53125 -10.375 7.5 -10.375 L 7.65625 -10.328125 L 7.625 -10.375 C 7.613281 -10.382812 7.59375 -10.390625 7.5625 -10.390625 Z M 7.625 -10.1875 L 7.65625 -10.1875 L 7.59375 -10.25 L 7.5625 -10.234375 Z M 9.328125 -10.1875 L 9.28125 -10.1875 L 9.28125 -9.71875 L 9.328125 -9.71875 Z M 9.3125 -9.28125 C 9.3125 -9.351562 9.34375 -9.414062 9.40625 -9.46875 C 9.34375 -9.476562 9.3125 -9.515625 9.3125 -9.578125 C 9.320312 -9.597656 9.3125 -9.632812 9.28125 -9.6875 L 9.28125 -8.25 C 9.34375 -8.320312 9.375 -8.398438 9.375 -8.484375 L 9.34375 -8.734375 C 9.332031 -8.785156 9.328125 -8.851562 9.328125 -8.9375 C 9.328125 -8.988281 9.332031 -9.023438 9.34375 -9.046875 C 9.34375 -9.097656 9.332031 -9.164062 9.3125 -9.25 Z M 7.203125 -9.328125 C 7.160156 -9.421875 7.082031 -9.46875 6.96875 -9.46875 Z M 7.359375 -9.15625 L 7.359375 -9.109375 L 7.546875 -9.109375 L 7.546875 -9.15625 Z M 7.015625 -8.890625 C 7.015625 -8.910156 7 -8.929688 6.96875 -8.953125 C 6.925781 -8.984375 6.894531 -9 6.875 -9 L 6.828125 -8.859375 Z M 1.96875 -8.59375 C 1.945312 -8.632812 1.914062 -8.675781 1.875 -8.71875 C 1.851562 -8.726562 1.84375 -8.753906 1.84375 -8.796875 C 1.8125 -8.753906 1.742188 -8.71875 1.640625 -8.6875 L 1.796875 -8.65625 C 1.847656 -8.625 1.875 -8.601562 1.875 -8.59375 Z M 6.46875 -8.59375 C 6.476562 -8.59375 6.503906 -8.582031 6.546875 -8.5625 C 6.585938 -8.539062 6.617188 -8.535156 6.640625 -8.546875 C 6.671875 -8.554688 6.691406 -8.578125 6.703125 -8.609375 L 6.703125 -8.71875 L 6.546875 -8.734375 C 6.515625 -8.722656 6.492188 -8.710938 6.484375 -8.703125 C 6.472656 -8.691406 6.472656 -8.6875 6.484375 -8.6875 C 6.453125 -8.6875 6.4375 -8.664062 6.4375 -8.625 Z M 1.515625 -8.671875 C 1.515625 -8.660156 1.523438 -8.640625 1.546875 -8.609375 L 1.59375 -8.625 L 1.59375 -8.65625 C 1.625 -8.675781 1.640625 -8.695312 1.640625 -8.71875 L 1.515625 -8.71875 Z M 1.96875 -8.40625 C 1.9375 -8.414062 1.894531 -8.4375 1.84375 -8.46875 C 1.800781 -8.507812 1.757812 -8.53125 1.71875 -8.53125 L 1.640625 -8.484375 C 1.578125 -8.460938 1.535156 -8.4375 1.515625 -8.40625 L 1.59375 -8.390625 C 1.625 -8.359375 1.648438 -8.34375 1.671875 -8.34375 Z M 7 -8.484375 L 6.953125 -8.40625 L 7.03125 -8.390625 L 7.078125 -8.46875 Z M 5.6875 -8.203125 C 5.65625 -8.203125 5.625 -8.191406 5.59375 -8.171875 C 5.570312 -8.148438 5.5625 -8.125 5.5625 -8.09375 C 5.59375 -8.070312 5.632812 -8.0625 5.6875 -8.0625 L 5.6875 -7.953125 C 5.71875 -7.953125 5.785156 -7.972656 5.890625 -8.015625 C 5.835938 -8.054688 5.769531 -8.078125 5.6875 -8.078125 L 5.6875 -8.125 C 5.71875 -8.144531 5.71875 -8.171875 5.6875 -8.203125 Z M 6.421875 -8.09375 L 6.375 -8.1875 L 6.265625 -8.0625 L 6.421875 -8.0625 Z M 1.546875 -8.140625 L 1.515625 -8.140625 L 1.546875 -8 L 1.59375 -8 Z M 6.046875 -7.921875 C 6.085938 -7.984375 6.085938 -8.039062 6.046875 -8.09375 L 5.9375 -8.09375 C 5.988281 -7.988281 6.023438 -7.929688 6.046875 -7.921875 Z M 1.546875 -7.953125 L 1.515625 -7.875 L 1.546875 -7.859375 L 1.59375 -7.9375 Z M 2.09375 -7.921875 L 2.09375 -7.828125 L 2.1875 -7.828125 L 2.1875 -7.921875 Z M 4.78125 -7.890625 L 4.78125 -7.8125 L 4.890625 -7.828125 Z M 5.890625 -7.828125 C 5.804688 -7.785156 5.738281 -7.738281 5.6875 -7.6875 L 5.84375 -7.6875 L 6.171875 -7.609375 L 6.15625 -7.625 L 6.140625 -7.671875 L 6.140625 -7.6875 L 5.9375 -7.6875 Z M 6.265625 -7.484375 C 6.285156 -7.484375 6.296875 -7.488281 6.296875 -7.5 C 6.296875 -7.539062 6.289062 -7.570312 6.28125 -7.59375 L 6.21875 -7.65625 C 6.144531 -7.570312 6.128906 -7.507812 6.171875 -7.46875 Z M 5.8125 -7.28125 C 5.832031 -7.28125 5.859375 -7.265625 5.890625 -7.234375 C 5.972656 -7.304688 6.015625 -7.363281 6.015625 -7.40625 L 6 -7.4375 L 5.96875 -7.46875 C 5.957031 -7.476562 5.945312 -7.507812 5.9375 -7.5625 L 5.890625 -7.53125 L 5.84375 -7.53125 L 5.8125 -7.484375 Z M 1.265625 -7.46875 C 1.253906 -7.46875 1.25 -7.453125 1.25 -7.421875 L 1.34375 -7.421875 C 1.34375 -7.429688 1.316406 -7.46875 1.265625 -7.53125 Z M 6.578125 -7.296875 L 6.578125 -7.390625 L 6.421875 -7.34375 L 6.421875 -7.28125 Z M 6.21875 -7.265625 C 6.101562 -7.265625 6.046875 -7.234375 6.046875 -7.171875 C 6.046875 -7.140625 6.085938 -7.125 6.171875 -7.125 L 6.21875 -7.125 Z M 1.875 -7.234375 L 1.765625 -7.203125 L 1.765625 -7.171875 L 1.921875 -7.21875 Z M 4.5 -7.078125 C 4.5 -7.078125 4.523438 -7.101562 4.578125 -7.15625 L 4.5 -7.21875 C 4.445312 -7.207031 4.421875 -7.175781 4.421875 -7.125 Z M 6.296875 -7.125 C 6.210938 -7.082031 6.171875 -7.03125 6.171875 -6.96875 L 6.296875 -6.96875 C 6.347656 -7.007812 6.347656 -7.0625 6.296875 -7.125 Z M 6.140625 -6.9375 C 6.140625 -6.976562 6.109375 -7.007812 6.046875 -7.03125 C 6.023438 -7.03125 6 -7.019531 5.96875 -7 C 5.945312 -6.976562 5.9375 -6.960938 5.9375 -6.953125 C 5.957031 -6.941406 5.992188 -6.9375 6.046875 -6.9375 Z M 6.640625 -6.890625 C 6.640625 -6.898438 6.628906 -6.90625 6.609375 -6.90625 C 6.609375 -6.90625 6.601562 -6.910156 6.59375 -6.921875 C 6.582031 -6.929688 6.578125 -6.9375 6.578125 -6.9375 L 6.546875 -6.953125 L 6.40625 -6.953125 C 6.425781 -6.898438 6.4375 -6.847656 6.4375 -6.796875 C 6.476562 -6.773438 6.515625 -6.773438 6.546875 -6.796875 L 6.640625 -6.796875 Z M 4.421875 -6.625 L 4.34375 -6.625 L 4.34375 -6.578125 L 4.421875 -6.578125 Z M 6.421875 -6.5 C 6.472656 -6.5 6.507812 -6.507812 6.53125 -6.53125 C 6.550781 -6.550781 6.5625 -6.566406 6.5625 -6.578125 C 6.539062 -6.609375 6.476562 -6.625 6.375 -6.625 Z M 4.421875 -6.296875 C 4.421875 -6.273438 4.425781 -6.265625 4.4375 -6.265625 L 4.5 -6.265625 C 4.507812 -6.328125 4.507812 -6.359375 4.5 -6.359375 C 4.445312 -6.359375 4.421875 -6.335938 4.421875 -6.296875 Z M 6.40625 -6.265625 C 6.332031 -6.191406 6.296875 -6.128906 6.296875 -6.078125 L 6.34375 -6.046875 L 6.484375 -6.046875 L 6.4375 -6.171875 Z M 6.5 -6.03125 L 6.4375 -5.953125 L 6.53125 -5.9375 L 6.578125 -6.015625 Z M 6.6875 -5.84375 C 6.757812 -5.84375 6.820312 -5.863281 6.875 -5.90625 L 6.6875 -5.953125 C 6.65625 -5.898438 6.65625 -5.863281 6.6875 -5.84375 Z M 6.40625 -5.90625 C 6.332031 -5.945312 6.269531 -5.941406 6.21875 -5.890625 C 6.25 -5.859375 6.296875 -5.84375 6.359375 -5.84375 C 6.390625 -5.84375 6.40625 -5.859375 6.40625 -5.890625 Z M 4.546875 -5.546875 L 4.5 -5.515625 L 4.515625 -5.484375 L 4.5625 -5.484375 Z M 6.734375 -4.75 C 6.734375 -4.789062 6.722656 -4.816406 6.703125 -4.828125 C 6.703125 -4.828125 6.695312 -4.820312 6.6875 -4.8125 L 6.671875 -4.78125 L 6.640625 -4.78125 Z M 8.421875 -3.828125 C 8.453125 -3.828125 8.46875 -3.847656 8.46875 -3.890625 L 8.359375 -3.890625 Z M 8.53125 -3.703125 L 8.421875 -3.703125 L 8.421875 -3.578125 C 8.460938 -3.535156 8.519531 -3.515625 8.59375 -3.515625 C 8.5625 -3.554688 8.546875 -3.597656 8.546875 -3.640625 Z M 8.625 -3.265625 L 8.59375 -3.21875 L 8.625 -3.1875 L 8.671875 -3.25 Z M 8.9375 -2.4375 C 8.9375 -2.488281 8.894531 -2.519531 8.8125 -2.53125 C 8.769531 -2.488281 8.75 -2.460938 8.75 -2.453125 C 8.75 -2.410156 8.765625 -2.375 8.796875 -2.34375 C 8.835938 -2.3125 8.867188 -2.296875 8.890625 -2.296875 L 8.921875 -2.359375 Z M 8.390625 -2.125 C 8.410156 -2.125 8.441406 -2.128906 8.484375 -2.140625 C 8.535156 -2.160156 8.578125 -2.179688 8.609375 -2.203125 L 8.484375 -2.265625 C 8.460938 -2.285156 8.414062 -2.296875 8.34375 -2.296875 C 8.3125 -2.296875 8.28125 -2.285156 8.25 -2.265625 C 8.226562 -2.253906 8.21875 -2.234375 8.21875 -2.203125 C 8.269531 -2.148438 8.328125 -2.125 8.390625 -2.125 Z M 1.34375 -0.9375 C 1.414062 -0.9375 1.457031 -0.960938 1.46875 -1.015625 L 1.390625 -1.015625 C 1.390625 -0.960938 1.375 -0.9375 1.34375 -0.9375 Z M 1.34375 -0.9375 "/></g></g></g><g fill="#d8a4a2" fill-opacity="1"><g transform="translate(110.192981, 44.384719)"><g><path d="M 9.3125 -14.25 C 9.445312 -14.25 9.550781 -14.207031 9.625 -14.125 C 9.707031 -14.050781 9.75 -13.953125 9.75 -13.828125 L 9.6875 -11.390625 C 9.664062 -11.128906 9.539062 -10.992188 9.3125 -10.984375 L 3.6875 -10.390625 L 3.53125 -8.6875 L 7.75 -8.921875 L 7.75 -6.90625 L 7.828125 -6.90625 L 7.828125 -8.921875 C 7.941406 -8.921875 8.039062 -8.878906 8.125 -8.796875 C 8.21875 -8.710938 8.265625 -8.617188 8.265625 -8.515625 L 8.265625 -6.375 C 8.265625 -6.144531 8.148438 -6.007812 7.921875 -5.96875 L 3.4375 -5.375 L 3.328125 -3.6875 L 8.796875 -3.84375 C 8.921875 -3.84375 9.019531 -3.800781 9.09375 -3.71875 C 9.175781 -3.632812 9.21875 -3.539062 9.21875 -3.4375 L 9.21875 -0.859375 C 9.21875 -0.597656 9.085938 -0.460938 8.828125 -0.453125 L 0.21875 0 C 0.101562 0 0.00390625 -0.0351562 -0.078125 -0.109375 C -0.160156 -0.179688 -0.203125 -0.285156 -0.203125 -0.421875 C -0.171875 -2.441406 -0.109375 -4.546875 -0.015625 -6.734375 C 0.078125 -8.734375 0.242188 -10.988281 0.484375 -13.5 C 0.523438 -13.75 0.664062 -13.875 0.90625 -13.875 Z M 3.484375 -13.8125 L 3.515625 -13.8125 L 3.515625 -13.875 L 3.484375 -13.875 Z M 4.8125 -13.6875 C 4.789062 -13.664062 4.785156 -13.648438 4.796875 -13.640625 C 4.804688 -13.640625 4.820312 -13.640625 4.84375 -13.640625 C 4.820312 -13.640625 4.8125 -13.65625 4.8125 -13.6875 Z M 5.1875 -13.328125 C 5.21875 -13.359375 5.234375 -13.390625 5.234375 -13.421875 C 5.234375 -13.472656 5.191406 -13.5 5.109375 -13.5 C 5.023438 -13.5 4.960938 -13.472656 4.921875 -13.421875 L 4.875 -13.328125 C 4.90625 -13.359375 4.921875 -13.390625 4.921875 -13.421875 L 5.03125 -13.4375 C 5.113281 -13.425781 5.15625 -13.390625 5.15625 -13.328125 L 5.15625 -13.25 C 5.15625 -13.28125 5.164062 -13.304688 5.1875 -13.328125 Z M 8.265625 -13.484375 L 8.21875 -13.484375 L 8.21875 -13.421875 L 8.265625 -13.421875 Z M 2.453125 -13.359375 L 2.890625 -13.359375 L 2.890625 -13.421875 L 2.453125 -13.421875 Z M 3.921875 -13.421875 L 3.640625 -13.421875 L 3.640625 -13.390625 L 3.59375 -13.390625 C 3.53125 -13.367188 3.5 -13.347656 3.5 -13.328125 L 3.640625 -13.328125 L 3.65625 -13.359375 L 3.921875 -13.359375 Z M 3.25 -13.328125 L 3.3125 -13.328125 L 3.3125 -13.375 L 3.25 -13.375 Z M 6.640625 -13.328125 L 6.484375 -13.328125 L 6.484375 -13.25 L 6.640625 -13.25 Z M 4.21875 -13.25 C 4.1875 -13.25 4.171875 -13.21875 4.171875 -13.15625 C 4.171875 -13.15625 4.195312 -13.179688 4.25 -13.234375 C 4.289062 -13.273438 4.28125 -13.28125 4.21875 -13.25 Z M 5.5625 -13.1875 L 5.484375 -13.1875 L 5.484375 -13.15625 L 5.5625 -13.15625 Z M 2.265625 -12.84375 L 2.296875 -12.765625 L 2.296875 -12.71875 L 2.375 -12.71875 C 2.375 -12.738281 2.382812 -12.757812 2.40625 -12.78125 C 2.4375 -12.8125 2.453125 -12.828125 2.453125 -12.828125 Z M 4.765625 -12.5625 C 4.691406 -12.582031 4.65625 -12.609375 4.65625 -12.640625 L 4.65625 -12.65625 L 4.765625 -12.765625 L 4.6875 -12.71875 L 4.640625 -12.71875 C 4.628906 -12.71875 4.617188 -12.710938 4.609375 -12.703125 C 4.609375 -12.703125 4.597656 -12.703125 4.578125 -12.703125 L 4.546875 -12.703125 C 4.472656 -12.671875 4.414062 -12.613281 4.375 -12.53125 L 4.421875 -12.5 L 4.65625 -12.5 C 4.675781 -12.5 4.6875 -12.5 4.6875 -12.5 C 4.695312 -12.507812 4.703125 -12.515625 4.703125 -12.515625 L 4.71875 -12.515625 Z M 5.46875 -12.5 L 5.484375 -12.5 L 5.5 -12.46875 L 5.515625 -12.53125 L 5.46875 -12.53125 Z M 4.296875 -12.359375 L 4.25 -12.46875 C 4.144531 -12.4375 4.09375 -12.398438 4.09375 -12.359375 C 4.132812 -12.335938 4.160156 -12.335938 4.171875 -12.359375 Z M 5.1875 -12.1875 C 5.1875 -12.21875 5.15625 -12.257812 5.09375 -12.3125 L 5.03125 -12.1875 Z M 6.03125 -12.171875 C 6.03125 -12.179688 6.019531 -12.203125 6 -12.234375 L 5.953125 -12.265625 C 5.835938 -12.222656 5.78125 -12.1875 5.78125 -12.15625 Z M 4.65625 -12.15625 C 4.582031 -12.1875 4.523438 -12.203125 4.484375 -12.203125 C 4.410156 -12.203125 4.375 -12.171875 4.375 -12.109375 L 4.484375 -12.046875 L 4.546875 -12.03125 L 4.5625 -12.03125 C 4.59375 -12.03125 4.609375 -12.050781 4.609375 -12.09375 Z M 5.46875 -11.984375 C 5.488281 -11.953125 5.519531 -11.953125 5.5625 -11.984375 C 5.5625 -12.066406 5.535156 -12.113281 5.484375 -12.125 L 5.40625 -12.109375 L 5.3125 -12.09375 L 5.359375 -11.984375 Z M 1.171875 -12.046875 L 1.140625 -12.046875 L 1.109375 -12.03125 L 1.140625 -12 Z M 4.96875 -11.859375 C 5.007812 -11.859375 5.03125 -11.882812 5.03125 -11.9375 C 5.03125 -12 4.992188 -12.03125 4.921875 -12.03125 L 4.890625 -12 L 4.875 -12 L 4.84375 -11.984375 C 4.820312 -11.953125 4.8125 -11.925781 4.8125 -11.90625 L 4.828125 -11.859375 Z M 8.015625 -12 L 7.984375 -12 L 7.984375 -11.90625 L 8.015625 -11.90625 Z M 4.921875 -11 L 4.890625 -11 L 4.890625 -10.9375 L 4.921875 -10.9375 Z M 3.265625 -10.9375 C 3.242188 -10.9375 3.234375 -10.914062 3.234375 -10.875 L 3.265625 -10.875 L 3.296875 -10.90625 C 3.273438 -10.90625 3.265625 -10.914062 3.265625 -10.9375 Z M 3.15625 -9.9375 C 3.125 -9.914062 3.109375 -9.90625 3.109375 -9.90625 L 3.21875 -9.875 C 3.226562 -9.894531 3.226562 -9.929688 3.21875 -9.984375 C 3.195312 -9.984375 3.175781 -9.96875 3.15625 -9.9375 Z M 3.25 -9.53125 L 3.265625 -9.546875 L 3.171875 -9.578125 L 3.171875 -9.546875 Z M 3.375 -8.71875 L 3.484375 -8.71875 L 3.484375 -8.8125 L 3.375 -8.8125 Z M 3.4375 -8.453125 C 3.394531 -8.453125 3.367188 -8.457031 3.359375 -8.46875 L 3.265625 -8.484375 L 3.25 -8.46875 C 3.207031 -8.457031 3.1875 -8.429688 3.1875 -8.390625 C 3.1875 -8.316406 3.242188 -8.28125 3.359375 -8.28125 C 3.398438 -8.28125 3.425781 -8.285156 3.4375 -8.296875 Z M 4.984375 -8.328125 L 5.015625 -8.328125 L 5.015625 -8.34375 Z M 7.921875 -8.0625 C 7.960938 -8.0625 7.992188 -8.050781 8.015625 -8.03125 L 8.125 -8.015625 L 8.203125 -8.125 L 8.203125 -8.28125 C 8.191406 -8.289062 8.164062 -8.300781 8.125 -8.3125 C 8.09375 -8.332031 8.0625 -8.34375 8.03125 -8.34375 L 7.921875 -8.265625 Z M 5.09375 -8.296875 L 5.140625 -8.328125 L 5.09375 -8.328125 Z M 4.5625 -8.09375 L 4.65625 -8.015625 C 4.6875 -8.023438 4.703125 -8.046875 4.703125 -8.078125 C 4.710938 -8.117188 4.707031 -8.144531 4.6875 -8.15625 Z M 5.09375 -8.078125 L 5.171875 -8.03125 L 5.21875 -8.15625 L 5.140625 -8.15625 Z M 3.890625 -7.9375 C 3.972656 -7.96875 3.972656 -8.007812 3.890625 -8.0625 Z M 3.578125 -7.8125 L 3.65625 -7.734375 L 3.765625 -7.703125 L 3.78125 -7.734375 L 3.828125 -7.734375 L 3.828125 -7.828125 C 3.773438 -7.828125 3.734375 -7.84375 3.703125 -7.875 L 3.65625 -7.859375 C 3.65625 -7.859375 3.648438 -7.851562 3.640625 -7.84375 C 3.640625 -7.832031 3.640625 -7.828125 3.640625 -7.828125 Z M 4.5625 -7.828125 L 4.609375 -7.75 L 4.75 -7.75 L 4.6875 -7.796875 L 4.609375 -7.859375 Z M 3.21875 -7.765625 C 3.195312 -7.785156 3.164062 -7.800781 3.125 -7.8125 C 3.082031 -7.820312 3.050781 -7.828125 3.03125 -7.828125 C 3.03125 -7.804688 3.050781 -7.78125 3.09375 -7.75 C 3.113281 -7.71875 3.171875 -7.703125 3.265625 -7.703125 L 3.328125 -7.703125 L 3.328125 -7.765625 Z M 4.515625 -7.53125 L 4.6875 -7.53125 C 4.707031 -7.539062 4.71875 -7.5625 4.71875 -7.59375 L 4.71875 -7.671875 L 4.5625 -7.671875 L 4.546875 -7.59375 Z M 3.0625 -7.40625 C 3.0625 -7.394531 3.066406 -7.382812 3.078125 -7.375 C 3.085938 -7.363281 3.097656 -7.367188 3.109375 -7.390625 L 3.171875 -7.40625 L 3.125 -7.421875 L 3.109375 -7.421875 C 3.078125 -7.421875 3.0625 -7.414062 3.0625 -7.40625 Z M 2.828125 -7.015625 C 2.890625 -7.015625 2.9375 -7.03125 2.96875 -7.0625 C 2.9375 -7.0625 2.910156 -7.070312 2.890625 -7.09375 L 2.859375 -7.125 L 2.765625 -7.125 C 2.722656 -7.082031 2.703125 -7.039062 2.703125 -7 Z M 3.109375 -6.90625 C 3.035156 -6.90625 2.941406 -6.921875 2.828125 -6.953125 L 2.765625 -6.90625 L 2.828125 -6.828125 C 2.847656 -6.898438 2.878906 -6.921875 2.921875 -6.890625 C 3.003906 -6.890625 3.066406 -6.894531 3.109375 -6.90625 Z M 2.234375 -6.90625 C 2.191406 -6.894531 2.171875 -6.867188 2.171875 -6.828125 L 2.234375 -6.796875 L 2.3125 -6.8125 C 2.3125 -6.84375 2.332031 -6.863281 2.375 -6.875 L 2.3125 -6.890625 Z M 7.796875 -6.359375 L 7.875 -6.46875 L 7.921875 -6.546875 L 7.875 -6.6875 C 7.863281 -6.695312 7.835938 -6.757812 7.796875 -6.875 Z M 3.09375 -6.546875 C 3.09375 -6.566406 3.132812 -6.632812 3.21875 -6.75 L 3.125 -6.765625 L 3.046875 -6.765625 C 3.003906 -6.765625 2.960938 -6.753906 2.921875 -6.734375 L 2.765625 -6.671875 C 2.804688 -6.648438 2.84375 -6.632812 2.875 -6.625 C 2.90625 -6.613281 2.925781 -6.597656 2.9375 -6.578125 C 2.914062 -6.515625 2.910156 -6.46875 2.921875 -6.4375 L 3.109375 -6.484375 Z M 2.53125 -6.578125 C 2.570312 -6.554688 2.609375 -6.554688 2.640625 -6.578125 L 2.625 -6.609375 L 2.578125 -6.625 L 2.53125 -6.609375 Z M 3.1875 -6.609375 C 3.207031 -6.566406 3.222656 -6.535156 3.234375 -6.515625 C 3.253906 -6.503906 3.285156 -6.5 3.328125 -6.5 C 3.347656 -6.5 3.398438 -6.515625 3.484375 -6.546875 L 3.421875 -6.609375 Z M 2.578125 -6.546875 C 2.492188 -6.503906 2.472656 -6.46875 2.515625 -6.4375 L 2.53125 -6.359375 C 2.59375 -6.359375 2.632812 -6.375 2.65625 -6.40625 C 2.65625 -6.457031 2.628906 -6.503906 2.578125 -6.546875 Z M 3.5 -6.34375 L 3.390625 -6.34375 C 3.347656 -6.34375 3.328125 -6.328125 3.328125 -6.296875 C 3.328125 -6.273438 3.316406 -6.265625 3.296875 -6.265625 C 3.296875 -6.328125 3.273438 -6.363281 3.234375 -6.375 L 3.109375 -6.375 C 3.109375 -6.351562 3.125 -6.34375 3.15625 -6.34375 L 3.21875 -6.28125 L 3.0625 -6.21875 L 2.96875 -6.140625 C 2.976562 -6.117188 2.992188 -6.109375 3.015625 -6.109375 C 3.035156 -6.109375 3.050781 -6.101562 3.0625 -6.09375 L 3.234375 -6.09375 C 3.285156 -6.09375 3.375 -6.117188 3.5 -6.171875 Z M 2.765625 -6.265625 C 2.722656 -6.265625 2.6875 -6.238281 2.65625 -6.1875 C 2.632812 -6.132812 2.625 -6.085938 2.625 -6.046875 L 2.625 -5.953125 C 2.6875 -5.898438 2.742188 -5.875 2.796875 -5.875 L 2.859375 -5.875 L 2.921875 -5.90625 L 2.921875 -6.171875 L 2.84375 -6.234375 Z M 2.4375 -6.15625 C 2.414062 -6.15625 2.390625 -6.144531 2.359375 -6.125 C 2.335938 -6.101562 2.328125 -6.085938 2.328125 -6.078125 C 2.378906 -6.054688 2.425781 -6.054688 2.46875 -6.078125 Z M 6.96875 -6.03125 L 7.21875 -6.03125 L 7.21875 -6.09375 L 6.96875 -6.09375 Z M 3.390625 -5.96875 C 3.421875 -5.96875 3.4375 -5.988281 3.4375 -6.03125 L 3.3125 -6.03125 L 3.265625 -5.96875 Z M 2.265625 -5.953125 C 2.203125 -5.941406 2.171875 -5.914062 2.171875 -5.875 L 2.265625 -5.875 C 2.285156 -5.882812 2.285156 -5.910156 2.265625 -5.953125 Z M 3.21875 -5.828125 C 3.238281 -5.816406 3.273438 -5.8125 3.328125 -5.8125 C 3.328125 -5.851562 3.300781 -5.882812 3.25 -5.90625 Z M 2.625 -5.828125 C 2.5625 -5.773438 2.53125 -5.734375 2.53125 -5.703125 L 2.71875 -5.6875 L 2.765625 -5.765625 C 2.734375 -5.796875 2.71875 -5.816406 2.71875 -5.828125 Z M 2.96875 -5.671875 L 2.9375 -5.78125 C 2.875 -5.78125 2.84375 -5.753906 2.84375 -5.703125 L 2.84375 -5.625 Z M 3.359375 -5.625 C 3.359375 -5.65625 3.34375 -5.671875 3.3125 -5.671875 L 3.265625 -5.703125 C 3.242188 -5.691406 3.1875 -5.6875 3.09375 -5.6875 L 3 -5.671875 L 2.96875 -5.640625 L 3.0625 -5.5625 C 3.144531 -5.59375 3.195312 -5.609375 3.21875 -5.609375 Z M 3.03125 -5.421875 L 3.09375 -5.46875 L 2.921875 -5.5 L 2.921875 -5.421875 Z M 2.890625 -5.421875 C 2.828125 -5.453125 2.769531 -5.46875 2.71875 -5.46875 L 2.765625 -5.375 C 2.816406 -5.375 2.859375 -5.390625 2.890625 -5.421875 Z M 2.640625 -5.296875 C 2.640625 -5.285156 2.625 -5.265625 2.59375 -5.234375 L 2.828125 -5.21875 C 2.847656 -5.21875 2.859375 -5.238281 2.859375 -5.28125 Z M 2.4375 -5.15625 C 2.457031 -5.113281 2.5 -5.09375 2.5625 -5.09375 L 2.46875 -5.25 L 2.328125 -5.234375 Z M 2.78125 -4.96875 C 2.75 -5.019531 2.742188 -5.054688 2.765625 -5.078125 C 2.773438 -5.117188 2.773438 -5.144531 2.765625 -5.15625 L 2.703125 -5.09375 C 2.679688 -5.09375 2.671875 -5.078125 2.671875 -5.046875 L 2.671875 -4.96875 Z M 3.1875 -5.015625 C 3.257812 -5.015625 3.296875 -5.039062 3.296875 -5.09375 L 3.1875 -5.09375 Z M 2.109375 -5.078125 C 2.066406 -5.054688 2.046875 -5.035156 2.046875 -5.015625 L 2.171875 -4.96875 C 2.171875 -5 2.175781 -5.019531 2.1875 -5.03125 L 2.203125 -5.046875 Z M 2.671875 -4.921875 L 2.671875 -4.84375 L 2.734375 -4.84375 L 2.734375 -4.921875 Z M 2.78125 -4.890625 C 2.78125 -4.859375 2.785156 -4.84375 2.796875 -4.84375 L 2.828125 -4.8125 L 2.96875 -4.84375 C 2.945312 -4.84375 2.9375 -4.859375 2.9375 -4.890625 L 2.9375 -4.90625 C 2.914062 -4.90625 2.894531 -4.898438 2.875 -4.890625 C 2.863281 -4.890625 2.851562 -4.890625 2.84375 -4.890625 Z M 3.109375 -4.703125 L 2.984375 -4.703125 L 2.984375 -4.625 L 3.109375 -4.625 Z M 1.9375 -4.578125 C 1.914062 -4.535156 1.925781 -4.492188 1.96875 -4.453125 C 2.03125 -4.484375 2.0625 -4.523438 2.0625 -4.578125 Z M 2.375 -4.4375 L 2.40625 -4.421875 C 2.4375 -4.421875 2.457031 -4.425781 2.46875 -4.4375 L 2.453125 -4.546875 L 2.40625 -4.546875 C 2.40625 -4.546875 2.398438 -4.539062 2.390625 -4.53125 C 2.390625 -4.519531 2.390625 -4.515625 2.390625 -4.515625 L 2.359375 -4.515625 L 2.359375 -4.4375 Z M 1.9375 -4.109375 C 2 -4.109375 2.035156 -4.113281 2.046875 -4.125 C 2.046875 -4.144531 2.046875 -4.15625 2.046875 -4.15625 C 2.054688 -4.164062 2.070312 -4.175781 2.09375 -4.1875 L 2.03125 -4.234375 L 1.921875 -4.1875 Z M 2.53125 -4.15625 L 2.4375 -4.15625 L 2.4375 -4.125 L 2.515625 -4.109375 Z M 2.203125 -3.90625 C 2.234375 -3.875 2.269531 -3.859375 2.3125 -3.859375 L 2.3125 -3.921875 C 2.3125 -3.921875 2.3125 -3.941406 2.3125 -3.984375 C 2.269531 -3.984375 2.234375 -3.957031 2.203125 -3.90625 Z M 4.015625 -3.125 L 4.171875 -3.125 L 4.171875 -3.171875 L 4.015625 -3.171875 Z M 4.828125 -3.109375 C 4.753906 -3.066406 4.71875 -3.046875 4.71875 -3.046875 C 4.757812 -3.035156 4.78125 -3.007812 4.78125 -2.96875 L 4.890625 -2.96875 C 4.910156 -2.988281 4.921875 -3.007812 4.921875 -3.03125 L 4.953125 -3.0625 L 4.90625 -3.171875 C 4.90625 -3.160156 4.898438 -3.144531 4.890625 -3.125 C 4.878906 -3.113281 4.859375 -3.109375 4.828125 -3.109375 Z M 6 -3.03125 L 6.03125 -3.03125 L 6.046875 -3.0625 L 6.03125 -3.09375 Z M 4.25 -3.0625 L 4.125 -3.0625 L 4.125 -3.03125 L 4.25 -3.03125 Z M 5.1875 -2.90625 L 5.28125 -2.921875 C 5.28125 -2.929688 5.269531 -2.9375 5.25 -2.9375 C 5.25 -2.9375 5.238281 -2.953125 5.21875 -2.984375 Z M 4.015625 -2.859375 L 4.046875 -2.828125 C 4.117188 -2.847656 4.132812 -2.875 4.09375 -2.90625 C 4.0625 -2.90625 4.046875 -2.898438 4.046875 -2.890625 L 4.015625 -2.890625 Z M 4.71875 -2.828125 C 4.695312 -2.847656 4.664062 -2.859375 4.625 -2.859375 L 4.65625 -2.71875 C 4.65625 -2.71875 4.660156 -2.71875 4.671875 -2.71875 C 4.679688 -2.726562 4.6875 -2.734375 4.6875 -2.734375 C 4.695312 -2.734375 4.703125 -2.75 4.703125 -2.78125 C 4.710938 -2.78125 4.71875 -2.796875 4.71875 -2.828125 Z M 5.109375 -2.78125 C 5.046875 -2.75 5.015625 -2.710938 5.015625 -2.671875 L 5.109375 -2.671875 C 5.109375 -2.703125 5.117188 -2.722656 5.140625 -2.734375 Z M 2.203125 -2.46875 L 2.203125 -2.359375 C 2.203125 -2.359375 2.21875 -2.367188 2.25 -2.390625 L 2.328125 -2.46875 Z M 2.625 -2.46875 C 2.625 -2.425781 2.65625 -2.40625 2.71875 -2.40625 L 2.71875 -2.453125 C 2.71875 -2.460938 2.722656 -2.46875 2.734375 -2.46875 Z M 3.6875 -2.40625 L 3.71875 -2.328125 L 3.765625 -2.328125 L 3.703125 -2.40625 Z M 5.640625 -2.359375 C 5.640625 -2.285156 5.675781 -2.25 5.75 -2.25 L 5.78125 -2.3125 L 5.8125 -2.359375 Z M 4.921875 -2.3125 L 4.890625 -2.3125 L 4.875 -2.25 L 4.921875 -2.25 Z M 4.28125 -2.1875 C 4.289062 -2.195312 4.296875 -2.203125 4.296875 -2.203125 L 4.25 -2.25 L 4.21875 -2.25 L 4.25 -2.171875 C 4.25 -2.171875 4.253906 -2.171875 4.265625 -2.171875 C 4.273438 -2.179688 4.28125 -2.1875 4.28125 -2.1875 Z M 2.5 -1.96875 L 2.328125 -1.96875 L 2.328125 -1.859375 L 2.5 -1.859375 Z M 0.609375 -1.515625 C 0.609375 -1.578125 0.628906 -1.617188 0.671875 -1.640625 L 0.40625 -1.640625 L 0.40625 -1.515625 Z M 8.0625 -1.546875 L 8.296875 -1.515625 L 8.296875 -1.578125 L 8.09375 -1.640625 Z M 1.9375 -1.59375 L 1.71875 -1.59375 L 1.71875 -1.515625 L 1.9375 -1.515625 Z M 3.296875 -1.515625 L 3.296875 -1.40625 L 3.453125 -1.40625 L 3.453125 -1.515625 Z M 4.421875 -1.4375 C 4.398438 -1.40625 4.390625 -1.347656 4.390625 -1.265625 L 4.421875 -1.171875 L 4.703125 -1.171875 L 4.75 -1.25 C 4.757812 -1.257812 4.765625 -1.285156 4.765625 -1.328125 L 4.65625 -1.4375 Z M 1.265625 -1.328125 L 1.5 -1.328125 L 1.5 -1.40625 L 1.265625 -1.40625 Z M 2.171875 -0.90625 C 2.210938 -0.914062 2.242188 -0.953125 2.265625 -1.015625 C 2.296875 -1.078125 2.3125 -1.140625 2.3125 -1.203125 C 2.3125 -1.285156 2.289062 -1.347656 2.25 -1.390625 C 2.21875 -1.390625 2.164062 -1.367188 2.09375 -1.328125 C 2.144531 -1.203125 2.171875 -1.0625 2.171875 -0.90625 Z M 0.125 -1.1875 C 0.132812 -1.144531 0.171875 -1.125 0.234375 -1.125 C 0.296875 -1.132812 0.34375 -1.15625 0.375 -1.1875 Z M 0.984375 -1.109375 L 0.9375 -1.109375 L 0.9375 -1.1875 L 0.75 -1.1875 L 0.75 -1.109375 L 0.9375 -1.109375 L 0.9375 -1.015625 L 0.984375 -1.015625 Z M 3.109375 -1.0625 C 2.992188 -1.0625 2.921875 -1.054688 2.890625 -1.046875 L 2.765625 -1 L 2.65625 -0.984375 C 2.6875 -0.972656 2.710938 -0.945312 2.734375 -0.90625 C 2.765625 -0.875 2.785156 -0.84375 2.796875 -0.8125 C 2.867188 -0.851562 2.9375 -0.910156 3 -0.984375 Z M 1.71875 -0.875 C 1.75 -0.914062 1.765625 -0.957031 1.765625 -1 L 1.40625 -1 L 1.40625 -0.8125 C 1.519531 -0.8125 1.617188 -0.800781 1.703125 -0.78125 Z M 5.46875 -0.90625 L 5.609375 -0.90625 L 5.609375 -0.9375 L 5.46875 -0.9375 Z M 8.0625 -0.640625 C 8.0625 -0.597656 8.046875 -0.578125 8.015625 -0.578125 C 8.054688 -0.578125 8.097656 -0.597656 8.140625 -0.640625 Z M 1.46875 -0.59375 L 1.3125 -0.59375 L 1.3125 -0.515625 L 1.46875 -0.515625 Z M 1.46875 -0.59375 "/></g></g></g></svg>