<?xml version="1.0" encoding="UTF-8" standalone="no"?>
<!-- Created with Inkscape (http://www.inkscape.org/) -->

<svg
   version="1.1"
   id="svg2"
   width="604.37335"
   height="445.72"
   viewBox="0 0 604.37335 445.72"
   sodipodi:docname="Stacked White.eps"
   xmlns:inkscape="http://www.inkscape.org/namespaces/inkscape"
   xmlns:sodipodi="http://sodipodi.sourceforge.net/DTD/sodipodi-0.dtd"
   xmlns="http://www.w3.org/2000/svg"
   xmlns:svg="http://www.w3.org/2000/svg">
  <defs
     id="defs6" />
  <sodipodi:namedview
     id="namedview4"
     pagecolor="#ffffff"
     bordercolor="#000000"
     borderopacity="0.25"
     inkscape:showpageshadow="2"
     inkscape:pageopacity="0.0"
     inkscape:pagecheckerboard="0"
     inkscape:deskcolor="#d1d1d1" />
  <g
     id="g8"
     inkscape:groupmode="layer"
     inkscape:label="ink_ext_XXXXXX"
     transform="matrix(1.3333333,0,0,-1.3333333,0,445.72)">
    <g
       id="g10"
       transform="scale(0.1)">
      <path
         d="M 1234.81,7.01953 V 273.25 h 172.11 V 251.809 H 1259.24 V 155.66 h 133.3 v -21.441 h -133.3 V 28.4688 h 151.27 V 7.01953 h -175.7"
         style="fill:#ffffff;fill-opacity:1;fill-rule:nonzero;stroke:none"
         id="path12" />
      <path
         d="m 1478.77,28.4688 h 58.57 c 11.01,0 21.38,0.6718 31.08,2.0312 9.71,1.3594 19.58,4.7422 29.65,10.1719 8.62,4.4375 15.68,10.4687 21.19,18.1172 5.51,7.6406 9.88,15.9609 13.12,24.9609 3.23,8.9922 5.5,18.422 6.82,28.281 1.32,9.867 1.98,19.36 1.98,28.481 0,9.609 -0.6,19.41 -1.79,29.386 -1.2,9.981 -3.48,19.481 -6.83,28.473 -3.36,9 -7.91,17.258 -13.65,24.777 -5.75,7.512 -13.19,13.743 -22.29,18.672 -7.66,4.192 -16.76,6.899 -27.3,8.129 -10.55,1.231 -21.2,1.86 -31.98,1.86 h -58.57 z M 1454.34,7.01953 V 273.25 h 88.39 c 7.18,0 14.24,-0.18 21.2,-0.551 6.94,-0.367 13.77,-1.238 20.48,-2.59 6.71,-1.359 13.23,-3.39 19.59,-6.109 6.33,-2.711 12.51,-6.27 18.5,-10.719 8.63,-6.41 15.69,-14.242 21.19,-23.472 5.51,-9.25 9.89,-18.989 13.12,-29.207 3.23,-10.243 5.51,-20.59 6.83,-31.071 1.31,-10.48 1.98,-20.14 1.98,-29.019 0,-8.883 -0.54,-17.883 -1.62,-26.992 -1.08,-9.122 -2.82,-18.0708 -5.21,-26.8091 -2.4,-8.7617 -5.57,-17.1406 -9.52,-25.1523 -3.96,-8.0078 -8.93,-15.3398 -14.91,-22 -6,-6.8984 -12.52,-12.4492 -19.59,-16.6367 -7.06,-4.1914 -14.49,-7.461 -22.28,-9.793 -7.78,-2.3476 -15.87,-3.94921 -24.25,-4.80859 -8.38,-0.87109 -16.89,-1.30078 -25.51,-1.30078 h -88.39"
         style="fill:#ffffff;fill-opacity:1;fill-rule:nonzero;stroke:none"
         id="path14" />
      <path
         d="M 1722.39,7.01953 V 273.25 h 24.43 V 7.01953 h -24.43"
         style="fill:#ffffff;fill-opacity:1;fill-rule:nonzero;stroke:none"
         id="path16" />
      <path
         d="m 1838.08,239.23 h -0.71 V 7.01953 h -24.44 V 273.25 h 27.67 L 1990.07,40.6719 h 0.71 V 273.25 h 24.44 V 7.01953 h -28.38 L 1838.08,239.23"
         style="fill:#ffffff;fill-opacity:1;fill-rule:nonzero;stroke:none"
         id="path18" />
      <path
         d="m 2097.49,28.4688 h 62.16 c 13.42,0 25.1,0.6132 35.04,1.8398 9.93,1.2305 18.14,3.7617 24.61,7.5898 6.46,3.8204 11.32,9.2422 14.55,16.2735 3.23,7.0195 4.85,16.3281 4.85,27.9101 0,11.0899 -1.79,20.027 -5.39,26.809 -3.59,6.769 -8.75,12.019 -15.45,15.718 -6.71,3.692 -14.73,6.223 -24.07,7.582 -9.34,1.348 -19.76,2.028 -31.26,2.028 h -65.04 z m 0,127.1912 h 61.81 c 12.68,0 23.35,1.121 31.97,3.332 8.62,2.219 15.57,5.477 20.84,9.797 5.27,4.32 9.04,9.621 11.32,15.902 2.28,6.289 3.42,13.5 3.42,21.637 0,8.371 -1.32,15.461 -3.96,21.262 -2.63,5.781 -6.82,10.469 -12.58,14.039 -5.74,3.582 -13.23,6.16 -22.45,7.781 -9.22,1.602 -20.54,2.399 -33.95,2.399 h -56.42 z M 2073.06,7.01953 V 273.25 h 93.43 c 15.08,0 28.01,-1.609 38.8,-4.801 10.78,-3.207 19.58,-7.777 26.4,-13.679 6.84,-5.918 11.8,-13.008 14.91,-21.27 3.12,-8.258 4.68,-17.32 4.68,-27.172 0,-9.379 -1.2,-17.449 -3.59,-24.226 -2.4,-6.782 -5.52,-12.454 -9.35,-17 -3.83,-4.571 -8.2,-8.141 -13.11,-10.723 -4.92,-2.59 -10,-4.387 -15.28,-5.367 v -0.742 c 17.97,-2.711 31.32,-9.981 40.07,-21.809 8.74,-11.84 13.12,-26.629 13.12,-44.379 0,-13.8125 -2.1,-25.5117 -6.29,-35.1328 -4.19,-9.6094 -10,-17.3672 -17.42,-23.289 -7.44,-5.918 -16.36,-10.1602 -26.78,-12.75 -10.42,-2.58989 -21.74,-3.89067 -33.96,-3.89067 h -105.63"
         style="fill:#ffffff;fill-opacity:1;fill-rule:nonzero;stroke:none"
         id="path20" />
      <path
         d="m 2313.08,273.25 h 24.43 V 114.621 c 0,-33.039 5.99,-56.8202 17.97,-71.3593 11.97,-14.5508 31.26,-21.8125 57.84,-21.8125 13.9,0 25.7,1.9024 35.4,5.7305 9.7,3.8203 17.54,9.6094 23.53,17.3711 5.98,7.7695 10.3,17.4375 12.94,29.0312 2.63,11.5899 3.95,25.2696 3.95,41.039 V 273.25 h 24.44 V 107.23 c 0,-34.7612 -8.33,-61.3198 -24.97,-79.6909 C 2471.95,9.17969 2446.86,0 2413.32,0 c -33.77,0 -58.92,9.37109 -75.45,28.1016 -16.53,18.7304 -24.79,45.1093 -24.79,79.1284 v 166.02"
         style="fill:#ffffff;fill-opacity:1;fill-rule:nonzero;stroke:none"
         id="path22" />
      <path
         d="m 2672.39,149.391 c 9.09,0 17.53,0.968 25.33,2.941 7.77,1.977 14.55,5.117 20.29,9.438 5.75,4.312 10.3,9.789 13.65,16.449 3.36,6.652 5.04,14.66 5.04,24.043 0,9.847 -1.75,17.98 -5.21,24.398 -3.48,6.41 -8.15,11.469 -14.02,15.16 -5.87,3.7 -12.57,6.289 -20.11,7.77 -7.55,1.48 -15.4,2.219 -23.54,2.219 H 2596.2 V 149.391 Z M 2596.2,127.93 V 7.01953 l -24.43,0.3711 V 273.25 h 101.33 c 28.5,0 50.3,-5.488 65.4,-16.449 15.09,-10.981 22.64,-28.789 22.64,-53.43 0,-16.769 -3.31,-30.082 -9.89,-39.941 -6.59,-9.86 -17.31,-18.239 -32.16,-25.141 7.66,-2.707 13.66,-6.66 17.96,-11.828 4.32,-5.18 7.55,-11.102 9.71,-17.75 2.16,-6.66 3.53,-13.6797 4.13,-21.0821 0.6,-7.3867 1.02,-14.5391 1.26,-21.4492 0.24,-10.0977 0.66,-18.4805 1.25,-25.1406 0.6,-6.6485 1.32,-12.0782 2.16,-16.2696 0.84,-4.1875 1.85,-7.4492 3.06,-9.8007 1.19,-2.3399 2.63,-4.129 4.3,-5.35942 V 7.39063 l -26.94,-0.3711 c -2.64,4.44137 -4.49,10.60157 -5.57,18.49217 -1.08,7.8867 -1.92,16.1367 -2.52,24.7696 -0.59,8.6289 -1.07,17.0195 -1.43,25.1484 -0.36,8.1406 -1.03,14.7891 -1.98,19.9609 -1.44,7.1484 -3.77,12.8794 -7.01,17.1994 -3.23,4.308 -7.13,7.582 -11.68,9.789 -4.55,2.23 -9.64,3.703 -15.26,4.453 -5.63,0.738 -11.45,1.098 -17.43,1.098 h -76.9"
         style="fill:#ffffff;fill-opacity:1;fill-rule:nonzero;stroke:none"
         id="path24" />
      <path
         d="M 2921.74,123.129 V 144.57 H 3032.4 V 7.01953 h -20.84 V 52.5 c -4.55,-7.8906 -9.75,-15.1016 -15.62,-21.6289 -5.88,-6.5313 -12.64,-12.082 -20.3,-16.6406 C 2967.97,9.67188 2959.1,6.16016 2949.05,3.69141 2938.99,1.23047 2927.61,0 2914.91,0 c -16.28,0 -31.38,2.94922 -45.27,8.87109 -13.9,5.91801 -25.87,14.71871 -35.93,26.43751 -10.06,11.7031 -17.91,26.4414 -23.53,44.1797 -5.64,17.7617 -8.45,38.4607 -8.45,62.1207 0,19.473 2.39,37.661 7.19,54.539 4.78,16.891 12.16,31.563 22.1,44.012 9.93,12.442 22.39,22.238 37.36,29.391 14.97,7.148 32.64,10.719 53,10.719 13.65,0 26.42,-1.719 38.27,-5.168 11.86,-3.461 22.51,-8.692 31.97,-15.711 9.47,-7.032 17.44,-15.789 23.9,-26.25 6.46,-10.493 11.14,-22.879 14.01,-37.172 h -25.15 c -2.15,9.863 -5.81,18.73 -10.96,26.633 -5.16,7.878 -11.32,14.468 -18.51,19.769 -7.17,5.309 -15.21,9.367 -24.07,12.211 -8.86,2.828 -18.08,4.246 -27.66,4.246 -17.02,0 -31.62,-3.09 -43.84,-9.238 -12.22,-6.168 -22.28,-14.86 -30.18,-26.07 -7.91,-11.219 -13.72,-24.649 -17.43,-40.309 -3.71,-15.652 -5.57,-32.852 -5.57,-51.582 0,-14.777 2.09,-28.84 6.29,-42.1485 4.19,-13.3086 10.3,-25.0313 18.32,-35.1211 8.03,-10.1211 17.85,-18.1289 29.47,-24.0508 11.62,-5.8984 24.85,-8.8594 39.7,-8.8594 6.95,0 14.13,0.7891 21.57,2.4024 7.42,1.5976 14.6,4.25 21.55,7.9492 6.94,3.6992 13.42,8.5 19.4,14.418 5.99,5.9101 11.15,13.1914 15.45,21.8203 4.07,8.3711 6.89,17.1328 8.45,26.25 1.55,9.1089 2.45,18.7309 2.7,28.8399 h -87.32"
         style="fill:#ffffff;fill-opacity:1;fill-rule:nonzero;stroke:none"
         id="path26" />
      <path
         d="M 3090.97,7.01953 V 273.25 h 24.43 V 158.992 h 153.07 V 273.25 h 24.43 V 7.01953 h -24.43 V 137.551 H 3115.4 V 7.01953 h -24.43"
         style="fill:#ffffff;fill-opacity:1;fill-rule:nonzero;stroke:none"
         id="path28" />
      <path
         d="m 1225.2,458.422 c -33.1,-28.813 -78.88,-43.223 -137.32,-43.223 -59.26,0 -105.138,14.301 -137.63,42.922 -32.48,28.598 -48.73,72.738 -48.73,132.399 v 272.21 h 96.246 V 590.52 c 0,-11.848 1.015,-23.5 3.064,-34.938 2.04,-11.441 6.33,-21.562 12.88,-30.34 6.53,-8.793 15.62,-15.941 27.27,-21.461 11.64,-5.519 27.28,-8.261 46.9,-8.261 34.33,0 58.03,7.652 71.12,22.98 13.07,15.32 19.61,39.332 19.61,72.02 v 272.21 h 96.25 V 590.52 c 0,-59.25 -16.55,-103.29 -49.66,-132.098 m 193.72,283.519 v -44.132 h 1.84 c 11.03,18.382 25.34,31.773 42.91,40.152 17.57,8.367 35.56,12.578 53.95,12.578 23.3,0 42.4,-3.187 57.31,-9.508 14.92,-6.351 26.67,-15.133 35.26,-26.359 8.58,-11.25 14.6,-24.942 18.07,-41.082 3.49,-16.149 5.22,-34.031 5.22,-53.629 V 425 h -87.05 v 179 c 0,26.172 -4.09,45.691 -12.26,58.559 -8.18,12.871 -22.68,19.312 -43.52,19.312 -23.71,0 -40.88,-7.051 -51.5,-21.152 -10.63,-14.098 -15.93,-37.289 -15.93,-69.59 V 425 h -87.06 v 316.941 z m 270.95,120.789 h 87.05 V 791 h -87.05 z M 1776.92,425 h -87.05 v 316.941 h 87.05 z m 134.86,0 -108.5,316.941 h 91.34 l 66.82,-216.402 h 1.23 l 66.82,216.402 h 86.44 L 2008.64,425 Z m 419.62,242.762 c -10.42,11.449 -26.26,17.179 -47.5,17.179 -13.9,0 -25.45,-2.363 -34.64,-7.062 -9.2,-4.699 -16.56,-10.52 -22.08,-17.457 -5.51,-6.953 -9.4,-14.32 -11.64,-22.082 -2.26,-7.758 -3.58,-14.711 -3.98,-20.848 h 141.61 c -4.09,22.067 -11.35,38.836 -21.77,50.27 M 2233.01,501.02 c 13.08,-12.661 31.88,-18.989 56.41,-18.989 17.56,0 32.69,4.379 45.36,13.168 12.66,8.793 20.43,18.082 23.29,27.891 h 76.63 c -12.26,-38.012 -31.06,-65.192 -56.39,-81.531 -25.35,-16.34 -56,-24.52 -91.96,-24.52 -24.94,0 -47.42,3.992 -67.43,11.953 -20.04,7.969 -37,19.297 -50.89,34.02 -13.9,14.718 -24.63,32.289 -32.19,52.718 -7.57,20.442 -11.33,42.918 -11.33,67.442 0,23.707 3.88,45.777 11.64,66.219 7.76,20.429 18.8,38.089 33.11,53.007 14.3,14.922 31.35,26.661 51.18,35.274 19.82,8.558 41.79,12.867 65.91,12.867 26.97,0 50.47,-5.219 70.5,-15.648 20.02,-10.422 36.47,-24.411 49.34,-41.993 12.87,-17.566 22.17,-37.597 27.9,-60.066 5.72,-22.48 7.76,-45.98 6.13,-70.5 h -228.66 c 1.23,-28.203 8.37,-48.641 21.45,-61.312 M 2562.2,741.941 V 683.09 h 1.23 c 4.08,9.808 9.59,18.898 16.55,27.281 6.94,8.371 14.91,15.527 23.91,21.461 8.98,5.91 18.59,10.52 28.81,13.789 10.21,3.277 20.84,4.918 31.88,4.918 5.72,0 12.04,-1.027 19,-3.078 v -80.93 c -4.09,0.828 -8.99,1.551 -14.71,2.16 -5.73,0.61 -11.25,0.911 -16.55,0.911 -15.94,0 -29.43,-2.653 -40.46,-7.954 -11.04,-5.32 -19.92,-12.578 -26.66,-21.777 -6.75,-9.191 -11.56,-19.91 -14.42,-32.172 -2.86,-12.258 -4.29,-25.551 -4.29,-39.859 V 425 h -87.05 v 316.941 z m 216.7,-238.16 c 3.88,-6.742 8.9,-12.261 15.03,-16.551 6.13,-4.289 13.17,-7.449 21.14,-9.5 7.97,-2.05 16.26,-3.07 24.83,-3.07 6.14,0 12.57,0.711 19.31,2.149 6.74,1.421 12.87,3.679 18.39,6.75 5.52,3.062 10.12,7.132 13.8,12.25 3.68,5.113 5.52,11.55 5.52,19.312 0,13.078 -8.69,22.891 -26.06,29.438 -17.37,6.523 -41.59,13.07 -72.64,19.601 -12.68,2.86 -25.03,6.231 -37.09,10.121 -12.05,3.879 -22.79,8.981 -32.18,15.328 -9.41,6.332 -16.97,14.301 -22.68,23.911 -5.74,9.589 -8.59,21.351 -8.59,35.25 0,20.429 3.98,37.191 11.95,50.269 7.97,13.07 18.49,23.383 31.58,30.953 13.07,7.559 27.78,12.867 44.13,15.938 16.34,3.062 33.11,4.609 50.27,4.609 17.17,0 33.82,-1.641 49.96,-4.918 16.15,-3.269 30.55,-8.781 43.23,-16.562 12.66,-7.75 23.19,-18.071 31.56,-30.938 8.38,-12.879 13.39,-29.129 15.03,-48.73 h -82.76 c -1.23,16.738 -7.57,28.078 -19.01,34.007 -11.44,5.922 -24.93,8.891 -40.46,8.891 -4.9,0 -10.22,-0.309 -15.94,-0.918 -5.73,-0.609 -10.93,-1.941 -15.64,-3.98 -4.7,-2.051 -8.68,-5.02 -11.94,-8.891 -3.28,-3.891 -4.91,-9.09 -4.91,-15.641 0,-7.757 2.86,-14.089 8.58,-19 5.72,-4.91 13.18,-8.89 22.38,-11.949 9.19,-3.07 19.71,-5.828 31.57,-8.281 11.85,-2.449 23.91,-5.109 36.17,-7.969 12.66,-2.859 25.02,-6.328 37.09,-10.418 12.06,-4.094 22.77,-9.504 32.18,-16.25 9.4,-6.742 16.96,-15.121 22.69,-25.133 5.72,-10.019 8.58,-22.379 8.58,-37.089 0,-20.829 -4.19,-38.309 -12.58,-52.411 -8.38,-14.109 -19.3,-25.449 -32.78,-34.039 -13.49,-8.558 -28.93,-14.609 -46.3,-18.07 -17.36,-3.461 -35.04,-5.211 -53.02,-5.211 -18.39,0 -36.38,1.852 -53.95,5.512 -17.57,3.679 -33.2,9.82 -46.9,18.39 -13.69,8.579 -24.92,19.93 -33.72,34.028 -8.78,14.101 -13.58,31.781 -14.4,53.019 h 82.76 c 0,-9.398 1.94,-17.457 5.82,-24.207 m 246.13,358.949 h 87.05 V 791 h -87.05 z M 3112.08,425 h -87.05 v 316.941 h 87.05 z m 230.5,316.941 v -58.242 h -63.75 V 526.77 c 0,-14.719 2.45,-24.52 7.35,-29.438 4.91,-4.883 14.71,-7.352 29.43,-7.352 4.9,0 9.59,0.219 14.1,0.622 4.49,0.41 8.78,1.019 12.87,1.847 V 425 c -7.35,-1.23 -15.54,-2.039 -24.52,-2.449 -9,-0.403 -17.78,-0.621 -26.36,-0.621 -13.49,0 -26.26,0.929 -38.31,2.769 -12.06,1.84 -22.68,5.422 -31.88,10.723 -9.19,5.316 -16.46,12.867 -21.77,22.699 -5.31,9.809 -7.97,22.68 -7.97,38.617 v 186.961 h -52.72 v 58.242 h 52.72 v 95.028 h 87.06 V 741.941 Z M 3509.3,330.609 c -16.77,-11.05 -40.07,-16.558 -69.89,-16.558 -9,0 -17.87,0.308 -26.66,0.918 -8.79,0.613 -17.69,1.32 -26.67,2.152 v 71.707 c 8.17,-0.808 16.55,-1.617 25.13,-2.449 8.59,-0.809 17.16,-1.008 25.75,-0.617 11.43,1.226 19.93,5.73 25.44,13.488 5.52,7.77 8.28,16.359 8.28,25.75 0,6.949 -1.23,13.488 -3.69,19.629 l -110.95,297.312 h 92.57 l 71.72,-217.019 h 1.23 l 69.27,217.019 h 90.12 L 3548.53,385.762 c -9.41,-25.742 -22.48,-44.121 -39.23,-55.153"
         style="fill:#ffffff;fill-opacity:1;fill-rule:nonzero;stroke:none"
         id="path30" />
      <path
         d="m 257.473,1171.37 -44.75,-47.81 41.074,-37.4 c -4.902,-2.21 -10.024,-3.7 -15.328,-4.42 -5.317,-0.72 -13.086,-1.09 -23.297,-1.09 -21.668,0 -40.059,4.17 -55.168,12.52 -15.129,8.37 -27.391,19.48 -36.785,33.34 -9.406,13.88 -16.254,29.48 -20.528,46.81 -4.3043,17.33 -6.4449,35.18 -6.4449,53.53 0,19.17 2.1406,37.71 6.4449,55.66 4.274,17.97 11.122,33.97 20.528,48.04 9.394,14.07 21.656,25.27 36.785,33.64 15.109,8.36 33.5,12.55 55.168,12.55 21.656,0 40.051,-4.19 55.176,-12.58 15.113,-8.37 27.375,-19.62 36.785,-33.71 9.394,-14.1 16.234,-30.15 20.527,-48.13 4.305,-17.98 6.445,-36.58 6.445,-55.78 0,-23.29 -2.453,-43.12 -7.359,-59.46 -4.902,-16.36 -11.445,-30.04 -19.613,-41.07 z m 125.675,-202.3 44.75,46.58 -54.562,49.66 c 18.394,20.85 32.492,44.95 42.301,72.35 9.808,27.37 14.711,57.01 14.711,88.88 0,32.69 -4.903,63.05 -14.711,91.03 -9.809,28 -23.907,52.42 -42.301,73.27 -18.387,20.84 -40.871,37.18 -67.43,49.04 -26.578,11.85 -56.816,17.78 -90.734,17.78 -33.516,0 -63.652,-5.93 -90.43,-17.78 -26.7576,-11.86 -49.3397,-28.2 -67.7264,-49.04 -18.3945,-20.85 -32.4961,-45.27 -42.3008,-73.27 -9.80855,-27.98 -14.71089375,-58.34 -14.71089375,-91.03 0,-31.87 4.90234375,-61.62 14.71089375,-89.21 9.8047,-27.57 23.9063,-51.59 42.3008,-72.02 18.3867,-20.44 40.9688,-36.46 67.7264,-48.11 26.778,-11.66 56.914,-17.481 90.43,-17.481 41.691,0 77.031,8.391 106.055,25.131 z m 305.903,40.46 v 44.13 h -1.84 c -11.035,-18.39 -25.348,-31.67 -42.91,-39.84 -17.578,-8.17 -35.559,-12.26 -53.946,-12.26 -23.296,0 -42.402,3.06 -57.332,9.19 -14.91,6.14 -26.66,14.82 -35.238,26.05 -8.582,11.25 -14.613,24.94 -18.094,41.09 -3.464,16.13 -5.203,34.01 -5.203,53.63 v 194.95 h 87.051 v -179.01 c 0,-26.16 4.078,-45.67 12.262,-58.55 8.168,-12.87 22.679,-19.3 43.527,-19.3 23.692,0 40.86,7.04 51.492,21.15 10.621,14.1 15.938,37.29 15.938,69.57 v 166.14 h 87.051 v -316.94 z m 328.269,242.76 c -10.42,11.43 -26.257,17.16 -47.511,17.16 -13.887,0 -25.438,-2.35 -34.629,-7.05 -9.2,-4.69 -16.555,-10.52 -22.071,-17.47 -5.519,-6.95 -9.41,-14.31 -11.652,-22.07 -2.25,-7.76 -3.574,-14.71 -3.988,-20.84 h 141.611 c -4.08,22.07 -11.33,38.82 -21.76,50.27 m -98.398,-166.74 c 13.086,-12.68 31.883,-19.01 56.402,-19.01 17.578,0 32.706,4.39 45.366,13.19 12.67,8.78 20.44,18.07 23.29,27.89 h 76.63 c -12.26,-38.01 -31.05,-65.2 -56.4,-81.54 -25.33,-16.35 -55.99,-24.52 -91.952,-24.52 -24.922,0 -47.403,3.98 -67.438,11.95 -20.011,7.97 -36.976,19.31 -50.879,34.03 -13.886,14.71 -24.621,32.28 -32.175,52.71 -7.571,20.43 -11.348,42.92 -11.348,67.45 0,23.69 3.891,45.76 11.645,66.2 7.773,20.43 18.804,38.1 33.105,53.02 14.312,14.93 31.363,26.67 51.195,35.26 19.817,8.58 41.789,12.87 65.895,12.87 26.972,0 50.482,-5.22 70.502,-15.64 20.03,-10.41 36.48,-24.42 49.35,-41.99 12.88,-17.58 22.17,-37.6 27.89,-60.08 5.73,-22.48 7.77,-45.97 6.13,-70.49 H 897.469 c 1.226,-28.2 8.383,-48.65 21.453,-61.3 m 438.008,166.74 c -10.41,11.43 -26.26,17.16 -47.5,17.16 -13.91,0 -25.44,-2.35 -34.65,-7.05 -9.19,-4.69 -16.54,-10.52 -22.07,-17.47 -5.5,-6.95 -9.39,-14.31 -11.64,-22.07 -2.24,-7.76 -3.58,-14.71 -3.98,-20.84 h 141.61 c -4.09,22.07 -11.35,38.82 -21.77,50.27 m -98.39,-166.74 c 13.08,-12.68 31.88,-19.01 56.4,-19.01 17.57,0 32.69,4.39 45.37,13.19 12.66,8.78 20.43,18.07 23.3,27.89 h 76.62 c -12.26,-38.01 -31.06,-65.2 -56.39,-81.54 -25.36,-16.35 -56.01,-24.52 -91.96,-24.52 -24.93,0 -47.42,3.98 -67.43,11.95 -20.03,7.97 -37,19.31 -50.89,34.03 -13.9,14.71 -24.62,32.28 -32.19,52.71 -7.55,20.43 -11.33,42.92 -11.33,67.45 0,23.69 3.87,45.76 11.65,66.2 7.75,20.43 18.79,38.1 33.1,53.02 14.3,14.93 31.36,26.67 51.19,35.26 19.82,8.58 41.78,12.87 65.9,12.87 26.97,0 50.47,-5.22 70.5,-15.64 20.01,-10.41 36.47,-24.42 49.34,-41.99 12.87,-17.58 22.17,-37.6 27.9,-60.08 5.71,-22.48 7.76,-45.97 6.13,-70.49 h -228.66 c 1.22,-28.2 8.37,-48.65 21.45,-61.3 m 329.2,240.92 v -44.15 h 1.84 c 11.04,18.4 25.34,31.78 42.92,40.17 17.56,8.37 35.55,12.56 53.94,12.56 23.3,0 42.39,-3.16 57.31,-9.51 14.91,-6.33 26.68,-15.11 35.26,-26.36 8.59,-11.23 14.6,-24.92 18.08,-41.05 3.46,-16.16 5.22,-34.04 5.22,-53.66 v -194.94 h -87.05 v 179.01 c 0,26.14 -4.1,45.67 -12.26,58.55 -8.19,12.87 -22.69,19.3 -43.53,19.3 -23.71,0 -40.87,-7.04 -51.49,-21.15 -10.64,-14.1 -15.95,-37.3 -15.95,-69.58 v -166.13 h -87.05 v 316.94 z m 566.56,120.77 102.38,-301.01 h 1.22 l 96.86,301.01 h 135.49 v -437.71 h -90.12 v 310.2 h -1.23 l -107.28,-310.2 h -74.18 l -107.28,307.13 h -1.22 v -307.13 h -90.12 v 437.71 z m 482.45,-218.25 c 1.64,17.17 7.36,29.43 17.17,36.79 9.8,7.36 23.28,11.03 40.46,11.03 7.76,0 15.02,-0.51 21.76,-1.54 6.74,-1.01 12.66,-3.05 17.78,-6.11 5.1,-3.09 9.19,-7.37 12.26,-12.88 3.07,-5.53 4.59,-12.99 4.59,-22.38 0.41,-9 -2.24,-15.84 -7.97,-20.54 -5.72,-4.7 -13.49,-8.27 -23.28,-10.72 -9.81,-2.45 -21.06,-4.3 -33.73,-5.52 -12.66,-1.23 -25.53,-2.87 -38.62,-4.9 -13.08,-2.06 -26.05,-4.81 -38.93,-8.27 -12.87,-3.48 -24.32,-8.71 -34.32,-15.65 -10.03,-6.95 -18.2,-16.25 -24.52,-27.9 -6.35,-11.63 -9.5,-26.45 -9.5,-44.43 0,-16.36 2.75,-30.45 8.27,-42.31 5.51,-11.85 13.17,-21.67 22.98,-29.42 9.82,-7.76 21.26,-13.49 34.35,-17.16 13.07,-3.68 27.17,-5.52 42.28,-5.52 19.63,0 38.83,2.86 57.64,8.58 18.79,5.72 35.14,15.73 49.03,30.04 0.41,-5.32 1.12,-10.52 2.15,-15.64 1.01,-5.11 2.35,-10.11 3.99,-15.01 h 88.28 c -4.09,6.53 -6.96,16.34 -8.6,29.43 -1.62,13.07 -2.45,26.75 -2.45,41.07 v 164.9 c 0,19.21 -4.28,34.63 -12.87,46.28 -8.59,11.65 -19.62,20.74 -33.11,27.29 -13.48,6.53 -28.4,10.93 -44.73,13.17 -16.36,2.26 -32.51,3.38 -48.45,3.38 -17.56,0 -35.04,-1.74 -52.41,-5.22 -17.38,-3.46 -33,-9.29 -46.9,-17.47 -13.88,-8.18 -25.33,-19 -34.31,-32.49 -9,-13.48 -14.12,-30.45 -15.35,-50.88 z m 114.02,-96.85 c 0,-4.91 -0.51,-11.46 -1.52,-19.62 -1.03,-8.18 -3.78,-16.25 -8.29,-24.22 -4.49,-7.96 -11.43,-14.81 -20.83,-20.54 -9.4,-5.73 -22.7,-8.58 -39.84,-8.58 -6.96,0 -13.71,0.62 -20.25,1.85 -6.53,1.22 -12.26,3.36 -17.15,6.44 -4.92,3.05 -8.8,7.24 -11.65,12.56 -2.86,5.3 -4.3,11.85 -4.3,19.62 0,8.16 1.44,14.91 4.3,20.22 2.85,5.31 6.63,9.71 11.34,13.18 4.69,3.47 10.21,6.23 16.55,8.28 6.33,2.04 12.77,3.68 19.3,4.9 6.96,1.23 13.9,2.25 20.84,3.07 6.96,0.82 13.59,1.84 19.94,3.06 6.32,1.23 12.26,2.77 17.77,4.61 5.52,1.83 10.13,4.38 13.79,7.66 z m 224.98,194.33 v -58.85 h 1.23 c 4.08,9.8 9.59,18.9 16.55,27.28 6.95,8.37 14.91,15.53 23.91,21.45 8.98,5.93 18.59,10.52 28.81,13.8 10.21,3.26 20.85,4.9 31.88,4.9 5.72,0 12.05,-1.03 19.01,-3.07 v -80.91 c -4.1,0.81 -9,1.52 -14.72,2.13 -5.73,0.62 -11.25,0.93 -16.55,0.93 -15.94,0 -29.43,-2.66 -40.46,-7.97 -11.04,-5.32 -19.92,-12.56 -26.66,-21.77 -6.75,-9.19 -11.56,-19.92 -14.42,-32.17 -2.86,-12.27 -4.28,-25.56 -4.28,-39.86 V 1009.53 H 2893 v 316.94 z m 306.52,-234.79 c 9.4,4.9 17.17,11.43 23.29,19.61 6.14,8.17 10.73,17.48 13.79,27.89 3.06,10.42 4.61,21.36 4.61,32.8 0,13.08 -1.23,25.43 -3.68,37.1 -2.46,11.64 -6.55,21.96 -12.26,30.95 -5.73,8.98 -13.29,16.14 -22.69,21.46 -9.4,5.3 -21.25,7.96 -35.55,7.96 -12.26,0 -22.8,-2.45 -31.58,-7.35 -8.79,-4.9 -16.15,-11.55 -22.07,-19.93 -5.93,-8.37 -10.22,-17.98 -12.87,-28.81 -2.67,-10.82 -3.98,-22.18 -3.98,-34.02 0,-11.45 1.11,-22.79 3.36,-34.02 2.25,-11.25 6.14,-21.36 11.65,-30.35 5.52,-8.99 12.78,-16.36 21.77,-22.07 8.99,-5.73 20.23,-8.58 33.72,-8.58 12.26,0 23.08,2.45 32.49,7.36 M 3401.5,986.23 c -3.48,-16.339 -10.94,-31.57 -22.37,-45.66 -11.45,-14.101 -28,-26.058 -49.65,-35.871 -21.67,-9.808 -50.69,-14.711 -87.06,-14.711 -15.54,0 -31.38,1.934 -47.52,5.813 -16.15,3.898 -30.86,9.918 -44.13,18.097 -13.29,8.184 -24.32,18.692 -33.11,31.563 -8.8,12.871 -13.78,28.309 -15.01,46.289 h 86.44 c 4.08,-16.34 12.05,-27.691 23.91,-34.02 11.85,-6.339 25.53,-9.511 41.07,-9.511 24.52,0 42.39,7.371 53.63,22.07 11.24,14.723 16.66,33.321 16.26,55.791 v 41.68 h -1.23 c -9.41,-16.76 -22.8,-29.12 -40.16,-37.08 -17.38,-7.97 -35.66,-11.96 -54.86,-11.96 -23.71,0 -44.14,4.2 -61.3,12.56 -17.17,8.39 -31.27,19.83 -42.3,34.35 -11.04,14.5 -19.12,31.46 -24.22,50.88 -5.12,19.4 -7.66,39.94 -7.66,61.61 0,20.43 2.95,40.15 8.88,59.15 5.92,19.01 14.62,35.77 26.06,50.26 11.44,14.51 25.64,26.06 42.6,34.65 16.95,8.58 36.48,12.87 58.55,12.87 20.85,0 39.12,-3.89 54.86,-11.65 15.73,-7.76 28.92,-20.84 39.55,-39.23 h 1.23 v 42.3 h 82.75 v -296.71 c 0,-12.68 -1.75,-27.17 -5.21,-43.53 m 146.2,242.76 c 1.64,17.17 7.35,29.43 17.17,36.79 9.8,7.36 23.29,11.03 40.45,11.03 7.78,0 15.03,-0.51 21.77,-1.54 6.75,-1.01 12.67,-3.05 17.79,-6.11 5.09,-3.09 9.18,-7.37 12.25,-12.88 3.07,-5.53 4.59,-12.99 4.59,-22.38 0.42,-9 -2.24,-15.84 -7.97,-20.54 -5.71,-4.7 -13.48,-8.27 -23.29,-10.72 -9.81,-2.45 -21.04,-4.3 -33.72,-5.52 -12.66,-1.23 -25.53,-2.87 -38.62,-4.9 -13.07,-2.06 -26.05,-4.81 -38.92,-8.27 -12.87,-3.48 -24.32,-8.71 -34.32,-15.65 -10.03,-6.95 -18.2,-16.25 -24.53,-27.9 -6.34,-11.63 -9.51,-26.45 -9.51,-44.43 0,-16.36 2.77,-30.45 8.28,-42.31 5.52,-11.85 13.18,-21.67 22.98,-29.42 9.82,-7.76 21.26,-13.49 34.34,-17.16 13.06,-3.68 27.19,-5.52 42.29,-5.52 19.62,0 38.84,2.86 57.63,8.58 18.81,5.72 35.15,15.73 49.04,30.04 0.41,-5.32 1.13,-10.52 2.15,-15.64 1.02,-5.11 2.35,-10.11 3.99,-15.01 h 88.27 c -4.08,6.53 -6.95,16.34 -8.59,29.43 -1.64,13.07 -2.45,26.75 -2.45,41.07 v 164.9 c 0,19.21 -4.29,34.63 -12.87,46.28 -8.58,11.65 -19.62,20.74 -33.1,27.29 -13.49,6.53 -28.4,10.93 -44.75,13.17 -16.34,2.26 -32.49,3.38 -48.44,3.38 -17.56,0 -35.04,-1.74 -52.4,-5.22 -17.38,-3.46 -33.01,-9.29 -46.9,-17.47 -13.89,-8.18 -25.34,-19 -34.33,-32.49 -8.99,-13.48 -14.1,-30.45 -15.33,-50.88 z m 114.02,-96.85 c 0,-4.91 -0.51,-11.46 -1.52,-19.62 -1.03,-8.18 -3.78,-16.25 -8.28,-24.22 -4.5,-7.96 -11.44,-14.81 -20.84,-20.54 -9.41,-5.73 -22.69,-8.58 -39.86,-8.58 -6.94,0 -13.68,0.62 -20.22,1.85 -6.53,1.22 -12.27,3.36 -17.17,6.44 -4.9,3.05 -8.78,7.24 -11.65,12.56 -2.85,5.3 -4.29,11.85 -4.29,19.62 0,8.16 1.44,14.91 4.29,20.22 2.87,5.31 6.65,9.71 11.35,13.18 4.7,3.47 10.21,6.23 16.55,8.28 6.33,2.04 12.77,3.68 19.31,4.9 6.95,1.23 13.89,2.25 20.84,3.07 6.96,0.82 13.58,1.84 19.93,3.06 6.33,1.23 12.26,2.77 17.78,4.61 5.52,1.83 10.11,4.38 13.78,7.66 z m 224.99,194.33 v -58.85 h 1.22 c 4.08,9.8 9.6,18.9 16.55,27.28 6.95,8.37 14.92,15.53 23.91,21.45 8.99,5.93 18.59,10.52 28.82,13.8 10.2,3.26 20.84,4.9 31.87,4.9 5.72,0 12.06,-1.03 19.01,-3.07 v -80.91 c -4.09,0.81 -9,1.52 -14.72,2.13 -5.72,0.62 -11.24,0.93 -16.55,0.93 -15.94,0 -29.42,-2.66 -40.46,-7.97 -11.04,-5.32 -19.91,-12.56 -26.67,-21.77 -6.73,-9.19 -11.55,-19.92 -14.4,-32.17 -2.87,-12.27 -4.29,-25.56 -4.29,-39.86 v -142.83 h -87.05 v 316.94 z m 324,-74.18 c -10.42,11.43 -26.28,17.16 -47.52,17.16 -13.9,0 -25.43,-2.35 -34.63,-7.05 -9.2,-4.69 -16.56,-10.52 -22.07,-17.47 -5.52,-6.95 -9.41,-14.31 -11.65,-22.07 -2.25,-7.76 -3.6,-14.71 -3.99,-20.84 h 141.6 c -4.08,22.07 -11.32,38.82 -21.74,50.27 m -98.4,-166.74 c 13.06,-12.68 31.87,-19.01 56.39,-19.01 17.57,0 32.69,4.39 45.36,13.19 12.67,8.78 20.43,18.07 23.31,27.89 H 4314 c -12.27,-38.01 -31.08,-65.2 -56.41,-81.54 -25.34,-16.35 -56,-24.52 -91.95,-24.52 -24.93,0 -47.41,3.98 -67.43,11.95 -20.03,7.97 -37.01,19.31 -50.88,34.03 -13.91,14.71 -24.63,32.28 -32.18,52.71 -7.58,20.43 -11.35,42.92 -11.35,67.45 0,23.69 3.88,45.76 11.64,66.2 7.76,20.43 18.79,38.1 33.11,53.02 14.29,14.93 31.36,26.67 51.2,35.26 19.81,8.58 41.77,12.87 65.89,12.87 26.97,0 50.47,-5.22 70.5,-15.64 20.01,-10.41 36.48,-24.42 49.35,-41.99 12.88,-17.58 22.16,-37.6 27.89,-60.08 5.71,-22.48 7.76,-45.97 6.13,-70.49 h -228.66 c 1.22,-28.2 8.37,-48.65 21.46,-61.3 m 420.53,240.92 v -58.24 h -63.75 v -156.94 c 0,-14.71 2.46,-24.52 7.36,-29.42 4.9,-4.91 14.7,-7.36 29.42,-7.36 4.9,0 9.6,0.2 14.1,0.62 4.5,0.39 8.78,1 12.87,1.83 v -67.43 c -7.35,-1.23 -15.53,-2.04 -24.52,-2.45 -8.99,-0.4 -17.77,-0.61 -26.35,-0.61 -13.49,0 -26.28,0.9 -38.32,2.75 -12.07,1.84 -22.69,5.41 -31.89,10.73 -9.19,5.3 -16.45,12.87 -21.75,22.69 -5.32,9.8 -7.97,22.67 -7.97,38.61 v 186.98 h -52.72 v 58.24 h 52.72 v 95.02 h 87.05 v -95.02 h 63.75"
         style="fill:#ffffff;fill-opacity:1;fill-rule:nonzero;stroke:none"
         id="path32" />
      <path
         d="m 3088.25,3182.71 c -107.67,61 -535.49,144.5 -824.05,144.5 -288.56,0 -716.38,-83.5 -824.05,-144.5 10.36,-166.05 33.52,-316.25 65.99,-452.1 163.06,55.86 511.22,116.94 758.06,116.94 246.86,0 594.99,-61.08 758.07,-116.92 32.46,135.83 55.61,286.03 65.98,452.08 m -242.33,-325.69 7.34,43.78 c 11.71,-0.34 24.01,-1.62 36.58,-3.83 12.56,-2.22 24.55,-5.22 35.69,-8.89 l -7.71,-46.51 z m 72.31,43.41 c -8.52,2.44 -17.44,4.51 -26.71,6.14 -9.25,1.64 -18.35,2.73 -27.19,3.38 l 12.65,71.79 c 8.78,-0.4 17.92,-1.42 27.27,-3.06 9.33,-1.64 18.24,-3.81 26.65,-6.44 z m -170.81,-25.3 8.52,48.34 c 2.06,11.59 12.14,19.42 22.47,17.6 l 4.85,-0.86 c 10.3,-1.81 17.13,-12.61 15.07,-24.22 l -8.51,-48.34 z m -906.51,66.22 c -5.25,2.66 -11.61,7.1 -14.82,11.29 -1.59,2.47 -3.36,5.97 -3.06,9.27 -4.35,-1.02 -8.33,-0.15 -11.37,0.63 -3.25,1.45 -7.44,3.51 -6.06,6.21 -3.91,-1.21 -3.18,0.79 -5.71,1.58 3.63,1.63 4.14,7.62 9.22,11.28 4.82,3.08 10.92,3.28 14.14,1.21 5.08,-3.29 1.36,-9.69 4.1,-15.02 8.63,-24.19 64.13,-1.79 74.06,14.41 -0.58,-12.8 -8.55,-21.07 -13.67,-23.25 7.42,-2.58 9.82,-11.72 8.54,-19.42 -3.84,8.38 -12.96,14.31 -20.95,12.23 2.59,-5.98 7.45,-10.86 7.52,-16.09 -4.06,7.8 -8.84,7.58 -13.94,8.73 1.12,-4.91 1.89,-8.25 3.33,-14.86 -2.87,4.74 -6.84,6.91 -14.15,7.57 2.55,-4.8 4.8,-10.21 5.86,-16.01 -5.5,11.37 -13.64,14.86 -23.04,20.24 m 12.31,26.47 c 0.76,-5.6 -1.25,-8.21 -9.1,-7.68 -9.5,0.83 -13.05,4.91 -13.77,8.93 0.16,4.89 8.49,2.47 13.37,2.38 5.12,0.28 8.41,0.89 9.5,-3.63 m -4.74,7.2 c -2.68,-1.02 -6.74,-1.43 -9.55,-0.66 -1.83,0.13 -1.91,5.48 0.22,5.98 2.42,0.46 6.35,1.18 9.01,1.38 3.21,0.34 3.76,-5.93 0.32,-6.7 m -17.48,-1.15 c -3.16,1.03 -3.5,4.4 -2.38,7.77 2,-0.8 5.08,-1.17 7.02,-1.45 0.11,-2.15 -0.58,-6.62 -4.64,-6.32 m 20.49,9.25 c 5.02,0.92 8.82,4.72 10.53,1.19 2.27,-3.97 -3.28,-5.86 -9.37,-8.31 1.33,2.72 1.21,5.95 -1.16,7.12 m 14.31,-6.65 c 2.79,-4.19 -6.12,-6.87 -10.58,-8.13 0.7,1.66 -0.33,4.36 -2.17,5.34 3.95,0.96 10.86,5.49 12.75,2.79 m -9.58,-10.74 c 5.4,1.51 11.36,5.62 12.71,3.17 1.27,-3.77 -2.92,-6.04 -13.08,-8.57 1.17,0.98 1.66,4.55 0.37,5.4 m 6.44,21.81 c 5.59,2.28 14.52,6.76 20.43,12.71 -0.11,-5.54 -8.85,-15.81 -18.6,-19.79 2.08,2.26 0.31,6.29 -1.83,7.08 m 25.02,5.87 c -3.15,-7.52 -9.15,-15.37 -19.29,-20.07 1.15,1.83 -0.21,5.46 -1.97,5.78 7.5,2.64 14.22,8.3 21.26,14.29 m 2.06,-9.27 c -1.81,-5.85 -9.61,-15.22 -18.32,-18.3 1.25,1.76 0.82,5 -1.54,5.66 9.35,4.59 15.63,8.43 19.86,12.64 m -58.73,-55.76 c 3.18,4.15 5.11,6.74 5.71,11.05 0.98,-1.2 3.45,-2.14 4.76,-2.97 -2.59,-4.06 -7.05,-6.52 -10.47,-8.08 m -7.7,5.66 c 2.66,2.34 4.95,6.8 5.34,10.78 1.93,-1.47 4.36,-3 6.31,-4.04 -3.24,-3.13 -7.72,-5.04 -11.65,-6.74 m -6.59,6.72 c 2.29,2.1 6.53,5.65 6.69,9.73 0.62,-0.85 2.92,-3.53 3.62,-4.19 -2.38,-3.63 -6.7,-4.41 -10.31,-5.54 m -143.36,-40.18 c 3.17,4.14 5.08,6.74 5.7,11.05 0.98,-1.21 3.46,-2.16 4.74,-2.97 -2.59,-4.07 -7.03,-6.51 -10.44,-8.08 m -7.71,5.67 c 2.65,2.32 4.95,6.79 5.33,10.78 1.94,-1.48 4.38,-3.03 6.33,-4.05 -3.27,-3.13 -7.73,-5.05 -11.66,-6.73 m -6.6,6.72 c 2.3,2.08 6.53,5.64 6.68,9.72 0.62,-0.85 2.94,-3.51 3.62,-4.19 -2.38,-3.62 -6.7,-4.42 -10.3,-5.53 m -11.11,27.98 c -3.91,-1.21 -3.17,0.8 -5.72,1.59 3.63,1.62 4.13,7.61 9.21,11.27 4.82,3.08 10.92,3.28 14.15,1.21 5.08,-3.29 1.36,-9.69 4.11,-15.01 8.62,-24.21 64.13,-1.8 74.07,14.4 -0.59,-12.8 -8.58,-21.07 -13.69,-23.26 7.42,-2.56 9.83,-11.69 8.55,-19.41 -3.85,8.39 -12.97,14.31 -20.96,12.24 2.59,-5.99 7.44,-10.86 7.51,-16.09 -4.05,7.79 -8.83,7.57 -13.91,8.7 1.07,-4.89 1.89,-8.25 3.3,-14.86 -2.87,4.74 -6.81,6.93 -14.12,7.59 2.53,-4.79 4.79,-10.21 5.83,-16.01 -5.48,11.37 -13.61,14.84 -23.04,20.24 -5.24,2.65 -11.61,7.09 -14.82,11.29 -1.57,2.48 -3.34,5.97 -3.06,9.28 -4.34,-1.02 -8.33,-0.16 -11.37,0.62 -3.25,1.45 -7.43,3.51 -6.04,6.21 m 47.6,-0.9 c 0.76,-5.63 -1.22,-8.24 -9.08,-7.73 -9.51,0.86 -13.04,4.93 -13.78,8.94 0.17,4.9 8.47,2.49 13.35,2.39 5.13,0.29 8.42,0.89 9.51,-3.6 m -4.71,7.17 c -2.7,-1.02 -6.77,-1.45 -9.58,-0.66 -1.81,0.12 -1.91,5.46 0.25,5.99 2.39,0.45 6.32,1.15 9.01,1.36 3.18,0.35 3.74,-5.91 0.32,-6.69 m -17.51,-1.15 c -3.15,1.04 -3.47,4.4 -2.38,7.78 2.02,-0.81 5.08,-1.17 7.03,-1.45 0.11,-2.17 -0.59,-6.65 -4.65,-6.33 m 20.49,9.25 c 5.04,0.93 8.82,4.73 10.55,1.2 2.27,-3.97 -3.3,-5.86 -9.38,-8.32 1.34,2.7 1.21,5.95 -1.17,7.12 m 14.31,-6.64 c 2.81,-4.2 -6.1,-6.88 -10.55,-8.16 0.67,1.68 -0.36,4.36 -2.19,5.36 3.96,0.97 10.85,5.5 12.74,2.8 m -9.57,-10.75 c 5.4,1.52 11.36,5.63 12.71,3.18 1.26,-3.79 -2.93,-6.07 -13.09,-8.58 1.19,0.98 1.66,4.55 0.38,5.4 m 6.46,21.81 c 5.55,2.29 14.5,6.76 20.43,12.71 -0.13,-5.53 -8.88,-15.81 -18.62,-19.79 2.08,2.27 0.32,6.29 -1.81,7.08 m 25,5.88 c -3.14,-7.52 -9.16,-15.39 -19.28,-20.08 1.13,1.84 -0.23,5.46 -1.98,5.78 7.51,2.64 14.24,8.31 21.26,14.3 m 2.08,-9.3 c -1.84,-5.83 -9.64,-15.19 -18.34,-18.28 1.27,1.76 0.81,5.01 -1.55,5.67 9.37,4.59 15.63,8.42 19.89,12.61 M 1643,3091.47 c 8.6,-24.21 64.1,-1.79 74.03,14.41 -0.58,-12.8 -8.55,-21.06 -13.67,-23.26 7.42,-2.57 9.82,-11.69 8.54,-19.42 -3.84,8.39 -12.95,14.34 -20.96,12.24 2.6,-5.99 7.46,-10.86 7.53,-16.09 -4.06,7.82 -8.85,7.58 -13.93,8.71 1.09,-4.9 1.9,-8.26 3.3,-14.86 -2.85,4.73 -6.82,6.93 -14.12,7.6 2.55,-4.81 4.79,-10.23 5.85,-16.03 -5.5,11.37 -13.64,14.87 -23.03,20.25 -5.26,2.66 -11.64,7.1 -14.83,11.29 -1.59,2.46 -3.34,5.97 -3.06,9.27 -4.34,-1.04 -8.34,-0.13 -11.37,0.62 -3.26,1.46 -7.44,3.5 -6.04,6.22 -3.93,-1.21 -3.19,0.79 -5.72,1.6 3.62,1.61 4.14,7.59 9.23,11.23 4.8,3.09 10.9,3.29 14.13,1.23 5.08,-3.28 1.38,-9.68 4.12,-15.01 m -4.05,-33.74 c 2.63,2.3 4.95,6.78 5.31,10.76 1.94,-1.47 4.4,-3.02 6.32,-4.04 -3.24,-3.14 -7.7,-5.06 -11.63,-6.72 m 13.39,5.36 c 0.98,-1.21 3.48,-2.13 4.76,-2.96 -2.61,-4.08 -7.04,-6.54 -10.46,-8.09 3.19,4.14 5.1,6.75 5.7,11.05 m -19.99,1.34 c 2.28,2.1 6.53,5.65 6.68,9.73 0.62,-0.86 2.94,-3.53 3.62,-4.2 -2.37,-3.62 -6.7,-4.4 -10.3,-5.53 m 53.15,30.74 c 9.37,4.59 15.64,8.44 19.86,12.62 -1.81,-5.84 -9.61,-15.2 -18.29,-18.28 1.24,1.74 0.77,5.02 -1.57,5.66 m -16.83,2.15 c 3.97,0.98 10.86,5.52 12.77,2.82 2.78,-4.19 -6.13,-6.87 -10.59,-8.16 0.71,1.68 -0.34,4.36 -2.18,5.34 m 0.18,-5.81 c 0.75,-5.62 -1.25,-8.21 -9.09,-7.71 -9.51,0.84 -13.04,4.92 -13.78,8.93 0.16,4.9 8.48,2.48 13.35,2.39 5.14,0.28 8.42,0.88 9.52,-3.61 m 15.71,1.04 c 1.26,-3.76 -2.93,-6.03 -13.09,-8.57 1.19,0.98 1.66,4.55 0.38,5.41 5.4,1.51 11.37,5.63 12.71,3.16 m -33.29,11.31 c 0.09,-2.15 -0.59,-6.63 -4.65,-6.32 -3.16,1.01 -3.49,4.39 -2.38,7.77 2,-0.81 5.08,-1.17 7.03,-1.45 m 12.85,-5.17 c -2.7,-1.02 -6.75,-1.46 -9.57,-0.67 -1.83,0.14 -1.91,5.46 0.25,5.97 2.39,0.47 6.32,1.17 9,1.4 3.19,0.36 3.74,-5.93 0.32,-6.7 m 4.16,1 c 1.34,2.7 1.2,5.93 -1.17,7.1 5.04,0.92 8.82,4.71 10.55,1.18 2.27,-3.98 -3.3,-5.85 -9.38,-8.28 m 30.46,24.22 c -0.13,-5.53 -8.88,-15.8 -18.62,-19.8 2.06,2.28 0.32,6.3 -1.81,7.1 5.55,2.26 14.48,6.77 20.43,12.7 m 4.57,-6.83 c -3.14,-7.52 -9.16,-15.4 -19.3,-20.06 1.15,1.82 -0.21,5.44 -1.97,5.77 7.5,2.64 14.24,8.3 21.27,14.29 m 105.61,14.58 c 0.12,-2.18 -0.58,-6.64 -4.65,-6.31 -3.13,1.02 -3.47,4.4 -2.35,7.76 2,-0.81 5.07,-1.15 7,-1.45 m 20.6,-14.47 c 5.4,1.51 11.35,5.63 12.71,3.15 1.27,-3.73 -2.95,-6.02 -13.08,-8.55 1.16,0.98 1.64,4.55 0.37,5.4 m -1,2.61 c 0.7,1.68 -0.34,4.34 -2.19,5.34 3.98,0.99 10.88,5.5 12.77,2.82 2.77,-4.21 -6.12,-6.9 -10.58,-8.16 m -11.1,-8.2 c -9.5,0.83 -13.05,4.91 -13.78,8.94 0.15,4.89 8.47,2.47 13.36,2.37 5.14,0.29 8.43,0.89 9.5,-3.6 0.78,-5.63 -1.22,-8.22 -9.08,-7.71 m 4.36,14.88 c -2.7,-1.02 -6.76,-1.43 -9.57,-0.66 -1.82,0.13 -1.91,5.46 0.24,5.99 2.42,0.45 6.35,1.17 9.01,1.37 3.19,0.37 3.74,-5.92 0.32,-6.7 m 4.15,1 c 1.35,2.7 1.24,5.93 -1.15,7.1 5.05,0.91 8.8,4.72 10.54,1.19 2.27,-3.96 -3.31,-5.85 -9.39,-8.29 m 30.44,24.25 c -0.11,-5.55 -8.85,-15.83 -18.59,-19.81 2.07,2.26 0.32,6.29 -1.84,7.08 5.6,2.29 14.53,6.76 20.43,12.73 m 4.61,-6.85 c -3.15,-7.52 -9.18,-15.4 -19.3,-20.06 1.14,1.81 -0.2,5.44 -1.98,5.78 7.52,2.62 14.24,8.29 21.28,14.28 m 2.06,-9.3 c -1.81,-5.83 -9.63,-15.2 -18.32,-18.28 1.25,1.76 0.8,5.02 -1.56,5.67 9.36,4.59 15.65,8.44 19.88,12.61 m 11.65,-1.9 c -0.56,-12.8 -8.55,-21.05 -13.65,-23.27 7.42,-2.57 9.82,-11.69 8.53,-19.41 -3.83,8.39 -12.97,14.33 -20.95,12.25 2.58,-6 7.44,-10.85 7.51,-16.1 -4.06,7.82 -8.84,7.57 -13.9,8.72 1.08,-4.91 1.87,-8.25 3.29,-14.86 -2.85,4.74 -6.82,6.91 -14.13,7.59 2.55,-4.81 4.8,-10.23 5.86,-16.01 -5.5,11.35 -13.64,14.84 -23.06,20.24 -5.25,2.64 -11.61,7.08 -14.82,11.28 -1.57,2.47 -3.35,5.96 -3.04,9.27 -4.36,-1.02 -8.35,-0.14 -11.37,0.62 -3.27,1.46 -7.46,3.51 -6.04,6.21 -3.93,-1.19 -3.2,0.8 -5.72,1.59 3.62,1.63 4.13,7.61 9.21,11.27 4.79,3.08 10.89,3.29 14.13,1.21 5.09,-3.28 1.37,-9.69 4.11,-15.01 8.63,-24.19 64.13,-1.79 74.04,14.41 m -78.08,-48.16 c 2.65,2.33 4.96,6.78 5.33,10.78 1.94,-1.48 4.4,-3.01 6.32,-4.05 -3.27,-3.14 -7.71,-5.05 -11.65,-6.73 m 13.39,5.37 c 1,-1.19 3.47,-2.14 4.76,-2.97 -2.59,-4.06 -7.03,-6.51 -10.45,-8.08 3.2,4.14 5.1,6.74 5.69,11.05 m -20,1.34 c 2.3,2.09 6.54,5.64 6.71,9.74 0.6,-0.86 2.92,-3.53 3.6,-4.21 -2.38,-3.62 -6.68,-4.4 -10.31,-5.53 m 126.4,-41.66 c 0.16,-4.72 -3.62,-14.9 -7.97,-18.78 1.04,-8.49 -5.38,-17.46 -17.93,-19.1 4.43,5.31 2.64,16.05 -2.67,15.11 l -81.82,-14.43 c -0.32,-0.15 -0.7,-0.28 -1.15,-0.36 -12.84,-2.26 -21.64,-13.99 -20.51,-26.75 l 14.96,-84.87 c 0.95,-5.32 11.65,-3.34 15.11,2.66 2.76,-12.37 -5.95,-21.9 -14.26,-23.8 -2.17,-5.43 -7.97,-12.04 -12.46,-13.51 -4.72,-0.15 -12.45,4.06 -16.34,8.42 -8.48,-1.03 -19.92,4.93 -21.56,17.49 5.32,-4.44 16.05,-2.64 15.1,2.68 l -14.74,83.71 c -2.83,13.03 -15.49,21.59 -28.73,19.26 -0.92,-0.17 -1.86,-0.28 -2.83,-0.34 l -80.08,-14.12 c -5.32,-0.95 -3.34,-11.66 2.66,-15.11 -12.39,-2.76 -21.47,3.49 -23.39,11.81 -5.42,2.17 -14.91,10 -16.4,14.48 -0.13,4.74 6.08,15.35 10.46,19.24 -1.03,8.45 5.35,17.45 17.93,19.09 -4.44,-5.31 -2.65,-16.05 2.68,-15.11 l 82.89,14.62 c 13.24,2.34 22.19,14.71 20.38,27.93 l -14.77,83.86 c -0.94,5.32 -11.65,3.32 -15.12,-2.69 -2.74,12.39 3.51,21.48 11.82,23.4 2.15,5.42 10.44,12.46 14.92,13.94 4.72,0.13 14.89,-3.64 18.78,-7.99 8.49,1.04 17.47,-5.36 19.12,-17.94 -5.31,4.46 -16.07,2.67 -15.11,-2.66 l 14.97,-85.01 c 3.31,-12.4 15.58,-20.4 28.44,-18.13 l 82.98,14.63 c 5.32,0.94 3.32,11.64 -2.65,15.11 12.37,2.75 21.45,-3.5 23.38,-11.82 5.4,-2.15 12.44,-10.43 13.91,-14.92 m 569.64,-145.89 c 0,0 -118.7,10.48 -177.22,10.48 0,0 -2.32,-14.58 -19.37,-14.58 h -25.25 -25.23 c -17.07,0 -19.37,14.58 -19.37,14.58 -58.52,0 -177.22,-10.48 -177.22,-10.48 v 277.96 l 13.9,1.27 c 0,0 38.54,40.71 38.21,40.91 62.96,-13.65 65.76,9.69 105.6,9.69 39.82,0 64.11,-26.76 64.11,-26.76 0,0 24.28,26.76 64.13,26.76 39.84,0 42.63,-23.34 105.59,-9.69 -0.32,-0.2 38.2,-40.91 38.2,-40.91 l 13.92,-1.27 z m 140.87,36.05 c 11.73,-0.36 24,-1.63 36.58,-3.85 12.57,-2.22 24.56,-5.24 35.69,-8.9 l -8.06,-43.66 -72.88,10.09 z m 11.09,9.11 12.65,71.82 c 8.8,-0.39 17.92,-1.41 27.24,-3.06 9.33,-1.64 18.28,-3.83 26.65,-6.44 l -12.65,-71.81 c -8.52,2.44 -17.45,4.49 -26.7,6.13 -9.25,1.63 -18.36,2.74 -27.19,3.36 m 86.88,203.04 -23.08,-7.42 -3.25,-18.45 14.94,-39.65 c -7.08,2.28 -14.69,4.17 -22.64,5.57 -7.82,1.36 -15.49,2.19 -22.81,2.49 l 27.23,31.04 2.98,16.93 4.69,26.52 z m 6.09,-83.67 -6.3,-35.33 -18.24,-11.32 c -8.41,2.61 -17.36,4.8 -26.69,6.44 -9.64,1.7 -19.07,2.72 -28.11,3.1 l -12.46,16.85 6.25,35.37 c 4.25,0.45 8.7,0.72 13.31,0.77 l -2.93,-16.66 c 4.14,0.02 7.61,-0.09 11.18,-0.32 l 3.48,16.62 c 4.23,-0.26 8.53,-0.71 12.93,-1.34 l -2.93,-16.66 5.61,-0.9 5.82,-1.12 2.93,16.64 c 4.34,-0.9 8.57,-1.94 12.63,-3.14 l -2.93,-16.67 c 3.93,-1.17 7.25,-2.26 10.44,-3.45 l 3.63,16.44 c 4.38,-1.62 8.52,-3.42 12.38,-5.32 m -0.58,-75.87 20.41,-3.61 2.42,13.76 27.32,-4.81 -2.41,-13.77 20.39,-3.59 2.44,13.75 27.3,-4.81 -2.43,-13.75 20.41,-3.61 2.42,13.77 17.07,-3.02 -12.67,-71.87 -7.4,1.3 -9.51,-53.91 -35.47,6.55 8.53,48.34 c 3.19,18.09 -7.42,35.2 -23.85,38.11 l -4.85,0.85 c -16.41,2.89 -32.24,-9.56 -35.43,-27.65 l -8.53,-48.34 -35.43,5.88 9.52,53.98 -7.56,1.34 12.67,71.87 17.07,-3 z m 95.7,22.6 -2.55,-14.33 -61.99,10.93 2.51,14.33 2.59,14.6 c 10.02,-0.25 20.58,-1.3 31.4,-3.21 10.8,-1.91 21.09,-4.53 30.59,-7.74 z m 18.77,154.31 -23.06,-7.42 -3.24,-18.45 14.93,-39.67 c -7.08,2.28 -14.69,4.17 -22.62,5.57 -7.84,1.4 -15.5,2.21 -22.85,2.51 l 27.27,31.02 2.96,16.94 4.69,26.54 z m 12.12,-86.8 -6.21,-34.92 -13.5,-8.97 c -11.33,4.27 -23.83,7.78 -37.2,10.14 -13.39,2.36 -26.34,3.34 -38.45,3.21 l -9.59,13.03 6.18,35.11 c 5.28,0.92 10.97,1.49 16.95,1.7 l -2.94,-16.66 c 4.15,0.13 7.67,0.09 11.25,-0.04 l 3.46,16.62 c 5.28,-0.23 10.74,-0.74 16.31,-1.53 l -2.91,-16.64 5.71,-0.92 5.72,-1.1 2.93,16.64 c 5.49,-1.17 10.8,-2.58 15.86,-4.21 l -2.95,-16.64 c 3.91,-1.28 7.22,-2.47 10.39,-3.76 l 3.62,16.38 c 5.58,-2.27 10.71,-4.78 15.37,-7.44 m 94.25,29.53 -23.07,-7.44 -3.27,-18.45 14.96,-39.65 c -7.1,2.28 -14.7,4.17 -22.65,5.57 -7.81,1.38 -15.48,2.19 -22.83,2.49 l 27.25,31.06 2.99,16.92 4.66,26.53 z m 6.02,-83.63 -6.25,-35.39 -17.46,-11.56 c -8.63,2.74 -17.83,5.01 -27.46,6.71 -9.34,1.64 -18.5,2.64 -27.28,3.05 l -13.3,16.88 6.18,35.35 c 4.28,0.48 8.78,0.74 13.46,0.78 l -2.95,-16.71 c 4.12,0.04 7.61,-0.06 11.2,-0.28 l 3.48,16.63 c 4.23,-0.28 8.55,-0.74 12.93,-1.36 l -2.94,-16.65 5.85,-0.93 5.59,-1.07 2.94,16.63 c 4.33,-0.89 8.54,-1.96 12.62,-3.13 l -2.94,-16.66 c 3.94,-1.17 7.26,-2.25 10.45,-3.44 l 3.63,16.42 c 4.32,-1.63 8.42,-3.4 12.25,-5.27 m -1168.57,98.78 c -0.3,1.66 -2,2.67 -3.57,2.39 -1.53,-0.28 -2.76,-1.79 -2.42,-3.49 0.29,-1.76 1.95,-2.78 3.49,-2.53 1.65,0.34 2.78,1.89 2.5,3.63 m -1.79,-0.33 c 0.13,-0.75 -0.34,-1.37 -1,-1.53 -0.65,-0.09 -1.31,0.38 -1.44,1.08 -0.12,0.65 0.34,1.28 0.98,1.4 0.7,0.13 1.36,-0.34 1.46,-0.95 M 1631,3100.31 c -0.28,1.68 -2,2.7 -3.57,2.42 -1.5,-0.29 -2.75,-1.8 -2.41,-3.5 0.28,-1.75 1.94,-2.77 3.51,-2.52 1.62,0.31 2.76,1.88 2.47,3.6 m -1.77,-0.3 c 0.13,-0.76 -0.34,-1.4 -1.02,-1.53 -0.62,-0.09 -1.3,0.36 -1.44,1.07 -0.11,0.63 0.36,1.29 0.99,1.4 0.71,0.12 1.37,-0.34 1.47,-0.94 m 22.49,-152.24 c 0.28,-1.74 1.96,-2.77 3.51,-2.53 1.62,0.32 2.78,1.89 2.47,3.6 -0.28,1.69 -1.98,2.69 -3.57,2.43 -1.51,-0.29 -2.73,-1.8 -2.41,-3.5 m 1.79,0.32 c -0.13,0.62 0.33,1.29 0.95,1.4 0.71,0.11 1.37,-0.36 1.47,-0.94 0.13,-0.76 -0.34,-1.39 -1,-1.52 -0.65,-0.11 -1.32,0.35 -1.42,1.06 m 161.89,28.55 c -0.32,1.7 -2,2.7 -3.59,2.42 -1.53,-0.29 -2.75,-1.79 -2.42,-3.49 0.29,-1.74 1.95,-2.76 3.5,-2.53 1.64,0.32 2.75,1.88 2.51,3.6 m -1.79,-0.3 c 0.11,-0.75 -0.35,-1.38 -1.02,-1.53 -0.65,-0.09 -1.31,0.38 -1.42,1.08 -0.13,0.64 0.32,1.28 0.96,1.4 0.7,0.11 1.38,-0.34 1.48,-0.95"
         style="fill:#ffffff;fill-opacity:1;fill-rule:nonzero;stroke:none"
         id="path34" />
      <path
         d="m 2264.2,3327.21 c 288.56,0 716.38,-83.49 824.05,-144.5 -58.46,-936.44 -517.38,-1377.88 -824.07,-1488.31 -306.68,110.43 -765.58,551.87 -824.03,1488.31 107.67,61.01 535.5,144.5 824.05,144.5 z"
         style="fill:none;stroke:#ffffff;stroke-width:31.3086;stroke-linecap:butt;stroke-linejoin:miter;stroke-miterlimit:10;stroke-dasharray:none;stroke-opacity:1"
         id="path36" />
      <path
         d="m 2264.2,3327.21 c 288.56,0 716.38,-83.49 824.05,-144.5 -58.46,-936.44 -517.38,-1377.88 -824.07,-1488.31 -306.68,110.43 -765.58,551.87 -824.03,1488.31 107.67,61.01 535.5,144.5 824.05,144.5 z"
         style="fill:none;stroke:#ffffff;stroke-width:31.3086;stroke-linecap:butt;stroke-linejoin:miter;stroke-miterlimit:10;stroke-dasharray:none;stroke-opacity:1"
         id="path38" />
      <path
         d="m 2423.89,2977.39 v 231.42 c -8.12,-1.94 -34.58,-8.42 -69.51,6.2 -43.66,18.24 -79.67,-15.76 -82.12,-17.89 v -207.11 c 3.98,4.21 37.48,23.76 80.48,3.29 55.48,-26.42 71.15,-15.91 71.15,-15.91 m -19.03,170.28 c -1.8,-0.08 -3.71,-0.15 -5.69,-0.15 -12.52,-0.04 -28.42,2.07 -46.49,9.62 -24.11,10.09 -47.72,4.07 -67.45,-9.36 v 11.84 c 3.47,2.08 7.06,3.97 10.86,5.63 43.09,18.92 63.54,-7.74 103.04,-7.63 2.02,0.02 3.93,0.08 5.73,0.19 z m 0,-55.69 c -13.17,0.34 -31.22,3.08 -52.18,11.84 -28.74,11.99 -54.04,2.27 -67.45,-4.59 v 11.07 c 15.77,7.17 41.68,15.14 70.87,2.94 19.79,-8.27 36.69,-10.82 48.76,-11.14 z m 0,-57.33 c -11.83,-0.28 -29.2,1.62 -54.01,13.47 -28.74,13.67 -52.8,6 -65.62,0.68 v 10.74 c 15.58,5.63 40.6,11.55 69.42,-2.17 7.72,-3.69 31.98,-12.16 50.21,-12.58 v -10.14"
         style="fill:#ffffff;fill-opacity:1;fill-rule:nonzero;stroke:none"
         id="path40" />
      <path
         d="m 2457.75,2927.76 -29.06,35.75 c 0,0 -18.96,-11.49 -73.49,14.55 -57.71,27.58 -82.94,-6.17 -82.94,-6.17 -1.91,-4.48 -1.06,-34.63 0,-38.77 4.13,-0.92 19.5,0 19.5,0 0.69,4.68 10.94,32.95 58.19,13.09 80.98,-34.08 107.8,-18.45 107.8,-18.45 m -26.25,21.79 5.59,-6.7 c 0,0 -35.78,-6.2 -75.96,12.84 -63.68,30.18 -74.29,-3.91 -74.29,-3.91 h -6.71 c 0,0 10.67,45.34 81,11.18 39.1,-19 70.37,-13.41 70.37,-13.41"
         style="fill:#ffffff;fill-opacity:1;fill-rule:nonzero;stroke:none"
         id="path42" />
      <path
         d="m 2094.11,3203.67 v -229.54 l -32.23,-41.83 v 236.74 l 11.57,11.65 v -221.65 l 6.78,9.78 v 220.01 l 13.88,14.84"
         style="fill:#ffffff;fill-opacity:1;fill-rule:nonzero;stroke:none"
         id="path44" />
      <path
         d="m 2256.15,2971.89 c 0,0 -25.22,33.75 -82.95,6.17 -54.52,-26.04 -73.5,-14.55 -73.5,-14.55 l -29.06,-35.75 c 0,0 26.82,-15.63 107.81,18.45 47.25,19.86 57.51,-8.41 58.2,-13.09 0,0 15.37,-0.92 19.5,0 1.04,4.14 1.89,34.29 0,38.77 m -7.89,-20.11 h -6.7 c 0,0 -10.62,34.09 -74.29,3.91 -40.18,-19.04 -75.95,-12.84 -75.95,-12.84 l 5.59,6.7 c 0,0 31.27,-5.59 70.36,13.41 70.34,34.16 80.99,-11.18 80.99,-11.18"
         style="fill:#ffffff;fill-opacity:1;fill-rule:nonzero;stroke:none"
         id="path46" />
      <path
         d="m 2434.28,3203.67 v -229.54 l 32.26,-41.83 v 236.74 l -11.58,11.65 v -221.65 l -6.78,9.78 v 220.01 l -13.9,14.84"
         style="fill:#ffffff;fill-opacity:1;fill-rule:nonzero;stroke:none"
         id="path48" />
      <path
         d="m 2256.15,2990.02 v 207.11 c -2.45,2.12 -38.46,36.12 -82.12,17.86 -34.94,-14.6 -61.39,-8.11 -69.51,-6.17 V 2977.4 c 0,0 15.67,-10.53 71.13,15.88 43,20.49 76.52,0.95 80.5,-3.26 m -12.97,157.77 c -19.74,13.42 -43.36,19.43 -67.45,9.36 -18.07,-7.55 -33.99,-9.68 -46.49,-9.63 -1.99,0 -3.89,0.06 -5.69,0.16 v 10.13 c 1.8,-0.11 3.7,-0.18 5.72,-0.18 39.51,-0.12 59.96,26.55 103.05,7.62 3.78,-1.66 7.38,-3.54 10.86,-5.64 z m 0,-48.57 c -13.43,6.87 -38.73,16.6 -67.45,4.59 -20.96,-8.76 -39.01,-11.49 -52.18,-11.82 v 10.12 c 12.07,0.32 28.95,2.85 48.76,11.14 29.2,12.2 55.1,4.23 70.87,-2.95 z m 0,-50.44 c -12.82,5.35 -36.88,13.01 -65.62,-0.66 -24.83,-11.84 -42.21,-13.76 -54.01,-13.46 v 10.14 c 18.22,0.4 42.49,8.89 50.2,12.58 28.83,13.71 53.83,7.79 69.43,2.15 v -10.75"
         style="fill:#ffffff;fill-opacity:1;fill-rule:nonzero;stroke:none"
         id="path50" />
      <path
         d="m 2657.47,2221.71 c 0,57.71 -357.9,55.14 -393.24,55.14 -35.39,0 -393.29,2.57 -393.29,-55.14 0,-57.69 357.97,-55.14 393.34,-55.14 35.37,0 393.19,-2.55 393.19,55.14 m -28.46,-0.68 c -26.55,-12.2 -98.95,-20.7 -178.88,-25.47 -80.01,-4.78 -159.34,-5.55 -185.9,-5.55 -17.55,0 -115.1,-0.68 -208.29,5.87 -45.59,3.17 -90.13,8.04 -123.27,15.71 -14.14,3.25 -24.78,6.74 -31.91,10.12 7.13,3.38 17.77,6.87 31.91,10.14 33.14,7.65 77.68,12.52 123.27,15.71 93.19,6.54 190.74,5.89 208.29,5.89 17.52,0 115.07,0.65 208.24,-5.89 45.58,-3.19 90.13,-8.06 123.27,-15.71 15.07,-3.48 26.15,-7.21 33.27,-10.82"
         style="fill:#ffffff;fill-opacity:1;fill-rule:nonzero;stroke:none"
         id="path52" />
      <path
         d="m 1871.5,2323.55 -0.7,2.59 c 8.3,5.17 20.94,10.19 37.67,14.76 35.63,9.76 83.54,16.02 132.6,20.08 99.82,8.31 204.35,7.49 223.14,7.49 18.81,0 123.33,0.82 223.13,-7.49 49.06,-4.06 96.96,-10.32 132.6,-20.08 16.65,-4.57 29.23,-9.53 37.54,-14.69 l -0.57,-2.66 c -4.8,-22.83 -9.99,-51.27 -12.05,-64.69 -11.16,5.28 -24.98,9.46 -39.92,12.91 -34.84,8.03 -81.65,13.29 -129.61,16.64 -94.46,6.62 -193.37,5.99 -211.14,5.99 -17.79,0 -116.66,0.63 -211.11,-5.99 -47.97,-3.35 -94.78,-8.61 -129.62,-16.64 -14.95,-3.45 -28.76,-7.63 -39.92,-12.91 -2.07,13.42 -7.27,41.86 -12.04,64.69"
         style="fill:#ffffff;fill-opacity:1;fill-rule:nonzero;stroke:none"
         id="path54" />
      <path
         d="m 2752.3,2642.92 c -1.4,0.45 -3.04,-0.21 -4.97,-1.83 -21.85,-19.04 -60.5,-26.33 -68.9,-52.14 -8.22,-25.32 4.3,-51.14 9,-77.99 -4.93,17.31 -13.37,35.46 -35.54,41.86 -16.18,4.65 -31.63,-0.81 -39.76,-11.88 -5.03,-6.85 -5.57,-15.05 -1.52,-23.64 2.78,-5.83 10.99,-13.59 14.37,-16.48 1.76,-1.53 4.48,-0.81 4.72,0.3 2.76,12.35 19.85,17.51 32.81,11.56 8.89,-4.1 16.07,-11.28 19.39,-19.91 1.51,-3.83 3.19,-8.23 4.26,-12.32 l -13.29,4.14 c -6.65,2.12 -13.6,-1.5 -15.5,-8.05 -1.95,-6.54 1.89,-13.53 8.5,-15.62 l 3.87,-1.23 c -25.99,-27.25 -62.66,-44.21 -103.28,-44.21 -57.78,0 -107.58,34.36 -130.01,83.75 l -0.22,0.87 2.79,-0.17 c 7.08,-0.47 13.07,4.8 13.41,11.77 0.32,6.94 -5.16,12.95 -12.24,13.39 l -13.82,0.9 c 2.55,3.53 5.83,7.06 8.71,10.2 6.36,6.97 15.84,11.15 25.79,11.76 14.52,0.89 28.89,-10.32 26.94,-23.09 -0.17,-1.15 2.14,-2.84 4.38,-2.02 4.26,1.49 14.96,5.85 19.74,10.38 7.04,6.69 9.56,14.67 7.29,23.02 -3.65,13.56 -16.34,24.46 -33.45,25.98 -23.43,2.1 -38.16,-12.04 -49.24,-26.7 14.37,23.82 35.82,43.74 37.33,70.86 1.53,27.66 -32.53,48.85 -46.3,75.02 -1.23,2.26 -2.55,3.49 -3.82,3.57 -1.28,0.07 -2.73,-0.97 -4.27,-3.04 -16.99,-24.18 -53.51,-40.81 -55.55,-68.44 -2,-27.1 16.69,-49.6 27.89,-75.08 -9.1,15.96 -21.9,31.88 -45.41,32.82 -17.16,0.68 -31.12,-8.48 -36.51,-21.45 -3.3,-7.99 -1.85,-16.26 4.29,-23.77 4.16,-5.12 14.19,-10.8 18.22,-12.87 2.1,-1.07 4.63,0.31 4.61,1.48 -0.28,12.92 15.39,22.17 29.69,19.41 9.8,-1.87 18.65,-7.25 24.05,-14.97 2.44,-3.48 5.25,-7.4 7.33,-11.24 l -14.27,0.93 c -7.1,0.47 -13.11,-4.82 -13.41,-11.77 -0.34,-6.94 5.15,-12.93 12.21,-13.41 l 5.24,-0.34 c -24.06,-43.26 -70.44,-72.57 -123.86,-72.72 -53.01,0.17 -99.38,29.46 -123.44,72.72 l 5.23,0.34 c 7.06,0.48 12.56,6.47 12.22,13.41 -0.3,6.95 -6.31,12.24 -13.41,11.77 l -14.28,-0.93 c 2.08,3.84 4.9,7.76 7.31,11.24 5.42,7.72 14.28,13.1 24.08,14.97 14.29,2.76 29.99,-6.49 29.7,-19.41 -0.04,-1.17 2.5,-2.55 4.61,-1.48 4.02,2.07 14.07,7.75 18.23,12.87 6.13,7.51 7.56,15.78 4.26,23.77 -5.36,12.97 -19.34,22.13 -36.5,21.45 -23.53,-0.94 -36.31,-16.86 -45.4,-32.82 11.19,25.48 29.88,47.98 27.87,75.08 -2.02,27.63 -38.54,44.26 -55.55,68.44 -1.51,2.07 -2.98,3.11 -4.26,3.04 -1.27,-0.08 -2.59,-1.31 -3.82,-3.57 -13.75,-26.17 -47.83,-47.36 -46.3,-75.02 1.51,-27.12 22.96,-47.04 37.35,-70.86 -11.09,14.66 -25.83,28.8 -49.27,26.7 -17.11,-1.52 -29.8,-12.42 -33.44,-25.98 -2.25,-8.35 0.25,-16.33 7.31,-23.02 4.78,-4.53 15.46,-8.89 19.71,-10.38 2.23,-0.82 4.55,0.87 4.38,2.02 -1.93,12.77 12.43,23.98 26.95,23.09 9.97,-0.61 19.43,-4.79 25.79,-11.76 2.87,-3.14 6.16,-6.67 8.73,-10.2 l -13.84,-0.9 c -7.08,-0.44 -12.56,-6.45 -12.24,-13.39 0.34,-6.97 6.33,-12.24 13.43,-11.77 l 2.77,0.17 -0.2,-0.87 c -22.46,-49.39 -72.26,-83.75 -130.04,-83.75 -40.61,0 -77.28,16.96 -103.27,44.21 l 3.87,1.23 c 6.63,2.09 10.45,9.08 8.52,15.62 -1.93,6.55 -8.87,10.17 -15.53,8.05 l -13.29,-4.14 c 1.08,4.09 2.76,8.49 4.27,12.32 3.32,8.63 10.5,15.81 19.39,19.91 12.97,5.95 30.06,0.79 32.82,-11.56 0.25,-1.11 2.95,-1.83 4.72,-0.3 3.34,2.89 11.58,10.65 14.36,16.48 4.05,8.59 3.51,16.79 -1.52,23.64 -8.13,11.07 -23.58,16.53 -39.76,11.88 -22.16,-6.4 -30.61,-24.55 -35.54,-41.86 4.7,26.85 17.24,52.67 9,77.99 -8.4,25.81 -47.05,33.1 -68.88,52.14 -1.93,1.62 -3.59,2.28 -4.99,1.83 5.93,-16.46 12.32,-34.69 18.9,-54.15 -0.01,0.08 -0.05,0.18 -0.07,0.25 14.45,3.8 29.5,-4.38 34.03,-18.79 4.46,-14.14 -2.83,-29.19 -16.39,-34.61 -0.57,1.76 -1.12,3.34 -1.68,5.08 15.12,-46.72 30.4,-97.11 43.28,-145.27 l 2.85,-12.09 4.55,-18.86 c -11.56,-7.18 -18.17,-15.46 -18.17,-25.09 0,-7.86 4.42,-14.85 12.35,-21.04 -2.49,3.21 -3.81,6.36 -3.81,9.42 0,6.12 5.19,11.67 14.58,16.13 11.1,5.92 25.71,11.01 42.8,15.39 25.12,6.08 56.58,11.14 90.34,15.31 110.36,12.43 242.5,11.41 264.58,11.41 22.03,0 154.16,1.02 264.5,-11.41 33.76,-4.17 65.22,-9.23 90.35,-15.31 17.07,-4.38 31.69,-9.47 42.79,-15.39 9.37,-4.46 14.56,-10.01 14.56,-16.13 0,-3.06 -1.3,-6.21 -3.8,-9.42 7.94,6.19 12.36,13.18 12.36,21.04 0,9.63 -6.61,17.91 -18.17,25.09 l 4.53,18.86 2.87,12.09 c 12.86,48.04 28.1,98.33 43.17,144.95 -0.53,-1.65 -1.04,-3.1 -1.57,-4.76 -13.56,5.42 -20.85,20.47 -16.39,34.61 4.55,14.41 19.58,22.59 34.03,18.79 -0.09,-0.3 -0.19,-0.62 -0.28,-0.9 6.66,19.69 13.12,38.16 19.11,54.8 m -640.02,-53.37 c -15.82,-1.04 -29.49,10.97 -30.52,26.81 -1.03,15.85 10.98,29.52 26.82,30.54 15.85,1.02 29.5,-10.99 30.53,-26.84 1.02,-15.81 -10.98,-29.49 -26.83,-30.51 m 303.84,0 c -15.85,1.02 -27.86,14.7 -26.84,30.51 1.04,15.85 14.69,27.86 30.54,26.84 15.84,-1.02 27.83,-14.69 26.81,-30.54 -1,-15.84 -14.67,-27.85 -30.51,-26.81"
         style="fill:#ffffff;fill-opacity:1;fill-rule:nonzero;stroke:none"
         id="path56" />
      <path
         d="m 2678.04,2993.39 9.46,-1.68 -1.47,-8.42 -9.48,1.68 -4.87,-27.74 -8.91,1.57 4.88,27.74 -9.47,1.67 1.47,8.43 9.5,-1.68 1.68,9.53 8.89,-1.56 -1.68,-9.54"
         style="fill:#ffffff;fill-opacity:1;fill-rule:nonzero;stroke:none"
         id="path58" />
      <path
         d="m 2904.38,2953.47 9.48,-1.66 -1.47,-8.42 -9.48,1.66 -4.89,-27.74 -8.92,1.57 4.9,27.74 -9.48,1.68 1.49,8.42 9.48,-1.68 1.68,9.54 8.89,-1.57 -1.68,-9.54"
         style="fill:#ffffff;fill-opacity:1;fill-rule:nonzero;stroke:none"
         id="path60" />
      <path
         d="m 2264.2,3327.21 c 288.56,0 716.38,-83.49 824.05,-144.5 -58.46,-936.44 -517.38,-1377.88 -824.07,-1488.31 -306.68,110.43 -765.58,551.87 -824.03,1488.31 107.67,61.01 535.5,144.5 824.05,144.5 z"
         style="fill:none;stroke:#ffffff;stroke-width:31.3086;stroke-linecap:butt;stroke-linejoin:miter;stroke-miterlimit:10;stroke-dasharray:none;stroke-opacity:1"
         id="path62" />
    </g>
  </g>
</svg>
