<?xml version="1.0" encoding="UTF-8" standalone="no"?>
<!-- Created with Inkscape (http://www.inkscape.org/) -->

<svg
   version="1.1"
   id="svg2"
   width="702.46667"
   height="180.29333"
   viewBox="0 0 702.46667 180.29333"
   sodipodi:docname="Inline Compact White.eps"
   xmlns:inkscape="http://www.inkscape.org/namespaces/inkscape"
   xmlns:sodipodi="http://sodipodi.sourceforge.net/DTD/sodipodi-0.dtd"
   xmlns="http://www.w3.org/2000/svg"
   xmlns:svg="http://www.w3.org/2000/svg">
  <defs
     id="defs6" />
  <sodipodi:namedview
     id="namedview4"
     pagecolor="#ffffff"
     bordercolor="#000000"
     borderopacity="0.25"
     inkscape:showpageshadow="2"
     inkscape:pageopacity="0.0"
     inkscape:pagecheckerboard="0"
     inkscape:deskcolor="#d1d1d1" />
  <g
     id="g8"
     inkscape:groupmode="layer"
     inkscape:label="ink_ext_XXXXXX"
     transform="matrix(1.3333333,0,0,-1.3333333,0,180.29333)">
    <g
       id="g10"
       transform="scale(0.1)">
      <path
         d="m 1567.44,17.332 v 218.117 h 141.01 v -17.57 h -121 v -78.77 h 109.22 v -17.57 H 1587.45 V 34.8906 h 123.94 V 17.332 h -143.95"
         style="fill:#ffffff;fill-opacity:1;fill-rule:nonzero;stroke:none"
         id="path12" />
      <path
         d="m 1767.32,34.8906 h 47.99 c 9.02,0 17.52,0.5586 25.46,1.668 7.95,1.1133 16.05,3.8906 24.29,8.332 7.07,3.6407 12.85,8.5899 17.37,14.8477 4.51,6.2617 8.1,13.0703 10.74,20.4531 2.65,7.3672 4.52,15.0977 5.6,23.1676 1.07,8.082 1.61,15.86 1.61,23.332 0,7.879 -0.48,15.911 -1.47,24.079 -0.98,8.191 -2.84,15.96 -5.59,23.332 -2.75,7.378 -6.48,14.128 -11.19,20.296 -4.71,6.161 -10.79,11.262 -18.25,15.301 -6.28,3.43 -13.74,5.653 -22.37,6.672 -8.64,1.008 -17.37,1.508 -26.2,1.508 h -47.99 z M 1747.31,17.332 v 218.117 h 72.41 c 5.89,0 11.68,-0.16 17.37,-0.461 5.69,-0.297 11.29,-1 16.79,-2.117 5.48,-1.109 10.83,-2.769 16.04,-5 5.2,-2.211 10.25,-5.141 15.16,-8.781 7.06,-5.25 12.85,-11.668 17.37,-19.231 4.51,-7.578 8.09,-15.558 10.74,-23.937 2.65,-8.383 4.51,-16.871 5.6,-25.453 1.07,-8.578 1.61,-16.5 1.61,-23.778 0,-7.269 -0.44,-14.652 -1.32,-22.121 -0.88,-7.4684 -2.31,-14.7887 -4.27,-21.9606 -1.97,-7.168 -4.56,-14.0274 -7.8,-20.5977 -3.24,-6.5703 -7.31,-12.5703 -12.22,-18.0234 -4.9,-5.6563 -10.26,-10.207 -16.04,-13.6367 -5.79,-3.4297 -11.88,-6.1133 -18.25,-8.0196 -6.38,-1.9336 -13.01,-3.2422 -19.87,-3.9414 -6.88,-0.7109 -13.84,-1.0586 -20.91,-1.0586 h -72.41"
         style="fill:#ffffff;fill-opacity:1;fill-rule:nonzero;stroke:none"
         id="path14" />
      <path
         d="m 1966.91,17.332 v 218.117 h 20.02 V 17.332 h -20.02"
         style="fill:#ffffff;fill-opacity:1;fill-rule:nonzero;stroke:none"
         id="path16" />
      <path
         d="m 2061.7,207.582 h -0.58 V 17.332 h -20.02 v 218.117 h 22.66 L 2186.23,44.8906 h 0.59 V 235.449 h 20.01 V 17.332 h -23.25 l -121.88,190.25"
         style="fill:#ffffff;fill-opacity:1;fill-rule:nonzero;stroke:none"
         id="path18" />
      <path
         d="m 2274.25,34.8906 h 50.92 c 11,0 20.56,0.5078 28.71,1.5196 8.14,1.0117 14.86,3.0703 20.17,6.2109 5.29,3.1289 9.27,7.5781 11.91,13.3281 2.66,5.7617 3.98,13.3789 3.98,22.8711 0,9.0899 -1.47,16.418 -4.41,21.9687 -2.95,5.551 -7.17,9.852 -12.66,12.871 -5.5,3.031 -12.07,5.102 -19.73,6.219 -7.65,1.101 -16.19,1.66 -25.61,1.66 h -53.28 z m 0,104.2184 h 50.63 c 10.4,0 19.14,0.911 26.2,2.731 7.07,1.808 12.76,4.492 17.08,8.031 4.31,3.527 7.4,7.879 9.27,13.02 1.87,5.16 2.8,11.058 2.8,17.73 0,6.859 -1.09,12.668 -3.24,17.418 -2.16,4.742 -5.6,8.582 -10.31,11.512 -4.7,2.918 -10.84,5.039 -18.4,6.359 -7.55,1.309 -16.83,1.969 -27.81,1.969 h -46.22 z M 2254.23,17.332 v 218.117 h 76.54 c 12.36,0 22.96,-1.32 31.79,-3.929 8.83,-2.629 16.05,-6.372 21.64,-11.219 5.59,-4.852 9.67,-10.653 12.22,-17.422 2.55,-6.758 3.83,-14.188 3.83,-22.258 0,-7.68 -0.99,-14.289 -2.95,-19.851 -1.96,-5.551 -4.51,-10.2 -7.65,-13.93 -3.14,-3.738 -6.73,-6.668 -10.75,-8.789 -4.02,-2.121 -8.19,-3.59 -12.51,-4.391 v -0.609 c 14.72,-2.219 25.66,-8.172 32.82,-17.871 7.17,-9.7 10.75,-21.8089 10.75,-36.3597 0,-11.3086 -1.72,-20.8984 -5.15,-28.7812 -3.44,-7.8672 -8.2,-14.2383 -14.28,-19.0782 -6.08,-4.8398 -13.39,-8.332 -21.93,-10.4492 -8.54,-2.1211 -17.81,-3.1797 -27.82,-3.1797 h -86.55"
         style="fill:#ffffff;fill-opacity:1;fill-rule:nonzero;stroke:none"
         id="path20" />
      <path
         d="m 2450.88,235.449 h 20.02 V 105.48 c 0,-27.0581 4.9,-46.5503 14.71,-58.4683 9.81,-11.9101 25.61,-17.8711 47.4,-17.8711 11.38,0 21.05,1.5703 29,4.6992 7.94,3.1211 14.37,7.8711 19.28,14.2383 4.9,6.3633 8.43,14.293 10.6,23.7813 2.16,9.4922 3.24,20.6992 3.24,33.6206 v 129.969 h 20.01 V 99.4297 c 0,-28.4805 -6.82,-50.25 -20.45,-65.2891 -13.65,-15.0508 -34.2,-22.5703 -61.68,-22.5703 -27.67,0 -48.28,7.668 -61.82,23.0195 -13.55,15.3516 -20.31,36.961 -20.31,64.8399 V 235.449"
         style="fill:#ffffff;fill-opacity:1;fill-rule:nonzero;stroke:none"
         id="path22" />
      <path
         d="m 2745.26,133.969 c 7.46,0 14.37,0.801 20.75,2.422 6.38,1.609 11.93,4.187 16.63,7.718 4.72,3.532 8.44,8.032 11.19,13.481 2.75,5.461 4.12,12.012 4.12,19.699 0,8.07 -1.42,14.731 -4.27,19.992 -2.84,5.25 -6.67,9.391 -11.47,12.418 -4.81,3.031 -10.31,5.153 -16.49,6.371 -6.18,1.211 -12.61,1.809 -19.28,1.809 h -63.59 v -83.91 z m -62.41,-17.578 V 17.332 l -20.02,0.2969 V 235.449 h 83.02 c 23.35,0 41.21,-4.5 53.58,-13.488 12.36,-8.981 18.54,-23.57 18.54,-43.762 0,-13.738 -2.7,-24.648 -8.09,-32.73 -5.4,-8.078 -14.18,-14.938 -26.35,-20.59 6.28,-2.231 11.18,-5.457 14.72,-9.699 3.53,-4.239 6.18,-9.09 7.95,-14.539 1.76,-5.4496 2.89,-11.2113 3.38,-17.2699 0.49,-6.0625 0.83,-11.9219 1.03,-17.5703 0.2,-8.2891 0.54,-15.1524 1.03,-20.6016 0.49,-5.4492 1.08,-9.9101 1.77,-13.3281 0.68,-3.4414 1.52,-6.1211 2.5,-8.0313 0.98,-1.9179 2.16,-3.3906 3.54,-4.3906 v -1.8203 l -22.08,-0.2969 c -2.17,3.6289 -3.69,8.6797 -4.57,15.1368 -0.88,6.4726 -1.57,13.2304 -2.06,20.3125 -0.49,7.0585 -0.88,13.9296 -1.18,20.5898 -0.29,6.668 -0.83,12.1172 -1.61,16.3594 -1.18,5.8593 -3.09,10.5585 -5.74,14.0895 -2.66,3.532 -5.84,6.211 -9.57,8.032 -3.73,1.808 -7.91,3.027 -12.51,3.628 -4.62,0.61 -9.38,0.911 -14.28,0.911 h -63"
         style="fill:#ffffff;fill-opacity:1;fill-rule:nonzero;stroke:none"
         id="path24" />
      <path
         d="m 2949.56,112.449 v 17.571 h 90.67 V 17.332 h -17.07 v 37.2578 c -3.73,-6.4609 -8,-12.371 -12.81,-17.7187 -4.81,-5.3516 -10.35,-9.9102 -16.63,-13.6406 -6.29,-3.7422 -13.54,-6.6094 -21.79,-8.6289 -8.24,-2.0235 -17.56,-3.0313 -27.96,-3.0313 -13.35,0 -25.71,2.4297 -37.1,7.2695 -11.38,4.8399 -21.19,12.0704 -29.44,21.6602 -8.24,9.5898 -14.67,21.6602 -19.28,36.1992 -4.61,14.5391 -6.92,31.5118 -6.92,50.9028 0,15.957 1.97,30.847 5.89,44.687 3.93,13.832 9.96,25.852 18.11,36.043 8.14,10.207 18.35,18.227 30.61,24.09 12.27,5.848 26.74,8.777 43.43,8.777 11.18,0 21.63,-1.41 31.35,-4.238 9.72,-2.832 18.45,-7.109 26.2,-12.871 7.75,-5.758 14.28,-12.93 19.57,-21.508 5.3,-8.582 9.13,-18.73 11.48,-30.453 h -20.6 c -1.77,8.082 -4.76,15.351 -8.98,21.82 -4.22,6.461 -9.27,11.86 -15.16,16.211 -5.89,4.328 -12.47,7.66 -19.72,9.988 -7.27,2.321 -14.82,3.481 -22.67,3.481 -13.94,0 -25.91,-2.52 -35.92,-7.559 -10.01,-5.058 -18.25,-12.179 -24.72,-21.371 -6.48,-9.187 -11.24,-20.199 -14.28,-33.019 -3.05,-12.828 -4.57,-26.91 -4.57,-42.258 0,-12.113 1.72,-23.6329 5.15,-34.5431 3.44,-10.8984 8.44,-20.4883 15.02,-28.7695 6.57,-8.2891 14.62,-14.8477 24.14,-19.6992 9.52,-4.8516 20.36,-7.2696 32.53,-7.2696 5.69,0 11.58,0.6602 17.66,1.9805 6.08,1.3008 11.97,3.4687 17.67,6.5 5.68,3.0391 10.98,6.9687 15.89,11.8203 4.91,4.8477 9.13,10.7969 12.66,17.8789 3.34,6.8594 5.64,14.0313 6.92,21.5 1.27,7.4688 2.01,15.3517 2.21,23.6287 h -71.54"
         style="fill:#ffffff;fill-opacity:1;fill-rule:nonzero;stroke:none"
         id="path26" />
      <path
         d="m 3088.22,17.332 v 218.117 h 20.02 V 141.84 h 125.41 v 93.609 h 20.01 V 17.332 h -20.01 V 124.27 H 3108.24 V 17.332 h -20.02"
         style="fill:#ffffff;fill-opacity:1;fill-rule:nonzero;stroke:none"
         id="path28" />
      <path
         d="m 1799.85,956.852 c 6.7,9.043 12.06,20.257 16.08,33.652 4.01,13.386 6.02,29.636 6.02,48.726 0,15.73 -1.76,30.96 -5.27,45.7 -3.52,14.73 -9.13,27.88 -16.83,39.43 -7.7,11.55 -17.75,20.76 -30.14,27.62 -12.39,6.86 -27.46,10.3 -45.2,10.3 -17.75,0 -32.82,-3.43 -45.21,-10.28 -12.38,-6.85 -22.43,-16.04 -30.13,-27.56 -7.71,-11.53 -13.31,-24.64 -16.82,-39.35 -3.52,-14.71 -5.28,-29.91 -5.28,-45.61 0,-15.04 1.76,-29.66 5.28,-43.859 3.51,-14.203 9.11,-26.98 16.82,-38.344 7.7,-11.363 17.75,-20.468 30.13,-27.32 12.39,-6.852 27.46,-10.273 45.21,-10.273 8.37,0 14.73,0.296 19.09,0.906 4.34,0.594 8.54,1.805 12.56,3.617 l -33.66,30.641 36.67,39.172 z m 11.55,-82.872 c -23.77,-13.722 -52.73,-20.593 -86.89,-20.593 -27.46,0 -52.16,4.769 -74.08,14.316 -21.94,9.539 -40.44,22.68 -55.51,39.43 -15.06,16.734 -26.62,36.41 -34.65,59.012 -8.04,22.601 -12.05,46.965 -12.05,73.085 0,26.78 4.01,51.64 12.05,74.58 8.03,22.94 19.59,42.94 34.65,60.03 15.07,17.07 33.57,30.46 55.51,40.18 21.92,9.7 46.62,14.56 74.08,14.56 27.79,0 52.57,-4.86 74.34,-14.56 21.76,-9.72 40.18,-23.11 55.24,-40.18 15.07,-17.09 26.63,-37.09 34.66,-60.03 8.04,-22.94 12.06,-47.8 12.06,-74.58 0,-26.12 -4.02,-50.406 -12.06,-72.832 -8.03,-22.441 -19.59,-42.191 -34.66,-59.265 l 44.71,-40.688 -36.67,-38.172 -50.73,45.707"
         style="fill:#ffffff;fill-opacity:1;fill-rule:nonzero;stroke:none"
         id="path30" />
      <path
         d="m 2113.26,861.422 v 36.164 h -1.5 c -9.04,-15.07 -20.77,-25.953 -35.16,-32.648 -14.4,-6.696 -29.13,-10.043 -44.2,-10.043 -19.09,0 -34.74,2.507 -46.96,7.535 -12.23,5.019 -21.85,12.133 -28.88,21.343 -7.04,9.207 -11.98,20.422 -14.82,33.653 -2.85,13.226 -4.27,27.875 -4.27,43.949 V 1121.1 h 71.32 V 974.43 c 0,-21.43 3.35,-37.414 10.05,-47.961 6.7,-10.547 18.58,-15.821 35.66,-15.821 19.41,0 33.48,5.774 42.19,17.329 8.7,11.546 13.06,30.55 13.06,57.003 v 136.12 h 71.32 V 861.422 h -67.81"
         style="fill:#ffffff;fill-opacity:1;fill-rule:nonzero;stroke:none"
         id="path32" />
      <path
         d="m 2382.73,1060.32 c -8.54,9.37 -21.52,14.06 -38.93,14.06 -11.38,0 -20.84,-1.93 -28.38,-5.77 -7.53,-3.86 -13.56,-8.63 -18.08,-14.32 -4.52,-5.69 -7.7,-11.72 -9.54,-18.08 -1.84,-6.36 -2.94,-12.05 -3.27,-17.08 h 116.02 c -3.34,18.08 -9.29,31.82 -17.82,41.19 z m -80.62,-136.617 c 10.72,-10.383 26.12,-15.57 46.21,-15.57 14.39,0 26.79,3.597 37.17,10.801 10.37,7.195 16.74,14.812 19.08,22.851 h 62.79 c -10.05,-31.137 -25.45,-53.414 -46.21,-66.805 -20.77,-13.39 -45.88,-20.085 -75.34,-20.085 -20.43,0 -38.85,3.261 -55.25,9.793 -16.41,6.531 -30.31,15.824 -41.69,27.878 -11.39,12.051 -20.18,26.446 -26.37,43.192 -6.2,16.738 -9.29,35.156 -9.29,55.25 0,19.412 3.18,37.492 9.54,54.242 6.36,16.74 15.4,31.22 27.13,43.45 11.71,12.22 25.69,21.85 41.93,28.88 16.24,7.03 34.24,10.55 54,10.55 22.1,0 41.35,-4.27 57.76,-12.81 16.4,-8.54 29.89,-20.02 40.43,-34.41 10.55,-14.4 18.16,-30.8 22.86,-49.22 4.68,-18.42 6.35,-37.67 5.02,-57.756 h -187.35 c 1.01,-23.106 6.86,-39.856 17.58,-50.231"
         style="fill:#ffffff;fill-opacity:1;fill-rule:nonzero;stroke:none"
         id="path34" />
      <path
         d="m 2661.48,1060.32 c -8.54,9.37 -21.52,14.06 -38.93,14.06 -11.38,0 -20.84,-1.93 -28.38,-5.77 -7.53,-3.86 -13.56,-8.63 -18.08,-14.32 -4.52,-5.69 -7.7,-11.72 -9.54,-18.08 -1.84,-6.36 -2.94,-12.05 -3.27,-17.08 h 116.02 c -3.34,18.08 -9.29,31.82 -17.82,41.19 z m -80.62,-136.617 c 10.72,-10.383 26.12,-15.57 46.21,-15.57 14.39,0 26.79,3.597 37.17,10.801 10.37,7.195 16.74,14.812 19.08,22.851 h 62.79 c -10.05,-31.137 -25.45,-53.414 -46.21,-66.805 -20.77,-13.39 -45.88,-20.085 -75.34,-20.085 -20.43,0 -38.85,3.261 -55.25,9.793 -16.41,6.531 -30.31,15.824 -41.69,27.878 -11.39,12.051 -20.18,26.446 -26.37,43.192 -6.2,16.738 -9.29,35.156 -9.29,55.25 0,19.412 3.18,37.492 9.54,54.242 6.36,16.74 15.4,31.22 27.13,43.45 11.71,12.22 25.69,21.85 41.93,28.88 16.24,7.03 34.24,10.55 54,10.55 22.1,0 41.35,-4.27 57.76,-12.81 16.4,-8.54 29.89,-20.02 40.43,-34.41 10.55,-14.4 18.16,-30.8 22.86,-49.22 4.68,-18.42 6.35,-37.67 5.02,-57.756 h -187.35 c 1.01,-23.106 6.86,-39.856 17.58,-50.231"
         style="fill:#ffffff;fill-opacity:1;fill-rule:nonzero;stroke:none"
         id="path36" />
      <path
         d="m 2851.08,1121.1 v -36.17 h 1.51 c 9.04,15.07 20.75,26.03 35.15,32.9 14.4,6.86 29.14,10.3 44.2,10.3 19.09,0 34.74,-2.6 46.96,-7.79 12.23,-5.19 21.86,-12.39 28.89,-21.6 7.03,-9.21 11.96,-20.42 14.82,-33.65 2.83,-13.23 4.26,-27.88 4.26,-43.95 V 861.422 h -71.32 v 146.658 c 0,21.43 -3.35,37.42 -10.04,47.97 -6.71,10.55 -18.59,15.82 -35.67,15.82 -19.42,0 -33.48,-5.77 -42.19,-17.33 -8.71,-11.55 -13.06,-30.56 -13.06,-57.005 V 861.422 h -71.32 V 1121.1 h 67.81"
         style="fill:#ffffff;fill-opacity:1;fill-rule:nonzero;stroke:none"
         id="path38" />
      <path
         d="m 3316.17,1220.04 83.88,-246.61 h 1.01 l 79.35,246.61 h 111 V 861.422 h -73.83 v 254.148 h -1 l -87.9,-254.148 h -60.77 l -87.9,251.638 h -1 V 861.422 h -73.84 v 358.618 h 111"
         style="fill:#ffffff;fill-opacity:1;fill-rule:nonzero;stroke:none"
         id="path40" />
      <path
         d="m 3805.38,988.5 c -3.01,-2.687 -6.78,-4.777 -11.3,-6.281 -4.52,-1.508 -9.38,-2.762 -14.57,-3.77 -5.2,-1 -10.63,-1.84 -16.32,-2.511 -5.7,-0.672 -11.39,-1.508 -17.08,-2.508 -5.36,-1.004 -10.63,-2.348 -15.82,-4.02 -5.19,-1.68 -9.72,-3.937 -13.56,-6.781 -3.86,-2.848 -6.96,-6.449 -9.3,-10.797 -2.34,-4.355 -3.51,-9.883 -3.51,-16.574 0,-6.363 1.17,-11.727 3.51,-16.074 2.34,-4.36 5.53,-7.786 9.55,-10.293 4.02,-2.516 8.7,-4.274 14.06,-5.278 5.35,-1.004 10.88,-1.508 16.58,-1.508 14.06,0 24.94,2.34 32.65,7.032 7.69,4.687 13.39,10.301 17.07,16.828 3.68,6.527 5.94,13.14 6.78,19.84 0.83,6.691 1.26,12.054 1.26,16.074 z m -164.75,52.73 c 1.01,16.75 5.19,30.64 12.56,41.69 7.36,11.05 16.74,19.92 28.13,26.62 11.38,6.7 24.19,11.47 38.42,14.32 14.23,2.84 28.54,4.27 42.95,4.27 13.06,0 26.28,-0.93 39.68,-2.77 13.39,-1.84 25.61,-5.44 36.66,-10.79 11.05,-5.36 20.09,-12.81 27.13,-22.36 7.03,-9.54 10.54,-22.18 10.54,-37.92 V 919.184 c 0,-11.727 0.66,-22.942 2.01,-33.657 1.33,-10.714 3.67,-18.754 7.03,-24.105 h -72.32 c -1.35,4.019 -2.44,8.117 -3.27,12.305 -0.84,4.183 -1.43,8.453 -1.76,12.808 -11.38,-11.722 -24.78,-19.926 -40.18,-24.609 -15.4,-4.688 -31.14,-7.031 -47.21,-7.031 -12.39,0 -23.95,1.503 -34.66,4.523 -10.72,3.012 -20.09,7.691 -28.12,14.062 -8.04,6.356 -14.32,14.387 -18.84,24.106 -4.52,9.707 -6.78,21.258 -6.78,34.656 0,14.735 2.59,26.871 7.78,36.418 5.19,9.539 11.88,17.153 20.1,22.852 8.19,5.687 17.57,9.958 28.12,12.808 10.55,2.84 21.17,5.1 31.9,6.78 10.71,1.67 21.26,3.01 31.64,4.01 10.37,1.01 19.59,2.52 27.62,4.53 8.04,2.01 14.4,4.93 19.09,8.79 4.68,3.84 6.86,9.45 6.53,16.82 0,7.7 -1.26,13.81 -3.77,18.34 -2.51,4.52 -5.86,8.04 -10.04,10.54 -4.19,2.51 -9.04,4.19 -14.57,5.03 -5.52,0.83 -11.47,1.25 -17.83,1.25 -14.06,0 -25.11,-3.01 -33.15,-9.04 -8.03,-6.03 -12.73,-16.07 -14.06,-30.14 h -71.33"
         style="fill:#ffffff;fill-opacity:1;fill-rule:nonzero;stroke:none"
         id="path42" />
      <path
         d="m 3990.21,1121.1 v -48.22 h 1.01 c 3.34,8.03 7.86,15.48 13.55,22.35 5.7,6.86 12.22,12.72 19.59,17.58 7.37,4.85 15.24,8.61 23.61,11.3 8.37,2.68 17.08,4.02 26.12,4.02 4.69,0 9.87,-0.84 15.57,-2.51 v -66.3 c -3.35,0.66 -7.37,1.25 -12.05,1.75 -4.7,0.5 -9.22,0.76 -13.57,0.76 -13.06,0 -24.11,-2.19 -33.14,-6.53 -9.05,-4.35 -16.33,-10.3 -21.86,-17.83 -5.52,-7.54 -9.46,-16.33 -11.8,-26.37 -2.35,-10.05 -3.51,-20.932 -3.51,-32.651 V 861.422 H 3922.4 V 1121.1 h 67.81"
         style="fill:#ffffff;fill-opacity:1;fill-rule:nonzero;stroke:none"
         id="path44" />
      <path
         d="m 4241.83,928.727 c 7.71,4.019 14.07,9.371 19.1,16.07 5.02,6.695 8.78,14.316 11.29,22.855 2.51,8.536 3.77,17.493 3.77,26.871 0,10.707 -1,20.847 -3.01,30.387 -2.02,9.55 -5.36,18 -10.04,25.36 -4.7,7.37 -10.89,13.23 -18.59,17.59 -7.71,4.34 -17.42,6.52 -29.14,6.52 -10.04,0 -18.66,-2 -25.86,-6.02 -7.2,-4.02 -13.23,-9.47 -18.08,-16.33 -4.86,-6.86 -8.37,-14.73 -10.55,-23.6 -2.18,-8.88 -3.26,-18.17 -3.26,-27.88 0,-9.374 0.92,-18.667 2.76,-27.878 1.84,-9.207 5.02,-17.5 9.54,-24.859 4.53,-7.372 10.46,-13.395 17.84,-18.079 7.36,-4.699 16.57,-7.039 27.61,-7.039 10.05,0 18.92,2.016 26.62,6.032 z m 97.7,-86.391 c -2.85,-13.391 -8.97,-25.863 -18.33,-37.418 -9.39,-11.551 -22.94,-21.348 -40.68,-29.383 -17.76,-8.039 -41.53,-12.055 -71.33,-12.055 -12.73,0 -25.71,1.594 -38.93,4.774 -13.23,3.184 -25.28,8.121 -36.16,14.812 -10.88,6.707 -19.92,15.325 -27.12,25.872 -7.21,10.546 -11.3,23.187 -12.3,37.917 h 70.82 c 3.34,-13.386 9.87,-22.679 19.59,-27.875 9.7,-5.183 20.91,-7.781 33.65,-7.781 20.09,0 34.72,6.024 43.94,18.078 9.2,12.055 13.65,27.297 13.31,45.703 v 34.157 h -1 c -7.71,-13.735 -18.67,-23.856 -32.9,-30.383 -14.24,-6.531 -29.22,-9.797 -44.95,-9.797 -19.43,0 -36.17,3.43 -50.23,10.297 -14.06,6.855 -25.61,16.234 -34.66,28.125 -9.04,11.883 -15.65,25.781 -19.84,41.691 -4.19,15.899 -6.28,32.723 -6.28,50.477 0,16.743 2.43,32.893 7.29,48.473 4.85,15.57 11.97,29.29 21.34,41.18 9.38,11.88 21.01,21.35 34.92,28.38 13.88,7.03 29.88,10.55 47.95,10.55 17.08,0 32.07,-3.19 44.97,-9.54 12.88,-6.37 23.68,-17.08 32.39,-32.15 h 1 v 34.66 h 67.81 V 878 c 0,-10.387 -1.43,-22.266 -4.27,-35.664"
         style="fill:#ffffff;fill-opacity:1;fill-rule:nonzero;stroke:none"
         id="path46" />
      <path
         d="m 4553.24,988.5 c -3.01,-2.687 -6.78,-4.777 -11.3,-6.281 -4.52,-1.508 -9.37,-2.762 -14.56,-3.77 -5.19,-1 -10.63,-1.84 -16.33,-2.511 -5.69,-0.672 -11.38,-1.508 -17.08,-2.508 -5.35,-1.004 -10.62,-2.348 -15.82,-4.02 -5.19,-1.68 -9.71,-3.937 -13.55,-6.781 -3.86,-2.848 -6.96,-6.449 -9.3,-10.797 -2.34,-4.355 -3.51,-9.883 -3.51,-16.574 0,-6.363 1.17,-11.727 3.51,-16.074 2.34,-4.36 5.53,-7.786 9.54,-10.293 4.03,-2.516 8.71,-4.274 14.07,-5.278 5.36,-1.004 10.87,-1.508 16.58,-1.508 14.06,0 24.94,2.34 32.64,7.032 7.7,4.687 13.39,10.301 17.08,16.828 3.67,6.527 5.94,13.14 6.78,19.84 0.83,6.691 1.25,12.054 1.25,16.074 z m -164.74,52.73 c 1.01,16.75 5.19,30.64 12.56,41.69 7.36,11.05 16.74,19.92 28.13,26.62 11.37,6.7 24.19,11.47 38.42,14.32 14.22,2.84 28.54,4.27 42.94,4.27 13.06,0 26.28,-0.93 39.68,-2.77 13.39,-1.84 25.62,-5.44 36.66,-10.79 11.06,-5.36 20.1,-12.81 27.13,-22.36 7.03,-9.54 10.55,-22.18 10.55,-37.92 V 919.184 c 0,-11.727 0.66,-22.942 2.01,-33.657 1.33,-10.714 3.67,-18.754 7.03,-24.105 h -72.33 c -1.34,4.019 -2.43,8.117 -3.26,12.305 -0.84,4.183 -1.43,8.453 -1.76,12.808 -11.39,-11.722 -24.79,-19.926 -40.18,-24.609 -15.41,-4.688 -31.14,-7.031 -47.21,-7.031 -12.4,0 -23.95,1.503 -34.66,4.523 -10.73,3.012 -20.09,7.691 -28.13,14.062 -8.03,6.356 -14.31,14.387 -18.84,24.106 -4.52,9.707 -6.77,21.258 -6.77,34.656 0,14.735 2.58,26.871 7.78,36.418 5.19,9.539 11.88,17.153 20.09,22.852 8.2,5.687 17.58,9.958 28.13,12.808 10.55,2.84 21.17,5.1 31.89,6.78 10.71,1.67 21.26,3.01 31.65,4.01 10.37,1.01 19.59,2.52 27.62,4.53 8.03,2.01 14.39,4.93 19.09,8.79 4.68,3.84 6.85,9.45 6.52,16.82 0,7.7 -1.25,13.81 -3.76,18.34 -2.51,4.52 -5.87,8.04 -10.05,10.54 -4.19,2.51 -9.04,4.19 -14.56,5.03 -5.53,0.83 -11.47,1.25 -17.83,1.25 -14.06,0 -25.12,-3.01 -33.16,-9.04 -8.03,-6.03 -12.72,-16.07 -14.06,-30.14 h -71.32"
         style="fill:#ffffff;fill-opacity:1;fill-rule:nonzero;stroke:none"
         id="path48" />
      <path
         d="m 4738.07,1121.1 v -48.22 h 1.01 c 3.34,8.03 7.86,15.48 13.55,22.35 5.7,6.86 12.22,12.72 19.59,17.58 7.37,4.85 15.24,8.61 23.61,11.3 8.37,2.68 17.08,4.02 26.12,4.02 4.69,0 9.87,-0.84 15.57,-2.51 v -66.3 c -3.35,0.66 -7.37,1.25 -12.05,1.75 -4.7,0.5 -9.22,0.76 -13.57,0.76 -13.05,0 -24.11,-2.19 -33.14,-6.53 -9.05,-4.35 -16.33,-10.3 -21.86,-17.83 -5.52,-7.54 -9.46,-16.33 -11.79,-26.37 -2.36,-10.05 -3.52,-20.932 -3.52,-32.651 V 861.422 h -71.33 V 1121.1 h 67.81"
         style="fill:#ffffff;fill-opacity:1;fill-rule:nonzero;stroke:none"
         id="path50" />
      <path
         d="m 5004.02,1060.32 c -8.53,9.37 -21.52,14.06 -38.92,14.06 -11.39,0 -20.85,-1.93 -28.38,-5.77 -7.54,-3.86 -13.57,-8.63 -18.09,-14.32 -4.51,-5.69 -7.7,-11.72 -9.54,-18.08 -1.85,-6.36 -2.93,-12.05 -3.26,-17.08 h 116.02 c -3.35,18.08 -9.29,31.82 -17.83,41.19 z m -80.61,-136.617 c 10.71,-10.383 26.11,-15.57 46.21,-15.57 14.39,0 26.78,3.597 37.17,10.801 10.37,7.195 16.73,14.812 19.08,22.851 h 62.78 c -10.04,-31.137 -25.45,-53.414 -46.21,-66.805 -20.76,-13.39 -45.88,-20.085 -75.33,-20.085 -20.43,0 -38.85,3.261 -55.26,9.793 -16.4,6.531 -30.31,15.824 -41.69,27.878 -11.38,12.051 -20.17,26.446 -26.36,43.192 -6.2,16.738 -9.29,35.156 -9.29,55.25 0,19.412 3.17,37.492 9.54,54.242 6.36,16.74 15.39,31.22 27.12,43.45 11.72,12.22 25.69,21.85 41.94,28.88 16.23,7.03 34.23,10.55 54,10.55 22.1,0 41.35,-4.27 57.75,-12.81 16.41,-8.54 29.89,-20.02 40.44,-34.41 10.55,-14.4 18.16,-30.8 22.85,-49.22 4.69,-18.42 6.36,-37.67 5.02,-57.756 h -187.34 c 1,-23.106 6.85,-39.856 17.58,-50.231"
         style="fill:#ffffff;fill-opacity:1;fill-rule:nonzero;stroke:none"
         id="path52" />
      <path
         d="m 5268.46,1121.1 v -47.72 h -52.24 V 944.797 c 0,-12.051 2.01,-20.086 6.02,-24.106 4.03,-4.019 12.06,-6.027 24.12,-6.027 4.02,0 7.86,0.16 11.55,0.5 3.68,0.332 7.2,0.836 10.55,1.508 v -55.25 c -6.03,-1.004 -12.73,-1.668 -20.09,-2.004 -7.38,-0.332 -14.57,-0.504 -21.6,-0.504 -11.05,0 -21.52,0.75 -31.39,2.262 -9.88,1.504 -18.58,4.429 -26.12,8.789 -7.53,4.344 -13.48,10.547 -17.84,18.582 -4.35,8.031 -6.52,18.586 -6.52,31.641 v 153.192 h -43.19 v 47.72 h 43.19 v 77.85 h 71.32 v -77.85 h 52.24"
         style="fill:#ffffff;fill-opacity:1;fill-rule:nonzero;stroke:none"
         id="path54" />
      <path
         d="m 1827.47,410.125 c -27.12,-23.609 -64.62,-35.41 -112.5,-35.41 -48.56,0 -86.14,11.719 -112.76,35.16 -26.62,23.434 -39.93,59.594 -39.93,108.484 v 223.008 h 78.86 V 518.359 c 0,-9.711 0.83,-19.254 2.51,-28.625 1.67,-9.379 5.18,-17.668 10.54,-24.863 5.35,-7.203 12.81,-13.058 22.36,-17.578 9.54,-4.523 22.34,-6.781 38.42,-6.781 28.12,0 47.54,6.277 58.26,18.836 10.71,12.554 16.07,32.222 16.07,59.011 v 223.008 h 78.86 V 518.359 c 0,-48.55 -13.56,-84.629 -40.69,-108.234"
         style="fill:#ffffff;fill-opacity:1;fill-rule:nonzero;stroke:none"
         id="path56" />
      <path
         d="m 1986.69,642.426 v -36.164 h 1.51 c 9.04,15.07 20.76,26.031 35.16,32.894 14.39,6.864 29.13,10.301 44.2,10.301 19.08,0 34.73,-2.602 46.96,-7.785 12.22,-5.195 21.85,-12.395 28.88,-21.602 7.03,-9.215 11.97,-20.425 14.82,-33.652 2.84,-13.227 4.27,-27.875 4.27,-43.945 V 382.75 h -71.32 v 146.66 c 0,21.426 -3.35,37.422 -10.05,47.969 -6.7,10.547 -18.58,15.82 -35.66,15.82 -19.42,0 -33.49,-5.773 -42.19,-17.328 -8.71,-11.555 -13.06,-30.558 -13.06,-57.008 V 382.75 h -71.32 v 259.676 h 67.8"
         style="fill:#ffffff;fill-opacity:1;fill-rule:nonzero;stroke:none"
         id="path58" />
      <path
         d="M 2280.51,642.426 V 382.75 h -71.32 v 259.676 z m -71.32,40.179 v 58.762 h 71.32 v -58.762 h -71.32"
         style="fill:#ffffff;fill-opacity:1;fill-rule:nonzero;stroke:none"
         id="path60" />
      <path
         d="m 2391.01,382.75 -88.9,259.676 h 74.84 l 54.74,-177.301 h 1.01 l 54.74,177.301 h 70.82 L 2470.37,382.75 h -79.36"
         style="fill:#ffffff;fill-opacity:1;fill-rule:nonzero;stroke:none"
         id="path62" />
      <path
         d="m 2735.31,581.648 c -8.54,9.372 -21.52,14.063 -38.93,14.063 -11.38,0 -20.84,-1.93 -28.37,-5.773 -7.54,-3.856 -13.56,-8.625 -18.09,-14.317 -4.52,-5.695 -7.7,-11.723 -9.54,-18.078 -1.84,-6.367 -2.94,-12.059 -3.26,-17.082 h 116.02 c -3.35,18.082 -9.29,31.812 -17.83,41.187 z M 2654.7,445.031 c 10.71,-10.383 26.11,-15.57 46.21,-15.57 14.39,0 26.78,3.598 37.16,10.801 10.38,7.195 16.74,14.812 19.09,22.851 h 62.78 c -10.04,-31.136 -25.45,-53.414 -46.21,-66.8 -20.76,-13.395 -45.88,-20.09 -75.34,-20.09 -20.42,0 -38.85,3.261 -55.25,9.797 -16.41,6.527 -30.3,15.82 -41.69,27.875 -11.38,12.05 -20.17,26.445 -26.36,43.191 -6.21,16.738 -9.3,35.156 -9.3,55.25 0,19.414 3.18,37.496 9.55,54.242 6.35,16.742 15.4,31.223 27.12,43.449 11.72,12.223 25.69,21.852 41.94,28.879 16.24,7.032 34.23,10.551 53.99,10.551 22.1,0 41.35,-4.269 57.77,-12.809 16.4,-8.543 29.88,-20.015 40.43,-34.406 10.54,-14.402 18.15,-30.808 22.85,-49.222 4.68,-18.418 6.35,-37.672 5.02,-57.758 h -187.34 c 1,-23.106 6.86,-39.856 17.58,-50.231"
         style="fill:#ffffff;fill-opacity:1;fill-rule:nonzero;stroke:none"
         id="path64" />
      <path
         d="m 2924.91,642.426 v -48.219 h 1 c 3.35,8.035 7.87,15.481 13.56,22.348 5.69,6.859 12.22,12.722 19.59,17.582 7.36,4.847 15.24,8.613 23.61,11.301 8.36,2.675 17.07,4.019 26.12,4.019 4.68,0 9.87,-0.844 15.56,-2.512 v -66.3 c -3.35,0.668 -7.36,1.257 -12.05,1.757 -4.69,0.5 -9.21,0.754 -13.56,0.754 -13.06,0 -24.11,-2.183 -33.15,-6.527 -9.04,-4.356 -16.32,-10.297 -21.85,-17.832 -5.52,-7.535 -9.46,-16.324 -11.8,-26.367 -2.35,-10.051 -3.52,-20.934 -3.52,-32.653 V 382.75 h -71.32 v 259.676 h 67.81"
         style="fill:#ffffff;fill-opacity:1;fill-rule:nonzero;stroke:none"
         id="path66" />
      <path
         d="m 3102.96,447.293 c 3.18,-5.523 7.28,-10.043 12.3,-13.563 5.03,-3.511 10.8,-6.113 17.33,-7.785 6.53,-1.679 13.31,-2.511 20.34,-2.511 5.03,0 10.3,0.582 15.82,1.757 5.53,1.172 10.55,3.016 15.07,5.528 4.52,2.511 8.29,5.855 11.31,10.047 3.01,4.175 4.51,9.457 4.51,15.82 0,10.711 -7.11,18.75 -21.34,24.109 -14.24,5.352 -34.08,10.707 -59.52,16.071 -10.38,2.339 -20.52,5.101 -30.39,8.285 -9.88,3.179 -18.67,7.363 -26.37,12.558 -7.71,5.188 -13.9,11.719 -18.58,19.59 -4.7,7.864 -7.04,17.489 -7.04,28.875 0,16.746 3.27,30.473 9.8,41.188 6.53,10.715 15.15,19.168 25.87,25.367 10.71,6.191 22.76,10.547 36.16,13.059 13.39,2.511 27.12,3.769 41.19,3.769 14.06,0 27.7,-1.344 40.93,-4.019 13.23,-2.688 25.03,-7.204 35.41,-13.559 10.38,-6.367 19,-14.82 25.87,-25.367 6.86,-10.547 10.96,-23.86 12.3,-39.934 h -67.8 c -1,13.727 -6.2,23.02 -15.58,27.879 -9.37,4.852 -20.42,7.281 -33.14,7.281 -4.02,0 -8.37,-0.254 -13.06,-0.75 -4.69,-0.504 -8.97,-1.597 -12.81,-3.265 -3.85,-1.68 -7.12,-4.11 -9.79,-7.285 -2.69,-3.184 -4.02,-7.458 -4.02,-12.809 0,-6.363 2.34,-11.555 7.03,-15.566 4.69,-4.02 10.8,-7.286 18.33,-9.793 7.54,-2.516 16.16,-4.778 25.87,-6.786 9.71,-2.004 19.59,-4.187 29.63,-6.527 10.38,-2.348 20.51,-5.195 30.39,-8.539 9.88,-3.352 18.66,-7.785 26.37,-13.313 7.7,-5.519 13.89,-12.39 18.58,-20.589 4.69,-8.207 7.03,-18.336 7.03,-30.391 0,-17.074 -3.43,-31.391 -10.29,-42.937 -6.87,-11.555 -15.82,-20.848 -26.87,-27.879 -11.05,-7.032 -23.69,-11.977 -37.92,-14.821 -14.24,-2.84 -28.72,-4.265 -43.45,-4.265 -15.07,0 -29.8,1.504 -44.2,4.519 -14.4,3.016 -27.21,8.035 -38.42,15.067 -11.22,7.035 -20.43,16.328 -27.63,27.875 -7.2,11.55 -11.13,26.035 -11.8,43.449 h 67.81 c 0,-7.707 1.58,-14.313 4.77,-19.84"
         style="fill:#ffffff;fill-opacity:1;fill-rule:nonzero;stroke:none"
         id="path68" />
      <path
         d="M 3376.44,642.426 V 382.75 h -71.32 v 259.676 z m -71.32,40.179 v 58.762 h 71.32 v -58.762 h -71.32"
         style="fill:#ffffff;fill-opacity:1;fill-rule:nonzero;stroke:none"
         id="path70" />
      <path
         d="m 3565.29,642.426 v -47.715 h -52.24 V 466.125 c 0,-12.051 2.01,-20.09 6.03,-24.105 4.02,-4.02 12.05,-6.028 24.11,-6.028 4.02,0 7.86,0.16 11.55,0.5 3.68,0.332 7.2,0.832 10.55,1.508 v -55.25 c -6.03,-1.004 -12.73,-1.668 -20.09,-2.008 -7.37,-0.332 -14.57,-0.5 -21.6,-0.5 -11.05,0 -21.52,0.75 -31.39,2.262 -9.88,1.504 -18.59,4.434 -26.12,8.789 -7.54,4.344 -13.48,10.547 -17.83,18.582 -4.36,8.031 -6.53,18.586 -6.53,31.641 v 153.195 h -43.2 v 47.715 h 43.2 v 77.847 h 71.32 v -77.847 h 52.24"
         style="fill:#ffffff;fill-opacity:1;fill-rule:nonzero;stroke:none"
         id="path72" />
      <path
         d="m 3695.37,305.391 c -13.74,-9.02 -32.82,-13.551 -57.26,-13.551 -7.37,0 -14.65,0.25 -21.85,0.762 -7.2,0.488 -14.48,1.089 -21.85,1.757 v 58.758 c 6.7,-0.668 13.56,-1.336 20.59,-2.008 7.04,-0.668 14.07,-0.828 21.1,-0.5 9.37,1 16.32,4.692 20.85,11.047 4.51,6.364 6.77,13.395 6.77,21.094 0,5.688 -1,11.051 -3.01,16.074 l -90.91,243.602 h 75.84 l 58.77,-177.805 h 1 l 56.76,177.805 H 3836 L 3727.51,350.609 c -7.7,-21.097 -18.42,-36.168 -32.14,-45.218"
         style="fill:#ffffff;fill-opacity:1;fill-rule:nonzero;stroke:none"
         id="path74" />
      <path
         d="m 1351.55,1222.13 c -87.44,49.53 -434.859,117.34 -669.183,117.34 -234.332,0 -581.754,-67.81 -669.1912,-117.34 8.418,-134.85 27.2187,-256.821 53.5937,-367.138 132.4185,45.356 415.1405,94.965 615.5975,94.965 200.469,0 483.183,-49.609 615.603,-94.949 26.36,110.301 45.16,232.272 53.58,367.122 m -196.79,-264.489 5.97,35.558 c 9.51,-0.273 19.49,-1.316 29.7,-3.109 10.2,-1.813 19.93,-4.246 28.98,-7.227 l -6.25,-37.769 z m 58.72,35.254 c -6.92,1.98 -14.16,3.664 -21.68,4.984 -7.52,1.332 -14.91,2.221 -22.09,2.741 l 10.28,58.31 c 7.13,-0.32 14.55,-1.16 22.14,-2.49 7.58,-1.33 14.82,-3.1 21.64,-5.23 z m -138.7,-20.547 6.91,39.262 c 1.67,9.41 9.86,15.77 18.25,14.28 l 3.94,-0.69 c 8.36,-1.47 13.91,-10.24 12.24,-19.67 l -6.92,-39.257 z m -736.159,53.782 c -4.262,2.16 -9.43,5.76 -12.035,9.17 -1.289,2 -2.731,4.84 -2.484,7.52 -3.528,-0.83 -6.766,-0.12 -9.231,0.51 -2.637,1.18 -6.047,2.85 -4.922,5.05 -3.176,-0.99 -2.578,0.64 -4.633,1.28 2.946,1.32 3.36,6.18 7.485,9.16 3.91,2.5 8.863,2.66 11.484,0.98 4.125,-2.67 1.106,-7.87 3.328,-12.19 7.008,-19.65 52.078,-1.46 60.145,11.7 -0.481,-10.4 -6.949,-17.11 -11.106,-18.88 6.028,-2.1 7.977,-9.52 6.93,-15.78 -3.109,6.81 -10.516,11.63 -17.004,9.94 2.102,-4.86 6.043,-8.82 6.106,-13.07 -3.301,6.34 -7.176,6.15 -11.321,7.09 0.907,-3.99 1.535,-6.7 2.703,-12.07 -2.336,3.85 -5.55,5.62 -11.492,6.15 2.074,-3.89 3.899,-8.3 4.758,-13.01 -4.465,9.24 -11.074,12.07 -18.711,16.45 m 10,21.5 c 0.613,-4.56 -1.012,-6.68 -7.391,-6.25 -7.71,0.68 -10.597,3.99 -11.179,7.26 0.125,3.97 6.887,2.01 10.855,1.93 4.157,0.23 6.828,0.72 7.715,-2.94 m -3.848,5.83 c -2.175,-0.82 -5.472,-1.16 -7.757,-0.53 -1.493,0.11 -1.555,4.45 0.179,4.86 1.961,0.37 5.157,0.95 7.317,1.12 2.605,0.28 3.051,-4.82 0.261,-5.45 m -14.199,-0.93 c -2.562,0.85 -2.836,3.58 -1.933,6.32 1.625,-0.66 4.125,-0.95 5.703,-1.18 0.094,-1.75 -0.473,-5.38 -3.77,-5.14 m 16.637,7.52 c 4.082,0.75 7.16,3.83 8.559,0.96 1.835,-3.22 -2.672,-4.75 -7.61,-6.74 1.074,2.2 0.985,4.82 -0.949,5.78 m 11.625,-5.41 c 2.266,-3.4 -4.973,-5.58 -8.59,-6.6 0.567,1.35 -0.277,3.54 -1.762,4.34 3.204,0.78 8.821,4.46 10.352,2.26 m -7.777,-8.72 c 4.386,1.23 9.218,4.57 10.32,2.58 1.027,-3.07 -2.375,-4.91 -10.625,-6.96 0.949,0.79 1.348,3.69 0.305,4.38 m 5.226,17.72 c 4.543,1.85 11.793,5.49 16.594,10.31 -0.09,-4.49 -7.191,-12.83 -15.102,-16.07 1.684,1.84 0.243,5.11 -1.492,5.76 m 20.324,4.76 c -2.562,-6.1 -7.441,-12.48 -15.671,-16.3 0.929,1.49 -0.172,4.44 -1.598,4.69 6.09,2.15 11.547,6.75 17.269,11.61 m 1.668,-7.53 c -1.472,-4.75 -7.804,-12.36 -14.871,-14.86 1.012,1.43 0.66,4.06 -1.258,4.6 7.59,3.73 12.696,6.84 16.129,10.26 m -47.687,-45.28 c 2.57,3.37 4.14,5.48 4.629,8.97 0.801,-0.96 2.804,-1.73 3.867,-2.4 -2.106,-3.3 -5.723,-5.3 -8.496,-6.57 m -6.262,4.6 c 2.164,1.9 4.02,5.52 4.344,8.76 1.566,-1.2 3.543,-2.44 5.121,-3.28 -2.637,-2.55 -6.27,-4.1 -9.465,-5.48 m -5.351,5.46 c 1.855,1.7 5.308,4.58 5.429,7.9 0.508,-0.69 2.379,-2.87 2.946,-3.41 -1.934,-2.94 -5.446,-3.57 -8.375,-4.49 M 202.563,993.02 c 2.574,3.355 4.121,5.472 4.628,8.97 0.793,-0.98 2.805,-1.75 3.848,-2.408 -2.101,-3.316 -5.703,-5.293 -8.476,-6.562 m -6.262,4.597 c 2.148,1.887 4.019,5.523 4.328,8.763 1.574,-1.2 3.555,-2.46 5.137,-3.29 -2.653,-2.54 -6.278,-4.11 -9.465,-5.473 m -5.363,5.463 c 1.867,1.68 5.304,4.58 5.425,7.89 0.504,-0.68 2.395,-2.85 2.946,-3.4 -1.934,-2.94 -5.446,-3.59 -8.371,-4.49 m -9.02,22.72 c -3.176,-0.98 -2.574,0.65 -4.645,1.29 2.946,1.32 3.36,6.18 7.481,9.16 3.91,2.5 8.867,2.66 11.488,0.98 4.121,-2.67 1.106,-7.87 3.34,-12.19 6.992,-19.66 52.082,-1.46 60.145,11.69 -0.477,-10.39 -6.961,-17.11 -11.118,-18.89 6.028,-2.08 7.993,-9.49 6.946,-15.76 -3.125,6.81 -10.532,11.62 -17.024,9.94 2.102,-4.86 6.047,-8.82 6.106,-13.067 -3.297,6.337 -7.176,6.147 -11.297,7.067 0.871,-3.97 1.531,-6.704 2.68,-12.067 -2.329,3.848 -5.54,5.629 -11.469,6.167 2.054,-3.897 3.894,-8.296 4.734,-13.011 -4.441,9.235 -11.055,12.059 -18.707,16.441 -4.262,2.15 -9.43,5.75 -12.035,9.17 -1.273,2.01 -2.715,4.85 -2.484,7.53 -3.528,-0.82 -6.762,-0.12 -9.235,0.51 -2.636,1.18 -6.039,2.85 -4.906,5.04 m 38.66,-0.73 c 0.613,-4.57 -0.996,-6.69 -7.379,-6.27 -7.726,0.68 -10.594,4 -11.195,7.25 0.144,3.99 6.891,2.02 10.848,1.95 4.168,0.23 6.839,0.72 7.726,-2.93 m -3.832,5.82 c -2.195,-0.82 -5.492,-1.18 -7.777,-0.53 -1.473,0.09 -1.547,4.43 0.199,4.86 1.949,0.37 5.137,0.93 7.316,1.1 2.59,0.29 3.036,-4.8 0.262,-5.43 m -14.219,-0.93 c -2.558,0.84 -2.824,3.57 -1.929,6.32 1.64,-0.66 4.121,-0.96 5.703,-1.19 0.094,-1.76 -0.477,-5.39 -3.774,-5.13 m 16.641,7.51 c 4.094,0.76 7.156,3.83 8.57,0.97 1.84,-3.22 -2.679,-4.76 -7.625,-6.75 1.09,2.19 0.985,4.83 -0.945,5.78 m 11.621,-5.4 c 2.285,-3.4 -4.949,-5.58 -8.57,-6.62 0.554,1.36 -0.293,3.54 -1.781,4.36 3.222,0.78 8.82,4.46 10.351,2.26 m -7.773,-8.72 c 4.382,1.23 9.234,4.57 10.324,2.58 1.023,-3.07 -2.379,-4.93 -10.633,-6.97 0.969,0.8 1.356,3.7 0.309,4.39 m 5.246,17.71 c 4.504,1.86 11.773,5.49 16.59,10.32 -0.11,-4.49 -7.207,-12.83 -15.118,-16.07 1.684,1.84 0.258,5.11 -1.472,5.75 m 20.301,4.77 c -2.543,-6.1 -7.438,-12.5 -15.657,-16.3 0.918,1.49 -0.183,4.43 -1.609,4.69 6.101,2.15 11.562,6.75 17.266,11.61 m 1.691,-7.55 c -1.492,-4.73 -7.824,-12.34 -14.895,-14.84 1.032,1.42 0.661,4.07 -1.254,4.6 7.602,3.73 12.696,6.84 16.149,10.24 m -72.352,109.76 c 6.993,-19.66 52.063,-1.46 60.129,11.69 -0.48,-10.39 -6.949,-17.09 -11.105,-18.89 6.027,-2.08 7.972,-9.49 6.929,-15.76 -3.109,6.81 -10.515,11.63 -17.019,9.94 2.117,-4.87 6.059,-8.82 6.117,-13.07 -3.297,6.35 -7.187,6.15 -11.312,7.07 0.886,-3.97 1.547,-6.7 2.679,-12.07 -2.316,3.85 -5.535,5.63 -11.468,6.18 2.07,-3.91 3.894,-8.31 4.753,-13.02 -4.46,9.23 -11.074,12.07 -18.71,16.44 -4.262,2.16 -9.446,5.77 -12.036,9.17 -1.289,2 -2.714,4.85 -2.488,7.53 -3.523,-0.84 -6.773,-0.11 -9.226,0.51 -2.657,1.18 -6.043,2.83 -4.907,5.04 -3.195,-0.98 -2.593,0.65 -4.648,1.31 2.941,1.3 3.359,6.16 7.5,9.12 3.89,2.5 8.848,2.67 11.469,1 4.125,-2.68 1.117,-7.87 3.343,-12.19 m -3.285,-27.41 c 2.133,1.87 4.02,5.51 4.313,8.74 1.578,-1.19 3.574,-2.45 5.136,-3.28 -2.636,-2.54 -6.253,-4.11 -9.449,-5.46 m 10.875,4.36 c 0.793,-0.98 2.821,-1.74 3.867,-2.41 -2.121,-3.31 -5.722,-5.31 -8.496,-6.56 2.586,3.35 4.141,5.47 4.629,8.97 m -16.242,1.08 c 1.855,1.71 5.309,4.59 5.43,7.9 0.508,-0.69 2.394,-2.86 2.945,-3.4 -1.934,-2.94 -5.445,-3.58 -8.375,-4.5 m 43.172,24.97 c 7.605,3.73 12.691,6.85 16.133,10.25 -1.477,-4.74 -7.809,-12.35 -14.86,-14.85 1.008,1.41 0.625,4.08 -1.273,4.6 m -13.664,1.75 c 3.219,0.8 8.812,4.48 10.367,2.28 2.25,-3.4 -4.984,-5.58 -8.605,-6.62 0.582,1.36 -0.278,3.54 -1.762,4.34 m 0.137,-4.73 c 0.617,-4.56 -1.012,-6.67 -7.379,-6.25 -7.723,0.67 -10.594,3.99 -11.192,7.25 0.137,3.98 6.887,2.01 10.84,1.93 4.172,0.23 6.844,0.72 7.731,-2.93 m 12.757,0.85 c 1.028,-3.05 -2.379,-4.89 -10.629,-6.96 0.965,0.8 1.352,3.69 0.309,4.4 4.383,1.22 9.234,4.57 10.32,2.56 m -27.035,9.18 c 0.078,-1.75 -0.472,-5.38 -3.769,-5.13 -2.563,0.83 -2.836,3.57 -1.934,6.31 1.625,-0.66 4.125,-0.95 5.703,-1.18 m 10.446,-4.2 c -2.196,-0.83 -5.497,-1.18 -7.774,-0.53 -1.488,0.1 -1.555,4.43 0.195,4.84 1.95,0.39 5.137,0.95 7.313,1.14 2.594,0.29 3.039,-4.82 0.266,-5.45 m 3.375,0.81 c 1.085,2.2 0.98,4.82 -0.954,5.77 4.094,0.75 7.164,3.83 8.575,0.97 1.836,-3.24 -2.688,-4.76 -7.621,-6.74 m 24.73,19.68 c -0.109,-4.49 -7.207,-12.83 -15.117,-16.09 1.668,1.86 0.258,5.12 -1.477,5.77 4.512,1.84 11.766,5.5 16.594,10.32 m 3.711,-5.55 c -2.543,-6.1 -7.438,-12.5 -15.668,-16.29 0.93,1.48 -0.172,4.42 -1.598,4.68 6.086,2.15 11.563,6.75 17.266,11.61 m 85.766,11.84 c 0.093,-1.77 -0.473,-5.38 -3.77,-5.13 -2.551,0.84 -2.82,3.58 -1.918,6.31 1.625,-0.66 4.125,-0.94 5.688,-1.18 m 16.734,-11.75 c 4.383,1.23 9.215,4.57 10.316,2.56 1.032,-3.03 -2.39,-4.89 -10.625,-6.95 0.953,0.81 1.332,3.7 0.309,4.39 m -0.816,2.12 c 0.566,1.36 -0.274,3.52 -1.778,4.34 3.238,0.8 8.832,4.46 10.367,2.28 2.254,-3.42 -4.972,-5.6 -8.589,-6.62 m -9.012,-6.66 c -7.715,0.67 -10.598,3.99 -11.199,7.25 0.125,3.98 6.886,2.01 10.859,1.94 4.172,0.23 6.836,0.72 7.711,-2.93 0.629,-4.57 -0.996,-6.67 -7.371,-6.26 m 3.539,12.09 c -2.192,-0.83 -5.488,-1.17 -7.774,-0.54 -1.476,0.11 -1.546,4.43 0.2,4.86 1.964,0.37 5.152,0.95 7.312,1.12 2.59,0.29 3.039,-4.82 0.262,-5.44 m 3.375,0.81 c 1.086,2.19 0.996,4.81 -0.942,5.76 4.098,0.74 7.153,3.84 8.563,0.97 1.84,-3.22 -2.688,-4.76 -7.621,-6.73 m 24.719,19.69 c -0.09,-4.51 -7.192,-12.85 -15.106,-16.09 1.688,1.84 0.262,5.11 -1.488,5.75 4.539,1.86 11.797,5.49 16.594,10.34 m 3.742,-5.57 c -2.567,-6.1 -7.453,-12.5 -15.676,-16.29 0.926,1.48 -0.164,4.42 -1.609,4.7 6.101,2.13 11.562,6.73 17.285,11.59 m 1.668,-7.54 c -1.469,-4.74 -7.821,-12.35 -14.871,-14.85 1.011,1.43 0.644,4.08 -1.278,4.6 7.61,3.73 12.715,6.85 16.149,10.25 m 9.465,-1.55 c -0.461,-10.4 -6.95,-17.1 -11.09,-18.9 6.023,-2.08 7.972,-9.49 6.933,-15.76 -3.117,6.81 -10.539,11.64 -17.019,9.96 2.097,-4.88 6.039,-8.82 6.101,-13.09 -3.296,6.35 -7.175,6.15 -11.289,7.09 0.875,-3.99 1.52,-6.71 2.672,-12.07 -2.316,3.85 -5.539,5.61 -11.469,6.17 2.071,-3.92 3.891,-8.32 4.75,-13.01 -4.464,9.22 -11.07,12.05 -18.722,16.44 -4.262,2.15 -9.434,5.75 -12.039,9.15 -1.27,2.01 -2.715,4.85 -2.465,7.53 -3.547,-0.82 -6.777,-0.11 -9.234,0.51 -2.653,1.18 -6.055,2.85 -4.911,5.05 -3.187,-0.97 -2.589,0.64 -4.64,1.28 2.937,1.32 3.351,6.18 7.48,9.16 3.895,2.5 8.848,2.66 11.469,0.98 4.141,-2.67 1.117,-7.87 3.344,-12.19 7.008,-19.65 52.078,-1.46 60.129,11.7 m -63.411,-39.1 c 2.145,1.88 4.036,5.5 4.325,8.75 1.582,-1.21 3.574,-2.45 5.136,-3.3 -2.652,-2.54 -6.257,-4.09 -9.461,-5.45 m 10.872,4.35 c 0.816,-0.97 2.82,-1.73 3.867,-2.41 -2.102,-3.29 -5.703,-5.29 -8.485,-6.56 2.594,3.36 4.145,5.47 4.618,8.97 m -16.239,1.09 c 1.871,1.7 5.305,4.58 5.442,7.91 0.492,-0.7 2.379,-2.87 2.929,-3.42 -1.929,-2.94 -5.425,-3.57 -8.371,-4.49 m 102.649,-33.83 c 0.121,-3.83 -2.946,-12.1 -6.469,-15.26 0.844,-6.88 -4.371,-14.17 -14.57,-15.5 3.605,4.31 2.148,13.03 -2.161,12.26 l -66.445,-11.71 c -0.262,-0.12 -0.566,-0.23 -0.937,-0.29 -10.422,-1.84 -17.575,-11.36 -16.649,-21.73 l 12.145,-68.91 c 0.765,-4.328 9.461,-2.715 12.265,2.156 2.239,-10.043 -4.832,-17.785 -11.578,-19.336 -1.761,-4.398 -6.468,-9.766 -10.125,-10.961 -3.832,-0.121 -10.101,3.297 -13.258,6.836 -6.886,-0.84 -16.179,4.004 -17.515,14.203 4.324,-3.605 13.035,-2.148 12.269,2.176 l -11.976,67.976 c -2.301,10.58 -12.574,17.53 -23.324,15.65 -0.754,-0.15 -1.52,-0.24 -2.301,-0.28 l -65.035,-11.47 c -4.321,-0.77 -2.715,-9.47 2.164,-12.27 -10.059,-2.24 -17.438,2.84 -19,9.59 -4.399,1.76 -12.102,8.12 -13.313,11.75 -0.105,3.86 4.938,12.48 8.496,15.63 -0.843,6.87 4.344,14.17 14.551,15.51 -3.601,-4.32 -2.141,-13.04 2.18,-12.27 l 67.32,11.87 c 10.75,1.9 18.016,11.94 16.547,22.68 l -11.992,68.1 c -0.766,4.32 -9.461,2.7 -12.285,-2.18 -2.223,10.06 2.851,17.44 9.597,19 1.75,4.4 8.485,10.12 12.117,11.32 3.832,0.1 12.098,-2.96 15.258,-6.49 6.887,0.84 14.184,-4.36 15.52,-14.57 -4.309,3.62 -13.047,2.16 -12.27,-2.16 l 12.16,-69.04 c 2.688,-10.06 12.653,-16.56 23.094,-14.72 l 67.379,11.89 c 4.328,0.76 2.699,9.44 -2.141,12.27 10.043,2.23 17.415,-2.84 18.985,-9.6 4.383,-1.75 10.101,-8.47 11.297,-12.12 M 862.52,996.344 c 0,0 -96.399,8.516 -143.918,8.516 0,0 -1.891,-11.84 -15.739,-11.84 h -20.496 -20.488 c -13.863,0 -15.734,11.84 -15.734,11.84 -47.524,0 -143.915,-8.516 -143.915,-8.516 v 225.726 l 11.286,1.03 c 0,0 31.297,33.06 31.039,33.23 51.121,-11.09 53.39,7.87 85.746,7.87 32.344,0 52.066,-21.73 52.066,-21.73 0,0 19.715,21.73 52.074,21.73 32.356,0 34.625,-18.96 85.75,-7.87 -0.261,-0.17 31.024,-33.23 31.024,-33.23 l 11.305,-1.03 z m 114.39,29.276 c 9.524,-0.29 19.488,-1.32 29.7,-3.13 10.22,-1.79 19.96,-4.25 28.99,-7.22 l -6.55,-35.454 -59.179,8.188 z m 9,7.4 10.281,58.32 c 7.139,-0.32 14.549,-1.15 22.119,-2.48 7.58,-1.33 14.85,-3.12 21.64,-5.23 l -10.27,-58.32 c -6.92,1.98 -14.17,3.65 -21.68,4.99 -7.52,1.31 -14.91,2.22 -22.09,2.72 m 70.56,164.88 -18.74,-6.02 -2.64,-14.98 12.13,-32.21 c -5.75,1.86 -11.93,3.39 -18.38,4.52 -6.35,1.11 -12.58,1.78 -18.53,2.03 l 22.11,25.21 2.43,13.74 3.8,21.54 z m 4.95,-67.95 -5.12,-28.68 -14.81,-9.19 c -6.83,2.12 -14.1,3.89 -21.67,5.23 -7.84,1.38 -15.49,2.21 -22.836,2.51 l -10.121,13.68 5.078,28.72 c 3.45,0.37 7.067,0.58 10.809,0.64 l -2.38,-13.53 c 3.36,0.01 6.19,-0.08 9.08,-0.27 l 2.82,13.5 c 3.44,-0.21 6.93,-0.58 10.51,-1.09 l -2.38,-13.52 4.55,-0.74 4.73,-0.91 2.37,13.52 c 3.53,-0.74 6.97,-1.59 10.26,-2.55 l -2.38,-13.54 c 3.2,-0.95 5.89,-1.84 8.49,-2.8 l 2.94,13.35 c 3.56,-1.32 6.92,-2.77 10.06,-4.33 m -0.47,-61.61 16.57,-2.93 1.97,11.18 22.18,-3.91 -1.96,-11.18 16.56,-2.91 1.98,11.16 22.17,-3.91 -1.97,-11.16 16.57,-2.93 1.97,11.18 13.86,-2.45 -10.29,-58.37 -6.01,1.06 -7.72,-43.783 -28.81,5.324 6.93,39.259 c 2.59,14.68 -6.03,28.58 -19.37,30.94 l -3.94,0.69 c -13.32,2.35 -26.17,-7.76 -28.77,-22.45 l -6.92,-39.255 -28.77,4.769 7.73,43.846 -6.14,1.09 10.29,58.36 13.86,-2.44 z m 77.71,18.36 -2.07,-11.65 -50.34,8.89 2.04,11.63 2.1,11.86 c 8.14,-0.2 16.71,-1.06 25.5,-2.61 8.77,-1.55 17.13,-3.68 24.84,-6.29 z m 15.24,125.31 -18.72,-6.03 -2.64,-14.98 12.13,-32.21 c -5.75,1.85 -11.93,3.39 -18.37,4.52 -6.36,1.14 -12.59,1.8 -18.55,2.04 l 22.14,25.19 2.41,13.76 3.8,21.54 z m 9.85,-70.49 -5.05,-28.35 -10.96,-7.29 c -9.2,3.47 -19.35,6.32 -30.21,8.23 -10.87,1.92 -21.39,2.72 -31.22,2.61 l -7.79,10.58 5.01,28.51 c 4.3,0.75 8.91,1.21 13.77,1.38 l -2.39,-13.53 c 3.37,0.11 6.23,0.08 9.14,-0.02 l 2.81,13.49 c 4.29,-0.18 8.72,-0.6 13.25,-1.24 l -2.37,-13.51 4.64,-0.75 4.64,-0.9 2.38,13.52 c 4.46,-0.96 8.77,-2.11 12.88,-3.42 l -2.39,-13.51 c 3.17,-1.05 5.86,-2.02 8.43,-3.05 l 2.95,13.29 c 4.52,-1.84 8.69,-3.88 12.48,-6.04 m 76.53,23.98 -18.73,-6.04 -2.66,-14.98 12.15,-32.21 c -5.77,1.86 -11.94,3.39 -18.39,4.53 -6.35,1.12 -12.57,1.77 -18.54,2.02 l 22.13,25.23 2.42,13.74 3.79,21.54 z m 4.89,-67.91 -5.07,-28.75 -14.18,-9.38 c -7.01,2.23 -14.48,4.07 -22.3,5.44 -7.59,1.34 -15.03,2.15 -22.16,2.49 l -10.8,13.71 5.02,28.71 c 3.48,0.38 7.13,0.59 10.93,0.63 l -2.39,-13.58 c 3.34,0.03 6.18,-0.04 9.09,-0.23 l 2.83,13.51 c 3.43,-0.23 6.94,-0.6 10.5,-1.1 l -2.39,-13.52 4.75,-0.76 4.54,-0.87 2.39,13.51 c 3.51,-0.72 6.93,-1.6 10.24,-2.55 l -2.39,-13.53 c 3.21,-0.94 5.91,-1.82 8.5,-2.78 l 2.94,13.32 c 3.51,-1.32 6.84,-2.75 9.95,-4.27 m -948.959,80.21 c -0.25,1.35 -1.629,2.18 -2.902,1.95 -1.243,-0.23 -2.239,-1.46 -1.961,-2.84 0.226,-1.43 1.582,-2.25 2.836,-2.05 1.332,0.27 2.254,1.53 2.027,2.94 m -1.461,-0.26 c 0.105,-0.61 -0.273,-1.12 -0.812,-1.24 -0.52,-0.08 -1.059,0.31 -1.165,0.87 -0.093,0.52 0.278,1.04 0.797,1.14 0.571,0.1 1.106,-0.28 1.18,-0.77 m -126.59,-22.33 c -0.226,1.36 -1.625,2.19 -2.894,1.97 -1.227,-0.23 -2.243,-1.46 -1.961,-2.84 0.226,-1.43 1.578,-2.26 2.851,-2.06 1.317,0.26 2.235,1.54 2.004,2.93 m -1.437,-0.24 c 0.105,-0.62 -0.274,-1.14 -0.825,-1.25 -0.507,-0.07 -1.062,0.3 -1.168,0.88 -0.093,0.51 0.293,1.04 0.793,1.13 0.582,0.1 1.122,-0.27 1.2,-0.76 m 18.261,-123.63 c 0.235,-1.41 1.594,-2.25 2.856,-2.05 1.316,0.25 2.25,1.53 2.008,2.92 -0.231,1.36 -1.614,2.18 -2.903,1.97 -1.222,-0.23 -2.218,-1.46 -1.961,-2.84 m 1.457,0.26 c -0.105,0.51 0.262,1.04 0.77,1.13 0.578,0.09 1.117,-0.29 1.195,-0.77 0.11,-0.6 -0.277,-1.11 -0.816,-1.22 -0.516,-0.09 -1.067,0.28 -1.149,0.86 m 131.465,23.19 c -0.261,1.37 -1.625,2.19 -2.914,1.96 -1.238,-0.23 -2.238,-1.46 -1.961,-2.84 0.231,-1.41 1.578,-2.24 2.836,-2.05 1.332,0.26 2.238,1.53 2.039,2.93 m -1.457,-0.25 c 0.094,-0.61 -0.273,-1.12 -0.828,-1.24 -0.519,-0.08 -1.058,0.31 -1.148,0.87 -0.11,0.53 0.261,1.05 0.781,1.13 0.562,0.1 1.121,-0.27 1.195,-0.76"
         style="fill:#ffffff;fill-opacity:1;fill-rule:nonzero;stroke:none"
         id="path76" />
      <path
         d="m 682.371,1339.47 c 234.324,0 581.749,-67.8 669.189,-117.34 C 1304.08,461.668 931.402,103.199 682.355,13.5195 433.305,103.199 60.6445,461.668 13.1836,1222.13 c 87.4374,49.54 434.8554,117.34 669.1874,117.34 z"
         style="fill:none;stroke:#ffffff;stroke-width:25.4248;stroke-linecap:butt;stroke-linejoin:miter;stroke-miterlimit:10;stroke-dasharray:none;stroke-opacity:1"
         id="path78" />
      <path
         d="m 682.371,1339.47 c 234.324,0 581.749,-67.8 669.189,-117.34 C 1304.08,461.668 931.402,103.199 682.355,13.5195 433.305,103.199 60.6445,461.668 13.1836,1222.13 c 87.4374,49.54 434.8554,117.34 669.1874,117.34 z"
         style="fill:none;stroke:#ffffff;stroke-width:25.4248;stroke-linecap:butt;stroke-linejoin:miter;stroke-miterlimit:10;stroke-dasharray:none;stroke-opacity:1"
         id="path80" />
      <path
         d="m 812.051,1055.4 v 187.92 c -6.598,-1.57 -28.082,-6.84 -56.453,5.03 -35.45,14.82 -64.692,-12.79 -66.688,-14.52 v -168.19 c 3.238,3.42 30.438,19.29 65.356,2.67 45.054,-21.45 57.785,-12.91 57.785,-12.91 m -15.461,138.27 c -1.453,-0.06 -3.004,-0.12 -4.613,-0.12 -10.168,-0.03 -23.082,1.68 -37.754,7.82 -19.586,8.19 -38.75,3.29 -54.778,-7.61 v 9.62 c 2.825,1.68 5.735,3.21 8.821,4.57 34.988,15.36 51.593,-6.29 83.675,-6.2 1.645,0.02 3.196,0.06 4.649,0.15 z m 0,-45.22 c -10.688,0.27 -25.348,2.5 -42.367,9.61 -23.34,9.74 -43.887,1.84 -54.778,-3.72 v 8.98 c 12.805,5.83 33.844,12.3 57.551,2.39 16.07,-6.71 29.793,-8.78 39.594,-9.04 z m 0,-46.56 c -9.602,-0.23 -23.707,1.32 -43.856,10.93 -23.339,11.11 -42.879,4.88 -53.289,0.56 v 8.72 c 12.653,4.57 32.969,9.38 56.368,-1.76 6.277,-2.99 25.976,-9.88 40.777,-10.21 v -8.24"
         style="fill:#ffffff;fill-opacity:1;fill-rule:nonzero;stroke:none"
         id="path82" />
      <path
         d="m 839.543,1015.09 -23.598,29.03 c 0,0 -15.394,-9.33 -59.683,11.82 -46.86,22.39 -67.348,-5.01 -67.348,-5.01 -1.547,-3.64 -0.859,-28.13 0,-31.48 3.359,-0.76 15.84,0 15.84,0 0.551,3.79 8.879,26.75 47.246,10.62 65.773,-27.68 87.543,-14.98 87.543,-14.98 m -21.313,17.7 4.543,-5.45 c 0,0 -29.062,-5.03 -61.695,10.43 -51.711,24.5 -60.328,-3.18 -60.328,-3.18 h -5.445 c 0,0 8.668,36.82 65.773,9.09 31.758,-15.44 57.152,-10.89 57.152,-10.89"
         style="fill:#ffffff;fill-opacity:1;fill-rule:nonzero;stroke:none"
         id="path84" />
      <path
         d="m 544.242,1239.15 v -186.41 l -26.176,-33.96 v 192.24 l 9.399,9.46 v -179.99 l 5.508,7.94 v 178.67 l 11.269,12.05"
         style="fill:#ffffff;fill-opacity:1;fill-rule:nonzero;stroke:none"
         id="path86" />
      <path
         d="m 675.832,1050.93 c 0,0 -20.488,27.4 -67.363,5.01 -44.274,-21.15 -59.684,-11.82 -59.684,-11.82 l -23.601,-29.03 c 0,0 21.777,-12.7 87.55,14.98 38.364,16.13 46.707,-6.83 47.258,-10.62 0,0 12.481,-0.76 15.84,0 0.848,3.35 1.535,27.84 0,31.48 m -6.41,-16.34 h -5.445 c 0,0 -8.618,27.68 -60.321,3.18 -32.636,-15.46 -61.679,-10.43 -61.679,-10.43 l 4.539,5.45 c 0,0 25.394,-4.55 57.14,10.89 57.117,27.73 65.766,-9.09 65.766,-9.09"
         style="fill:#ffffff;fill-opacity:1;fill-rule:nonzero;stroke:none"
         id="path88" />
      <path
         d="m 820.492,1239.15 v -186.41 l 26.192,-33.96 v 192.24 l -9.407,9.46 v -179.99 l -5.5,7.94 v 178.67 l -11.285,12.05"
         style="fill:#ffffff;fill-opacity:1;fill-rule:nonzero;stroke:none"
         id="path90" />
      <path
         d="m 675.832,1065.65 v 168.19 c -1.992,1.71 -31.234,29.33 -66.687,14.5 -28.372,-11.85 -49.856,-6.59 -56.446,-5.01 V 1055.4 c 0,0 12.723,-8.55 57.762,12.9 34.918,16.64 62.137,0.76 65.371,-2.65 m -10.535,128.12 c -16.02,10.9 -35.207,15.78 -54.777,7.61 -14.672,-6.14 -27.598,-7.87 -37.747,-7.83 -1.613,0 -3.16,0.05 -4.621,0.13 v 8.23 c 1.461,-0.09 3.008,-0.16 4.649,-0.16 32.082,-0.09 48.687,21.57 83.683,6.2 3.067,-1.34 5.996,-2.88 8.813,-4.58 z m 0,-39.44 c -10.899,5.58 -31.449,13.47 -54.777,3.72 -17.016,-7.11 -31.68,-9.32 -42.368,-9.6 v 8.22 c 9.801,0.27 23.512,2.31 39.594,9.05 23.707,9.91 44.746,3.44 57.551,-2.39 z m 0,-40.96 c -10.41,4.34 -29.945,10.56 -53.285,-0.54 -20.168,-9.62 -34.274,-11.18 -43.86,-10.93 v 8.23 c 14.801,0.33 34.5,7.23 40.762,10.21 23.414,11.14 43.715,6.34 56.383,1.75 v -8.72"
         style="fill:#ffffff;fill-opacity:1;fill-rule:nonzero;stroke:none"
         id="path92" />
      <path
         d="m 1001.73,441.727 c 0,46.863 -290.636,44.781 -319.343,44.781 -28.735,0 -319.375,2.082 -319.375,-44.781 0,-46.848 290.699,-44.778 319.422,-44.778 28.722,0 319.296,-2.07 319.296,44.778 m -23.109,-0.551 c -21.562,-9.91 -80.351,-16.809 -145.262,-20.688 -64.976,-3.879 -129.394,-4.508 -150.972,-4.508 -14.242,0 -93.461,-0.554 -169.141,4.77 -37.016,2.578 -73.195,6.531 -100.101,12.758 -11.489,2.637 -20.125,5.472 -25.918,8.219 5.793,2.742 14.429,5.582 25.918,8.238 26.906,6.211 63.085,10.164 100.101,12.758 75.68,5.3 154.899,4.781 169.141,4.781 14.23,0 93.453,0.519 169.109,-4.781 37.02,-2.594 73.195,-6.547 100.106,-12.758 12.238,-2.824 21.238,-5.86 27.019,-8.789"
         style="fill:#ffffff;fill-opacity:1;fill-rule:nonzero;stroke:none"
         id="path94" />
      <path
         d="m 363.465,524.426 -0.567,2.105 c 6.75,4.199 17.008,8.282 30.59,11.992 28.938,7.922 67.844,13 107.684,16.297 81.058,6.75 165.949,6.09 181.211,6.09 15.269,0 100.148,0.66 181.187,-6.09 39.84,-3.297 78.746,-8.375 107.684,-16.297 13.523,-3.71 23.738,-7.746 30.486,-11.933 l -0.46,-2.164 c -3.897,-18.535 -8.112,-41.629 -9.788,-52.535 -9.062,4.293 -20.281,7.679 -32.418,10.488 -28.289,6.519 -66.301,10.797 -105.254,13.512 -76.703,5.379 -157.023,4.859 -171.453,4.859 -14.449,0 -94.742,0.52 -171.445,-4.859 -38.949,-2.715 -76.965,-6.993 -105.254,-13.512 -12.145,-2.809 -23.355,-6.195 -32.418,-10.488 -1.687,10.906 -5.902,34 -9.785,52.535"
         style="fill:#ffffff;fill-opacity:1;fill-rule:nonzero;stroke:none"
         id="path96" />
      <path
         d="m 1078.74,783.777 c -1.13,0.368 -2.47,-0.172 -4.03,-1.492 -17.75,-15.457 -49.14,-21.375 -55.96,-42.336 -6.67,-20.562 3.49,-41.527 7.31,-63.332 -4,14.063 -10.85,28.801 -28.857,33.996 -13.14,3.774 -25.687,-0.66 -32.293,-9.644 -4.082,-5.567 -4.527,-12.223 -1.226,-19.199 2.254,-4.743 8.921,-11.04 11.668,-13.387 1.429,-1.242 3.636,-0.66 3.836,0.242 2.238,10.027 16.113,14.219 26.632,9.387 7.23,-3.328 13.05,-9.153 15.75,-16.164 1.23,-3.11 2.59,-6.684 3.47,-10.008 l -10.8,3.367 c -5.4,1.719 -11.04,-1.227 -12.59,-6.547 -1.58,-5.305 1.54,-10.976 6.9,-12.68 l 3.15,-1 c -21.106,-22.125 -50.887,-35.894 -83.872,-35.894 -46.922,0 -87.359,27.894 -105.578,68.008 l -0.184,0.707 2.274,-0.137 c 5.746,-0.387 10.609,3.891 10.883,9.551 0.261,5.644 -4.184,10.519 -9.938,10.875 l -11.222,0.734 c 2.07,2.867 4.738,5.735 7.07,8.278 5.168,5.66 12.863,9.062 20.945,9.554 11.793,0.723 23.461,-8.386 21.887,-18.754 -0.145,-0.937 1.73,-2.3 3.555,-1.64 3.449,1.211 12.148,4.758 16.023,8.433 5.723,5.43 7.758,11.918 5.918,18.696 -2.957,11.011 -13.262,19.859 -27.156,21.097 -19.032,1.703 -30.992,-9.785 -39.992,-21.683 11.671,19.34 29.089,35.515 30.316,57.539 1.242,22.461 -26.418,39.668 -37.602,60.922 -0.996,1.839 -2.07,2.839 -3.093,2.894 -1.047,0.067 -2.231,-0.777 -3.469,-2.465 -13.797,-19.629 -43.457,-33.136 -45.113,-55.57 -1.625,-22.008 13.554,-40.289 22.648,-60.973 -7.395,12.961 -17.789,25.883 -36.883,26.653 -13.937,0.55 -25.265,-6.887 -29.637,-17.422 -2.683,-6.485 -1.503,-13.203 3.477,-19.309 3.375,-4.152 11.52,-8.769 14.801,-10.437 1.703,-0.875 3.758,0.242 3.738,1.195 -0.226,10.488 12.5,18.004 24.109,15.762 7.958,-1.52 15.149,-5.887 19.536,-12.156 1.976,-2.825 4.261,-6.012 5.953,-9.129 l -11.594,0.754 c -5.766,0.382 -10.645,-3.915 -10.891,-9.555 -0.277,-5.641 4.188,-10.504 9.922,-10.887 l 4.25,-0.277 c -19.535,-35.133 -57.195,-58.93 -100.582,-59.051 -43.047,0.137 -80.707,23.918 -100.242,59.051 l 4.246,0.277 c 5.738,0.383 10.199,5.246 9.922,10.887 -0.242,5.64 -5.121,9.937 -10.887,9.555 l -11.593,-0.754 c 1.691,3.117 3.976,6.304 5.937,9.129 4.402,6.269 11.594,10.636 19.551,12.156 11.605,2.242 24.351,-5.274 24.121,-15.762 -0.031,-0.953 2.023,-2.07 3.742,-1.195 3.266,1.668 11.426,6.285 14.801,10.437 4.98,6.106 6.144,12.824 3.461,19.309 -4.352,10.535 -15.699,17.972 -29.641,17.422 -19.105,-0.77 -29.484,-13.692 -36.863,-26.653 9.074,20.684 24.258,38.965 22.633,60.973 -1.645,22.434 -31.297,35.941 -45.114,55.57 -1.226,1.688 -2.421,2.532 -3.468,2.465 -1.024,-0.055 -2.098,-1.055 -3.094,-2.894 -11.168,-21.254 -38.844,-38.461 -37.602,-60.922 1.223,-22.024 18.645,-38.199 30.332,-57.539 -9,11.898 -20.976,23.386 -40.007,21.683 -13.895,-1.238 -24.2,-10.086 -27.157,-21.097 -1.828,-6.778 0.196,-13.266 5.934,-18.696 3.879,-3.675 12.559,-7.222 16.008,-8.433 1.808,-0.66 3.695,0.703 3.554,1.64 -1.562,10.368 10.094,19.477 21.887,18.754 8.094,-0.492 15.778,-3.894 20.945,-9.554 2.333,-2.543 5,-5.411 7.086,-8.278 l -11.242,-0.734 c -5.75,-0.356 -10.199,-5.231 -9.933,-10.875 0.273,-5.66 5.136,-9.938 10.902,-9.551 l 2.25,0.137 -0.164,-0.707 C 524.27,626.98 483.832,599.086 436.906,599.086 c -32.98,0 -62.761,13.769 -83.867,35.894 l 3.145,1 c 5.386,1.704 8.48,7.375 6.921,12.68 -1.57,5.32 -7.207,8.266 -12.609,6.547 l -10.797,-3.367 c 0.875,3.324 2.242,6.898 3.469,10.008 2.699,7.011 8.523,12.836 15.746,16.164 10.535,4.832 24.414,0.64 26.656,-9.387 0.196,-0.902 2.387,-1.484 3.832,-0.242 2.715,2.347 9.399,8.644 11.653,13.387 3.3,6.976 2.855,13.632 -1.227,19.199 -6.605,8.984 -19.152,13.418 -32.297,9.644 -17.988,-5.195 -24.855,-19.933 -28.855,-33.996 3.816,21.805 14,42.77 7.312,63.332 -6.824,20.961 -38.211,26.879 -55.941,42.336 -1.563,1.32 -2.914,1.86 -4.047,1.492 4.813,-13.359 10,-28.172 15.352,-43.964 -0.016,0.058 -0.051,0.136 -0.067,0.199 11.735,3.082 23.957,-3.559 27.633,-15.258 3.625,-11.484 -2.301,-23.707 -13.309,-28.109 -0.461,1.421 -0.906,2.71 -1.363,4.125 12.281,-37.942 24.688,-78.868 35.149,-117.969 l 2.312,-9.817 3.695,-15.316 c -9.382,-5.828 -14.75,-12.563 -14.75,-20.383 0,-6.379 3.59,-12.055 10.032,-17.082 -2.028,2.606 -3.102,5.172 -3.102,7.652 0,4.969 4.219,9.477 11.84,13.094 9.019,4.821 20.883,8.942 34.766,12.5 20.39,4.938 45.941,9.047 73.359,12.438 89.613,10.086 196.93,9.261 214.855,9.261 17.895,0 125.188,0.825 214.789,-9.261 27.418,-3.391 52.969,-7.5 73.379,-12.438 13.864,-3.558 25.727,-7.679 34.75,-12.5 7.6,-3.617 11.82,-8.125 11.82,-13.094 0,-2.48 -1.06,-5.046 -3.08,-7.652 6.44,5.027 10.03,10.703 10.03,17.082 0,7.82 -5.37,14.555 -14.76,20.383 l 3.69,15.316 2.32,9.817 c 10.45,39.008 22.82,79.847 35.06,117.711 -0.43,-1.34 -0.85,-2.516 -1.27,-3.867 -11.01,4.402 -16.93,16.625 -13.31,28.109 3.69,11.699 15.9,18.34 27.63,15.258 -0.08,-0.25 -0.16,-0.508 -0.23,-0.739 5.41,15.993 10.66,30.993 15.52,44.504 M 559.004,740.441 c -12.856,-0.843 -23.957,8.907 -24.781,21.774 -0.844,12.867 8.906,23.969 21.769,24.793 12.867,0.832 23.957,-8.918 24.801,-21.785 0.824,-12.852 -8.926,-23.957 -21.789,-24.782 m 246.73,0 c -12.867,0.825 -22.617,11.93 -21.793,24.782 0.848,12.867 11.938,22.617 24.801,21.785 12.867,-0.824 22.606,-11.926 21.774,-24.793 -0.813,-12.867 -11.914,-22.617 -24.782,-21.774"
         style="fill:#ffffff;fill-opacity:1;fill-rule:nonzero;stroke:none"
         id="path98" />
      <path
         d="m 1018.44,1068.39 7.68,-1.37 -1.2,-6.84 -7.7,1.37 -3.95,-22.53 -7.24,1.27 3.97,22.53 -7.7,1.36 1.2,6.84 7.71,-1.36 1.37,7.74 7.22,-1.27 -1.36,-7.74"
         style="fill:#ffffff;fill-opacity:1;fill-rule:nonzero;stroke:none"
         id="path100" />
      <path
         d="m 1202.24,1035.97 7.7,-1.35 -1.2,-6.84 -7.7,1.35 -3.97,-22.52 -7.23,1.27 3.97,22.52 -7.7,1.37 1.21,6.84 7.7,-1.37 1.36,7.75 7.23,-1.28 -1.37,-7.74"
         style="fill:#ffffff;fill-opacity:1;fill-rule:nonzero;stroke:none"
         id="path102" />
      <path
         d="m 682.371,1339.47 c 234.324,0 581.749,-67.8 669.189,-117.34 C 1304.08,461.668 931.402,103.199 682.355,13.5195 433.305,103.199 60.6445,461.668 13.1836,1222.13 c 87.4374,49.54 434.8554,117.34 669.1874,117.34 z"
         style="fill:none;stroke:#ffffff;stroke-width:25.4248;stroke-linecap:butt;stroke-linejoin:miter;stroke-miterlimit:10;stroke-dasharray:none;stroke-opacity:1"
         id="path104" />
    </g>
  </g>
</svg>
