<?xml version="1.0" encoding="UTF-8"?>
<svg width="404px" height="80px" viewBox="0 0 404 80" version="1.1" xmlns="http://www.w3.org/2000/svg" xmlns:xlink="http://www.w3.org/1999/xlink">
    <!-- Generator: Sketch 52.5 (67469) - http://www.bohemiancoding.com/sketch -->
    <title>logo/full-colour</title>
    <desc>Created with Sketch.</desc>
    <g id="logo/full-colour" stroke="none" stroke-width="1" fill="none" fill-rule="evenodd">
        <path d="M15.9723,64.6835 L31.1433,64.6835 C36.4453,64.6835 42.4073,62.3505 42.4073,55.4775 C42.4073,48.0635 34.2783,46.8445 28.7553,46.8445 L15.9723,46.8445 L15.9723,64.6835 Z M15.9723,32.2115 L28.2103,32.2115 C33.4223,32.2115 38.8323,29.9975 38.8323,23.6745 C38.8323,17.1485 32.7643,15.4775 27.4533,15.4775 L15.9723,15.4775 L15.9723,32.2115 Z M0.1973,0.8505 L27.6763,0.8505 C41.1013,0.8505 55.7303,3.7315 55.7303,20.8045 C55.7303,29.5505 50.4243,35.5455 42.5083,38.0945 L42.5083,38.3035 C52.5883,39.6405 59.3053,47.2815 59.3053,57.4765 C59.3053,73.8805 44.1423,79.3135 30.4873,79.3135 L0.1973,79.3135 L0.1973,0.8505 Z" id="Fill-17" fill="#00B3DC"></path>
        <path d="M170.8796,23.6743 L161.5636,48.0643 L180.3136,48.0643 L170.8796,23.6743 Z M164.3786,0.8503 L178.3576,0.8503 L211.7266,79.3133 L192.6516,79.3133 L186.0526,62.6893 L156.2586,62.6893 L149.8686,79.3133 L131.2296,79.3133 L164.3786,0.8503 Z" id="Fill-19" fill="#00B3DC"></path>
        <path d="M82.6926,64.6214 C84.7996,49.5134 92.9246,42.9364 103.3886,34.8414 C90.3526,40.0174 87.0356,43.1734 78.6236,52.5954 C78.6236,23.6214 88.6576,24.7504 119.5876,24.3974 C115.5176,50.3364 111.5826,66.0224 82.6926,64.6214 M91.3646,0.8504 L66.0036,0.8504 L66.0036,79.3134 L93.6376,79.3134 C116.4936,79.3134 135.5766,65.6724 135.5766,40.3004 C135.5766,11.6004 116.0676,0.8504 91.3646,0.8504" id="Fill-21" fill="#00B3DC"></path>
        <path d="M230.8615,17.0482 C230.8615,17.4482 230.8475,17.7812 230.8215,18.0472 C230.7965,18.3142 230.7005,18.5212 230.5315,18.6712 C230.4495,18.7552 230.3315,18.8342 230.1795,18.9092 C230.0285,18.9842 229.8515,19.0212 229.6505,19.0212 C229.3125,19.0212 229.0275,18.9042 228.7935,18.6712 C228.6075,18.5212 228.5035,18.3182 228.4775,18.0602 C228.4525,17.8012 228.4385,17.4642 228.4385,17.0482 L228.4385,2.7592 L224.3535,2.7592 C223.9835,2.7592 223.6885,2.7462 223.4695,2.7212 C223.2525,2.6962 223.0745,2.6172 222.9415,2.4842 C222.8565,2.4002 222.7795,2.3012 222.7135,2.1842 C222.6465,2.0672 222.6125,1.9432 222.6125,1.8092 C222.6125,1.6932 222.6415,1.5722 222.7025,1.4472 C222.7595,1.3222 222.8305,1.2182 222.9155,1.1352 C223.0495,0.9852 223.2305,0.8972 223.4585,0.8722 C223.6845,0.8482 223.9835,0.8352 224.3535,0.8352 L234.9715,0.8352 C235.3415,0.8352 235.6365,0.8482 235.8555,0.8722 C236.0735,0.8972 236.2505,0.9852 236.3845,1.1352 C236.4685,1.2182 236.5455,1.3182 236.6115,1.4342 C236.6785,1.5512 236.7125,1.6762 236.7125,1.8092 C236.7125,1.9262 236.6785,2.0472 236.6115,2.1712 C236.5455,2.2962 236.4685,2.4002 236.3845,2.4842 C236.2505,2.6172 236.0735,2.6962 235.8555,2.7212 C235.6365,2.7462 235.3415,2.7592 234.9715,2.7592 L230.8615,2.7592 L230.8615,17.0482 Z" id="Fill-23" fill="#00B3DC"></path>
        <path d="M249.4501,17.223 C249.4501,17.639 249.4411,17.939 249.4241,18.122 C249.4091,18.305 249.3391,18.472 249.2221,18.622 C249.1391,18.738 249.0131,18.834 248.8451,18.909 C248.6771,18.984 248.5001,19.021 248.3161,19.021 C248.1301,19.021 247.9451,18.971 247.7591,18.872 C247.5751,18.772 247.4401,18.622 247.3561,18.422 C247.3051,18.289 247.2761,18.139 247.2691,17.972 C247.2591,17.806 247.2561,17.556 247.2561,17.223 L247.2561,10.928 C247.2561,10.561 247.2351,10.137 247.1931,9.653 C247.1501,9.171 247.0371,8.779 246.8531,8.48 C246.6161,8.08 246.2841,7.776 245.8571,7.567 C245.4271,7.359 244.9851,7.255 244.5321,7.255 C243.9091,7.255 243.3081,7.414 242.7291,7.73 C242.1491,8.047 241.7131,8.48 241.4281,9.029 C241.3461,9.196 241.2661,9.366 241.1891,9.541 C241.1141,9.716 241.0511,9.941 241.0011,10.216 C240.9501,10.49 240.9091,10.844 240.8751,11.277 C240.8391,11.71 240.8241,12.26 240.8241,12.926 L240.8241,17.248 C240.8241,17.614 240.8121,17.91 240.7861,18.135 C240.7621,18.359 240.6721,18.547 240.5231,18.697 C240.4371,18.763 240.3271,18.834 240.1931,18.909 C240.0571,18.984 239.8901,19.021 239.6901,19.021 C239.4201,19.021 239.2131,18.967 239.0701,18.859 C238.9281,18.75 238.8221,18.61 238.7561,18.434 C238.6891,18.259 238.6501,18.064 238.6431,17.848 C238.6331,17.631 238.6291,17.423 238.6291,17.223 L238.6291,2.334 C238.6291,2.117 238.6331,1.905 238.6431,1.697 C238.6501,1.489 238.6891,1.297 238.7561,1.122 C238.8221,0.947 238.9281,0.806 239.0701,0.698 C239.2131,0.59 239.4201,0.535 239.6901,0.535 C239.9751,0.535 240.1931,0.59 240.3451,0.698 C240.4971,0.806 240.6101,0.944 240.6851,1.11 C240.7621,1.277 240.8031,1.468 240.8121,1.684 C240.8191,1.901 240.8241,2.117 240.8241,2.334 L240.8241,7.63 C241.0421,7.347 241.2811,7.076 241.5441,6.818 C241.8041,6.56 242.0981,6.331 242.4251,6.131 C242.7531,5.931 243.1241,5.773 243.5351,5.657 C243.9481,5.54 244.4141,5.482 244.9341,5.482 C245.7411,5.482 246.4361,5.619 247.0161,5.894 C247.5961,6.168 248.1041,6.556 248.5411,7.055 C248.7601,7.305 248.9321,7.592 249.0591,7.917 C249.1851,8.242 249.2771,8.558 249.3371,8.867 C249.3951,9.175 249.4291,9.466 249.4381,9.741 C249.4451,10.016 249.4501,10.236 249.4501,10.403 L249.4501,17.223 Z" id="Fill-25" fill="#00B3DC"></path>
        <path d="M261.8601,11.1772 C261.8261,10.8112 261.7801,10.4322 261.7201,10.0412 C261.6621,9.6492 261.4891,9.2122 261.2021,8.7292 C260.9171,8.2462 260.5211,7.8512 260.0171,7.5432 C259.5141,7.2342 258.8991,7.0802 258.1771,7.0802 C257.7401,7.0802 257.3491,7.1432 257.0041,7.2682 C256.6591,7.3922 256.3501,7.5472 256.0841,7.7292 C255.8151,7.9132 255.5871,8.1212 255.4021,8.3542 C255.2161,8.5872 255.0641,8.8122 254.9481,9.0292 C254.7291,9.4122 254.5811,9.7952 254.5061,10.1782 C254.4301,10.5612 254.3771,10.8942 254.3421,11.1772 L261.8601,11.1772 Z M254.2671,12.6762 C254.2821,13.5422 254.4091,14.2792 254.6461,14.8872 C254.8811,15.4952 255.1871,15.9862 255.5661,16.3612 C255.9431,16.7362 256.3741,17.0072 256.8521,17.1732 C257.3301,17.3402 257.8321,17.4222 258.3511,17.4222 C258.8901,17.4222 259.3501,17.3562 259.7271,17.2232 C260.1051,17.0892 260.4341,16.9142 260.7121,16.6982 C260.9881,16.4822 261.2321,16.2322 261.4431,15.9482 C261.6531,15.6662 261.8511,15.3822 262.0341,15.0992 C262.1201,14.9832 262.2271,14.8452 262.3641,14.6872 C262.4971,14.5292 262.7001,14.4502 262.9681,14.4502 C263.2041,14.4502 263.4001,14.5332 263.5621,14.6992 C263.7211,14.8662 263.8011,15.0582 263.8011,15.2742 C263.8011,15.4742 263.7551,15.6742 263.6631,15.8742 C263.5691,16.0732 263.4721,16.2572 263.3711,16.4232 C263.2211,16.6562 263.0241,16.9232 262.7801,17.2232 C262.5361,17.5222 262.2121,17.8062 261.8091,18.0722 C261.4041,18.3382 260.9121,18.5632 260.3321,18.7462 C259.7531,18.9302 259.0581,19.0212 258.2531,19.0212 C257.1761,19.0212 256.2471,18.8462 255.4651,18.4972 C254.6831,18.1472 254.0411,17.6692 253.5391,17.0602 C253.0391,16.4522 252.6681,15.7322 252.4311,14.8992 C252.1921,14.0672 252.0721,13.1752 252.0721,12.2272 C252.0721,11.2942 252.1991,10.4152 252.4501,9.5912 C252.7011,8.7662 253.0771,8.0502 253.5791,7.4432 C254.0821,6.8352 254.7171,6.3562 255.4881,6.0062 C256.2591,5.6562 257.1711,5.4812 258.2251,5.4812 C259.0821,5.4812 259.8181,5.5982 260.4361,5.8312 C261.0571,6.0652 261.5841,6.3642 262.0191,6.7312 C262.4541,7.0972 262.8061,7.5052 263.0741,7.9542 C263.3421,8.4042 263.5471,8.8462 263.6891,9.2792 C263.8321,9.7122 263.9281,10.1072 263.9791,10.4652 C264.0291,10.8232 264.0521,11.0942 264.0521,11.2772 C264.0521,11.6272 263.9941,11.8982 263.8771,12.0892 C263.7601,12.2812 263.6031,12.4182 263.4101,12.5012 C263.2171,12.5852 263.0061,12.6352 262.7801,12.6512 C262.5531,12.6682 262.3291,12.6762 262.1111,12.6762 L254.2671,12.6762 Z" id="Fill-28" fill="#00B3DC"></path>
        <path d="M283.6756,11.627 L280.2946,3.259 L277.0426,11.627 L283.6756,11.627 Z M276.3606,13.551 L274.7966,17.547 C274.6126,18.031 274.4406,18.397 274.2796,18.647 C274.1206,18.897 273.8306,19.021 273.4106,19.021 C273.0736,19.021 272.7956,18.909 272.5776,18.684 C272.3586,18.46 272.2506,18.222 272.2506,17.972 C272.2506,17.789 272.2786,17.606 272.3376,17.423 C272.3946,17.24 272.4846,17.007 272.6026,16.723 L278.3276,2.659 C278.4636,2.309 278.5876,2.001 278.7076,1.735 C278.8246,1.468 278.9536,1.247 279.0986,1.073 C279.2416,0.897 279.4086,0.764 279.6016,0.673 C279.7946,0.582 280.0356,0.536 280.3206,0.536 C280.5566,0.536 280.7816,0.582 281.0006,0.673 C281.2186,0.764 281.3966,0.885 281.5326,1.035 C281.6656,1.169 281.8026,1.397 281.9486,1.722 C282.0916,2.047 282.2196,2.35 282.3396,2.634 L288.2656,16.623 C288.4006,16.94 288.4976,17.19 288.5546,17.373 C288.6156,17.556 288.6446,17.739 288.6446,17.922 C288.6446,18.156 288.5336,18.397 288.3156,18.647 C288.0966,18.897 287.8026,19.021 287.4326,19.021 C287.0136,19.021 286.7236,18.893 286.5636,18.634 C286.4046,18.376 286.2216,17.997 286.0206,17.497 L284.4066,13.551 L276.3606,13.551 Z" id="Fill-30" fill="#00B3DC"></path>
        <path d="M300.4869,16.0613 C300.3759,16.5193 300.1349,16.9683 299.7559,17.4103 C299.3779,17.8513 298.8219,18.2303 298.0899,18.5473 C297.3589,18.8633 296.3779,19.0213 295.1519,19.0213 C294.1609,19.0213 293.3389,18.9043 292.6939,18.6713 C292.0449,18.4383 291.4849,18.0973 291.0169,17.6473 C290.7629,17.3983 290.5149,17.0813 290.2709,16.6983 C290.0269,16.3153 289.9049,15.8983 289.9049,15.4493 C289.9049,15.2163 289.9979,15.0083 290.1839,14.8243 C290.3679,14.6413 290.5949,14.5503 290.8649,14.5503 C291.1499,14.5503 291.3639,14.6333 291.5089,14.7993 C291.6509,14.9663 291.7729,15.1663 291.8739,15.3993 C292.1249,15.9823 292.5069,16.4733 293.0199,16.8733 C293.5319,17.2723 294.2939,17.4723 295.3039,17.4723 C296.3119,17.4723 297.0729,17.2603 297.5859,16.8353 C298.0989,16.4113 298.3559,15.9323 298.3559,15.3993 C298.3559,14.9993 298.2579,14.6713 298.0639,14.4123 C297.8709,14.1543 297.6319,13.9373 297.3469,13.7623 C297.0619,13.5883 296.7369,13.4503 296.3769,13.3503 C296.0149,13.2513 295.6719,13.1593 295.3539,13.0763 C294.6809,12.9093 294.1209,12.7603 293.6779,12.6263 C293.2319,12.4933 292.8559,12.3683 292.5549,12.2513 C292.2519,12.1353 292.0039,12.0183 291.8099,11.9023 C291.6169,11.7853 291.4279,11.6513 291.2419,11.5023 C290.9399,11.2523 290.6759,10.9313 290.4479,10.5403 C290.2209,10.1493 290.1069,9.6953 290.1069,9.1793 C290.1069,8.5963 290.2759,8.0213 290.6119,7.4553 C290.9469,6.8893 291.4189,6.4393 292.0239,6.1063 C292.3949,5.9063 292.8219,5.7523 293.3119,5.6443 C293.7969,5.5353 294.3619,5.4813 295.0009,5.4813 C296.0779,5.4813 296.9399,5.6233 297.5859,5.9063 C298.2329,6.1893 298.7329,6.5103 299.0879,6.8683 C299.4399,7.2263 299.6739,7.5763 299.7939,7.9173 C299.9109,8.2583 299.9689,8.4873 299.9689,8.6043 C299.9689,8.6543 299.9619,8.7293 299.9439,8.8293 C299.9279,8.9283 299.8859,9.0283 299.8169,9.1293 C299.7509,9.2293 299.6589,9.3163 299.5409,9.3913 C299.4239,9.4653 299.2539,9.5033 299.0369,9.5033 C298.7329,9.5033 298.5199,9.4283 298.3929,9.2793 C298.2669,9.1293 298.1199,8.8793 297.9509,8.5293 C297.7679,8.1293 297.4479,7.7793 296.9929,7.4803 C296.5389,7.1803 295.8929,7.0303 295.0519,7.0303 C294.2439,7.0303 293.5679,7.1893 293.0199,7.5043 C292.4749,7.8213 292.2019,8.2713 292.2019,8.8543 C292.2019,9.1043 292.2559,9.3333 292.3639,9.5413 C292.4749,9.7493 292.6679,9.9453 292.9459,10.1283 C293.2229,10.3113 293.6039,10.4823 294.0919,10.6403 C294.5789,10.7983 295.2019,10.9613 295.9599,11.1273 C296.4639,11.2273 296.9899,11.3603 297.5359,11.5273 C298.0829,11.6933 298.5859,11.9183 299.0489,12.2013 C299.5119,12.4853 299.8929,12.8473 300.1969,13.2883 C300.4999,13.7293 300.6499,14.2833 300.6499,14.9493 C300.6499,15.2323 300.5979,15.6033 300.4869,16.0613" id="Fill-32" fill="#00B3DC"></path>
        <path d="M313.0972,16.0613 C312.9862,16.5193 312.7452,16.9683 312.3662,17.4103 C311.9882,17.8513 311.4322,18.2303 310.7002,18.5473 C309.9692,18.8633 308.9892,19.0213 307.7632,19.0213 C306.7712,19.0213 305.9492,18.9043 305.3042,18.6713 C304.6552,18.4383 304.0952,18.0973 303.6272,17.6473 C303.3732,17.3983 303.1252,17.0813 302.8812,16.6983 C302.6372,16.3153 302.5152,15.8983 302.5152,15.4493 C302.5152,15.2163 302.6082,15.0083 302.7942,14.8243 C302.9782,14.6413 303.2052,14.5503 303.4752,14.5503 C303.7602,14.5503 303.9742,14.6333 304.1192,14.7993 C304.2612,14.9663 304.3832,15.1663 304.4842,15.3993 C304.7352,15.9823 305.1172,16.4733 305.6302,16.8733 C306.1442,17.2723 306.9042,17.4723 307.9142,17.4723 C308.9222,17.4723 309.6832,17.2603 310.1962,16.8353 C310.7092,16.4113 310.9662,15.9323 310.9662,15.3993 C310.9662,14.9993 310.8682,14.6713 310.6742,14.4123 C310.4812,14.1543 310.2422,13.9373 309.9572,13.7623 C309.6722,13.5883 309.3472,13.4503 308.9872,13.3503 C308.6252,13.2513 308.2822,13.1593 307.9642,13.0763 C307.2912,12.9093 306.7322,12.7603 306.2882,12.6263 C305.8422,12.4933 305.4662,12.3683 305.1652,12.2513 C304.8622,12.1353 304.6142,12.0183 304.4202,11.9023 C304.2272,11.7853 304.0382,11.6513 303.8522,11.5023 C303.5502,11.2523 303.2862,10.9313 303.0582,10.5403 C302.8312,10.1493 302.7172,9.6953 302.7172,9.1793 C302.7172,8.5963 302.8862,8.0213 303.2222,7.4553 C303.5572,6.8893 304.0292,6.4393 304.6342,6.1063 C305.0052,5.9063 305.4322,5.7523 305.9222,5.6443 C306.4072,5.5353 306.9712,5.4813 307.6112,5.4813 C308.6872,5.4813 309.5502,5.6233 310.1962,5.9063 C310.8432,6.1893 311.3452,6.5103 311.6982,6.8683 C312.0502,7.2263 312.2842,7.5763 312.4042,7.9173 C312.5222,8.2583 312.5792,8.4873 312.5792,8.6043 C312.5792,8.6543 312.5722,8.7293 312.5542,8.8293 C312.5382,8.9283 312.4962,9.0283 312.4272,9.1293 C312.3612,9.2293 312.2692,9.3163 312.1512,9.3913 C312.0332,9.4653 311.8642,9.5033 311.6472,9.5033 C311.3452,9.5033 311.1302,9.4283 311.0032,9.2793 C310.8772,9.1293 310.7302,8.8793 310.5612,8.5293 C310.3782,8.1293 310.0582,7.7793 309.6032,7.4803 C309.1492,7.1803 308.5032,7.0303 307.6622,7.0303 C306.8542,7.0303 306.1782,7.1893 305.6302,7.5043 C305.0852,7.8213 304.8112,8.2713 304.8112,8.8543 C304.8112,9.1043 304.8672,9.3333 304.9742,9.5413 C305.0852,9.7493 305.2782,9.9453 305.5562,10.1283 C305.8332,10.3113 306.2142,10.4823 306.7022,10.6403 C307.1892,10.7983 307.8122,10.9613 308.5702,11.1273 C309.0742,11.2273 309.6002,11.3603 310.1462,11.5273 C310.6932,11.6933 311.1972,11.9183 311.6592,12.2013 C312.1222,12.4853 312.5032,12.8473 312.8072,13.2883 C313.1112,13.7293 313.2602,14.2833 313.2602,14.9493 C313.2602,15.2323 313.2082,15.6033 313.0972,16.0613" id="Fill-34" fill="#00B3DC"></path>
        <path d="M324.1504,8.5043 C323.4394,7.6213 322.4914,7.1803 321.3074,7.1803 C320.0364,7.1803 319.0594,7.6423 318.3764,8.5673 C317.6904,9.4913 317.3474,10.7193 317.3474,12.2513 C317.3474,13.8173 317.6924,15.0533 318.3874,15.9613 C319.0824,16.8693 320.0554,17.3223 321.3074,17.3223 C322.5604,17.3223 323.5234,16.8643 324.2014,15.9483 C324.8794,15.0333 325.2174,13.8003 325.2174,12.2513 C325.2174,10.6363 324.8604,9.3873 324.1504,8.5043 M326.9074,15.3243 C326.5744,16.1733 326.1254,16.8733 325.5644,17.4223 C325.0034,17.9723 324.3544,18.3763 323.6184,18.6343 C322.8794,18.8923 322.1024,19.0213 321.2814,19.0213 C320.2604,19.0213 319.3654,18.8463 318.5954,18.4963 C317.8234,18.1473 317.1824,17.6763 316.6714,17.0853 C316.1604,16.4943 315.7814,15.8033 315.5304,15.0123 C315.2774,14.2213 315.1534,13.3843 315.1534,12.5013 C315.1534,10.2193 315.6914,8.4793 316.7734,7.2803 C317.8544,6.0813 319.3554,5.4813 321.2814,5.4813 C322.1024,5.4813 322.8844,5.6103 323.6294,5.8683 C324.3754,6.1273 325.0294,6.5303 325.5894,7.0803 C326.1514,7.6303 326.5954,8.3293 326.9214,9.1793 C327.2484,10.0283 327.4114,11.0523 327.4114,12.2513 C327.4114,13.4503 327.2444,14.4743 326.9074,15.3243" id="Fill-36" fill="#00B3DC"></path>
        <path d="M341.03,15.8739 C340.845,16.3239 340.531,16.7819 340.084,17.2479 C339.64,17.7139 339.058,18.1269 338.345,18.4839 C337.63,18.8429 336.742,19.0209 335.684,19.0209 C334.826,19.0209 334.089,18.9299 333.477,18.7459 C332.863,18.5639 332.346,18.3309 331.925,18.0469 C331.504,17.7639 331.164,17.4649 330.904,17.1479 C330.643,16.8309 330.436,16.5319 330.285,16.2479 C330.05,15.8489 329.837,15.3289 329.643,14.6869 C329.45,14.0459 329.354,13.2419 329.354,12.2759 C329.354,11.5269 329.446,10.7529 329.629,9.9539 C329.815,9.1539 330.142,8.4209 330.614,7.7549 C331.085,7.0889 331.72,6.5429 332.518,6.1179 C333.317,5.6939 334.338,5.4819 335.583,5.4819 C336.324,5.4819 336.964,5.5569 337.512,5.7069 C338.057,5.8559 338.53,6.0519 338.924,6.2939 C339.32,6.5349 339.652,6.8019 339.921,7.0929 C340.19,7.3849 340.418,7.6719 340.601,7.9549 C340.719,8.1209 340.825,8.3089 340.917,8.5169 C341.009,8.7249 341.055,8.9369 341.055,9.1539 C341.055,9.4369 340.956,9.6659 340.753,9.8409 C340.551,10.0159 340.323,10.1029 340.072,10.1029 C340.005,10.1029 339.935,10.0989 339.858,10.0899 C339.783,10.0819 339.703,10.0499 339.617,9.9909 C339.534,9.9329 339.442,9.8449 339.341,9.7289 C339.24,9.6119 339.129,9.4449 339.012,9.2289 C338.929,9.0959 338.808,8.9129 338.646,8.6789 C338.487,8.4459 338.276,8.2169 338.016,7.9919 C337.756,7.7679 337.427,7.5759 337.034,7.4179 C336.638,7.2589 336.162,7.1809 335.608,7.1809 C334.379,7.1809 333.397,7.6259 332.656,8.5169 C331.915,9.4079 331.548,10.6279 331.548,12.1769 C331.548,13.7919 331.905,15.0539 332.62,15.9609 C333.332,16.8699 334.312,17.3229 335.557,17.3229 C336.264,17.3229 336.914,17.1639 337.512,16.8479 C338.108,16.5319 338.576,16.0739 338.911,15.4739 C338.929,15.4239 338.971,15.3449 339.037,15.2369 C339.104,15.1289 339.173,15.0119 339.24,14.8869 C339.307,14.7619 339.371,14.6459 339.428,14.5379 C339.488,14.4289 339.534,14.3589 339.568,14.3249 C339.652,14.2249 339.749,14.1339 339.858,14.0499 C339.966,13.9669 340.114,13.9259 340.3,13.9259 C340.535,13.9259 340.76,14.0129 340.982,14.1879 C341.197,14.3629 341.308,14.6079 341.308,14.9249 C341.308,15.1079 341.216,15.4239 341.03,15.8739" id="Fill-38" fill="#00B3DC"></path>
        <path d="M346.3523,17.2477 C346.3523,17.5977 346.3433,17.8437 346.3273,17.9847 C346.3113,18.1267 346.2853,18.2387 346.2533,18.3217 C346.1713,18.5557 346.0333,18.7297 345.8423,18.8467 C345.6503,18.9627 345.4553,19.0217 345.2543,19.0217 C344.9883,19.0217 344.7813,18.9667 344.6313,18.8587 C344.4823,18.7507 344.3733,18.6097 344.3073,18.4337 C344.2403,18.2597 344.1993,18.0687 344.1833,17.8597 C344.1673,17.6517 344.1583,17.4477 344.1583,17.2477 L344.1583,7.2557 C344.1583,6.8727 344.1743,6.5727 344.2083,6.3557 C344.2403,6.1397 344.3233,5.9557 344.4573,5.8057 C344.6723,5.5897 344.9473,5.4817 345.2803,5.4817 C345.5633,5.4817 345.7653,5.5317 345.8903,5.6307 C346.0163,5.7317 346.1203,5.8477 346.2023,5.9817 C346.2853,6.1147 346.3323,6.3057 346.3403,6.5557 C346.3473,6.8057 346.3523,7.0387 346.3523,7.2557 L346.3523,17.2477 Z M346.1253,2.9707 C345.8903,3.2127 345.6043,3.3337 345.2683,3.3337 C344.9303,3.3337 344.6453,3.2127 344.4113,2.9707 C344.1743,2.7297 344.0573,2.4427 344.0573,2.1087 C344.0573,1.7757 344.1743,1.4927 344.4113,1.2597 C344.6453,1.0267 344.9303,0.9097 345.2683,0.9097 C345.6043,0.9097 345.8903,1.0267 346.1253,1.2597 C346.3613,1.4927 346.4793,1.7757 346.4793,2.1087 C346.4793,2.4427 346.3613,2.7297 346.1253,2.9707 Z" id="Fill-40" fill="#00B3DC"></path>
        <path d="M357.6764,12.1888 C357.4424,12.2638 357.1574,12.3438 356.8214,12.4258 C356.0294,12.6098 355.3234,12.7548 354.7004,12.8638 C354.0794,12.9718 353.5064,13.0928 352.9864,13.2258 C352.6154,13.3258 352.3214,13.4588 352.1034,13.6258 C351.8844,13.7918 351.7174,13.9718 351.5994,14.1628 C351.4824,14.3538 351.4014,14.5418 351.3604,14.7248 C351.3164,14.9078 351.2954,15.0578 351.2954,15.1748 C351.2954,15.4078 351.3414,15.6488 351.4364,15.8988 C351.5284,16.1488 351.6714,16.3778 351.8644,16.5858 C352.0574,16.7938 352.3124,16.9688 352.6324,17.1098 C352.9524,17.2518 353.3384,17.3228 353.7934,17.3228 C354.1454,17.3228 354.5114,17.2848 354.8914,17.2108 C355.2674,17.1358 355.6384,17.0228 356.0004,16.8728 C356.3604,16.7228 356.6944,16.5318 356.9954,16.2978 C357.2994,16.0658 357.5434,15.7828 357.7274,15.4488 C357.9804,15.0168 358.1344,14.5118 358.1944,13.9378 C358.2544,13.3628 358.2814,12.7098 358.2814,11.9768 C358.1134,12.0428 357.9144,12.1138 357.6764,12.1888 M357.8174,17.5098 C357.5234,17.7518 357.1614,17.9848 356.7314,18.2088 C356.3034,18.4338 355.8064,18.6258 355.2434,18.7838 C354.6794,18.9418 354.0444,19.0208 353.3384,19.0208 C352.6154,19.0208 351.9904,18.9128 351.4594,18.6968 C350.9304,18.4808 350.4884,18.1968 350.1364,17.8478 C349.7814,17.4978 349.5224,17.1018 349.3544,16.6608 C349.1864,16.2198 349.1014,15.7738 349.1014,15.3238 C349.1014,14.5918 349.2534,13.9918 349.5564,13.5248 C349.8584,13.0598 350.2284,12.6888 350.6654,12.4138 C351.1024,12.1398 351.5694,11.9388 352.0664,11.8148 C352.5614,11.6898 353.0034,11.5858 353.3894,11.5018 C353.5414,11.4688 353.7934,11.4188 354.1454,11.3518 C354.5004,11.2858 354.8684,11.2188 355.2574,11.1528 C355.6434,11.0858 356.0084,11.0188 356.3534,10.9528 C356.6964,10.8858 356.9384,10.8358 357.0724,10.8018 C357.2584,10.7528 357.4374,10.7028 357.6154,10.6528 C357.7914,10.6028 358.0214,10.5278 358.3074,10.4278 C358.2914,9.9948 358.2604,9.5788 358.2194,9.1788 C358.1784,8.7788 358.0624,8.4208 357.8794,8.1048 C357.6954,7.7878 357.4034,7.5388 357.0094,7.3548 C356.6144,7.1718 356.0544,7.0808 355.3324,7.0808 C354.9444,7.0808 354.5624,7.1098 354.1854,7.1678 C353.8054,7.2268 353.4534,7.3268 353.1244,7.4678 C352.7984,7.6098 352.5034,7.7968 352.2414,8.0298 C351.9804,8.2638 351.7834,8.5458 351.6494,8.8788 C351.5304,9.1618 351.4064,9.4078 351.2704,9.6158 C351.1374,9.8248 350.8994,9.9278 350.5644,9.9278 C350.2954,9.9278 350.0644,9.8408 349.8714,9.6658 C349.6784,9.4908 349.5814,9.2698 349.5814,9.0038 C349.5814,8.8208 349.6484,8.5338 349.7814,8.1418 C349.9174,7.7508 350.1874,7.3588 350.5894,6.9678 C350.9954,6.5768 351.5604,6.2308 352.2914,5.9318 C353.0234,5.6308 353.9874,5.4818 355.1804,5.4818 C356.4254,5.4818 357.4034,5.6188 358.1184,5.8938 C358.8344,6.1678 359.3674,6.5468 359.7194,7.0308 C360.0744,7.5138 360.2924,8.0798 360.3774,8.7288 C360.4604,9.3788 360.5014,10.0778 360.5014,10.8278 C360.5014,10.9948 360.4974,11.2728 360.4904,11.6648 C360.4804,12.0558 360.4734,12.4678 360.4654,12.9008 C360.4554,13.3348 360.4484,13.7378 360.4394,14.1128 C360.4304,14.4878 360.4254,14.7498 360.4254,14.8998 C360.4254,15.4988 360.4654,15.9568 360.5404,16.2738 C360.6164,16.5898 360.6954,16.8478 360.7794,17.0478 C360.7964,17.1148 360.8424,17.2688 360.9174,17.5098 C360.9944,17.7518 361.0334,17.9728 361.0334,18.1718 C361.0334,18.3888 360.9274,18.5838 360.7174,18.7588 C360.5064,18.9338 360.2584,19.0208 359.9734,19.0208 C359.7544,19.0208 359.5704,18.9548 359.4184,18.8218 C359.2664,18.6888 359.1334,18.5178 359.0134,18.3088 C358.8964,18.1008 358.7984,17.8718 358.7234,17.6228 C358.6484,17.3728 358.5764,17.1318 358.5094,16.8978 C358.3414,17.0648 358.1094,17.2688 357.8174,17.5098" id="Fill-42" fill="#00B3DC"></path>
        <path d="M364.6876,3.5828 C364.6876,3.1008 364.6966,2.7628 364.7136,2.5708 C364.7296,2.3798 364.7806,2.2008 364.8656,2.0338 C364.9326,1.9178 365.0446,1.8048 365.2056,1.6968 C365.3646,1.5888 365.5536,1.5348 365.7736,1.5348 C366.0406,1.5348 366.2526,1.5928 366.4046,1.7088 C366.5536,1.8258 366.6686,1.9758 366.7456,2.1588 C366.8206,2.3428 366.8616,2.5468 366.8716,2.7718 C366.8786,2.9958 366.8826,3.2248 366.8826,3.4578 L366.8826,5.7808 L368.0416,5.7808 C368.1776,5.7808 368.3246,5.7858 368.4836,5.7938 C368.6446,5.8028 368.7916,5.8318 368.9256,5.8818 C369.0606,5.9318 369.1736,6.0058 369.2656,6.1058 C369.3576,6.2058 369.4056,6.3558 369.4056,6.5558 C369.4056,6.8388 369.2746,7.0428 369.0146,7.1678 C368.7536,7.2928 368.4536,7.3548 368.1186,7.3548 L366.8826,7.3548 L366.8826,15.0488 C366.8826,15.3828 366.8926,15.6828 366.9076,15.9488 C366.9246,16.2158 366.9796,16.4448 367.0716,16.6358 C367.1636,16.8278 367.2986,16.9778 367.4766,17.0858 C367.6506,17.1938 367.8926,17.2478 368.1936,17.2478 C368.2446,17.2478 368.3336,17.2398 368.4586,17.2228 C368.5846,17.2068 368.7156,17.1898 368.8496,17.1728 C368.9856,17.1558 369.1116,17.1398 369.2286,17.1228 C369.3466,17.1058 369.4296,17.0978 369.4796,17.0978 C369.6976,17.0978 369.8806,17.1648 370.0226,17.2978 C370.1656,17.4308 370.2356,17.6228 370.2356,17.8718 C370.2356,18.0888 370.1746,18.2638 370.0476,18.3968 C369.9216,18.5298 369.7456,18.6378 369.5186,18.7218 C369.2916,18.8048 369.0266,18.8628 368.7226,18.8968 C368.4206,18.9298 368.1016,18.9468 367.7666,18.9468 C366.9916,18.9468 366.3996,18.8258 365.9876,18.5838 C365.5756,18.3428 365.2726,18.0428 365.0796,17.6848 C364.8856,17.3268 364.7736,16.9278 364.7386,16.4858 C364.7036,16.0448 364.6876,15.6238 364.6876,15.2238 L364.6876,7.3548 L363.8546,7.3548 C363.6056,7.3548 363.4136,7.3178 363.2896,7.2428 C363.1636,7.1678 363.0666,7.0808 362.9976,6.9808 C362.9306,6.8798 362.8936,6.7898 362.8846,6.7058 C362.8746,6.6228 362.8726,6.5728 362.8726,6.5558 C362.8726,6.3558 362.9236,6.2058 363.0226,6.1058 C363.1236,6.0058 363.2386,5.9318 363.3626,5.8818 C363.4896,5.8318 363.6206,5.8028 363.7546,5.7938 C363.8906,5.7858 363.9916,5.7808 364.0576,5.7808 L364.6876,5.7808 L364.6876,3.5828 Z" id="Fill-44" fill="#00B3DC"></path>
        <path d="M373.8941,17.2477 C373.8941,17.5977 373.8851,17.8437 373.8681,17.9847 C373.8531,18.1267 373.8271,18.2387 373.7951,18.3217 C373.7131,18.5557 373.5741,18.7297 373.3831,18.8467 C373.1921,18.9627 372.9971,19.0217 372.7961,19.0217 C372.5301,19.0217 372.3231,18.9667 372.1731,18.8587 C372.0241,18.7507 371.9151,18.6097 371.8491,18.4337 C371.7821,18.2597 371.7411,18.0687 371.7251,17.8597 C371.7081,17.6517 371.7001,17.4477 371.7001,17.2477 L371.7001,7.2557 C371.7001,6.8727 371.7151,6.5727 371.7511,6.3557 C371.7821,6.1397 371.8651,5.9557 371.9991,5.8057 C372.2151,5.5897 372.4891,5.4817 372.8221,5.4817 C373.1051,5.4817 373.3081,5.5317 373.4311,5.6307 C373.5581,5.7317 373.6621,5.8477 373.7441,5.9817 C373.8271,6.1147 373.8731,6.3057 373.8821,6.5557 C373.8891,6.8057 373.8941,7.0387 373.8941,7.2557 L373.8941,17.2477 Z M373.6671,2.9707 C373.4311,3.2127 373.1461,3.3337 372.8111,3.3337 C372.4721,3.3337 372.1871,3.2127 371.9521,2.9707 C371.7151,2.7297 371.5991,2.4427 371.5991,2.1087 C371.5991,1.7757 371.7151,1.4927 371.9521,1.2597 C372.1871,1.0267 372.4721,0.9097 372.8111,0.9097 C373.1461,0.9097 373.4311,1.0267 373.6671,1.2597 C373.9031,1.4927 374.0201,1.7757 374.0201,2.1087 C374.0201,2.4427 373.9031,2.7297 373.6671,2.9707 Z" id="Fill-46" fill="#00B3DC"></path>
        <path d="M385.6422,8.5043 C384.9312,7.6213 383.9832,7.1803 382.7982,7.1803 C381.5282,7.1803 380.5512,7.6423 379.8652,8.5673 C379.1802,9.4913 378.8372,10.7193 378.8372,12.2513 C378.8372,13.8173 379.1842,15.0533 379.8792,15.9613 C380.5722,16.8693 381.5452,17.3223 382.7982,17.3223 C384.0502,17.3223 385.0132,16.8643 385.6912,15.9483 C386.3692,15.0333 386.7072,13.8003 386.7072,12.2513 C386.7072,10.6363 386.3522,9.3873 385.6422,8.5043 M388.3992,15.3243 C388.0632,16.1733 387.6152,16.8733 387.0562,17.4223 C386.4952,17.9723 385.8462,18.3763 385.1072,18.6343 C384.3712,18.8923 383.5922,19.0213 382.7732,19.0213 C381.7522,19.0213 380.8542,18.8463 380.0842,18.4963 C379.3132,18.1473 378.6732,17.6763 378.1632,17.0853 C377.6522,16.4943 377.2712,15.8033 377.0202,15.0123 C376.7692,14.2213 376.6432,13.3843 376.6432,12.5013 C376.6432,10.2193 377.1832,8.4793 378.2642,7.2803 C379.3432,6.0813 380.8452,5.4813 382.7732,5.4813 C383.5922,5.4813 384.3762,5.6103 385.1212,5.8683 C385.8672,6.1273 386.5212,6.5303 387.0792,7.0803 C387.6412,7.6303 388.0852,8.3293 388.4112,9.1793 C388.7372,10.0283 388.9012,11.0523 388.9012,12.2513 C388.9012,13.4503 388.7342,14.4743 388.3992,15.3243" id="Fill-48" fill="#00B3DC"></path>
        <path d="M402.4712,17.2477 C402.4712,17.6137 402.4592,17.9187 402.4332,18.1597 C402.4092,18.4017 402.3192,18.5887 402.1672,18.7217 C401.9332,18.9217 401.6722,19.0217 401.3882,19.0217 C401.0672,19.0217 400.7992,18.9217 400.5802,18.7217 C400.4282,18.5887 400.3402,18.4017 400.3152,18.1597 C400.2902,17.9187 400.2762,17.6137 400.2762,17.2477 L400.2762,11.0767 C400.2762,10.4447 400.2412,9.9367 400.1742,9.5527 C400.1082,9.1707 400.0072,8.8627 399.8732,8.6287 C399.6362,8.2137 399.3102,7.9007 398.8892,7.6927 C398.4682,7.4837 398.0312,7.3797 397.5772,7.3797 C396.9382,7.3797 396.3342,7.5427 395.7602,7.8667 C395.1902,8.1917 394.7532,8.6287 394.4492,9.1787 C394.3482,9.3457 394.2612,9.5157 394.1842,9.6907 C394.1092,9.8657 394.0472,10.0947 393.9962,10.3777 C393.9452,10.6617 393.9062,11.0187 393.8842,11.4517 C393.8582,11.8847 393.8442,12.4427 393.8442,13.1257 L393.8442,17.2477 C393.8442,17.6137 393.8292,17.9187 393.7932,18.1597 C393.7592,18.4017 393.6672,18.5887 393.5182,18.7217 C393.2812,18.9217 393.0212,19.0217 392.7362,19.0217 C392.4482,19.0217 392.1882,18.9217 391.9542,18.7217 C391.8022,18.5887 391.7152,18.4017 391.6892,18.1597 C391.6642,17.9187 391.6502,17.6137 391.6502,17.2477 L391.6502,7.2047 C391.6502,6.8557 391.6642,6.5647 391.6892,6.3307 C391.7152,6.0977 391.7922,5.9147 391.9282,5.7817 C392.0112,5.7147 392.1172,5.6487 392.2432,5.5817 C392.3692,5.5147 392.5242,5.4817 392.7102,5.4817 C392.9102,5.4817 393.0932,5.5317 393.2502,5.6307 C393.4122,5.7317 393.5182,5.8397 393.5662,5.9557 C393.6172,6.0397 393.6602,6.1267 393.6922,6.2187 C393.7272,6.3107 393.7472,6.4227 393.7572,6.5557 C393.7642,6.6897 393.7732,6.8477 393.7832,7.0307 C393.7892,7.2137 393.7932,7.4387 393.7932,7.7047 C393.9622,7.4887 394.1642,7.2507 394.3992,6.9927 C394.6352,6.7347 394.9172,6.4937 395.2452,6.2687 C395.5722,6.0437 395.9532,5.8557 396.3932,5.7067 C396.8312,5.5567 397.3412,5.4817 397.9302,5.4817 C398.7382,5.4817 399.4382,5.6187 400.0372,5.8937 C400.6332,6.1687 401.1592,6.5647 401.6122,7.0807 C401.8312,7.3297 401.9992,7.6047 402.1192,7.9047 C402.2352,8.2047 402.3192,8.5087 402.3702,8.8167 C402.4202,9.1247 402.4502,9.4247 402.4592,9.7157 C402.4662,10.0077 402.4712,10.2527 402.4712,10.4527 L402.4712,17.2477 Z" id="Fill-50" fill="#00B3DC"></path>
        <path d="M237.2097,36.2 C236.4997,35.317 235.5517,34.876 234.3667,34.876 C233.0967,34.876 232.1197,35.338 231.4367,36.263 C230.7507,37.187 230.4077,38.415 230.4077,39.947 C230.4077,41.513 230.7537,42.75 231.4477,43.656 C232.1417,44.565 233.1157,45.018 234.3667,45.018 C235.6207,45.018 236.5847,44.561 237.2607,43.645 C237.9387,42.729 238.2767,41.497 238.2767,39.947 C238.2767,38.332 237.9207,37.083 237.2097,36.2 M239.9677,43.019 C239.6347,43.869 239.1857,44.569 238.6237,45.118 C238.0637,45.668 237.4147,46.072 236.6787,46.329 C235.9397,46.588 235.1627,46.717 234.3417,46.717 C233.3197,46.717 232.4257,46.542 231.6547,46.193 C230.8837,45.843 230.2417,45.372 229.7317,44.781 C229.2207,44.19 228.8417,43.499 228.5907,42.708 C228.3377,41.917 228.2137,41.08 228.2137,40.197 C228.2137,37.916 228.7527,36.175 229.8337,34.976 C230.9147,33.777 232.4167,33.177 234.3417,33.177 C235.1627,33.177 235.9447,33.306 236.6907,33.564 C237.4357,33.823 238.0887,34.226 238.6497,34.776 C239.2107,35.326 239.6547,36.025 239.9817,36.875 C240.3087,37.724 240.4717,38.748 240.4717,39.947 C240.4717,41.147 240.3037,42.171 239.9677,43.019" id="Fill-52" fill="#00B3DC"></path>
        <path d="M243.8004,32.2527 C243.8004,31.6037 243.8414,31.0537 243.9264,30.6037 C244.0104,30.1547 244.1524,29.7887 244.3554,29.5047 C244.5384,29.2387 244.7594,29.0177 245.0104,28.8427 C245.2634,28.6687 245.5284,28.5397 245.8064,28.4557 C246.0814,28.3727 246.3564,28.3147 246.6244,28.2807 C246.8944,28.2477 247.1454,28.2307 247.3824,28.2307 C247.7684,28.2307 248.1294,28.2597 248.4654,28.3167 C248.8014,28.3727 249.0544,28.4327 249.2214,28.4977 C249.3074,28.5297 249.4244,28.5987 249.5764,28.7037 C249.7284,28.8097 249.8024,28.9917 249.8024,29.2507 C249.8024,29.4767 249.7304,29.6677 249.5884,29.8227 C249.4454,29.9767 249.2724,30.0547 249.0704,30.0547 C249.0224,30.0547 248.9414,30.0457 248.8304,30.0297 C248.7234,30.0137 248.6054,30.0007 248.4794,29.9917 C248.3524,29.9837 248.2354,29.9717 248.1254,29.9547 C248.0164,29.9377 247.9364,29.9297 247.8864,29.9297 C247.4494,29.9297 247.1084,29.9887 246.8634,30.1067 C246.6204,30.2257 246.4314,30.3897 246.2964,30.6017 C246.1634,30.8127 246.0784,31.0747 246.0454,31.3867 C246.0114,31.6987 245.9944,32.0497 245.9944,32.4387 L245.9944,33.4767 L247.3564,33.4767 C247.4904,33.4767 247.6324,33.4817 247.7844,33.4897 C247.9364,33.4987 248.0794,33.5267 248.2144,33.5767 C248.3474,33.6267 248.4604,33.7017 248.5554,33.8017 C248.6464,33.9017 248.6924,34.0517 248.6924,34.2517 C248.6924,34.4517 248.6464,34.6097 248.5554,34.7257 C248.4604,34.8427 248.3434,34.9267 248.2004,34.9757 C248.0584,35.0257 247.9104,35.0547 247.7584,35.0627 C247.6094,35.0717 247.4734,35.0757 247.3564,35.0757 L245.9944,35.0757 L245.9944,44.9437 C245.9944,45.3107 245.9774,45.6137 245.9434,45.8557 C245.9094,46.0967 245.8184,46.2847 245.6664,46.4167 C245.5834,46.5007 245.4774,46.5707 245.3504,46.6297 C245.2244,46.6887 245.0704,46.7167 244.8844,46.7167 C244.5634,46.7167 244.3044,46.6167 244.1024,46.4167 C243.9524,46.2677 243.8624,46.0767 243.8364,45.8427 C243.8124,45.6097 243.8004,45.3107 243.8004,44.9437 L243.8004,35.0757 L242.6134,35.0757 C242.5464,35.0757 242.4464,35.0717 242.3114,35.0627 C242.1764,35.0547 242.0434,35.0257 241.9064,34.9757 C241.7734,34.9267 241.6574,34.8427 241.5554,34.7257 C241.4544,34.6097 241.4034,34.4517 241.4034,34.2517 C241.4034,34.0517 241.4544,33.9017 241.5554,33.8017 C241.6574,33.7017 241.7784,33.6267 241.9204,33.5767 C242.0634,33.5267 242.2014,33.4987 242.3374,33.4897 C242.4704,33.4817 242.5814,33.4767 242.6634,33.4767 L243.8004,33.4767 L243.8004,32.2527 Z" id="Fill-54" fill="#00B3DC"></path>
        <path d="M261.7588,39.7224 C261.7588,40.1054 261.7808,40.5844 261.8318,41.1584 C261.8828,41.7334 262.0558,42.2924 262.3498,42.8334 C262.6448,43.3734 263.1158,43.8354 263.7618,44.2194 C264.4108,44.6024 265.3308,44.7924 266.5248,44.7924 C267.5828,44.7924 268.4248,44.6274 269.0458,44.2934 C269.6698,43.9614 270.1388,43.5414 270.4588,43.0334 C270.7778,42.5244 270.9858,41.9754 271.0768,41.3834 C271.1688,40.7924 271.2148,40.2464 271.2148,39.7474 L271.2148,30.2294 C271.2148,29.7964 271.2288,29.4594 271.2538,29.2184 C271.2798,28.9764 271.3768,28.7724 271.5448,28.6054 C271.6268,28.5224 271.7458,28.4394 271.8958,28.3564 C272.0478,28.2724 272.2258,28.2314 272.4278,28.2314 C272.7788,28.2314 273.0738,28.3564 273.3088,28.6054 C273.4758,28.7724 273.5748,28.9764 273.6008,29.2184 C273.6238,29.4594 273.6378,29.7964 273.6378,30.2294 L273.6378,39.5224 C273.6378,40.4394 273.5368,41.3264 273.3338,42.1834 C273.1338,43.0414 272.7748,43.8074 272.2618,44.4814 C271.7488,45.1564 271.0428,45.6964 270.1428,46.1054 C269.2438,46.5134 268.0958,46.7174 266.7018,46.7174 C265.4898,46.7174 264.4278,46.5914 263.5118,46.3434 C262.5938,46.0924 261.8308,45.6854 261.2158,45.1184 C260.6018,44.5524 260.1348,43.8104 259.8158,42.8954 C259.4948,41.9794 259.3358,40.8634 259.3358,39.5474 L259.3358,30.2294 C259.3358,29.7964 259.3478,29.4594 259.3738,29.2184 C259.3988,28.9764 259.4948,28.7724 259.6638,28.6054 C259.7488,28.5224 259.8658,28.4394 260.0168,28.3564 C260.1688,28.2724 260.3448,28.2314 260.5468,28.2314 C260.8998,28.2314 261.1948,28.3564 261.4298,28.6054 C261.5978,28.7724 261.6938,28.9764 261.7198,29.2184 C261.7448,29.4594 261.7588,29.7964 261.7588,30.2294 L261.7588,39.7224 Z" id="Fill-56" fill="#00B3DC"></path>
        <path d="M288.3408,28.9805 C288.6608,28.6645 288.8928,28.4605 289.0358,28.3685 C289.1778,28.2775 289.3668,28.2315 289.6048,28.2315 C289.9398,28.2315 290.2088,28.3435 290.4088,28.5685 C290.6118,28.7935 290.7128,29.0215 290.7128,29.2555 C290.7128,29.3885 290.6788,29.5385 290.6118,29.7055 C290.5448,29.8715 290.3418,30.1215 290.0058,30.4545 L284.2058,35.7505 L290.6618,44.1185 C290.7638,44.2525 290.9158,44.4645 291.1158,44.7555 C291.3178,45.0485 291.4198,45.3355 291.4198,45.6185 C291.4198,45.9525 291.2968,46.2165 291.0528,46.4165 C290.8098,46.6165 290.5198,46.7165 290.1838,46.7165 C290.0158,46.7165 289.8708,46.6965 289.7528,46.6545 C289.6368,46.6125 289.5188,46.5425 289.4018,46.4415 C289.2838,46.3435 289.1628,46.2145 289.0358,46.0555 C288.9098,45.8965 288.7528,45.6925 288.5688,45.4435 L282.5648,37.2745 L279.4138,40.1715 L279.4138,45.2685 C279.4138,45.5675 279.3748,45.8095 279.2988,45.9935 C279.2248,46.1765 279.1258,46.3225 279.0078,46.4305 C278.8918,46.5385 278.7608,46.6125 278.6168,46.6545 C278.4748,46.6965 278.3468,46.7165 278.2258,46.7165 C277.8588,46.7165 277.5458,46.5915 277.2948,46.3435 C277.1428,46.1925 277.0558,45.9885 277.0308,45.7305 C277.0048,45.4725 276.9918,45.1435 276.9918,44.7445 L276.9918,30.2045 C276.9918,29.8045 277.0048,29.4715 277.0308,29.2055 C277.0558,28.9395 277.1588,28.7305 277.3448,28.5805 C277.4288,28.4975 277.5428,28.4185 277.6858,28.3435 C277.8278,28.2685 278.0008,28.2315 278.2038,28.2315 C278.5398,28.2315 278.8248,28.3475 279.0588,28.5805 C279.2458,28.7305 279.3498,28.9395 279.3748,29.2055 C279.3988,29.4715 279.4138,29.8045 279.4138,30.2045 L279.4138,37.4495 L288.3408,28.9805 Z" id="Fill-58" fill="#00B3DC"></path>
        <path d="M303.5762,44.4937 L307.2842,44.4937 C307.8552,44.4937 308.3722,44.4687 308.8352,44.4187 C309.2962,44.3697 309.7182,44.2777 310.0952,44.1437 C310.4742,44.0107 310.8262,43.8307 311.1552,43.6067 C311.4822,43.3827 311.7972,43.0857 312.1012,42.7207 C312.4722,42.2877 312.7522,41.7997 312.9452,41.2597 C313.1382,40.7177 313.2812,40.1937 313.3752,39.6847 C313.4672,39.1767 313.5222,38.7277 313.5392,38.3357 C313.5542,37.9447 313.5632,37.6907 313.5632,37.5737 C313.5632,36.3747 313.4162,35.3167 313.1222,34.4007 C312.8272,33.4857 312.4872,32.7777 312.1012,32.2777 C311.8322,31.9287 311.5482,31.6367 311.2562,31.4037 C310.9622,31.1707 310.6212,30.9827 310.2352,30.8417 C309.8462,30.6997 309.4052,30.6007 308.9102,30.5417 C308.4132,30.4837 307.8292,30.4547 307.1582,30.4547 L303.5762,30.4547 L303.5762,44.4937 Z M303.1902,46.4167 C302.7052,46.4167 302.3222,46.3927 302.0462,46.3427 C301.7712,46.2927 301.5662,46.1847 301.4302,46.0177 C301.2962,45.8507 301.2182,45.6187 301.1922,45.3187 C301.1682,45.0177 301.1532,44.6177 301.1532,44.1187 L301.1532,30.5287 C301.1532,30.0797 301.1752,29.7217 301.2182,29.4547 C301.2592,29.1887 301.3512,28.9887 301.4942,28.8557 C301.6362,28.7227 301.8412,28.6347 302.1092,28.5927 C302.3772,28.5517 302.7392,28.5307 303.1902,28.5307 L307.5652,28.5307 C308.0502,28.5307 308.5652,28.5477 309.1102,28.5807 C309.6562,28.6137 310.2082,28.7057 310.7692,28.8557 C311.3302,29.0057 311.8862,29.2427 312.4412,29.5677 C312.9932,29.8917 313.5132,30.3467 313.9982,30.9287 C314.7532,31.8287 315.2722,32.8447 315.5592,33.9767 C315.8442,35.1097 315.9862,36.2667 315.9862,37.4487 C315.9862,38.0317 315.9422,38.6737 315.8602,39.3727 C315.7742,40.0717 315.6202,40.7677 315.3952,41.4587 C315.1682,42.1497 314.8492,42.8167 314.4372,43.4567 C314.0292,44.0977 313.4882,44.6527 312.8182,45.1187 C312.3812,45.4187 311.9332,45.6557 311.4732,45.8297 C311.0122,46.0047 310.5512,46.1387 310.0902,46.2307 C309.6302,46.3227 309.1862,46.3757 308.7582,46.3927 C308.3312,46.4097 307.9422,46.4167 307.5902,46.4167 L303.1902,46.4167 Z" id="Fill-60" fill="#00B3DC"></path>
        <path d="M321.2579,44.9435 C321.2579,45.2935 321.2499,45.5395 321.2329,45.6805 C321.2139,45.8225 321.1919,45.9335 321.1579,46.0175 C321.0739,46.2515 320.9359,46.4265 320.7459,46.5425 C320.5549,46.6585 320.3589,46.7165 320.1619,46.7165 C319.8939,46.7165 319.6879,46.6625 319.5379,46.5545 C319.3869,46.4465 319.2779,46.3055 319.2129,46.1295 C319.1469,45.9545 319.1049,45.7635 319.0869,45.5555 C319.0709,45.3475 319.0639,45.1435 319.0639,44.9435 L319.0639,34.9505 C319.0639,34.5675 319.0799,34.2685 319.1119,34.0515 C319.1469,33.8355 319.2299,33.6515 319.3629,33.5015 C319.5769,33.2855 319.8529,33.1775 320.1839,33.1775 C320.4679,33.1775 320.6709,33.2275 320.7959,33.3265 C320.9199,33.4265 321.0239,33.5435 321.1069,33.6775 C321.1919,33.8105 321.2359,34.0015 321.2449,34.2515 C321.2539,34.5015 321.2579,34.7345 321.2579,34.9505 L321.2579,44.9435 Z M321.0309,30.6665 C320.7939,30.9085 320.5089,31.0285 320.1729,31.0285 C319.8359,31.0285 319.5509,30.9085 319.3149,30.6665 C319.0799,30.4255 318.9629,30.1385 318.9629,29.8045 C318.9629,29.4715 319.0799,29.1885 319.3149,28.9555 C319.5509,28.7225 319.8359,28.6055 320.1729,28.6055 C320.5089,28.6055 320.7939,28.7225 321.0309,28.9555 C321.2649,29.1885 321.3829,29.4715 321.3829,29.8045 C321.3829,30.1385 321.2649,30.4255 321.0309,30.6665 Z" id="Fill-62" fill="#00B3DC"></path>
        <path d="M333.8434,38.873 C333.8094,38.507 333.7634,38.128 333.7034,37.737 C333.6454,37.345 333.4734,36.908 333.1854,36.425 C332.9004,35.942 332.5044,35.547 332.0014,35.238 C331.4974,34.93 330.8824,34.776 330.1604,34.776 C329.7234,34.776 329.3324,34.839 328.9874,34.964 C328.6424,35.088 328.3334,35.243 328.0674,35.425 C327.7984,35.609 327.5704,35.817 327.3874,36.05 C327.1994,36.283 327.0484,36.508 326.9314,36.725 C326.7124,37.108 326.5644,37.491 326.4894,37.873 C326.4134,38.257 326.3614,38.59 326.3254,38.873 L333.8434,38.873 Z M326.2504,40.372 C326.2654,41.239 326.3924,41.975 326.6294,42.582 C326.8644,43.191 327.1704,43.682 327.5494,44.057 C327.9274,44.432 328.3574,44.703 328.8354,44.869 C329.3134,45.035 329.8154,45.118 330.3364,45.118 C330.8744,45.118 331.3334,45.053 331.7104,44.919 C332.0884,44.786 332.4174,44.611 332.6954,44.394 C332.9714,44.177 333.2154,43.928 333.4274,43.645 C333.6364,43.362 333.8344,43.079 334.0174,42.795 C334.1034,42.679 334.2124,42.541 334.3474,42.382 C334.4804,42.226 334.6834,42.145 334.9514,42.145 C335.1874,42.145 335.3854,42.229 335.5454,42.396 C335.7044,42.561 335.7844,42.754 335.7844,42.97 C335.7844,43.17 335.7384,43.369 335.6464,43.569 C335.5524,43.769 335.4554,43.953 335.3544,44.119 C335.2044,44.352 335.0074,44.618 334.7634,44.919 C334.5194,45.218 334.1954,45.501 333.7924,45.768 C333.3874,46.035 332.8954,46.259 332.3154,46.442 C331.7364,46.626 331.0414,46.717 330.2374,46.717 C329.1594,46.717 328.2304,46.542 327.4484,46.193 C326.6664,45.843 326.0244,45.364 325.5234,44.756 C325.0224,44.149 324.6514,43.429 324.4144,42.596 C324.1754,41.763 324.0554,40.871 324.0554,39.922 C324.0554,38.99 324.1824,38.111 324.4334,37.287 C324.6844,36.462 325.0604,35.746 325.5624,35.138 C326.0664,34.531 326.7014,34.051 327.4714,33.702 C328.2424,33.352 329.1564,33.177 330.2084,33.177 C331.0654,33.177 331.8014,33.294 332.4194,33.527 C333.0404,33.761 333.5674,34.06 334.0024,34.426 C334.4374,34.793 334.7894,35.201 335.0574,35.65 C335.3254,36.1 335.5304,36.542 335.6724,36.975 C335.8154,37.408 335.9114,37.803 335.9624,38.161 C336.0124,38.519 336.0354,38.79 336.0354,38.973 C336.0354,39.323 335.9784,39.594 335.8604,39.785 C335.7434,39.977 335.5874,40.114 335.3934,40.197 C335.2004,40.281 334.9894,40.331 334.7634,40.347 C334.5364,40.364 334.3124,40.372 334.0944,40.372 L326.2504,40.372 Z" id="Fill-64" fill="#00B3DC"></path>
        <path d="M339.1645,31.2784 C339.1645,30.7964 339.1725,30.4584 339.1895,30.2664 C339.2055,30.0754 339.2565,29.8964 339.3415,29.7294 C339.4085,29.6134 339.5205,29.5014 339.6815,29.3924 C339.8405,29.2844 340.0285,29.2304 340.2495,29.2304 C340.5165,29.2304 340.7285,29.2884 340.8805,29.4044 C341.0305,29.5214 341.1445,29.6714 341.2205,29.8544 C341.2965,30.0384 341.3375,30.2424 341.3465,30.4674 C341.3535,30.6914 341.3585,30.9204 341.3585,31.1534 L341.3585,33.4764 L342.5175,33.4764 C342.6545,33.4764 342.8015,33.4814 342.9595,33.4894 C343.1205,33.4984 343.2675,33.5274 343.4005,33.5774 C343.5375,33.6274 343.6495,33.7014 343.7415,33.8014 C343.8335,33.9024 343.8815,34.0514 343.8815,34.2514 C343.8815,34.5344 343.7505,34.7384 343.4905,34.8634 C343.2285,34.9884 342.9295,35.0514 342.5945,35.0514 L341.3585,35.0514 L341.3585,42.7454 C341.3585,43.0794 341.3685,43.3784 341.3835,43.6444 C341.3995,43.9114 341.4555,44.1394 341.5475,44.3314 C341.6385,44.5234 341.7745,44.6734 341.9525,44.7814 C342.1265,44.8894 342.3675,44.9434 342.6695,44.9434 C342.7205,44.9434 342.8095,44.9354 342.9345,44.9194 C343.0605,44.9024 343.1925,44.8844 343.3255,44.8684 C343.4605,44.8524 343.5865,44.8354 343.7045,44.8184 C343.8225,44.8014 343.9045,44.7924 343.9555,44.7924 C344.1745,44.7924 344.3565,44.8594 344.4985,44.9924 C344.6415,45.1264 344.7125,45.3184 344.7125,45.5674 C344.7125,45.7844 344.6505,45.9594 344.5235,46.0924 C344.3975,46.2254 344.2225,46.3344 343.9945,46.4164 C343.7675,46.5004 343.5025,46.5594 343.1985,46.5914 C342.8975,46.6264 342.5775,46.6424 342.2415,46.6424 C341.4675,46.6424 340.8755,46.5214 340.4635,46.2794 C340.0525,46.0394 339.7485,45.7384 339.5555,45.3804 C339.3625,45.0224 339.2495,44.6224 339.2155,44.1804 C339.1795,43.7404 339.1645,43.3194 339.1645,42.9204 L339.1645,35.0514 L338.3315,35.0514 C338.0805,35.0514 337.8905,35.0134 337.7655,34.9384 C337.6395,34.8634 337.5425,34.7764 337.4735,34.6764 C337.4065,34.5754 337.3695,34.4854 337.3605,34.4014 C337.3515,34.3184 337.3495,34.2684 337.3495,34.2514 C337.3495,34.0514 337.4005,33.9024 337.4995,33.8014 C337.5995,33.7014 337.7145,33.6274 337.8395,33.5774 C337.9655,33.5274 338.0965,33.4984 338.2305,33.4894 C338.3655,33.4814 338.4675,33.4764 338.5335,33.4764 L339.1645,33.4764 L339.1645,31.2784 Z" id="Fill-66" fill="#00B3DC"></path>
        <path d="M348.3698,44.9435 C348.3698,45.2935 348.3608,45.5395 348.3448,45.6805 C348.3288,45.8225 348.3028,45.9335 348.2708,46.0175 C348.1888,46.2515 348.0508,46.4265 347.8588,46.5425 C347.6678,46.6585 347.4728,46.7165 347.2718,46.7165 C347.0058,46.7165 346.7988,46.6625 346.6488,46.5545 C346.4998,46.4465 346.3908,46.3055 346.3248,46.1295 C346.2578,45.9545 346.2168,45.7635 346.2008,45.5555 C346.1848,45.3475 346.1758,45.1435 346.1758,44.9435 L346.1758,34.9505 C346.1758,34.5675 346.1908,34.2685 346.2258,34.0515 C346.2578,33.8355 346.3408,33.6515 346.4748,33.5015 C346.6908,33.2855 346.9648,33.1775 347.2978,33.1775 C347.5808,33.1775 347.7838,33.2275 347.9068,33.3265 C348.0338,33.4265 348.1378,33.5435 348.2198,33.6775 C348.3028,33.8105 348.3488,34.0015 348.3578,34.2515 C348.3648,34.5015 348.3698,34.7345 348.3698,34.9505 L348.3698,44.9435 Z M348.1428,30.6665 C347.9068,30.9085 347.6218,31.0285 347.2868,31.0285 C346.9478,31.0285 346.6628,30.9085 346.4288,30.6665 C346.1908,30.4255 346.0748,30.1385 346.0748,29.8045 C346.0748,29.4715 346.1908,29.1885 346.4288,28.9555 C346.6628,28.7225 346.9478,28.6055 347.2868,28.6055 C347.6218,28.6055 347.9068,28.7225 348.1428,28.9555 C348.3788,29.1885 348.4958,29.4715 348.4958,29.8045 C348.4958,30.1385 348.3788,30.4255 348.1428,30.6665 Z" id="Fill-68" fill="#00B3DC"></path>
        <path d="M352.3306,31.2784 C352.3306,30.7964 352.3376,30.4584 352.3566,30.2664 C352.3716,30.0754 352.4226,29.8964 352.5056,29.7294 C352.5716,29.6134 352.6876,29.5014 352.8466,29.3924 C353.0076,29.2844 353.1966,29.2304 353.4146,29.2304 C353.6836,29.2304 353.8926,29.2884 354.0446,29.4044 C354.1966,29.5214 354.3096,29.6714 354.3846,29.8544 C354.4616,30.0384 354.5026,30.2424 354.5116,30.4674 C354.5216,30.6914 354.5256,30.9204 354.5256,31.1534 L354.5256,33.4764 L355.6846,33.4764 C355.8176,33.4764 355.9656,33.4814 356.1266,33.4894 C356.2856,33.4984 356.4326,33.5274 356.5686,33.5774 C356.7016,33.6274 356.8146,33.7014 356.9086,33.8014 C357.0006,33.9024 357.0466,34.0514 357.0466,34.2514 C357.0466,34.5344 356.9156,34.7384 356.6556,34.8634 C356.3946,34.9884 356.0966,35.0514 355.7606,35.0514 L354.5256,35.0514 L354.5256,42.7454 C354.5256,43.0794 354.5316,43.3784 354.5486,43.6444 C354.5676,43.9114 354.6206,44.1394 354.7146,44.3314 C354.8066,44.5234 354.9396,44.6734 355.1176,44.7814 C355.2936,44.8894 355.5326,44.9434 355.8366,44.9434 C355.8876,44.9434 355.9746,44.9354 356.1006,44.9194 C356.2276,44.9024 356.3566,44.8844 356.4926,44.8684 C356.6256,44.8524 356.7516,44.8354 356.8696,44.8184 C356.9866,44.8014 357.0726,44.7924 357.1226,44.7924 C357.3406,44.7924 357.5206,44.8594 357.6656,44.9924 C357.8086,45.1264 357.8786,45.3184 357.8786,45.5674 C357.8786,45.7844 357.8156,45.9594 357.6906,46.0924 C357.5646,46.2254 357.3866,46.3344 357.1596,46.4164 C356.9346,46.5004 356.6696,46.5594 356.3656,46.5914 C356.0616,46.6264 355.7426,46.6424 355.4066,46.6424 C354.6326,46.6424 354.0396,46.5214 353.6286,46.2794 C353.2166,46.0394 352.9126,45.7384 352.7216,45.3804 C352.5256,45.0224 352.4146,44.6224 352.3816,44.1804 C352.3466,43.7404 352.3306,43.3194 352.3306,42.9204 L352.3306,35.0514 L351.4976,35.0514 C351.2446,35.0514 351.0566,35.0134 350.9306,34.9384 C350.8026,34.8634 350.7066,34.7764 350.6406,34.6764 C350.5736,34.5754 350.5346,34.4854 350.5276,34.4014 C350.5176,34.3184 350.5136,34.2684 350.5136,34.2514 C350.5136,34.0514 350.5636,33.9024 350.6656,33.8014 C350.7666,33.7014 350.8796,33.6274 351.0056,33.5774 C351.1326,33.5274 351.2616,33.4984 351.3966,33.4894 C351.5306,33.4814 351.6326,33.4764 351.6986,33.4764 L352.3306,33.4764 L352.3306,31.2784 Z" id="Fill-70" fill="#00B3DC"></path>
        <path d="M361.537,44.9435 C361.537,45.2935 361.528,45.5395 361.511,45.6805 C361.493,45.8225 361.47,45.9335 361.436,46.0175 C361.352,46.2515 361.214,46.4265 361.024,46.5425 C360.833,46.6585 360.637,46.7165 360.439,46.7165 C360.173,46.7165 359.966,46.6625 359.816,46.5545 C359.664,46.4465 359.556,46.3055 359.491,46.1295 C359.425,45.9545 359.384,45.7635 359.365,45.5555 C359.349,45.3475 359.342,45.1435 359.342,44.9435 L359.342,34.9505 C359.342,34.5675 359.358,34.2685 359.39,34.0515 C359.425,33.8355 359.508,33.6515 359.641,33.5015 C359.855,33.2855 360.131,33.1775 360.463,33.1775 C360.746,33.1775 360.951,33.2275 361.074,33.3265 C361.199,33.4265 361.301,33.5435 361.385,33.6775 C361.47,33.8105 361.514,34.0015 361.523,34.2515 C361.532,34.5015 361.537,34.7345 361.537,34.9505 L361.537,44.9435 Z M361.309,30.6665 C361.072,30.9085 360.787,31.0285 360.451,31.0285 C360.115,31.0285 359.829,30.9085 359.593,30.6665 C359.358,30.4255 359.24,30.1385 359.24,29.8045 C359.24,29.4715 359.358,29.1885 359.593,28.9555 C359.829,28.7225 360.115,28.6055 360.451,28.6055 C360.787,28.6055 361.072,28.7225 361.309,28.9555 C361.544,29.1885 361.661,29.4715 361.661,29.8045 C361.661,30.1385 361.544,30.4255 361.309,30.6665 Z" id="Fill-72" fill="#00B3DC"></path>
        <path d="M372.8612,39.8845 C372.6242,39.9595 372.3392,40.0395 372.0022,40.1215 C371.2122,40.3055 370.5052,40.4505 369.8852,40.5595 C369.2612,40.6675 368.6912,40.7875 368.1692,40.9215 C367.7982,41.0215 367.5062,41.1545 367.2882,41.3215 C367.0692,41.4875 366.8982,41.6665 366.7812,41.8575 C366.6642,42.0495 366.5842,42.2375 366.5422,42.4215 C366.5012,42.6035 366.4802,42.7535 366.4802,42.8695 C366.4802,43.1035 366.5262,43.3445 366.6182,43.5945 C366.7102,43.8455 366.8522,44.0725 367.0452,44.2825 C367.2402,44.4895 367.4962,44.6635 367.8172,44.8065 C368.1362,44.9485 368.5222,45.0185 368.9762,45.0185 C369.3302,45.0185 369.6952,44.9815 370.0732,44.9055 C370.4522,44.8315 370.8212,44.7195 371.1842,44.5685 C371.5452,44.4185 371.8762,44.2265 372.1802,43.9945 C372.4822,43.7615 372.7262,43.4785 372.9122,43.1445 C373.1622,42.7125 373.3192,42.2075 373.3782,41.6335 C373.4362,41.0595 373.4662,40.4055 373.4662,39.6725 C373.2982,39.7385 373.0952,39.8095 372.8612,39.8845 M372.9992,45.2055 C372.7042,45.4475 372.3432,45.6805 371.9152,45.9055 C371.4852,46.1295 370.9912,46.3225 370.4282,46.4805 C369.8642,46.6375 369.2292,46.7165 368.5222,46.7165 C367.7982,46.7165 367.1722,46.6085 366.6442,46.3925 C366.1142,46.1765 365.6722,45.8925 365.3192,45.5425 C364.9662,45.1935 364.7042,44.7975 364.5372,44.3555 C364.3682,43.9155 364.2862,43.4705 364.2862,43.0195 C364.2862,42.2875 364.4382,41.6875 364.7382,41.2205 C365.0422,40.7555 365.4102,40.3845 365.8502,40.1095 C366.2872,39.8355 366.7512,39.6345 367.2482,39.5105 C367.7452,39.3855 368.1872,39.2815 368.5732,39.1975 C368.7252,39.1645 368.9762,39.1145 369.3302,39.0475 C369.6822,38.9815 370.0522,38.9145 370.4382,38.8485 C370.8252,38.7815 371.1912,38.7145 371.5362,38.6485 C371.8812,38.5815 372.1202,38.5315 372.2562,38.4975 C372.4412,38.4485 372.6222,38.3985 372.7962,38.3485 C372.9742,38.2985 373.2062,38.2235 373.4912,38.1235 C373.4752,37.6905 373.4452,37.2745 373.4042,36.8745 C373.3602,36.4745 373.2472,36.1165 373.0642,35.8005 C372.8772,35.4835 372.5882,35.2345 372.1922,35.0515 C371.7962,34.8675 371.2372,34.7765 370.5152,34.7765 C370.1292,34.7765 369.7462,34.8055 369.3672,34.8635 C368.9902,34.9225 368.6352,35.0225 368.3092,35.1635 C367.9792,35.3055 367.6852,35.4925 367.4262,35.7255 C367.1632,35.9585 366.9682,36.2415 366.8322,36.5745 C366.7142,36.8575 366.5882,37.1035 366.4542,37.3115 C366.3192,37.5205 366.0842,37.6235 365.7492,37.6235 C365.4792,37.6235 365.2472,37.5365 365.0542,37.3615 C364.8602,37.1865 364.7642,36.9655 364.7642,36.6995 C364.7642,36.5165 364.8312,36.2295 364.9662,35.8375 C365.1002,35.4465 365.3692,35.0555 365.7732,34.6635 C366.1762,34.2725 366.7452,33.9265 367.4762,33.6275 C368.2082,33.3265 369.1692,33.1775 370.3632,33.1775 C371.6072,33.1775 372.5882,33.3145 373.3032,33.5895 C374.0152,33.8635 374.5502,34.2425 374.9032,34.7265 C375.2552,35.2095 375.4742,35.7755 375.5592,36.4245 C375.6442,37.0745 375.6852,37.7745 375.6852,38.5235 C375.6852,38.6905 375.6812,38.9685 375.6722,39.3595 C375.6652,39.7515 375.6562,40.1635 375.6462,40.5965 C375.6392,41.0295 375.6312,41.4345 375.6222,41.8085 C375.6152,42.1835 375.6102,42.4455 375.6102,42.5955 C375.6102,43.1945 375.6462,43.6525 375.7232,43.9695 C375.7982,44.2855 375.8782,44.5445 375.9622,44.7445 C375.9802,44.8115 376.0262,44.9655 376.1022,45.2055 C376.1782,45.4475 376.2152,45.6685 376.2152,45.8665 C376.2152,46.0845 376.1092,46.2795 375.9002,46.4545 C375.6902,46.6295 375.4412,46.7165 375.1562,46.7165 C374.9392,46.7165 374.7512,46.6505 374.6012,46.5175 C374.4512,46.3845 374.3142,46.2145 374.1982,46.0045 C374.0802,45.7965 373.9832,45.5675 373.9082,45.3185 C373.8312,45.0685 373.7612,44.8275 373.6942,44.5935 C373.5232,44.7605 373.2932,44.9655 372.9992,45.2055" id="Fill-74" fill="#00B3DC"></path>
        <path d="M389.8609,44.9435 C389.8609,45.3105 389.8469,45.6135 389.8209,45.8555 C389.7959,46.0975 389.7089,46.2845 389.5569,46.4165 C389.3229,46.6165 389.0599,46.7165 388.7749,46.7165 C388.4549,46.7165 388.1859,46.6165 387.9669,46.4165 C387.8149,46.2845 387.7279,46.0975 387.7029,45.8555 C387.6769,45.6135 387.6659,45.3105 387.6659,44.9435 L387.6659,38.7725 C387.6659,38.1405 387.6319,37.6325 387.5639,37.2485 C387.4959,36.8665 387.3969,36.5585 387.2619,36.3245 C387.0259,35.9095 386.6979,35.5965 386.2789,35.3885 C385.8579,35.1795 385.4209,35.0755 384.9649,35.0755 C384.3259,35.0755 383.7209,35.2385 383.1499,35.5625 C382.5779,35.8875 382.1409,36.3245 381.8389,36.8745 C381.7379,37.0415 381.6509,37.2115 381.5739,37.3865 C381.4989,37.5615 381.4339,37.7905 381.3839,38.0735 C381.3329,38.3575 381.2959,38.7145 381.2719,39.1475 C381.2459,39.5805 381.2339,40.1385 381.2339,40.8215 L381.2339,44.9435 C381.2339,45.3105 381.2159,45.6135 381.1829,45.8555 C381.1489,46.0975 381.0569,46.2845 380.9049,46.4165 C380.6709,46.6165 380.4079,46.7165 380.1229,46.7165 C379.8379,46.7165 379.5779,46.6165 379.3409,46.4165 C379.1889,46.2845 379.1019,46.0975 379.0759,45.8555 C379.0519,45.6135 379.0399,45.3105 379.0399,44.9435 L379.0399,34.9005 C379.0399,34.5515 379.0519,34.2605 379.0759,34.0265 C379.1019,33.7935 379.1819,33.6105 379.3149,33.4765 C379.4009,33.4105 379.5049,33.3445 379.6309,33.2775 C379.7569,33.2105 379.9139,33.1775 380.0969,33.1775 C380.2999,33.1775 380.4799,33.2275 380.6399,33.3265 C380.7989,33.4265 380.9049,33.5355 380.9559,33.6515 C381.0069,33.7355 381.0479,33.8225 381.0819,33.9145 C381.1149,34.0065 381.1349,34.1185 381.1439,34.2515 C381.1539,34.3855 381.1609,34.5435 381.1699,34.7265 C381.1789,34.9095 381.1829,35.1345 381.1829,35.4005 C381.3519,35.1845 381.5519,34.9465 381.7889,34.6885 C382.0229,34.4305 382.3059,34.1885 382.6329,33.9645 C382.9619,33.7395 383.3429,33.5515 383.7799,33.4025 C384.2179,33.2525 384.7309,33.1775 385.3199,33.1775 C386.1279,33.1775 386.8279,33.3145 387.4239,33.5895 C388.0229,33.8645 388.5469,34.2605 389.0019,34.7765 C389.2219,35.0255 389.3889,35.3005 389.5069,35.6005 C389.6229,35.9005 389.7089,36.2045 389.7599,36.5125 C389.8099,36.8205 389.8379,37.1205 389.8469,37.4115 C389.8559,37.7035 389.8609,37.9485 389.8609,38.1485 L389.8609,44.9435 Z" id="Fill-76" fill="#00B3DC"></path>
        <path d="M402.9882,43.7576 C402.8772,44.2156 402.6362,44.6636 402.2572,45.1056 C401.8802,45.5476 401.3232,45.9266 400.5912,46.2416 C399.8602,46.5596 398.8802,46.7166 397.6542,46.7166 C396.6622,46.7166 395.8412,46.6006 395.1952,46.3676 C394.5462,46.1336 393.9862,45.7936 393.5182,45.3426 C393.2652,45.0946 393.0162,44.7766 392.7722,44.3936 C392.5282,44.0106 392.4072,43.5946 392.4072,43.1446 C392.4072,42.9116 392.4992,42.7046 392.6852,42.5196 C392.8692,42.3376 393.0972,42.2466 393.3662,42.2466 C393.6512,42.2466 393.8652,42.3296 394.0102,42.4946 C394.1522,42.6626 394.2752,42.8616 394.3762,43.0956 C394.6262,43.6786 395.0092,44.1696 395.5212,44.5686 C396.0352,44.9676 396.7952,45.1676 397.8062,45.1676 C398.8132,45.1676 399.5752,44.9566 400.0872,44.5306 C400.6012,44.1076 400.8572,43.6286 400.8572,43.0956 C400.8572,42.6946 400.7592,42.3656 400.5652,42.1086 C400.3722,41.8506 400.1332,41.6336 399.8482,41.4586 C399.5632,41.2836 399.2382,41.1466 398.8782,41.0456 C398.5162,40.9466 398.1732,40.8546 397.8572,40.7716 C397.1822,40.6056 396.6232,40.4556 396.1792,40.3226 C395.7332,40.1886 395.3592,40.0636 395.0572,39.9476 C394.7532,39.8306 394.5052,39.7146 394.3122,39.5976 C394.1182,39.4816 393.9302,39.3476 393.7432,39.1976 C393.4422,38.9476 393.1772,38.6276 392.9502,38.2356 C392.7222,37.8446 392.6102,37.3906 392.6102,36.8746 C392.6102,36.2916 392.7772,35.7166 393.1132,35.1506 C393.4482,34.5846 393.9202,34.1346 394.5252,33.8016 C394.8962,33.6016 395.3232,33.4486 395.8132,33.3396 C396.2982,33.2316 396.8632,33.1776 397.5022,33.1776 C398.5782,33.1776 399.4412,33.3186 400.0872,33.6016 C400.7342,33.8856 401.2362,34.2056 401.5902,34.5636 C401.9412,34.9226 402.1772,35.2716 402.2952,35.6126 C402.4132,35.9546 402.4712,36.1836 402.4712,36.2996 C402.4712,36.3506 402.4642,36.4246 402.4452,36.5246 C402.4292,36.6246 402.3872,36.7246 402.3192,36.8246 C402.2522,36.9246 402.1602,37.0116 402.0422,37.0866 C401.9262,37.1616 401.7552,37.1996 401.5392,37.1996 C401.2362,37.1996 401.0212,37.1246 400.8952,36.9746 C400.7682,36.8246 400.6212,36.5746 400.4532,36.2246 C400.2692,35.8256 399.9492,35.4756 399.4942,35.1756 C399.0402,34.8766 398.3952,34.7266 397.5532,34.7266 C396.7452,34.7266 396.0692,34.8846 395.5212,35.2006 C394.9762,35.5176 394.7032,35.9666 394.7032,36.5496 C394.7032,36.7996 394.7582,37.0286 394.8662,37.2366 C394.9762,37.4456 395.1692,37.6406 395.4482,37.8236 C395.7242,38.0076 396.1052,38.1776 396.5932,38.3356 C397.0802,38.4946 397.7052,38.6566 398.4612,38.8226 C398.9652,38.9226 399.4912,39.0566 400.0372,39.2226 C400.5842,39.3896 401.0882,39.6146 401.5502,39.8976 C402.0132,40.1806 402.3942,40.5426 402.6982,40.9836 C403.0022,41.4256 403.1522,41.9796 403.1522,42.6456 C403.1522,42.9286 403.0992,43.2986 402.9882,43.7576" id="Fill-78" fill="#00B3DC"></path>
    </g>
</svg>