<?xml version="1.0" encoding="utf-8"?>
<!-- Generator: Adobe Illustrator 19.0.0, SVG Export Plug-In . SVG Version: 6.00 Build 0)  -->
<svg version="1.1" id="layer" xmlns="http://www.w3.org/2000/svg" xmlns:xlink="http://www.w3.org/1999/xlink" x="0px" y="0px"
	 viewBox="-153 -46 652 652" style="enable-background:new -153 -46 652 652;" xml:space="preserve">
<style type="text/css">
	.st0{fill:#00B3DC;}
</style>
<g id="logo_x2F_full-colour">
	<path id="Fill-17" class="st0" d="M-107.8,311.8h22.6c7.9,0,16.8-3.5,16.8-13.7c0-11-12.1-12.9-20.3-12.9h-19V311.8z M-107.8,263.4
		h18.2c7.8,0,15.8-3.3,15.8-12.7c0-9.7-9-12.2-16.9-12.2h-17.1V263.4z M-131.3,216.7h40.9c20,0,41.8,4.3,41.8,29.7
		c0,13-7.9,21.9-19.7,25.7v0.3c15,2,25,13.4,25,28.5c0,24.4-22.6,32.5-42.9,32.5h-45.1V216.7z"/>
	<path id="Fill-19" class="st0" d="M122.8,250.7L108.9,287h27.9L122.8,250.7z M113.1,216.7H134l49.7,116.8h-28.4l-9.8-24.8h-44.4
		l-9.5,24.8H63.8L113.1,216.7z"/>
	<path id="Fill-21" class="st0" d="M-8.5,311.7c3.1-22.5,15.2-32.3,30.8-44.3C2.9,275.1-2,279.8-14.5,293.8c0-43.1,14.9-41.5,61-42
		C40.4,290.4,34.5,313.8-8.5,311.7 M4.4,216.7h-37.8v116.8H7.8c34,0,62.4-20.3,62.4-58.1C70.3,232.8,41.2,216.7,4.4,216.7"/>
	<path id="Fill-23" class="st0" d="M212.1,240.9c0,0.6,0,1.1-0.1,1.5c0,0.4-0.2,0.7-0.4,0.9c-0.1,0.1-0.3,0.2-0.5,0.4
		c-0.2,0.1-0.5,0.2-0.8,0.2c-0.5,0-0.9-0.2-1.3-0.5c-0.3-0.2-0.4-0.5-0.5-0.9c0-0.4-0.1-0.9-0.1-1.5v-21.3h-6.1c-0.6,0-1,0-1.3-0.1
		c-0.3,0-0.6-0.2-0.8-0.4c-0.1-0.1-0.2-0.3-0.3-0.4c-0.1-0.2-0.2-0.4-0.2-0.6c0-0.2,0-0.4,0.1-0.5c0.1-0.2,0.2-0.3,0.3-0.5
		c0.2-0.2,0.5-0.4,0.8-0.4c0.3,0,0.8-0.1,1.3-0.1h15.8c0.6,0,1,0,1.3,0.1c0.3,0,0.6,0.2,0.8,0.4c0.1,0.1,0.2,0.3,0.3,0.4
		c0.1,0.2,0.2,0.4,0.2,0.6c0,0.2-0.1,0.4-0.2,0.5c-0.1,0.2-0.2,0.3-0.3,0.5c-0.2,0.2-0.5,0.3-0.8,0.4c-0.3,0-0.8,0.1-1.3,0.1h-6.1
		V240.9z"/>
	<path id="Fill-25" class="st0" d="M239.8,241.1c0,0.6,0,1.1,0,1.3c0,0.3-0.1,0.5-0.3,0.7c-0.1,0.2-0.3,0.3-0.6,0.4
		c-0.3,0.1-0.5,0.2-0.8,0.2c-0.3,0-0.6-0.1-0.8-0.2c-0.3-0.1-0.5-0.4-0.6-0.7c-0.1-0.2-0.1-0.4-0.1-0.7c0-0.2,0-0.6,0-1.1v-9.4
		c0-0.5,0-1.2-0.1-1.9c-0.1-0.7-0.2-1.3-0.5-1.7c-0.4-0.6-0.8-1-1.5-1.4c-0.6-0.3-1.3-0.5-2-0.5c-0.9,0-1.8,0.2-2.7,0.7
		c-0.9,0.5-1.5,1.1-1.9,1.9c-0.1,0.2-0.2,0.5-0.4,0.8c-0.1,0.3-0.2,0.6-0.3,1c-0.1,0.4-0.1,0.9-0.2,1.6c-0.1,0.6-0.1,1.5-0.1,2.5
		v6.4c0,0.5,0,1-0.1,1.3c0,0.3-0.2,0.6-0.4,0.8c-0.1,0.1-0.3,0.2-0.5,0.3c-0.2,0.1-0.5,0.2-0.7,0.2c-0.4,0-0.7-0.1-0.9-0.2
		c-0.2-0.2-0.4-0.4-0.5-0.6c-0.1-0.3-0.2-0.6-0.2-0.9c0-0.3,0-0.6,0-0.9V219c0-0.3,0-0.6,0-0.9c0-0.3,0.1-0.6,0.2-0.9
		c0.1-0.3,0.3-0.5,0.5-0.6c0.2-0.2,0.5-0.2,0.9-0.2c0.4,0,0.7,0.1,1,0.2c0.2,0.2,0.4,0.4,0.5,0.6c0.1,0.2,0.2,0.5,0.2,0.9
		c0,0.3,0,0.6,0,1v7.9c0.3-0.4,0.7-0.8,1.1-1.2c0.4-0.4,0.8-0.7,1.3-1c0.5-0.3,1-0.5,1.7-0.7c0.6-0.2,1.3-0.3,2.1-0.3
		c1.2,0,2.2,0.2,3.1,0.6c0.9,0.4,1.6,1,2.3,1.7c0.3,0.4,0.6,0.8,0.8,1.3c0.2,0.5,0.3,1,0.4,1.4c0.1,0.5,0.1,0.9,0.2,1.3
		c0,0.4,0,0.7,0,1V241.1z"/>
	<path id="Fill-28" class="st0" d="M258.3,232.1c-0.1-0.5-0.1-1.1-0.2-1.7c-0.1-0.6-0.3-1.2-0.8-2c-0.4-0.7-1-1.3-1.8-1.8
		c-0.7-0.5-1.7-0.7-2.7-0.7c-0.7,0-1.2,0.1-1.7,0.3c-0.5,0.2-1,0.4-1.4,0.7c-0.4,0.3-0.7,0.6-1,0.9c-0.3,0.3-0.5,0.7-0.7,1
		c-0.3,0.6-0.5,1.1-0.7,1.7c-0.1,0.6-0.2,1.1-0.2,1.5H258.3z M247,234.4c0,1.3,0.2,2.4,0.6,3.3c0.3,0.9,0.8,1.6,1.4,2.2
		c0.6,0.6,1.2,1,1.9,1.2c0.7,0.2,1.5,0.4,2.2,0.4c0.8,0,1.5-0.1,2-0.3c0.6-0.2,1.1-0.5,1.5-0.8c0.4-0.3,0.8-0.7,1.1-1.1
		c0.3-0.4,0.6-0.8,0.9-1.3c0.1-0.2,0.3-0.4,0.5-0.6c0.2-0.2,0.5-0.4,0.9-0.4c0.4,0,0.6,0.1,0.9,0.4c0.2,0.2,0.4,0.5,0.4,0.9
		c0,0.3-0.1,0.6-0.2,0.9c-0.1,0.3-0.3,0.6-0.4,0.8c-0.2,0.3-0.5,0.7-0.9,1.2c-0.4,0.4-0.8,0.9-1.4,1.3c-0.6,0.4-1.3,0.7-2.2,1
		c-0.9,0.3-1.9,0.4-3.1,0.4c-1.6,0-3-0.3-4.2-0.8c-1.2-0.5-2.1-1.2-2.9-2.1c-0.7-0.9-1.3-2-1.6-3.2c-0.4-1.2-0.5-2.6-0.5-4
		c0-1.4,0.2-2.7,0.6-3.9c0.4-1.2,0.9-2.3,1.7-3.2c0.7-0.9,1.7-1.6,2.8-2.1c1.1-0.5,2.5-0.8,4.1-0.8c1.3,0,2.4,0.2,3.3,0.5
		c0.9,0.3,1.7,0.8,2.4,1.3c0.6,0.5,1.2,1.2,1.6,1.8c0.4,0.7,0.7,1.3,0.9,2c0.2,0.6,0.4,1.2,0.4,1.8c0.1,0.5,0.1,0.9,0.1,1.2
		c0,0.5-0.1,0.9-0.3,1.2c-0.2,0.3-0.4,0.5-0.7,0.6c-0.3,0.1-0.6,0.2-0.9,0.2c-0.3,0-0.7,0-1,0H247z"/>
	<path id="Fill-30" class="st0" d="M290.8,232.8l-5-12.5l-4.8,12.5H290.8z M279.9,235.7l-2.3,6c-0.3,0.7-0.5,1.3-0.8,1.6
		c-0.2,0.4-0.7,0.6-1.3,0.6c-0.5,0-0.9-0.2-1.2-0.5c-0.3-0.3-0.5-0.7-0.5-1.1c0-0.3,0-0.5,0.1-0.8c0.1-0.3,0.2-0.6,0.4-1l8.5-20.9
		c0.2-0.5,0.4-1,0.6-1.4c0.2-0.4,0.4-0.7,0.6-1c0.2-0.3,0.5-0.5,0.7-0.6s0.6-0.2,1.1-0.2c0.4,0,0.7,0.1,1,0.2
		c0.3,0.1,0.6,0.3,0.8,0.5c0.2,0.2,0.4,0.5,0.6,1c0.2,0.5,0.4,0.9,0.6,1.4l8.8,20.8c0.2,0.5,0.3,0.8,0.4,1.1
		c0.1,0.3,0.1,0.5,0.1,0.8c0,0.3-0.2,0.7-0.5,1.1c-0.3,0.4-0.8,0.6-1.3,0.6c-0.6,0-1.1-0.2-1.3-0.6c-0.2-0.4-0.5-0.9-0.8-1.7
		l-2.4-5.9H279.9z"/>
	<path id="Fill-32" class="st0" d="M315.8,239.4c-0.2,0.7-0.5,1.4-1.1,2c-0.6,0.7-1.4,1.2-2.5,1.7c-1.1,0.5-2.5,0.7-4.4,0.7
		c-1.5,0-2.7-0.2-3.7-0.5c-1-0.3-1.8-0.9-2.5-1.5c-0.4-0.4-0.7-0.8-1.1-1.4c-0.4-0.6-0.5-1.2-0.5-1.9c0-0.3,0.1-0.7,0.4-0.9
		c0.3-0.3,0.6-0.4,1-0.4c0.4,0,0.7,0.1,1,0.4c0.2,0.2,0.4,0.5,0.5,0.9c0.4,0.9,0.9,1.6,1.7,2.2c0.8,0.6,1.9,0.9,3.4,0.9
		c1.5,0,2.6-0.3,3.4-0.9c0.8-0.6,1.1-1.3,1.1-2.1c0-0.6-0.1-1.1-0.4-1.5c-0.3-0.4-0.6-0.7-1.1-1c-0.4-0.3-0.9-0.5-1.4-0.6
		c-0.5-0.1-1-0.3-1.5-0.4c-1-0.2-1.8-0.5-2.5-0.7c-0.7-0.2-1.2-0.4-1.7-0.6c-0.5-0.2-0.8-0.3-1.1-0.5c-0.3-0.2-0.6-0.4-0.8-0.6
		c-0.4-0.4-0.8-0.9-1.2-1.4c-0.3-0.6-0.5-1.3-0.5-2c0-0.9,0.3-1.7,0.8-2.6c0.5-0.8,1.2-1.5,2.1-2c0.6-0.3,1.2-0.5,1.9-0.7
		c0.7-0.2,1.6-0.2,2.5-0.2c1.6,0,2.9,0.2,3.8,0.6c1,0.4,1.7,0.9,2.2,1.4c0.5,0.5,0.9,1.1,1.1,1.6c0.2,0.5,0.3,0.8,0.3,1
		c0,0.1,0,0.2,0,0.3c0,0.1-0.1,0.3-0.2,0.4c-0.1,0.1-0.2,0.3-0.4,0.4c-0.2,0.1-0.4,0.2-0.8,0.2c-0.5,0-0.8-0.1-1-0.3
		c-0.2-0.2-0.4-0.6-0.7-1.1c-0.3-0.6-0.7-1.1-1.4-1.6c-0.7-0.4-1.6-0.7-2.9-0.7c-1.2,0-2.2,0.2-3,0.7c-0.8,0.5-1.2,1.1-1.2,2
		c0,0.4,0.1,0.7,0.2,1c0.2,0.3,0.5,0.6,0.9,0.9c0.4,0.3,1,0.5,1.7,0.8c0.7,0.2,1.7,0.5,2.8,0.7c0.8,0.1,1.5,0.3,2.3,0.6
		c0.8,0.2,1.6,0.6,2.3,1c0.7,0.4,1.3,1,1.7,1.6c0.5,0.7,0.7,1.5,0.7,2.5C316,238.2,316,238.7,315.8,239.4"/>
	<path id="Fill-34" class="st0" d="M334.6,239.4c-0.2,0.7-0.5,1.4-1.1,2c-0.6,0.7-1.4,1.2-2.5,1.7c-1.1,0.5-2.5,0.7-4.4,0.7
		c-1.5,0-2.7-0.2-3.7-0.5c-1-0.3-1.8-0.9-2.5-1.5c-0.4-0.4-0.7-0.8-1.1-1.4c-0.4-0.6-0.5-1.2-0.5-1.9c0-0.3,0.1-0.7,0.4-0.9
		c0.3-0.3,0.6-0.4,1-0.4c0.4,0,0.7,0.1,1,0.4c0.2,0.2,0.4,0.5,0.5,0.9c0.4,0.9,0.9,1.6,1.7,2.2c0.8,0.6,1.9,0.9,3.4,0.9
		c1.5,0,2.6-0.3,3.4-0.9c0.8-0.6,1.1-1.3,1.1-2.1c0-0.6-0.1-1.1-0.4-1.5c-0.3-0.4-0.6-0.7-1.1-1c-0.4-0.3-0.9-0.5-1.4-0.6
		c-0.5-0.1-1-0.3-1.5-0.4c-1-0.2-1.8-0.5-2.5-0.7c-0.7-0.2-1.2-0.4-1.7-0.6c-0.5-0.2-0.8-0.3-1.1-0.5c-0.3-0.2-0.6-0.4-0.8-0.6
		c-0.4-0.4-0.8-0.9-1.2-1.4c-0.3-0.6-0.5-1.3-0.5-2c0-0.9,0.3-1.7,0.8-2.6c0.5-0.8,1.2-1.5,2.1-2c0.6-0.3,1.2-0.5,1.9-0.7
		c0.7-0.2,1.6-0.2,2.5-0.2c1.6,0,2.9,0.2,3.8,0.6c1,0.4,1.7,0.9,2.2,1.4c0.5,0.5,0.9,1.1,1.1,1.6c0.2,0.5,0.3,0.8,0.3,1
		c0,0.1,0,0.2,0,0.3c0,0.1-0.1,0.3-0.2,0.4c-0.1,0.1-0.2,0.3-0.4,0.4c-0.2,0.1-0.4,0.2-0.8,0.2c-0.4,0-0.8-0.1-1-0.3
		c-0.2-0.2-0.4-0.6-0.7-1.1c-0.3-0.6-0.7-1.1-1.4-1.6c-0.7-0.4-1.6-0.7-2.9-0.7c-1.2,0-2.2,0.2-3,0.7c-0.8,0.5-1.2,1.1-1.2,2
		c0,0.4,0.1,0.7,0.2,1c0.2,0.3,0.5,0.6,0.9,0.9c0.4,0.3,1,0.5,1.7,0.8c0.7,0.2,1.7,0.5,2.8,0.7c0.8,0.1,1.5,0.3,2.3,0.6
		c0.8,0.2,1.6,0.6,2.3,1c0.7,0.4,1.3,1,1.7,1.6c0.5,0.7,0.7,1.5,0.7,2.5C334.8,238.2,334.7,238.7,334.6,239.4"/>
	<path id="Fill-36" class="st0" d="M351,228.1c-1.1-1.3-2.5-2-4.2-2c-1.9,0-3.3,0.7-4.4,2.1c-1,1.4-1.5,3.2-1.5,5.5
		c0,2.3,0.5,4.2,1.5,5.5c1,1.4,2.5,2,4.3,2c1.9,0,3.3-0.7,4.3-2c1-1.4,1.5-3.2,1.5-5.5C352.6,231.3,352.1,229.5,351,228.1
		 M355.1,238.3c-0.5,1.3-1.2,2.3-2,3.1c-0.8,0.8-1.8,1.4-2.9,1.8c-1.1,0.4-2.3,0.6-3.5,0.6c-1.5,0-2.9-0.3-4-0.8
		c-1.1-0.5-2.1-1.2-2.9-2.1c-0.8-0.9-1.3-1.9-1.7-3.1c-0.4-1.2-0.6-2.4-0.6-3.7c0-3.4,0.8-6,2.4-7.8c1.6-1.8,3.8-2.7,6.7-2.7
		c1.2,0,2.4,0.2,3.5,0.6c1.1,0.4,2.1,1,2.9,1.8c0.8,0.8,1.5,1.9,2,3.1c0.5,1.3,0.7,2.8,0.7,4.6C355.9,235.5,355.6,237,355.1,238.3"
		/>
	<path id="Fill-38" class="st0" d="M376.2,239.1c-0.3,0.7-0.7,1.4-1.4,2c-0.7,0.7-1.5,1.3-2.6,1.8c-1.1,0.5-2.4,0.8-4,0.8
		c-1.3,0-2.4-0.1-3.3-0.4c-0.9-0.3-1.7-0.6-2.3-1c-0.6-0.4-1.1-0.9-1.5-1.3c-0.4-0.5-0.7-0.9-0.9-1.3c-0.3-0.6-0.7-1.4-1-2.3
		c-0.3-1-0.4-2.2-0.4-3.6c0-1.1,0.1-2.3,0.4-3.5c0.3-1.2,0.8-2.3,1.5-3.3c0.7-1,1.6-1.8,2.8-2.4c1.2-0.6,2.7-0.9,4.6-0.9
		c1.1,0,2.1,0.1,2.9,0.3c0.8,0.2,1.5,0.5,2.1,0.9c0.6,0.4,1.1,0.8,1.5,1.2c0.4,0.4,0.7,0.9,1,1.3c0.2,0.2,0.3,0.5,0.5,0.8
		c0.1,0.3,0.2,0.6,0.2,0.9c0,0.4-0.1,0.8-0.4,1c-0.3,0.3-0.6,0.4-1,0.4c-0.1,0-0.2,0-0.3,0c-0.1,0-0.2-0.1-0.4-0.1
		c-0.1-0.1-0.3-0.2-0.4-0.4c-0.2-0.2-0.3-0.4-0.5-0.7c-0.1-0.2-0.3-0.5-0.5-0.8c-0.2-0.3-0.6-0.7-0.9-1c-0.4-0.3-0.9-0.6-1.5-0.9
		c-0.6-0.2-1.3-0.4-2.1-0.4c-1.8,0-3.3,0.7-4.4,2c-1.1,1.3-1.6,3.1-1.6,5.4c0,2.4,0.5,4.3,1.6,5.6c1.1,1.4,2.5,2,4.4,2
		c1.1,0,2-0.2,2.9-0.7c0.9-0.5,1.6-1.2,2.1-2c0-0.1,0.1-0.2,0.2-0.4c0.1-0.2,0.2-0.3,0.3-0.5c0.1-0.2,0.2-0.4,0.3-0.5
		c0.1-0.2,0.2-0.3,0.2-0.3c0.1-0.1,0.3-0.3,0.4-0.4c0.2-0.1,0.4-0.2,0.7-0.2c0.3,0,0.7,0.1,1,0.4c0.3,0.3,0.5,0.6,0.5,1.1
		C376.6,238,376.5,238.4,376.2,239.1"/>
	<path id="Fill-40" class="st0" d="M384.1,241.2c0,0.5,0,0.9,0,1.1c0,0.2-0.1,0.4-0.1,0.5c-0.1,0.3-0.3,0.6-0.6,0.8
		c-0.3,0.2-0.6,0.3-0.9,0.3c-0.4,0-0.7-0.1-0.9-0.2c-0.2-0.2-0.4-0.4-0.5-0.6c-0.1-0.3-0.2-0.5-0.2-0.9c0-0.3,0-0.6,0-0.9v-14.9
		c0-0.6,0-1,0.1-1.3c0-0.3,0.2-0.6,0.4-0.8c0.3-0.3,0.7-0.5,1.2-0.5c0.4,0,0.7,0.1,0.9,0.2c0.2,0.2,0.3,0.3,0.5,0.5
		c0.1,0.2,0.2,0.5,0.2,0.9c0,0.4,0,0.7,0,1V241.2z M383.8,219.9c-0.3,0.4-0.8,0.5-1.3,0.5c-0.5,0-0.9-0.2-1.3-0.5
		c-0.4-0.4-0.5-0.8-0.5-1.3c0-0.5,0.2-0.9,0.5-1.3c0.3-0.3,0.8-0.5,1.3-0.5c0.5,0,0.9,0.2,1.3,0.5c0.4,0.3,0.5,0.8,0.5,1.3
		C384.3,219.1,384.1,219.5,383.8,219.9z"/>
	<path id="Fill-42" class="st0" d="M401,233.6c-0.3,0.1-0.8,0.2-1.3,0.4c-1.2,0.3-2.2,0.5-3.2,0.7c-0.9,0.2-1.8,0.3-2.6,0.5
		c-0.6,0.1-1,0.3-1.3,0.6c-0.3,0.2-0.6,0.5-0.8,0.8c-0.2,0.3-0.3,0.6-0.4,0.8c-0.1,0.3-0.1,0.5-0.1,0.7c0,0.3,0.1,0.7,0.2,1.1
		c0.1,0.4,0.3,0.7,0.6,1c0.3,0.3,0.7,0.6,1.1,0.8c0.5,0.2,1.1,0.3,1.7,0.3c0.5,0,1.1-0.1,1.6-0.2c0.6-0.1,1.1-0.3,1.7-0.5
		c0.5-0.2,1-0.5,1.5-0.9c0.5-0.3,0.8-0.8,1.1-1.3c0.4-0.6,0.6-1.4,0.7-2.2c0.1-0.9,0.1-1.8,0.1-2.9
		C401.6,233.4,401.3,233.5,401,233.6 M401.2,241.5c-0.4,0.4-1,0.7-1.6,1c-0.6,0.3-1.4,0.6-2.2,0.9c-0.8,0.2-1.8,0.4-2.8,0.4
		c-1.1,0-2-0.2-2.8-0.5c-0.8-0.3-1.4-0.7-2-1.3c-0.5-0.5-0.9-1.1-1.2-1.8c-0.3-0.7-0.4-1.3-0.4-2c0-1.1,0.2-2,0.7-2.7
		c0.4-0.7,1-1.2,1.7-1.7c0.7-0.4,1.3-0.7,2.1-0.9c0.7-0.2,1.4-0.3,2-0.5c0.2,0,0.6-0.1,1.1-0.2c0.5-0.1,1.1-0.2,1.7-0.3
		c0.6-0.1,1.1-0.2,1.6-0.3c0.5-0.1,0.9-0.2,1.1-0.2c0.3-0.1,0.5-0.1,0.8-0.2c0.3-0.1,0.6-0.2,1-0.3c0-0.6-0.1-1.3-0.1-1.9
		c-0.1-0.6-0.2-1.1-0.5-1.6c-0.3-0.5-0.7-0.8-1.3-1.1c-0.6-0.3-1.4-0.4-2.5-0.4c-0.6,0-1.1,0-1.7,0.1c-0.6,0.1-1.1,0.2-1.6,0.4
		c-0.5,0.2-0.9,0.5-1.3,0.8c-0.4,0.3-0.7,0.8-0.9,1.3c-0.2,0.4-0.4,0.8-0.6,1.1c-0.2,0.3-0.6,0.5-1.1,0.5c-0.4,0-0.7-0.1-1-0.4
		c-0.3-0.3-0.4-0.6-0.4-1c0-0.3,0.1-0.7,0.3-1.3c0.2-0.6,0.6-1.2,1.2-1.7c0.6-0.6,1.4-1.1,2.5-1.5c1.1-0.4,2.5-0.7,4.3-0.7
		c1.9,0,3.3,0.2,4.4,0.6c1.1,0.4,1.9,1,2.4,1.7c0.5,0.7,0.9,1.6,1,2.5c0.1,1,0.2,2,0.2,3.1c0,0.2,0,0.7,0,1.2c0,0.6,0,1.2,0,1.8
		c0,0.6,0,1.2,0,1.8c0,0.6,0,0.9,0,1.2c0,0.9,0.1,1.6,0.2,2c0.1,0.5,0.2,0.9,0.4,1.2c0,0.1,0.1,0.3,0.2,0.7c0.1,0.4,0.2,0.7,0.2,1
		c0,0.3-0.2,0.6-0.5,0.9c-0.3,0.3-0.7,0.4-1.1,0.4c-0.3,0-0.6-0.1-0.8-0.3c-0.2-0.2-0.4-0.5-0.6-0.8c-0.2-0.3-0.3-0.7-0.4-1
		c-0.1-0.4-0.2-0.7-0.3-1.1C402,240.9,401.6,241.2,401.2,241.5"/>
	<path id="Fill-44" class="st0" d="M411.4,220.8c0-0.7,0-1.2,0-1.5c0-0.3,0.1-0.6,0.2-0.8c0.1-0.2,0.3-0.3,0.5-0.5
		c0.2-0.2,0.5-0.2,0.8-0.2c0.4,0,0.7,0.1,0.9,0.3c0.2,0.2,0.4,0.4,0.5,0.7c0.1,0.3,0.2,0.6,0.2,0.9c0,0.3,0,0.7,0,1v3.5h1.7
		c0.2,0,0.4,0,0.7,0c0.2,0,0.5,0.1,0.7,0.1c0.2,0.1,0.4,0.2,0.5,0.3c0.1,0.1,0.2,0.4,0.2,0.7c0,0.4-0.2,0.7-0.6,0.9
		c-0.4,0.2-0.8,0.3-1.3,0.3h-1.8v11.5c0,0.5,0,0.9,0,1.3c0,0.4,0.1,0.7,0.2,1c0.1,0.3,0.3,0.5,0.6,0.7c0.3,0.2,0.6,0.2,1.1,0.2
		c0.1,0,0.2,0,0.4,0c0.2,0,0.4,0,0.6-0.1c0.2,0,0.4,0,0.6-0.1c0.2,0,0.3,0,0.4,0c0.3,0,0.6,0.1,0.8,0.3c0.2,0.2,0.3,0.5,0.3,0.9
		c0,0.3-0.1,0.6-0.3,0.8c-0.2,0.2-0.4,0.4-0.8,0.5c-0.3,0.1-0.7,0.2-1.2,0.3c-0.4,0-0.9,0.1-1.4,0.1c-1.2,0-2-0.2-2.6-0.5
		c-0.6-0.4-1.1-0.8-1.4-1.3c-0.3-0.5-0.5-1.1-0.5-1.8c-0.1-0.7-0.1-1.3-0.1-1.9v-11.7h-1.2c-0.4,0-0.7-0.1-0.8-0.2
		c-0.2-0.1-0.3-0.2-0.4-0.4c-0.1-0.2-0.2-0.3-0.2-0.4c0-0.1,0-0.2,0-0.2c0-0.3,0.1-0.5,0.2-0.7c0.2-0.1,0.3-0.3,0.5-0.3
		c0.2-0.1,0.4-0.1,0.6-0.1c0.2,0,0.4,0,0.5,0h0.9V220.8z"/>
	<path id="Fill-46" class="st0" d="M425.1,241.2c0,0.5,0,0.9,0,1.1c0,0.2-0.1,0.4-0.1,0.5c-0.1,0.3-0.3,0.6-0.6,0.8
		c-0.3,0.2-0.6,0.3-0.9,0.3c-0.4,0-0.7-0.1-0.9-0.2c-0.2-0.2-0.4-0.4-0.5-0.6c-0.1-0.3-0.2-0.5-0.2-0.9c0-0.3,0-0.6,0-0.9v-14.9
		c0-0.6,0-1,0.1-1.3c0-0.3,0.2-0.6,0.4-0.8c0.3-0.3,0.7-0.5,1.2-0.5c0.4,0,0.7,0.1,0.9,0.2c0.2,0.2,0.3,0.3,0.5,0.5
		c0.1,0.2,0.2,0.5,0.2,0.9c0,0.4,0,0.7,0,1V241.2z M424.8,219.9c-0.4,0.4-0.8,0.5-1.3,0.5c-0.5,0-0.9-0.2-1.3-0.5
		c-0.4-0.4-0.5-0.8-0.5-1.3c0-0.5,0.2-0.9,0.5-1.3c0.3-0.3,0.8-0.5,1.3-0.5c0.5,0,0.9,0.2,1.3,0.5c0.4,0.3,0.5,0.8,0.5,1.3
		C425.3,219.1,425.1,219.5,424.8,219.9z"/>
	<path id="Fill-48" class="st0" d="M442.6,228.1c-1.1-1.3-2.5-2-4.2-2c-1.9,0-3.3,0.7-4.4,2.1c-1,1.4-1.5,3.2-1.5,5.5
		c0,2.3,0.5,4.2,1.6,5.5c1,1.4,2.5,2,4.3,2c1.9,0,3.3-0.7,4.3-2c1-1.4,1.5-3.2,1.5-5.5C444.2,231.3,443.7,229.5,442.6,228.1
		 M446.7,238.3c-0.5,1.3-1.2,2.3-2,3.1c-0.8,0.8-1.8,1.4-2.9,1.8c-1.1,0.4-2.3,0.6-3.5,0.6c-1.5,0-2.9-0.3-4-0.8
		c-1.1-0.5-2.1-1.2-2.9-2.1c-0.8-0.9-1.3-1.9-1.7-3.1c-0.4-1.2-0.6-2.4-0.6-3.7c0-3.4,0.8-6,2.4-7.8c1.6-1.8,3.8-2.7,6.7-2.7
		c1.2,0,2.4,0.2,3.5,0.6c1.1,0.4,2.1,1,2.9,1.8c0.8,0.8,1.5,1.9,2,3.1c0.5,1.3,0.7,2.8,0.7,4.6C447.5,235.5,447.2,237,446.7,238.3"
		/>
	<path id="Fill-50" class="st0" d="M467.7,241.2c0,0.5,0,1-0.1,1.4c0,0.4-0.2,0.6-0.4,0.8c-0.3,0.3-0.7,0.4-1.2,0.4
		c-0.5,0-0.9-0.1-1.2-0.4c-0.2-0.2-0.4-0.5-0.4-0.8c0-0.4-0.1-0.8-0.1-1.4V232c0-0.9-0.1-1.7-0.2-2.3c-0.1-0.6-0.2-1-0.4-1.4
		c-0.4-0.6-0.8-1.1-1.5-1.4c-0.6-0.3-1.3-0.5-2-0.5c-1,0-1.9,0.2-2.7,0.7c-0.8,0.5-1.5,1.1-2,2c-0.2,0.2-0.3,0.5-0.4,0.8
		c-0.1,0.3-0.2,0.6-0.3,1c-0.1,0.4-0.1,1-0.2,1.6c0,0.6-0.1,1.5-0.1,2.5v6.1c0,0.5,0,1-0.1,1.4c-0.1,0.4-0.2,0.6-0.4,0.8
		c-0.4,0.3-0.7,0.4-1.2,0.4c-0.4,0-0.8-0.1-1.2-0.4c-0.2-0.2-0.4-0.5-0.4-0.8c0-0.4-0.1-0.8-0.1-1.4v-15c0-0.5,0-1,0.1-1.3
		c0-0.3,0.2-0.6,0.4-0.8c0.1-0.1,0.3-0.2,0.5-0.3s0.4-0.1,0.7-0.1c0.3,0,0.6,0.1,0.8,0.2c0.2,0.2,0.4,0.3,0.5,0.5
		c0.1,0.1,0.1,0.3,0.2,0.4c0.1,0.1,0.1,0.3,0.1,0.5c0,0.2,0,0.4,0,0.7c0,0.3,0,0.6,0,1c0.3-0.3,0.6-0.7,0.9-1.1
		c0.4-0.4,0.8-0.7,1.3-1.1c0.5-0.3,1.1-0.6,1.7-0.8c0.7-0.2,1.4-0.3,2.3-0.3c1.2,0,2.2,0.2,3.1,0.6c0.9,0.4,1.7,1,2.3,1.8
		c0.3,0.4,0.6,0.8,0.8,1.2c0.2,0.4,0.3,0.9,0.4,1.4c0.1,0.5,0.1,0.9,0.1,1.3c0,0.4,0,0.8,0,1.1V241.2z"/>
	<path id="Fill-52" class="st0" d="M221.6,269.4c-1.1-1.3-2.5-2-4.2-2c-1.9,0-3.3,0.7-4.4,2.1c-1,1.4-1.5,3.2-1.5,5.5
		c0,2.3,0.5,4.2,1.5,5.5c1,1.4,2.5,2,4.3,2c1.9,0,3.3-0.7,4.3-2c1-1.4,1.5-3.2,1.5-5.5C223.2,272.6,222.6,270.7,221.6,269.4
		 M225.7,279.5c-0.5,1.3-1.2,2.3-2,3.1c-0.8,0.8-1.8,1.4-2.9,1.8c-1.1,0.4-2.3,0.6-3.5,0.6c-1.5,0-2.9-0.3-4-0.8
		c-1.1-0.5-2.1-1.2-2.9-2.1c-0.8-0.9-1.3-1.9-1.7-3.1c-0.4-1.2-0.6-2.4-0.6-3.7c0-3.4,0.8-6,2.4-7.8c1.6-1.8,3.8-2.7,6.7-2.7
		c1.2,0,2.4,0.2,3.5,0.6c1.1,0.4,2.1,1,2.9,1.8c0.8,0.8,1.5,1.9,2,3.1c0.5,1.3,0.7,2.8,0.7,4.6C226.4,276.7,226.2,278.3,225.7,279.5
		"/>
	<path id="Fill-54" class="st0" d="M231.4,263.5c0-1,0.1-1.8,0.2-2.5c0.1-0.7,0.3-1.2,0.6-1.6c0.3-0.4,0.6-0.7,1-1
		c0.4-0.3,0.8-0.5,1.2-0.6c0.4-0.1,0.8-0.2,1.2-0.3c0.4,0,0.8-0.1,1.1-0.1c0.6,0,1.1,0,1.6,0.1c0.5,0.1,0.9,0.2,1.1,0.3
		c0.1,0,0.3,0.2,0.5,0.3c0.2,0.2,0.3,0.4,0.3,0.8c0,0.3-0.1,0.6-0.3,0.9c-0.2,0.2-0.5,0.3-0.8,0.3c-0.1,0-0.2,0-0.4,0
		c-0.2,0-0.3,0-0.5-0.1c-0.2,0-0.4,0-0.5-0.1c-0.2,0-0.3,0-0.4,0c-0.7,0-1.2,0.1-1.5,0.3c-0.4,0.2-0.6,0.4-0.8,0.7
		c-0.2,0.3-0.3,0.7-0.4,1.2c-0.1,0.5-0.1,1-0.1,1.6v1.5h2c0.2,0,0.4,0,0.6,0c0.2,0,0.4,0.1,0.6,0.1c0.2,0.1,0.4,0.2,0.5,0.3
		c0.1,0.1,0.2,0.4,0.2,0.7s-0.1,0.5-0.2,0.7c-0.1,0.2-0.3,0.3-0.5,0.4c-0.2,0.1-0.4,0.1-0.7,0.1c-0.2,0-0.4,0-0.6,0h-2v14.7
		c0,0.5,0,1-0.1,1.4c-0.1,0.4-0.2,0.6-0.4,0.8c-0.1,0.1-0.3,0.2-0.5,0.3c-0.2,0.1-0.4,0.1-0.7,0.1c-0.5,0-0.9-0.1-1.2-0.4
		c-0.2-0.2-0.4-0.5-0.4-0.9c0-0.3-0.1-0.8-0.1-1.3v-14.7h-1.8c-0.1,0-0.2,0-0.4,0c-0.2,0-0.4-0.1-0.6-0.1c-0.2-0.1-0.4-0.2-0.5-0.4
		c-0.2-0.2-0.2-0.4-0.2-0.7s0.1-0.5,0.2-0.7c0.2-0.1,0.3-0.3,0.5-0.3c0.2-0.1,0.4-0.1,0.6-0.1c0.2,0,0.4,0,0.5,0h1.7V263.5z"/>
	<path id="Fill-56" class="st0" d="M258.1,274.6c0,0.6,0,1.3,0.1,2.1c0.1,0.9,0.3,1.7,0.8,2.5c0.4,0.8,1.1,1.5,2.1,2.1
		c1,0.6,2.3,0.9,4.1,0.9c1.6,0,2.8-0.2,3.8-0.7c0.9-0.5,1.6-1.1,2.1-1.9c0.5-0.8,0.8-1.6,0.9-2.5c0.1-0.9,0.2-1.7,0.2-2.4v-14.2
		c0-0.6,0-1.1,0.1-1.5c0-0.4,0.2-0.7,0.4-0.9c0.1-0.1,0.3-0.2,0.5-0.4c0.2-0.1,0.5-0.2,0.8-0.2c0.5,0,1,0.2,1.3,0.6
		c0.2,0.2,0.4,0.6,0.4,0.9c0,0.4,0.1,0.9,0.1,1.5v13.8c0,1.4-0.2,2.7-0.5,4c-0.3,1.3-0.8,2.4-1.6,3.4c-0.8,1-1.8,1.8-3.2,2.4
		c-1.3,0.6-3,0.9-5.1,0.9c-1.8,0-3.4-0.2-4.7-0.6c-1.4-0.4-2.5-1-3.4-1.8c-0.9-0.8-1.6-1.9-2.1-3.3c-0.5-1.4-0.7-3-0.7-5v-13.9
		c0-0.6,0-1.1,0.1-1.5c0-0.4,0.2-0.7,0.4-0.9c0.1-0.1,0.3-0.2,0.5-0.4c0.2-0.1,0.5-0.2,0.8-0.2c0.5,0,1,0.2,1.3,0.6
		c0.3,0.2,0.4,0.6,0.4,0.9c0,0.4,0.1,0.9,0.1,1.5V274.6z"/>
	<path id="Fill-58" class="st0" d="M297.7,258.6c0.5-0.5,0.8-0.8,1-0.9c0.2-0.1,0.5-0.2,0.8-0.2c0.5,0,0.9,0.2,1.2,0.5
		c0.3,0.3,0.5,0.7,0.5,1c0,0.2-0.1,0.4-0.2,0.7c-0.1,0.2-0.4,0.6-0.9,1.1l-8.6,7.9l9.6,12.5c0.2,0.2,0.4,0.5,0.7,0.9
		c0.3,0.4,0.5,0.9,0.5,1.3c0,0.5-0.2,0.9-0.5,1.2c-0.4,0.3-0.8,0.4-1.3,0.4c-0.3,0-0.5,0-0.6-0.1c-0.2-0.1-0.3-0.2-0.5-0.3
		c-0.2-0.1-0.4-0.3-0.5-0.6c-0.2-0.2-0.4-0.5-0.7-0.9l-8.9-12.2l-4.7,4.3v7.6c0,0.4-0.1,0.8-0.2,1.1c-0.1,0.3-0.3,0.5-0.4,0.7
		c-0.2,0.2-0.4,0.3-0.6,0.3c-0.2,0.1-0.4,0.1-0.6,0.1c-0.5,0-1-0.2-1.4-0.6c-0.2-0.2-0.4-0.5-0.4-0.9c0-0.4-0.1-0.9-0.1-1.5v-21.7
		c0-0.6,0-1.1,0.1-1.5c0-0.4,0.2-0.7,0.5-0.9c0.1-0.1,0.3-0.2,0.5-0.4c0.2-0.1,0.5-0.2,0.8-0.2c0.5,0,0.9,0.2,1.3,0.5
		c0.3,0.2,0.4,0.5,0.5,0.9c0,0.4,0.1,0.9,0.1,1.5v10.8L297.7,258.6z"/>
	<path id="Fill-60" class="st0" d="M320.4,281.7h5.5c0.9,0,1.6,0,2.3-0.1c0.7-0.1,1.3-0.2,1.9-0.4c0.6-0.2,1.1-0.5,1.6-0.8
		c0.5-0.3,1-0.8,1.4-1.3c0.6-0.6,1-1.4,1.3-2.2c0.3-0.8,0.5-1.6,0.6-2.3c0.1-0.8,0.2-1.4,0.2-2c0-0.6,0-1,0-1.1
		c0-1.8-0.2-3.4-0.7-4.7c-0.4-1.4-0.9-2.4-1.5-3.2c-0.4-0.5-0.8-1-1.3-1.3c-0.4-0.3-0.9-0.6-1.5-0.8c-0.6-0.2-1.2-0.4-2-0.4
		c-0.7-0.1-1.6-0.1-2.6-0.1h-5.3V281.7z M319.8,284.6c-0.7,0-1.3,0-1.7-0.1c-0.4-0.1-0.7-0.2-0.9-0.5c-0.2-0.2-0.3-0.6-0.4-1
		c0-0.4-0.1-1-0.1-1.8v-20.2c0-0.7,0-1.2,0.1-1.6c0.1-0.4,0.2-0.7,0.4-0.9c0.2-0.2,0.5-0.3,0.9-0.4c0.4-0.1,0.9-0.1,1.6-0.1h6.5
		c0.7,0,1.5,0,2.3,0.1c0.8,0,1.6,0.2,2.5,0.4s1.7,0.6,2.5,1.1c0.8,0.5,1.6,1.2,2.3,2c1.1,1.3,1.9,2.9,2.3,4.5
		c0.4,1.7,0.6,3.4,0.6,5.2c0,0.9-0.1,1.8-0.2,2.9c-0.1,1-0.4,2.1-0.7,3.1c-0.3,1-0.8,2-1.4,3c-0.6,1-1.4,1.8-2.4,2.5
		c-0.7,0.4-1.3,0.8-2,1.1c-0.7,0.3-1.4,0.5-2.1,0.6c-0.7,0.1-1.3,0.2-2,0.2c-0.6,0-1.2,0-1.7,0H319.8z"/>
	<path id="Fill-62" class="st0" d="M346.7,282.4c0,0.5,0,0.9,0,1.1c0,0.2-0.1,0.4-0.1,0.5c-0.1,0.3-0.3,0.6-0.6,0.8
		c-0.3,0.2-0.6,0.3-0.9,0.3c-0.4,0-0.7-0.1-0.9-0.2c-0.2-0.2-0.4-0.4-0.5-0.6c-0.1-0.3-0.2-0.5-0.2-0.9c0-0.3,0-0.6,0-0.9v-14.9
		c0-0.6,0-1,0.1-1.3c0.1-0.3,0.2-0.6,0.4-0.8c0.3-0.3,0.7-0.5,1.2-0.5c0.4,0,0.7,0.1,0.9,0.2c0.2,0.1,0.3,0.3,0.5,0.5
		c0.1,0.2,0.2,0.5,0.2,0.9c0,0.4,0,0.7,0,1V282.4z M346.4,261.1c-0.4,0.4-0.8,0.5-1.3,0.5c-0.5,0-0.9-0.2-1.3-0.5
		c-0.3-0.4-0.5-0.8-0.5-1.3c0-0.5,0.2-0.9,0.5-1.3c0.4-0.3,0.8-0.5,1.3-0.5c0.5,0,0.9,0.2,1.3,0.5c0.3,0.3,0.5,0.8,0.5,1.3
		C346.9,260.4,346.7,260.8,346.4,261.1z"/>
	<path id="Fill-64" class="st0" d="M365.5,273.4c-0.1-0.5-0.1-1.1-0.2-1.7c-0.1-0.6-0.3-1.2-0.8-2c-0.4-0.7-1-1.3-1.8-1.8
		c-0.8-0.5-1.7-0.7-2.7-0.7c-0.7,0-1.2,0.1-1.7,0.3c-0.5,0.2-1,0.4-1.4,0.7c-0.4,0.3-0.7,0.6-1,0.9c-0.3,0.3-0.5,0.7-0.7,1
		c-0.3,0.6-0.5,1.1-0.7,1.7c-0.1,0.6-0.2,1.1-0.2,1.5H365.5z M354.2,275.6c0,1.3,0.2,2.4,0.6,3.3c0.3,0.9,0.8,1.6,1.4,2.2
		c0.6,0.6,1.2,1,1.9,1.2c0.7,0.2,1.5,0.4,2.2,0.4c0.8,0,1.5-0.1,2-0.3c0.6-0.2,1.1-0.5,1.5-0.8c0.4-0.3,0.8-0.7,1.1-1.1
		c0.3-0.4,0.6-0.8,0.9-1.3c0.1-0.2,0.3-0.4,0.5-0.6c0.2-0.2,0.5-0.4,0.9-0.4c0.4,0,0.6,0.1,0.9,0.4c0.2,0.2,0.4,0.5,0.4,0.9
		c0,0.3-0.1,0.6-0.2,0.9c-0.1,0.3-0.3,0.6-0.4,0.8c-0.2,0.3-0.5,0.7-0.9,1.2c-0.4,0.4-0.8,0.9-1.4,1.3c-0.6,0.4-1.3,0.7-2.2,1
		c-0.9,0.3-1.9,0.4-3.1,0.4c-1.6,0-3-0.3-4.2-0.8c-1.2-0.5-2.1-1.2-2.9-2.1c-0.7-0.9-1.3-2-1.7-3.2c-0.4-1.2-0.5-2.6-0.5-4
		c0-1.4,0.2-2.7,0.6-3.9c0.4-1.2,0.9-2.3,1.7-3.2c0.8-0.9,1.7-1.6,2.8-2.1c1.1-0.5,2.5-0.8,4.1-0.8c1.3,0,2.4,0.2,3.3,0.5
		c0.9,0.3,1.7,0.8,2.4,1.3c0.6,0.5,1.2,1.2,1.6,1.8c0.4,0.7,0.7,1.3,0.9,2c0.2,0.6,0.4,1.2,0.4,1.8c0.1,0.5,0.1,0.9,0.1,1.2
		c0,0.5-0.1,0.9-0.3,1.2c-0.2,0.3-0.4,0.5-0.7,0.6c-0.3,0.1-0.6,0.2-0.9,0.2c-0.3,0-0.7,0-1,0H354.2z"/>
	<path id="Fill-66" class="st0" d="M373.4,262.1c0-0.7,0-1.2,0-1.5c0-0.3,0.1-0.6,0.2-0.8c0.1-0.2,0.3-0.3,0.5-0.5
		c0.2-0.2,0.5-0.2,0.8-0.2c0.4,0,0.7,0.1,0.9,0.3c0.2,0.2,0.4,0.4,0.5,0.7c0.1,0.3,0.2,0.6,0.2,0.9c0,0.3,0,0.7,0,1v3.5h1.7
		c0.2,0,0.4,0,0.7,0c0.2,0,0.5,0.1,0.7,0.1c0.2,0.1,0.4,0.2,0.5,0.3c0.1,0.2,0.2,0.4,0.2,0.7c0,0.4-0.2,0.7-0.6,0.9
		c-0.4,0.2-0.8,0.3-1.3,0.3h-1.8v11.5c0,0.5,0,0.9,0,1.3c0,0.4,0.1,0.7,0.2,1c0.1,0.3,0.3,0.5,0.6,0.7c0.3,0.2,0.6,0.2,1.1,0.2
		c0.1,0,0.2,0,0.4,0c0.2,0,0.4-0.1,0.6-0.1c0.2,0,0.4,0,0.6-0.1c0.2,0,0.3,0,0.4,0c0.3,0,0.6,0.1,0.8,0.3c0.2,0.2,0.3,0.5,0.3,0.9
		c0,0.3-0.1,0.6-0.3,0.8c-0.2,0.2-0.4,0.4-0.8,0.5c-0.3,0.1-0.7,0.2-1.2,0.3c-0.4,0.1-0.9,0.1-1.4,0.1c-1.2,0-2-0.2-2.6-0.5
		c-0.6-0.4-1.1-0.8-1.4-1.3s-0.5-1.1-0.5-1.8c-0.1-0.7-0.1-1.3-0.1-1.9v-11.7h-1.2c-0.4,0-0.7-0.1-0.8-0.2c-0.2-0.1-0.3-0.2-0.4-0.4
		c-0.1-0.2-0.2-0.3-0.2-0.4c0-0.1,0-0.2,0-0.2c0-0.3,0.1-0.5,0.2-0.7c0.1-0.1,0.3-0.3,0.5-0.3c0.2-0.1,0.4-0.1,0.6-0.1
		c0.2,0,0.4,0,0.5,0h0.9V262.1z"/>
	<path id="Fill-68" class="st0" d="M387.1,282.4c0,0.5,0,0.9,0,1.1c0,0.2-0.1,0.4-0.1,0.5c-0.1,0.3-0.3,0.6-0.6,0.8
		c-0.3,0.2-0.6,0.3-0.9,0.3c-0.4,0-0.7-0.1-0.9-0.2c-0.2-0.2-0.4-0.4-0.5-0.6c-0.1-0.3-0.2-0.5-0.2-0.9c0-0.3,0-0.6,0-0.9v-14.9
		c0-0.6,0-1,0.1-1.3c0-0.3,0.2-0.6,0.4-0.8c0.3-0.3,0.7-0.5,1.2-0.5c0.4,0,0.7,0.1,0.9,0.2c0.2,0.1,0.3,0.3,0.5,0.5
		c0.1,0.2,0.2,0.5,0.2,0.9c0,0.4,0,0.7,0,1V282.4z M386.8,261.1c-0.4,0.4-0.8,0.5-1.3,0.5c-0.5,0-0.9-0.2-1.3-0.5
		c-0.4-0.4-0.5-0.8-0.5-1.3c0-0.5,0.2-0.9,0.5-1.3c0.3-0.3,0.8-0.5,1.3-0.5c0.5,0,0.9,0.2,1.3,0.5c0.4,0.3,0.5,0.8,0.5,1.3
		C387.3,260.4,387.1,260.8,386.8,261.1z"/>
	<path id="Fill-70" class="st0" d="M393,262.1c0-0.7,0-1.2,0-1.5c0-0.3,0.1-0.6,0.2-0.8c0.1-0.2,0.3-0.3,0.5-0.5
		c0.2-0.2,0.5-0.2,0.8-0.2c0.4,0,0.7,0.1,0.9,0.3c0.2,0.2,0.4,0.4,0.5,0.7c0.1,0.3,0.2,0.6,0.2,0.9c0,0.3,0,0.7,0,1v3.5h1.7
		c0.2,0,0.4,0,0.7,0c0.2,0,0.5,0.1,0.7,0.1c0.2,0.1,0.4,0.2,0.5,0.3c0.1,0.2,0.2,0.4,0.2,0.7c0,0.4-0.2,0.7-0.6,0.9
		c-0.4,0.2-0.8,0.3-1.3,0.3h-1.8v11.5c0,0.5,0,0.9,0,1.3c0,0.4,0.1,0.7,0.2,1c0.1,0.3,0.3,0.5,0.6,0.7c0.3,0.2,0.6,0.2,1.1,0.2
		c0.1,0,0.2,0,0.4,0c0.2,0,0.4-0.1,0.6-0.1c0.2,0,0.4,0,0.6-0.1c0.2,0,0.3,0,0.4,0c0.3,0,0.6,0.1,0.8,0.3c0.2,0.2,0.3,0.5,0.3,0.9
		c0,0.3-0.1,0.6-0.3,0.8c-0.2,0.2-0.5,0.4-0.8,0.5c-0.3,0.1-0.7,0.2-1.2,0.3c-0.5,0.1-0.9,0.1-1.4,0.1c-1.2,0-2-0.2-2.6-0.5
		c-0.6-0.4-1.1-0.8-1.4-1.3c-0.3-0.5-0.5-1.1-0.5-1.8c-0.1-0.7-0.1-1.3-0.1-1.9v-11.7h-1.2c-0.4,0-0.7-0.1-0.8-0.2
		c-0.2-0.1-0.3-0.2-0.4-0.4c-0.1-0.2-0.2-0.3-0.2-0.4c0-0.1,0-0.2,0-0.2c0-0.3,0.1-0.5,0.2-0.7c0.2-0.1,0.3-0.3,0.5-0.3
		c0.2-0.1,0.4-0.1,0.6-0.1c0.2,0,0.4,0,0.4,0h0.9V262.1z"/>
	<path id="Fill-72" class="st0" d="M406.7,282.4c0,0.5,0,0.9,0,1.1c0,0.2-0.1,0.4-0.1,0.5c-0.1,0.3-0.3,0.6-0.6,0.8
		c-0.3,0.2-0.6,0.3-0.9,0.3c-0.4,0-0.7-0.1-0.9-0.2c-0.2-0.2-0.4-0.4-0.5-0.6c-0.1-0.3-0.2-0.5-0.2-0.9c0-0.3,0-0.6,0-0.9v-14.9
		c0-0.6,0-1,0.1-1.3c0.1-0.3,0.2-0.6,0.4-0.8c0.3-0.3,0.7-0.5,1.2-0.5c0.4,0,0.7,0.1,0.9,0.2c0.2,0.1,0.3,0.3,0.5,0.5
		c0.1,0.2,0.2,0.5,0.2,0.9c0,0.4,0,0.7,0,1V282.4z M406.4,261.1c-0.4,0.4-0.8,0.5-1.3,0.5c-0.5,0-0.9-0.2-1.3-0.5
		c-0.3-0.4-0.5-0.8-0.5-1.3c0-0.5,0.2-0.9,0.5-1.3c0.4-0.3,0.8-0.5,1.3-0.5c0.5,0,0.9,0.2,1.3,0.5c0.3,0.3,0.5,0.8,0.5,1.3
		C406.9,260.4,406.7,260.8,406.4,261.1z"/>
	<path id="Fill-74" class="st0" d="M423.6,274.9c-0.4,0.1-0.8,0.2-1.3,0.4c-1.2,0.3-2.2,0.5-3.2,0.7c-0.9,0.2-1.8,0.3-2.6,0.5
		c-0.6,0.1-1,0.3-1.3,0.6c-0.3,0.2-0.6,0.5-0.8,0.8c-0.2,0.3-0.3,0.6-0.4,0.8c-0.1,0.3-0.1,0.5-0.1,0.7c0,0.3,0.1,0.7,0.2,1.1
		c0.1,0.4,0.3,0.7,0.6,1c0.3,0.3,0.7,0.6,1.1,0.8c0.5,0.2,1,0.3,1.7,0.3c0.5,0,1.1-0.1,1.6-0.2c0.6-0.1,1.1-0.3,1.7-0.5
		c0.5-0.2,1-0.5,1.5-0.9c0.4-0.3,0.8-0.8,1.1-1.3c0.4-0.6,0.6-1.4,0.7-2.2c0.1-0.9,0.1-1.8,0.1-2.9
		C424.2,274.6,423.9,274.8,423.6,274.9 M423.8,282.8c-0.4,0.4-1,0.7-1.6,1c-0.6,0.3-1.4,0.6-2.2,0.9c-0.8,0.2-1.8,0.4-2.8,0.4
		c-1.1,0-2-0.2-2.8-0.5c-0.8-0.3-1.4-0.7-2-1.3c-0.5-0.5-0.9-1.1-1.2-1.8c-0.3-0.7-0.4-1.3-0.4-2c0-1.1,0.2-2,0.7-2.7
		c0.5-0.7,1-1.2,1.7-1.7c0.7-0.4,1.3-0.7,2.1-0.9c0.7-0.2,1.4-0.3,2-0.5c0.2,0,0.6-0.1,1.1-0.2c0.5-0.1,1.1-0.2,1.6-0.3
		c0.6-0.1,1.1-0.2,1.6-0.3c0.5-0.1,0.9-0.2,1.1-0.2c0.3-0.1,0.5-0.1,0.8-0.2c0.3-0.1,0.6-0.2,1-0.3c0-0.6-0.1-1.3-0.1-1.9
		c-0.1-0.6-0.2-1.1-0.5-1.6c-0.3-0.5-0.7-0.8-1.3-1.1c-0.6-0.3-1.4-0.4-2.5-0.4c-0.6,0-1.1,0-1.7,0.1c-0.6,0.1-1.1,0.2-1.6,0.4
		c-0.5,0.2-0.9,0.5-1.3,0.8c-0.4,0.3-0.7,0.8-0.9,1.3c-0.2,0.4-0.4,0.8-0.6,1.1c-0.2,0.3-0.6,0.5-1,0.5c-0.4,0-0.7-0.1-1-0.4
		c-0.3-0.3-0.4-0.6-0.4-1c0-0.3,0.1-0.7,0.3-1.3c0.2-0.6,0.6-1.2,1.2-1.7c0.6-0.6,1.4-1.1,2.5-1.5c1.1-0.4,2.5-0.7,4.3-0.7
		c1.9,0,3.3,0.2,4.4,0.6c1.1,0.4,1.9,1,2.4,1.7c0.5,0.7,0.9,1.6,1,2.5c0.1,1,0.2,2,0.2,3.1c0,0.2,0,0.7,0,1.2c0,0.6,0,1.2,0,1.8
		c0,0.6,0,1.2,0,1.8c0,0.6,0,0.9,0,1.2c0,0.9,0.1,1.6,0.2,2c0.1,0.5,0.2,0.9,0.4,1.2c0,0.1,0.1,0.3,0.2,0.7c0.1,0.4,0.2,0.7,0.2,1
		c0,0.3-0.2,0.6-0.5,0.9c-0.3,0.3-0.7,0.4-1.1,0.4c-0.3,0-0.6-0.1-0.8-0.3c-0.2-0.2-0.4-0.5-0.6-0.8c-0.2-0.3-0.3-0.7-0.4-1
		c-0.1-0.4-0.2-0.7-0.3-1.1C424.6,282.1,424.2,282.4,423.8,282.8"/>
	<path id="Fill-76" class="st0" d="M448.9,282.4c0,0.5,0,1-0.1,1.4c0,0.4-0.2,0.6-0.4,0.8c-0.3,0.3-0.7,0.4-1.2,0.4
		c-0.5,0-0.9-0.1-1.2-0.4c-0.2-0.2-0.4-0.5-0.4-0.8c0-0.4-0.1-0.8-0.1-1.4v-9.2c0-0.9-0.1-1.7-0.2-2.3c-0.1-0.6-0.2-1-0.4-1.4
		c-0.4-0.6-0.8-1.1-1.5-1.4c-0.6-0.3-1.3-0.5-2-0.5c-1,0-1.9,0.2-2.7,0.7c-0.9,0.5-1.5,1.1-2,2c-0.2,0.2-0.3,0.5-0.4,0.8
		c-0.1,0.3-0.2,0.6-0.3,1c-0.1,0.4-0.1,1-0.2,1.6c0,0.6-0.1,1.5-0.1,2.5v6.1c0,0.5,0,1-0.1,1.4c-0.1,0.4-0.2,0.6-0.4,0.8
		c-0.3,0.3-0.7,0.4-1.2,0.4c-0.4,0-0.8-0.1-1.2-0.4c-0.2-0.2-0.4-0.5-0.4-0.8c0-0.4-0.1-0.8-0.1-1.4v-15c0-0.5,0-1,0.1-1.3
		c0-0.3,0.2-0.6,0.4-0.8c0.1-0.1,0.3-0.2,0.5-0.3c0.2-0.1,0.4-0.1,0.7-0.1c0.3,0,0.6,0.1,0.8,0.2c0.2,0.1,0.4,0.3,0.5,0.5
		c0.1,0.1,0.1,0.3,0.2,0.4c0,0.1,0.1,0.3,0.1,0.5c0,0.2,0,0.4,0,0.7c0,0.3,0,0.6,0,1c0.3-0.3,0.5-0.7,0.9-1.1
		c0.3-0.4,0.8-0.7,1.3-1.1c0.5-0.3,1.1-0.6,1.7-0.8c0.7-0.2,1.4-0.3,2.3-0.3c1.2,0,2.2,0.2,3.1,0.6c0.9,0.4,1.7,1,2.3,1.8
		c0.3,0.4,0.6,0.8,0.8,1.2c0.2,0.4,0.3,0.9,0.4,1.4c0.1,0.5,0.1,0.9,0.1,1.3c0,0.4,0,0.8,0,1.1V282.4z"/>
	<path id="Fill-78" class="st0" d="M468.4,280.6c-0.2,0.7-0.5,1.3-1.1,2c-0.6,0.7-1.4,1.2-2.5,1.7c-1.1,0.5-2.5,0.7-4.4,0.7
		c-1.5,0-2.7-0.2-3.7-0.5c-1-0.3-1.8-0.9-2.5-1.5c-0.4-0.4-0.7-0.8-1.1-1.4c-0.4-0.6-0.5-1.2-0.5-1.9c0-0.3,0.1-0.7,0.4-0.9
		c0.3-0.3,0.6-0.4,1-0.4c0.4,0,0.7,0.1,1,0.4c0.2,0.3,0.4,0.5,0.5,0.9c0.4,0.9,0.9,1.6,1.7,2.2c0.8,0.6,1.9,0.9,3.4,0.9
		c1.5,0,2.6-0.3,3.4-0.9c0.8-0.6,1.1-1.3,1.1-2.1c0-0.6-0.1-1.1-0.4-1.5c-0.3-0.4-0.6-0.7-1.1-1c-0.4-0.3-0.9-0.5-1.4-0.6
		c-0.5-0.1-1-0.3-1.5-0.4c-1-0.2-1.8-0.5-2.5-0.7c-0.7-0.2-1.2-0.4-1.7-0.6c-0.5-0.2-0.8-0.3-1.1-0.5c-0.3-0.2-0.6-0.4-0.8-0.6
		c-0.4-0.4-0.8-0.8-1.2-1.4c-0.3-0.6-0.5-1.3-0.5-2c0-0.9,0.2-1.7,0.7-2.6c0.5-0.8,1.2-1.5,2.1-2c0.6-0.3,1.2-0.5,1.9-0.7
		c0.7-0.2,1.6-0.2,2.5-0.2c1.6,0,2.9,0.2,3.8,0.6c1,0.4,1.7,0.9,2.2,1.4c0.5,0.5,0.9,1.1,1,1.6c0.2,0.5,0.3,0.9,0.3,1
		c0,0.1,0,0.2,0,0.3c0,0.1-0.1,0.3-0.2,0.4c-0.1,0.1-0.2,0.3-0.4,0.4c-0.2,0.1-0.4,0.2-0.7,0.2c-0.5,0-0.8-0.1-1-0.3
		c-0.2-0.2-0.4-0.6-0.7-1.1c-0.3-0.6-0.8-1.1-1.4-1.6c-0.7-0.4-1.6-0.7-2.9-0.7c-1.2,0-2.2,0.2-3,0.7c-0.8,0.5-1.2,1.1-1.2,2
		c0,0.4,0.1,0.7,0.2,1c0.2,0.3,0.5,0.6,0.9,0.9c0.4,0.3,1,0.5,1.7,0.8c0.7,0.2,1.7,0.5,2.8,0.7c0.8,0.1,1.5,0.3,2.3,0.6
		c0.8,0.2,1.6,0.6,2.3,1c0.7,0.4,1.3,1,1.7,1.6c0.5,0.7,0.7,1.5,0.7,2.5C468.7,279.4,468.6,279.9,468.4,280.6"/>
</g>
</svg>
