<svg xmlns="http://www.w3.org/2000/svg" xmlns:xlink="http://www.w3.org/1999/xlink" fill="none" preserveAspectRatio="xMidYMid meet" style="fill: none;" version="1.0" viewBox="2.0 0.0 19.5 24.0" zoomAndPan="magnify" original_string_length="742"><g clip-path="url(#__id22_s4zwn6rtj)" id="__id21_s4zwn6rtj"><path d="M20.9,2H3.1A1.1,1.1,0,0,0,2,3.1V20.9A1.1,1.1,0,0,0,3.1,22h9.58V14.25h-2.6v-3h2.6V9a3.64,3.64,0,0,1,3.88-4,20.26,20.26,0,0,1,2.33.12v2.7H17.3c-1.26,0-1.5.6-1.5,1.47v1.93h3l-.39,3H15.8V22h5.1A1.1,1.1,0,0,0,22,20.9V3.1A1.1,1.1,0,0,0,20.9,2Z" style="fill: rgb(216, 164, 162);"/></g><defs><clipPath id="__id22_s4zwn6rtj"><path d="M0 0H24V24H0z" style="fill: rgb(216, 164, 162);"/></clipPath></defs></svg>