<svg xmlns="http://www.w3.org/2000/svg" xmlns:xlink="http://www.w3.org/1999/xlink" fill="none" preserveAspectRatio="xMidYMid meet" style="fill: none;" version="1.0" viewBox="0.5 0.5 519.0 519.0" zoomAndPan="magnify" original_string_length="2080"><g clip-path="url(#__id7_s4zwn6rtj)" id="__id6_s4zwn6rtj" style="fill: rgb(216, 164, 162);"><path d="M398.574 519.5H121.425C54.747 519.5 0.5 465.253 0.5 398.574V121.425C0.5 54.747 54.747 0.5 121.425 0.5H398.574C465.253 0.5 519.5 54.747 519.5 121.425V398.574C519.5 465.253 465.253 519.5 398.574 519.5ZM121.425 20.5C65.775 20.5 20.5 65.775 20.5 121.425V398.574C20.5 454.223 65.775 499.5 121.425 499.5H398.574C454.223 499.5 499.5 454.225 499.5 398.574V121.425C499.5 65.775 454.225 20.5 398.574 20.5H121.425Z" style="fill: inherit;"/><path d="M369.74 467.58H150.26C96.3109 467.58 52.4199 423.689 52.4199 369.74V197H155.061V217H72.4199V369.74C72.4199 412.661 107.339 447.58 150.26 447.58H369.74C412.661 447.58 447.58 412.661 447.58 369.74V217H364.94V197H467.58V369.74C467.58 423.689 423.689 467.58 369.74 467.58Z" style="fill: inherit;"/><path d="M260 373.385C191.965 373.385 136.615 318.034 136.615 250C136.615 181.965 191.965 126.615 260 126.615C328.034 126.615 383.385 181.965 383.385 250C383.385 318.034 328.034 373.385 260 373.385ZM260 146.615C202.994 146.615 156.615 192.993 156.615 250C156.615 307.007 202.993 353.385 260 353.385C317.007 353.385 363.385 307.007 363.385 250C363.385 192.994 317.007 146.615 260 146.615Z" style="fill: inherit;"/><path d="M424.473 129.422C405.323 129.422 389.742 113.841 389.742 94.69C389.742 75.539 405.323 59.958 424.473 59.958C443.623 59.958 459.203 75.539 459.203 94.69C459.203 113.841 443.623 129.422 424.473 129.422ZM424.473 79.957C416.35 79.957 409.742 86.566 409.742 94.689C409.742 102.812 416.35 109.421 424.473 109.421C432.595 109.421 439.203 102.812 439.203 94.689C439.203 86.566 432.595 79.957 424.473 79.957Z" style="fill: inherit;"/></g><defs><clipPath id="__id7_s4zwn6rtj"><path d="M0 0H520V520H0z" style="fill: rgb(255, 255, 255);"/></clipPath></defs></svg>