<svg xmlns="http://www.w3.org/2000/svg" xmlns:xlink="http://www.w3.org/1999/xlink" data-name="レイヤー 1" preserveAspectRatio="xMidYMid meet" version="1.0" viewBox="0.0 0.0 364.3 260.1" zoomAndPan="magnify" style="fill: rgb(0, 0, 0);" original_string_length="1468"><g id="__id3_s4zwn6rtj" style="fill: rgb(49, 36, 30);"><path d="m352.39,257.62H11.93c-5.01,0-9.08-4.07-9.08-9.08V11.58C2.85,6.57,6.92,2.5,11.93,2.5h340.46c5.01,0,9.08,4.07,9.08,9.08v236.96c0,5.01-4.07,9.08-9.08,9.08ZM11.93,6.5c-2.8,0-5.08,2.28-5.08,5.08v236.96c0,2.8,2.28,5.08,5.08,5.08h340.46c2.8,0,5.08-2.28,5.08-5.08V11.58c0-2.8-2.28-5.08-5.08-5.08H11.93Z" style="fill: inherit;"/><path d="m352.39,260.12H11.93c-6.39,0-11.58-5.2-11.58-11.58V11.58C.35,5.2,5.54,0,11.93,0h340.46c6.39,0,11.58,5.2,11.58,11.58v236.96c0,6.39-5.2,11.58-11.58,11.58ZM11.93,9c-1.42,0-2.58,1.16-2.58,2.58v236.96c0,1.42,1.16,2.58,2.58,2.58h340.46c1.42,0,2.58-1.16,2.58-2.58V11.58c0-1.42-1.16-2.58-2.58-2.58H11.93Z" style="fill: inherit;"/></g><g id="__id4_s4zwn6rtj" style="fill: rgb(49, 36, 30);"><path d="m182.16,166.38c-2.54,0-5.08-.89-7.1-2.66L3.53,13.38l2.64-3.01,171.53,150.34c2.55,2.23,6.38,2.23,8.93,0L358.15,10.37l2.64,3.01-171.53,150.34c-2.02,1.77-4.56,2.66-7.1,2.66Z" style="fill: inherit;"/><path d="m182.16,168.88c-3.23,0-6.33-1.17-8.75-3.28L0,13.61l5.93-6.77,173.41,151.99c1.61,1.41,4.03,1.41,5.64,0L358.38,6.84l5.93,6.77-173.41,151.99c-2.41,2.12-5.52,3.28-8.75,3.28Z" style="fill: inherit;"/></g></svg>