<svg xmlns="http://www.w3.org/2000/svg" xmlns:xlink="http://www.w3.org/1999/xlink" fill="none" preserveAspectRatio="xMidYMid meet" style="fill: none;" version="1.0" viewBox="2.0 0.0 19.5 24.0" zoomAndPan="magnify" original_string_length="742"><g clip-path="url(#__id22_s4zwn6rtj)" id="__id21_s4zwn6rtj"><path d="M21,2H3A1,1,0,0,0,2,3V21a1,1,0,0,0,1,1H21a1,1,0,0,0,1-1V3A1,1,0,0,0,21,2Zm-3.281,8.725h0c-.109.011-.219.016-.328.017A3.571,3.571,0,0,1,14.4,9.129v5.493a4.061,4.061,0,1,1-4.06-4.06c.085,0,.167.008.251.013v2a2.067,2.067,0,1,0-.251,4.119A2.123,2.123,0,0,0,12.5,14.649l.02-9.331h1.914A3.564,3.564,0,0,0,17.719,8.5Z" style="fill: rgb(216, 164, 162);"/></g><defs><clipPath id="__id22_s4zwn6rtj"><path d="M0 0H24V24H0z" style="fill: rgb(216, 164, 162);"/></clipPath></defs></svg>